<svg xmlns="http://www.w3.org/2000/svg" width="43" height="42">
  <path d="M21.389 42.001C33.757 42.001 43 32.414 43 20.84 43 7.55 32.147.288 22.455.011c-5.131-.145-9.29 1.117-12.48 3.789 3.308-1.391 6.196-2.087 8.666-2.087 10.25 0 14.848 7.08 15.952 9.974 3.107 8.147-2.908 14.253-7.742 14.414-4.835.16-9.096-2.1-9.096-7.411 0-1.485.653-2.989 1.958-4.512-2.132.035-3.691.92-4.676 2.657-.986 1.736-1.261 3.68-.828 5.832-1.193-3.693-.98-7.074.64-10.143 1.619-3.07 3.975-5.359 7.067-6.869-5.264-2.106-10.061-1.23-14.391 2.627-1.489 1.326-2.761 3.236-3.818 5.73.056-.809.24-1.68.551-2.613.863-2.583 1.493-3.77 1.44-3.73C1.55 10.88 0 16.241 0 20.841c0 13.863 11.389 21.16 21.389 21.16z"/>
</svg>
