<?xml version="1.0" encoding="UTF-8"?>
<svg width="43" height="43" xmlns="http://www.w3.org/2000/svg" xmlns:xlink="http://www.w3.org/1999/xlink">
<defs><path d="M7.645 34.689a.9.9 0 0 1-.308-.241c-.43-.462-.425-.88-.185-1.258a1.436 1.436 0 0 1-.541-1.122v-.096c-.433.429-.914.695-1.494.143-.442-.422-.423-.943.03-1.354a.854.854 0 0 1 .821-.256 1.454 1.454 0 0 1-.152-.431.932.932 0 0 1-.833-.41c-.554-.671-.23-1.274.386-1.746-.948-.952-.962-1.32-.086-2.294-.211-.287-.558-.47-.657-.942-.554.583-1.091 1.065-1.76.41a.82.82 0 0 1 .02-1.277c.655-.583 1.184-.226 1.642.359.314-.281.484-.692.968-.897-.398-.345-.732-.572-.894-1.026-.528.614-1.053 1.012-1.7.427a.845.845 0 0 1 0-1.352c.657-.574 1.178-.168 1.642.373l.677-.794c-.857-1.122-.851-1.313.1-2.297-.547-.536-.957-1.153-.342-1.847a.96.96 0 0 1 1.096-.34c.084-.256.237-.482.443-.655-.394.318-.907.509-1.46-.061a.903.903 0 0 1 .01-1.375c.638-.628 1.233-.349 1.746.267l.69-.685c-.672-.965-.709-1.68-.069-2.052a1.16 1.16 0 0 1 .918-.166 1.437 1.437 0 0 1 1.14-.566h.066c-.262-.448-.34-.92.148-1.414.38-.384.751-.437 1.108-.318.158-.43.512-.758.952-.884-.184-.337-.182-.729.158-1.139.622-.765 1.326-.476 1.927.14l.72-.67c-.5-.561-.915-1.169-.176-1.827a.897.897 0 0 1 1.293.014c.377.36.439.702.314 1.042.127-.043.26-.068.394-.073-.09-.351-.025-.727.427-1.073.673-.517 1.284-.206 1.748.41 1.026-.98 1.231-.987 2.319-.105l.81-.683c-.519-.486-.977-1.032-.314-1.697a.836.836 0 0 1 1.28.025c.592.642.25 1.174-.311 1.619l.95.87c.232-.236.484-.585.932-.79-.6-.497-.996-1.016-.427-1.668a.82.82 0 0 1 1.276-.054c.624.64.333 1.22-.34 1.642.266.338.66.406.8.874.386-.372.679-.745 1.206-.729.528.017.836.382 1.143.768.48-.647 1.078-.99 1.757-.441.213.154.36.383.41.642.144.026.282.073.41.141a.974.974 0 0 1 .348-.662.843.843 0 0 1 1.284 0c.663.677.205 1.216-.332 1.713.297.275.669.43.79.89.582-.597 1.17-1.056 1.875-.392.11.088.197.198.256.32.08-.365.4-.645.794-.66a.842.842 0 0 1 .875.807c.03.532-.288.814-.807.883-.376-.022-.654-.157-.79-.426a.931.931 0 0 1-.328.53c-.17.183-.399.3-.646.333.029.062.052.127.07.193.336.045.669.26.995.691.58-.422 1.213-.9 1.87-.217.61.64.28 1.25-.265 1.81.303.222.534.529.664.882.114.045.221.105.319.18a.927.927 0 0 1 .972-.876c.638-.008.938.429 1.049.973-.121.654-.485 1.116-1.067 1.085a1.108 1.108 0 0 1-.38-.092v.06c0 .082-.008.165-.022.247a.938.938 0 0 1 1.204.205c.5.538.507 1.168-.062 1.62a1.067 1.067 0 0 1-.956.268c.012.046.021.092.027.14.441-.15.806.12 1.436.82.53-.51 1.127-.952 1.79-.205a.864.864 0 0 1-.064 1.288c-.632.614-1.167.288-1.687-.297l-.652.714.599.662c.58-.537 1.196-.853 1.812-.205a.944.944 0 0 1 0 1.39c-.622.664-1.219.364-1.798-.206-.199.23-.375.41-.554.616.126.258.336.465.595.588.548-.488 1.164-.783 1.78-.13a.964.964 0 0 1 .016 1.394c-.6.648-1.219.396-1.814-.113l-.657.616c.068.355.409.457.59.753.795-.548 1.614-.94 2.109.303a.89.89 0 0 1-.378 1.086c-.62.416-1.163.205-1.689-.384-.221.232-.398.437-.593.642l.591.704c.735-.65 1.486-.979 2.022.17.209.452-.027.874-.438 1.143-.625.402-1.085.037-1.573-.451l-.616.742.628.82c.5-.56 1.081-1.027 1.748-.3a.82.82 0 0 1-.11 1.273c-.627.493-1.146.22-1.538-.383-.275.296-.59.552-.937.759-.023.131-.065.26-.124.38a.923.923 0 0 1 .776.955c.023.7-.357 1.094-1.06 1.094a1.266 1.266 0 0 1-.434-.072 1.436 1.436 0 0 1-.099.274 1.06 1.06 0 0 1 .366-.047c.535.018.79.35.816.87-.06.541-.35.838-.884.818-.533-.02-.822-.343-.805-.879.002-.071.01-.138.023-.2a1.436 1.436 0 0 1-.355.176c.195.57-.036.884-.781 1.46.54.503 1.097 1.08.357 1.775-.682.638-1.242.168-1.683-.429-.433.527-.724.804-1.049.858a1.463 1.463 0 0 1-.18.445c.564-.008.853.324.911.851-.041.58-.328.921-.89.926-.563.004-.901-.314-.901-.879 0-.09.01-.179.03-.266a1.4 1.4 0 0 1-.371.051c.011.09.016.182.012.273-.03.654-.443.96-1.094.987a1.437 1.437 0 0 1-.48-.14 1.437 1.437 0 0 1-1.475.472c.468.468.786.997.115 1.594a.82.82 0 0 1-1.275-.131c-.36-.472-.285-.874.037-1.231a1.422 1.422 0 0 1-.67.22c.186.367.182.742-.24 1.152a.905.905 0 0 1-1.376-.02c-.412-.415-.424-.804-.22-1.163a1.437 1.437 0 0 1-.313.035h-.066a1.044 1.044 0 0 1-1.641 1.214c-.431-.394-.487-.804-.296-1.214h-.06c-.173 0-.346-.033-.508-.095a.983.983 0 0 1-.22 1.289.965.965 0 0 1-1.395.016c-.476-.435-.476-.878-.247-1.303-.117.045-.24.074-.365.086.187.372.166.753-.244 1.164a.94.94 0 0 1-1.387.035c-.357-.333-.437-.663-.34-1.002a1.537 1.537 0 0 1-.319-.08c.21.487.076.936-.757 1.262-.425.164-.798-.107-1.026-.496-.324-.56-.05-.954.316-1.316a1.437 1.437 0 0 1-1.358-.462c-.475.309-.973.23-1.406-.229a.857.857 0 0 1-.226-.923 1.33 1.33 0 0 1-.158-.014c.015.063.024.129.027.194.02.579-.425 1.008-1.04 1.026a.934.934 0 0 1-1.027-.92.997.997 0 0 1 .087-.518 1.436 1.436 0 0 1-1.078-.985.934.934 0 0 1-.985-.264.962.962 0 0 1-.359-.85 1.436 1.436 0 0 1-.968-1.22.902.902 0 0 1-.255.092c.265.129.404.398.438.768-.052.525-.324.837-.858.837a.842.842 0 0 1-.832-.85.843.843 0 0 1 .686-.826zm-.952-19.075c-.05.046-.1.093-.152.136.055-.045.113-.085.174-.121l-.022-.015zM28.66 39.733l.065-.05-.018-.014-.047.064zM7.835 11.353c-.469-.157-.855-.43-.871-1.013a.998.998 0 0 1 .207-.722.745.745 0 0 1 .612-.29.734.734 0 0 1 .62.25.984.984 0 0 1 .245.7c.02.608-.38.868-.813 1.075zm2.486-2.707a.997.997 0 0 1-.709-.215.747.747 0 0 1-.284-.606.739.739 0 0 1 .251-.62.988.988 0 0 1 .7-.246c.607-.02.867.382 1.074.816-.167.468-.44.856-1.032.87zM3.455 20.479c-.535-.031-.87-.273-.89-.806-.019-.533.279-.864.808-.883.53-.02.857.27.88.8.024.53-.276.823-.798.889zm-.031 5.074a.76.76 0 0 1 .602.21.75.75 0 0 1 .227.593c.014.563-.302.847-.85.883-.518-.042-.828-.302-.838-.815-.012-.56.292-.871.859-.871zm37.191-9.806c-.582.004-.887-.328-.869-.9.025-.525.359-.772.884-.79.512.055.805.334.805.858s-.293.832-.82.832zM5.392 13.38c-.51-.054-.8-.326-.8-.84.003-.568.3-.87.879-.85.58.02.85.379.807.928-.038.515-.373.75-.886.762zm9.562 26.366c.534.025.78.36.793.88-.057.514-.334.808-.858.808s-.832-.294-.832-.822c-.004-.584.326-.893.897-.866zm11.48-35.493c-.57.014-.889-.29-.885-.859.004-.569.343-.853.896-.829.52.032.754.363.794.807-.034.558-.29.867-.806.881zm-6.816-.001a.771.771 0 0 1-.61-.235.783.783 0 0 1-.215-.621c.006-.528.317-.838.85-.832.532.006.8.327.836.848-.046.538-.33.84-.861.84zm-7.08 2.025c-.57-.014-.866-.338-.846-.89.02-.511.335-.762.853-.795.55.043.858.336.834.89a.741.741 0 0 1-.232.592.766.766 0 0 1-.61.203zm4.689-2.023c-.523-.069-.835-.35-.802-.892a.829.829 0 0 1 .45-.702.857.857 0 0 1 .843.03.826.826 0 0 1 .394.734c-.017.544-.352.799-.885.83zM33.532 6.62c-.501-.039-.847-.295-.88-.784a.815.815 0 0 1 .371-.768.864.864 0 0 1 .872-.039.82.82 0 0 1 .442.732c.011.5-.318.766-.805.859zM5.812 32.649c.493.026.748.362.809.856-.076.492-.34.832-.833.832a.825.825 0 0 1-.746-.42.86.86 0 0 1 .013-.87.824.824 0 0 1 .757-.398zM3.37 18.112a.838.838 0 0 1-.71-.45.85.85 0 0 1 .033-.844.837.837 0 0 1 .741-.394c.535.016.788.35.82.88-.069.519-.352.829-.884.808zm27.736 21.633c.542.099.87.372.864.88a.845.845 0 0 1-1.69-.068c.027-.505.388-.742.826-.812zm9.434-9.463c.52-.024.773.326.894.742-.028.556-.29.906-.787.945a.848.848 0 0 1-.9-.79.847.847 0 0 1 .793-.897zM10.22 37.39a.773.773 0 0 1 .576.23c.151.154.23.363.216.577 0 .539-.32.812-.85.873-.527-.065-.858-.34-.837-.879a.764.764 0 0 1 .254-.612.781.781 0 0 1 .64-.19zM28.756 4.255c-.494-.073-.839-.34-.84-.84 0-.304.16-.584.422-.736a.84.84 0 0 1 .845 0 .852.852 0 0 1 .422.736c-.02.508-.358.771-.85.84zM3.409 27.915c.498 0 .764.332.846.823-.052.499-.309.845-.801.865a.827.827 0 0 1-.76-.39.857.857 0 0 1-.023-.866.828.828 0 0 1 .738-.432zm34.816-16.904a.768.768 0 0 1-.622-.226.783.783 0 0 1-.22-.63.777.777 0 0 1 .206-.583.763.763 0 0 1 .565-.244c.538-.037.827.278.915.798-.042.536-.304.885-.844.885zM14.847 4.252a.775.775 0 0 1-.596-.265.787.787 0 0 1-.187-.627.788.788 0 0 1 .264-.599.776.776 0 0 1 .622-.189c.512.034.77.389.797.875-.087.53-.389.84-.9.805zM21.59 41.78c.511-.06.801.283.917.796-.042.51-.306.858-.816.886a.83.83 0 0 1-.872-.79.836.836 0 0 1 .771-.892zM3.46 15.74a.786.786 0 0 1-.628-.188.776.776 0 0 1-.265-.596c-.032-.512.275-.812.807-.9.496.025.841.284.873.796a.775.775 0 0 1-.188.624.785.785 0 0 1-.6.263zm36.986-2.021c-.368.008-.676-.341-.7-.793-.022-.452.248-.847.614-.895.423-.032.673.27.737.81-.018.5-.226.846-.651.878zm-16.48 28.057a.846.846 0 1 1 .047 1.687c-.483-.011-.748-.347-.83-.812.047-.494.317-.836.783-.875zm-4.346-.003c.538.073.864.361.859.865a.849.849 0 0 1-.873.825.85.85 0 0 1-.817-.88.841.841 0 0 1 .83-.81zm23.012-18.59c.478.005.748.338.831.824-.041.473-.304.815-.766.862a.836.836 0 0 1-.785-.375.85.85 0 0 1-.034-.876.837.837 0 0 1 .754-.435zM12.727 39.746c.424.03.62.384.654.846-.07.572-.318.871-.74.841-.364-.048-.634-.442-.61-.894.022-.453.33-.802.696-.793zm29.92-17.24a.83.83 0 0 1-.872-.79.836.836 0 0 1 .772-.892c.51-.06.805.283.916.796-.042.509-.305.858-.816.885zm-.093-2.036a.784.784 0 0 1-.583-.262.775.775 0 0 1-.192-.607c.024-.496.349-.764.847-.812.501.055.833.33.833.826a.783.783 0 0 1-.242.648.793.793 0 0 1-.663.207zM17.112 42.112c.435.006.643.264.663.684-.033.445-.265.678-.696.667a.672.672 0 0 1-.574-.352.68.68 0 0 1 .016-.676.671.671 0 0 1 .59-.323zm25.35-16.22c.461.013.69.285.66.723a.628.628 0 0 1-.63.624c-.505-.044-.747-.297-.716-.742a.597.597 0 0 1 .203-.457.613.613 0 0 1 .483-.148zm-15.918 16.22c.434.014.705.233.693.69a.599.599 0 0 1-.166.47.611.611 0 0 1-.466.185.635.635 0 0 1-.524-.168.622.622 0 0 1-.19-.513c.001-.4.233-.62.653-.665zM3.24 30.283a.605.605 0 0 1 .668.597.641.641 0 0 1-.62.752c-.434-.011-.717-.212-.717-.659a.614.614 0 0 1 .67-.69zm39.157-12.51a.63.63 0 0 1-.614-.731.673.673 0 1 1 1.341.106c-.026.438-.303.626-.727.626zm-1.984 15.211c.44.084.703.298.684.693 0 .245-.139.47-.36.583a.69.69 0 0 1-.698-.04.653.653 0 0 1-.288-.62.691.691 0 0 1 .662-.616zm-6.689 6.77c.18.002.348.08.465.215a.608.608 0 0 1 .143.486c-.023.396-.285.598-.677.641-.395-.052-.664-.258-.664-.655a.614.614 0 0 1 .19-.527.632.632 0 0 1 .543-.16zM10.324 6.28a.599.599 0 0 1-.655-.629.631.631 0 0 1 .167-.526.624.624 0 0 1 .515-.191c.401.002.622.233.664.652-.015.434-.234.694-.69.694zm25.378 31.104c.4 0 .616.233.663.659-.018.424-.237.686-.69.686a.6.6 0 0 1-.653-.63.614.614 0 0 1 .68-.715zM7.987 8.644a.617.617 0 0 1-.505-.174.625.625 0 0 1-.182-.505.609.609 0 0 1 .603-.665c.426-.033.681.198.746.64-.026.42-.227.686-.662.705zm-2.418 2.37a.602.602 0 0 1-.635-.658.63.63 0 0 1 .708-.687c.405.012.61.255.64.674-.026.434-.26.688-.713.67zm32.575 24.005c.396.041.577.305.587.71-.049.4-.267.632-.665.632a.62.62 0 0 1-.68-.711c.023-.46.321-.675.758-.631zm-7.18-31.106a.615.615 0 0 1-.68-.67.605.605 0 0 1 .594-.669.646.646 0 0 1 .755.62c-.022.431-.223.706-.669.719zm-2.401 38.201a.646.646 0 0 1 .498.166.623.623 0 0 1 .204.477c.033.41-.285.584-.587.706-.462-.054-.74-.26-.76-.659a.617.617 0 0 1 .164-.488.64.64 0 0 1 .481-.202zM1.107 20.132a.467.467 0 0 1-.555-.41.476.476 0 0 1 .47-.593c.295-.024.46.176.527.46.02.27-.174.51-.442.543zM5.69 35.024c.32.055.564.323.594.652-.113.462-.355.746-.782.68a.615.615 0 0 1-.43-.228.636.636 0 0 1-.136-.473.653.653 0 0 1 .233-.494.631.631 0 0 1 .521-.137zM1.234 21.155c.407.082.696.309.65.724a.631.631 0 0 1-.234.482.652.652 0 0 1-.524.136.636.636 0 0 1-.589-.659c.015-.415.29-.63.697-.683zm6.63 16.237c.443-.08.663.228.783.579a.704.704 0 0 1-.58.748.639.639 0 0 1-.765-.617.635.635 0 0 1 .561-.71zm-6.562-13.86a.693.693 0 0 1 .586.705c-.107.406-.345.694-.778.626a.623.623 0 0 1-.432-.228.633.633 0 0 1-.137-.471.649.649 0 0 1 .233-.495.638.638 0 0 1 .528-.137zm41.121 4.383c.404.048.683.266.702.656a.666.666 0 0 1-.313.592.682.682 0 0 1-.675.028.667.667 0 0 1-.362-.563c-.024-.409.257-.625.648-.713zM3.17 13.378a.723.723 0 0 1-.444-.156.41.41 0 0 1-.159-.35c-.008-.145.07-.285.211-.381a.783.783 0 0 1 .522-.119c.35.025.617.247.618.513-.08.3-.316.524-.748.493zm34.995-4.745a.634.634 0 0 1-.529-.117.645.645 0 0 1-.249-.485.634.634 0 0 1 .124-.479.624.624 0 0 1 .428-.241c.429-.082.683.207.792.604a.688.688 0 0 1-.566.718zM24.127 1.884a.621.621 0 0 1-.444-.207.636.636 0 0 1-.16-.467.653.653 0 0 1 .211-.506.637.637 0 0 1 .52-.161.723.723 0 0 1 .62.64c-.08.45-.317.744-.747.701zm-2.277.002a.626.626 0 0 1-.679-.565.642.642 0 0 1 .112-.529.623.623 0 0 1 .473-.25c.413-.053.643.244.75.631a.69.69 0 0 1-.656.713zm-9.31 2.03a.412.412 0 0 1-.352-.162.73.73 0 0 1-.157-.448c-.027-.423.183-.662.494-.741.265 0 .487.267.512.616a.786.786 0 0 1-.118.522c-.096.142-.235.22-.379.212zm7.12-2.37a.47.47 0 0 1-.399-.14.478.478 0 0 1-.128-.405.473.473 0 0 1 .518-.462c.27.008.487.23.49.502a.496.496 0 0 1-.48.506zm16.135 4.72a.633.633 0 0 1-.776-.612.626.626 0 0 1 .551-.709c.445-.086.657.22.791.562a.693.693 0 0 1-.566.76zM10.223 40.095a.47.47 0 0 1 .454.466c-.04.362-.2.535-.505.535a.464.464 0 0 1-.494-.58.45.45 0 0 1 .545-.421zM26.757 1.543a.449.449 0 0 1-.519-.55.45.45 0 0 1 .526-.45.467.467 0 0 1 .474.499.465.465 0 0 1-.48.5zm-9.512.003a.463.463 0 0 1-.368-.16.473.473 0 0 1-.11-.389.474.474 0 0 1 .183-.363.464.464 0 0 1 .394-.084c.142.009.27.083.35.201.08.119.102.267.06.404a.451.451 0 0 1-.173.304.442.442 0 0 1-.336.087zM14.819 42.11c.338-.004.538.136.576.415a.48.48 0 0 1-.087.41.466.466 0 0 1-.375.18.435.435 0 0 1-.355-.083.448.448 0 0 1-.17-.326.493.493 0 0 1 .074-.39.48.48 0 0 1 .337-.206zM1.039 17.772a.456.456 0 0 1-.496-.533.448.448 0 0 1 .445-.47.473.473 0 0 1 .56.492.463.463 0 0 1-.509.511zm39.588-7.104a.456.456 0 0 1-.417-.13.449.449 0 0 1-.114-.418.45.45 0 0 1 .159-.35.456.456 0 0 1 .372-.1c.265.017.47.235.47.499a.502.502 0 0 1-.47.499zM1.09 26.233v.005a.501.501 0 0 1 .46.509.502.502 0 0 1-.483.488.47.47 0 0 1-.41-.15.46.46 0 0 1-.107-.42.449.449 0 0 1 .169-.34.457.457 0 0 1 .371-.092zm41.621-10.84a.469.469 0 0 1-.591-.46.439.439 0 0 1 .412-.526.482.482 0 0 1 .59.458.47.47 0 0 1-.41.527z" id="a-default"/>
</defs>
<g transform="translate(-.5 -.5)" fill="none" fill-rule="evenodd">
  <mask id="b-default" fill="#fff">
    <use xlink:href="#a-default"/>
  </mask>
  <use fill="currentColor" fill-rule="nonzero" xlink:href="#a-default"/>
  <path fill="currentColor" mask="url(#b-default)" d="M-8.049.537h61.171v42.927H-8.049z"/>
  <path d="M25.156 17.5l-.449 2.266h-3.44l.452-2.266h-1.23l-.452 2.266h-1.951v1.095h1.737l-.606 3.146H17.5V25.1h1.502l-.468 2.399h1.232l.467-2.4h3.437l-.469 2.4h1.231l.469-2.4h2.011v-1.093h-1.795l.604-3.146H27.5v-1.095h-1.563l.45-2.266h-1.23zm-4.101 3.36h3.436l-.604 3.147h-3.44l.608-3.146z" fill="#FFF" mask="url(#b-default)"/>
</g>
</svg>
