<svg width="43" height="43" xmlns="http://www.w3.org/2000/svg" xmlns:xlink="http://www.w3.org/1999/xlink"><defs><path d="M7.6 34.7a.9.9 0 0 1-.3-.3c-.4-.4-.4-.8-.1-1.2a1.4 1.4 0 0 1-.6-1.1V32c-.4.4-.9.7-1.5.1-.4-.4-.4-1 0-1.3a.9.9 0 0 1 .9-.3 1.5 1.5 0 0 1-.2-.4 1 1 0 0 1-.8-.4c-.6-.7-.2-1.3.4-1.8-1-1-1-1.3-.1-2.3-.2-.3-.6-.4-.7-1-.5.7-1 1.1-1.7.5a.8.8 0 0 1 0-1.3c.6-.6 1.2-.2 1.6.4.3-.3.5-.7 1-1-.4-.3-.7-.5-.9-1-.5.7-1 1-1.7.5a.8.8 0 0 1 0-1.4c.7-.5 1.2-.1 1.6.4l.7-.8c-.8-1.1-.8-1.3.1-2.3-.5-.5-1-1.1-.3-1.8a1 1 0 0 1 1-.4l.5-.6c-.4.3-.9.5-1.4-.1a.9.9 0 0 1 0-1.4c.6-.6 1.2-.3 1.7.3l.7-.7c-.7-1-.7-1.7 0-2a1.2 1.2 0 0 1 .9-.2 1.4 1.4 0 0 1 1-.6h.2c-.3-.4-.4-.9.1-1.4.4-.4.8-.4 1.1-.3.2-.4.5-.8 1-.9-.2-.3-.2-.7.1-1.1.6-.8 1.4-.5 2 .1l.7-.7c-.5-.5-1-1.1-.2-1.8a.9.9 0 0 1 1.3 0c.4.4.4.7.3 1h.4c0-.4 0-.7.4-1 .7-.6 1.3-.3 1.8.3 1-1 1.2-1 2.3 0l.8-.8c-.5-.4-1-1-.3-1.6a.8.8 0 0 1 1.3 0c.6.6.2 1.1-.3 1.6l1 .9c.1-.3.4-.6.8-.8-.6-.5-1-1-.4-1.7a.8.8 0 0 1 1.3 0c.6.6.3 1.2-.4 1.6.3.3.7.4.8.9.4-.4.7-.8 1.3-.8.5 0 .8.4 1.1.8.5-.6 1-1 1.8-.4.2.1.3.3.4.6l.4.1a1 1 0 0 1 .3-.6.8.8 0 0 1 1.3 0c.7.7.2 1.2-.3 1.7.3.3.6.4.8.9.5-.6 1.1-1 1.8-.4l.3.3c0-.3.4-.6.8-.6a.8.8 0 0 1 .9.8c0 .5-.3.8-.8.8-.4 0-.7-.1-.8-.4a1 1 0 0 1-.4.6 1 1 0 0 1-.6.3v.2c.4 0 .7.2 1 .7.6-.5 1.3-1 2-.2.5.6.2 1.2-.3 1.8.3.2.5.5.6.8l.3.2a1 1 0 0 1 1-.9c.7 0 1 .5 1 1 0 .7-.4 1.1-1 1.1a1.1 1.1 0 0 1-.4 0v.2a1 1 0 0 1 1.2.2c.5.6.5 1.2 0 1.6a1 1 0 0 1-1 .3v.2c.5-.2.8 0 1.4.8.6-.5 1.2-1 1.8-.2a.9.9 0 0 1 0 1.3c-.7.6-1.2.2-1.7-.3l-.7.7.6.6c.6-.5 1.2-.8 1.8-.2a1 1 0 0 1 0 1.4c-.6.7-1.2.4-1.8-.2l-.5.6c.1.3.3.5.6.6.5-.5 1.2-.8 1.8-.1a1 1 0 0 1 0 1.4c-.6.6-1.2.4-1.8-.1l-.7.6c0 .3.4.4.6.7.8-.5 1.6-.9 2.1.3a.9.9 0 0 1-.4 1.1c-.6.4-1.1.2-1.7-.4l-.5.7.5.7c.8-.7 1.5-1 2 .2.3.4 0 .8-.4 1.1-.6.4-1 0-1.5-.4l-.7.7.7.8c.5-.5 1-1 1.7-.3a.8.8 0 0 1-.1 1.3c-.6.5-1.1.2-1.5-.4l-1 .8-.1.3a1 1 0 0 1 .8 1c0 .7-.4 1-1 1a1.3 1.3 0 0 1-.5 0 1.4 1.4 0 0 1-.1.3 1 1 0 0 1 .4 0c.5 0 .7.3.8.8 0 .6-.4.9-1 .8-.4 0-.7-.3-.7-.8v-.2a1.4 1.4 0 0 1-.4.1c.2.6 0 1-.7 1.5.5.5 1 1 .3 1.8-.7.6-1.2.1-1.7-.5-.4.6-.7.8-1 .9a1.5 1.5 0 0 1-.2.4c.6 0 .9.4 1 .9-.1.6-.4 1-1 1-.5 0-.9-.4-.9-1v-.2a1.4 1.4 0 0 1-.3 0v.3c0 .7-.4 1-1 1a1.4 1.4 0 0 1-.6-.2 1.4 1.4 0 0 1-1.4.5c.4.5.7 1 0 1.6a.8.8 0 0 1-1.2-.1c-.4-.5-.3-.9 0-1.3a1.4 1.4 0 0 1-.6.3c.1.3.1.7-.3 1.1a1 1 0 0 1-1.4 0c-.4-.4-.4-.8-.2-1.2a1.4 1.4 0 0 1-.3 0 1 1 0 0 1-1.7 1.3c-.4-.4-.5-.8-.3-1.2l-.6-.1a1 1 0 0 1-.2 1.3 1 1 0 0 1-1.4 0c-.5-.5-.5-.9-.2-1.3h-.4c.2.4.2.8-.2 1.2a1 1 0 0 1-1.4 0c-.4-.3-.5-.6-.4-1a1.5 1.5 0 0 1-.3 0c.2.5.1 1-.7 1.2-.5.2-.8 0-1-.5-.4-.5-.1-1 .3-1.3a1.4 1.4 0 0 1-1.4-.4c-.5.3-1 .2-1.4-.3a.9.9 0 0 1-.2-.9 1.3 1.3 0 0 1-.2 0v.2c0 .6-.4 1-1 1a1 1 0 0 1-1-.9 1 1 0 0 1 0-.5 1.4 1.4 0 0 1-1-1 1 1 0 0 1-1-.3 1 1 0 0 1-.4-.8 1.4 1.4 0 0 1-1-1.2.9.9 0 0 1-.2 0c.3.2.4.5.4.8 0 .6-.3.9-.8.9a.8.8 0 0 1-.8-.9.8.8 0 0 1 .6-.8zm-1-19h.1zm22 24h.1zM7.9 11.4c-.4-.2-.8-.5-.8-1a1 1 0 0 1 .2-.8.7.7 0 0 1 .6-.3.7.7 0 0 1 .6.3 1 1 0 0 1 .2.7c0 .6-.3.8-.8 1zm2.5-2.8a1 1 0 0 1-.7-.2.7.7 0 0 1-.3-.6.7.7 0 0 1 .3-.6 1 1 0 0 1 .7-.2c.6 0 .8.3 1 .8-.1.4-.4.8-1 .8zM3.5 20.5c-.6 0-1-.3-1-.8 0-.6.3-.9.9-1 .5 0 .8.4.9.9 0 .5-.3.8-.8.9zm0 5a.8.8 0 0 1 .5.3.8.8 0 0 1 .3.6c0 .5-.3.8-.9.8-.5 0-.8-.3-.8-.8s.3-.8.8-.8zm37.1-9.8c-.6 0-.9-.3-.9-.9 0-.5.4-.7 1-.7.4 0 .7.3.7.8s-.3.8-.8.8zM5.4 13.4c-.5 0-.8-.3-.8-.9 0-.5.3-.8.9-.8.6 0 .8.4.8 1 0 .4-.4.7-1 .7zM15 39.7c.5 0 .7.4.7 1 0 .4-.3.7-.8.7s-.8-.3-.8-.8c0-.6.3-.9.9-.9zM26.4 4.3c-.5 0-.9-.3-.9-1 0-.5.4-.8 1-.7.5 0 .7.3.7.8s-.3.8-.8.9zm-6.8 0A.8.8 0 0 1 19 4a.8.8 0 0 1-.2-.6c0-.5.3-.8.8-.8.6 0 .8.3.9.8 0 .5-.4.9-.9.9zm-7 2c-.6 0-1-.4-1-1 .1-.4.4-.7 1-.7.5 0 .8.3.8.9a.7.7 0 0 1-.3.6.8.8 0 0 1-.6.2zm4.6-2c-.5-.1-.8-.4-.8-1a.8.8 0 0 1 .5-.6.9.9 0 0 1 .8 0 .8.8 0 0 1 .4.7c0 .6-.3.8-.9.9zm16.3 2.3c-.5 0-.8-.3-.8-.8a.8.8 0 0 1 .3-.7.9.9 0 0 1 .9 0 .8.8 0 0 1 .4.7c0 .5-.3.7-.8.8zm-27.7 26c.5 0 .8.4.8.9s-.3.8-.8.8A.8.8 0 0 1 5 34a.9.9 0 0 1 0-.9.8.8 0 0 1 .8-.4zM3.4 18.1a.8.8 0 0 1-.7-.4.8.8 0 0 1 0-.9.8.8 0 0 1 .7-.4c.6 0 .8.4.9.9-.1.5-.4.8-1 .8zM31 39.7c.5.1.9.4.9 1a.8.8 0 0 1-1.7-.1c0-.5.4-.8.8-.9zm9.4-9.4c.6 0 .8.3 1 .7 0 .6-.4 1-.9 1a.8.8 0 0 1-.9-.8.8.8 0 0 1 .8-1zm-30.3 7a.8.8 0 0 1 .6.3l.2.6c0 .5-.3.8-.8.9-.6-.1-.9-.4-.9-1a.8.8 0 0 1 .3-.5.8.8 0 0 1 .6-.2zm18.6-33c-.5-.1-.9-.4-.9-.9 0-.3.2-.6.4-.7a.8.8 0 0 1 .9 0 .9.9 0 0 1 .4.7c0 .5-.4.8-.8.9zM3.4 27.9c.5 0 .8.3.9.8-.1.5-.4.9-.8.9a.8.8 0 0 1-.8-.4.9.9 0 0 1 0-.9.8.8 0 0 1 .7-.4zM38.2 11a.8.8 0 0 1-.6-.2.8.8 0 0 1-.2-.6.8.8 0 0 1 .2-.6.8.8 0 0 1 .6-.3c.5 0 .8.3.9.8 0 .6-.3 1-.9 1zM14.8 4.3a.8.8 0 0 1-.5-.3.8.8 0 0 1-.2-.6.8.8 0 0 1 .2-.6.8.8 0 0 1 .7-.2c.5 0 .7.4.7.8 0 .6-.3.9-.9.9zm6.8 37.5c.5 0 .8.3 1 .8-.1.5-.4.8-1 .9a.8.8 0 0 1-.8-.8.8.8 0 0 1 .8-1zm-18.1-26a.8.8 0 0 1-.7-.2.8.8 0 0 1-.2-.6c0-.6.2-.9.8-1 .5 0 .8.3.8.9a.8.8 0 0 1-.1.6.8.8 0 0 1-.6.2zm37-2c-.4 0-.7-.4-.8-.9 0-.4.3-.8.7-.9.4 0 .6.3.7.8 0 .5-.2.9-.7 1zM24 41.7a.8.8 0 1 1 0 1.7c-.5 0-.7-.4-.8-.8 0-.5.3-.9.8-1zm-4.4 0c.6 0 .9.3.9.8a.8.8 0 0 1-.9.9.8.8 0 0 1-.8-1 .8.8 0 0 1 .8-.7zm23-18.6c.5 0 .8.3.9.8 0 .5-.3.8-.8.9a.8.8 0 0 1-.8-.4.8.8 0 0 1 0-.9.8.8 0 0 1 .7-.4zM12.7 39.7c.5 0 .6.4.7.9 0 .6-.3.9-.8.8-.3 0-.6-.4-.6-.9 0-.4.4-.8.7-.8zm30-17.2a.8.8 0 0 1-1-.8.8.8 0 0 1 .8-.9c.6 0 .9.3 1 .8 0 .5-.3.9-.9 1zm-.1-2a.8.8 0 0 1-.6-.3.8.8 0 0 1-.2-.6c0-.5.3-.8.8-.8s.9.3.9.8a.8.8 0 0 1-.3.7.8.8 0 0 1-.6.2zM17 42c.4 0 .7.3.7.7 0 .4-.3.7-.7.7a.7.7 0 0 1-.6-.4.7.7 0 0 1 0-.7.7.7 0 0 1 .6-.3zM42.5 26c.4 0 .7.3.6.7a.6.6 0 0 1-.6.6c-.5 0-.8-.3-.7-.7a.6.6 0 0 1 .2-.5.6.6 0 0 1 .5-.1zM26.5 42c.5 0 .7.2.7.7a.6.6 0 0 1-.1.5.6.6 0 0 1-.5.2.6.6 0 0 1-.5-.2.6.6 0 0 1-.2-.5c0-.4.2-.6.6-.7zM3.2 30.3a.6.6 0 0 1 .7.6.6.6 0 0 1-.6.7c-.4 0-.7-.2-.7-.6a.6.6 0 0 1 .6-.7zm39.2-12.5a.6.6 0 0 1-.6-.8.7.7 0 1 1 1.3.1c0 .5-.3.7-.7.7zm-2 15.2c.5 0 .7.3.7.7 0 .2-.1.4-.4.6a.7.7 0 0 1-.7 0 .7.7 0 0 1-.2-.7.7.7 0 0 1 .6-.6zm-6.7 6.8c.2 0 .4 0 .5.2a.6.6 0 0 1 .1.5c0 .4-.3.6-.6.6-.4 0-.7-.3-.7-.7a.6.6 0 0 1 .2-.5.6.6 0 0 1 .5-.1zM10.3 6.3a.6.6 0 0 1-.6-.6.6.6 0 0 1 .1-.6.6.6 0 0 1 .6-.2c.4 0 .6.3.6.7 0 .4-.2.7-.7.7zm25.4 31c.4 0 .6.3.7.7 0 .5-.3.7-.7.7a.6.6 0 0 1-.7-.6.6.6 0 0 1 .7-.7zM8 8.7a.6.6 0 0 1-.5-.1.6.6 0 0 1-.2-.5.6.6 0 0 1 .6-.7c.4 0 .7.2.7.6 0 .5-.2.7-.6.7zM5.6 11a.6.6 0 0 1-.7-.6.6.6 0 0 1 .7-.7c.4 0 .7.2.7.6 0 .5-.3.7-.7.7zM38 35c.4 0 .6.3.6.7 0 .4-.2.7-.6.7a.6.6 0 0 1-.7-.8c0-.4.3-.6.7-.6zM31 4a.6.6 0 0 1-.7-.8.6.6 0 0 1 .6-.6.6.6 0 0 1 .7.6c0 .4-.2.7-.6.7zM28.6 42a.6.6 0 0 1 .5.2.6.6 0 0 1 .2.5c0 .4-.3.5-.6.7-.5 0-.8-.3-.8-.7a.6.6 0 0 1 .2-.5.6.6 0 0 1 .5-.2zM1 20.1a.5.5 0 0 1-.5-.4.5.5 0 0 1 .4-.6c.3 0 .5.2.5.5s-.1.5-.4.5zm4.6 15c.3 0 .6.2.6.6-.1.4-.4.7-.8.7a.6.6 0 0 1-.4-.3.6.6 0 0 1-.2-.4.7.7 0 0 1 .3-.5.6.6 0 0 1 .5-.2zM1.2 21c.4.1.7.4.7.8a.6.6 0 0 1-.3.5.7.7 0 0 1-.5.1.6.6 0 0 1-.6-.7c0-.4.3-.6.7-.6zM8 37.5c.4 0 .6.2.7.6a.7.7 0 0 1-.5.7.6.6 0 0 1-.8-.6.6.6 0 0 1 .6-.7zM1.3 23.5a.7.7 0 0 1 .6.7c-.1.4-.4.7-.8.7a.6.6 0 0 1-.4-.3.6.6 0 0 1-.2-.4.6.6 0 0 1 .3-.5.6.6 0 0 1 .5-.2zM42.4 28c.4 0 .7.3.7.7a.7.7 0 0 1-.3.6.7.7 0 0 1-.7 0 .7.7 0 0 1-.3-.6c0-.4.2-.6.6-.7zM3.2 13.4a.7.7 0 0 1-.5-.2.4.4 0 0 1-.1-.3c0-.2 0-.3.2-.4a.8.8 0 0 1 .5-.1c.4 0 .6.2.6.5s-.3.5-.7.5zm35-4.8a.6.6 0 0 1-.6 0 .6.6 0 0 1-.2-.6.6.6 0 0 1 .1-.4.6.6 0 0 1 .4-.3c.5 0 .7.2.8.6a.7.7 0 0 1-.5.7zM24.2 2a.6.6 0 0 1-.5-.2.6.6 0 0 1-.2-.5.7.7 0 0 1 .2-.5.6.6 0 0 1 .6-.2.7.7 0 0 1 .6.7c-.1.4-.3.7-.8.7zm-2.4 0a.6.6 0 0 1-.6-.6.6.6 0 0 1 0-.5.6.6 0 0 1 .6-.3c.4 0 .6.3.7.7a.7.7 0 0 1-.7.7zm-9.3 2a.4.4 0 0 1-.3-.1.7.7 0 0 1-.2-.5c0-.4.2-.7.5-.7s.5.2.5.6a.8.8 0 0 1 0 .5l-.5.2zm7.2-2.4a.5.5 0 0 1-.4 0A.5.5 0 0 1 19 1a.5.5 0 0 1 .6-.5c.2 0 .4.3.4.5a.5.5 0 0 1-.4.5zm16 4.8a.6.6 0 0 1-.7-.6.6.6 0 0 1 .6-.8c.4 0 .6.3.8.6a.7.7 0 0 1-.6.8zM10.3 40a.5.5 0 0 1 .5.5c0 .3-.2.5-.5.5a.5.5 0 0 1-.5-.6.5.5 0 0 1 .5-.4zM26.8 1.5a.4.4 0 0 1-.6-.5.5.5 0 0 1 .6-.5.5.5 0 0 1 .4.5.5.5 0 0 1-.4.5zm-9.6 0a.5.5 0 0 1-.3-.1.5.5 0 0 1-.1-.4.5.5 0 0 1 .2-.4.5.5 0 0 1 .3 0c.2 0 .3 0 .4.2 0 0 .1.2 0 .4a.5.5 0 0 1-.1.3.4.4 0 0 1-.4 0zm-2.4 40.6c.4 0 .6.1.6.4a.5.5 0 0 1 0 .4.5.5 0 0 1-.5.2.4.4 0 0 1-.3 0 .4.4 0 0 1-.2-.4.5.5 0 0 1 0-.4.5.5 0 0 1 .4-.2zM1 17.8a.5.5 0 0 1-.5-.6.4.4 0 0 1 .5-.4.5.5 0 0 1 .5.5.5.5 0 0 1-.5.5zm39.6-7.1a.5.5 0 0 1-.4-.2.4.4 0 0 1-.1-.4.5.5 0 0 1 .2-.3.5.5 0 0 1 .3-.1c.3 0 .5.2.5.5a.5.5 0 0 1-.5.5zM1.1 26.2a.5.5 0 0 1 .5.5.5.5 0 0 1-.5.5.5.5 0 0 1-.4-.1.5.5 0 0 1-.1-.4.4.4 0 0 1 .1-.4.5.5 0 0 1 .4 0zm41.6-10.8a.5.5 0 0 1-.6-.5.4.4 0 0 1 .4-.5.5.5 0 0 1 .6.5.5.5 0 0 1-.4.5z" id="a"/></defs><g transform="translate(-.5 -.5)" fill="none" fill-rule="evenodd"><mask id="b" fill="#fff"><use xlink:href="#a"/></mask><use fill="currentColor" fill-rule="nonzero" xlink:href="#a"/><path fill="currentColor" mask="url(#b)" d="M-8 .5H53v43H-8z"/><path d="M25.2 17.5l-.5 2.3h-3.4l.4-2.3h-1.2l-.5 2.3h-2v1h1.8l-.6 3.2h-1.7v1.1H19l-.5 2.4h1.3l.4-2.4h3.5l-.5 2.4h1.2l.5-2.4h2v-1h-1.8l.6-3.2h1.8v-1.1h-1.6l.5-2.3h-1.2zM21 20.9h3.4l-.6 3.1h-3.5l.7-3.1z" fill="#FFF" mask="url(#b)"/></g></svg>