<svg width="24" height="24" viewBox="0 0 24 24" xmlns="http://www.w3.org/2000/svg" xmlns:xlink="http://www.w3.org/1999/xlink"><defs><path d="M15 4H7v1a1 1 0 1 1-2 0V4H3a1 1 0 0 0-1 1v16a1 1 0 0 0 1 1h16a1 1 0 0 0 1-1V5a1 1 0 0 0-1-1h-2v1a1 1 0 0 1-2 0V4zm2-2h2a3 3 0 0 1 3 3v16a3 3 0 0 1-3 3H3a3 3 0 0 1-3-3V5a3 3 0 0 1 3-3h2V1a1 1 0 1 1 2 0v1h8V1a1 1 0 0 1 2 0v1zM5 11a1 1 0 0 1 0-2h2a1 1 0 1 1 0 2H5zm5 0a1 1 0 0 1 0-2h2a1 1 0 0 1 0 2h-2zm5 0a1 1 0 0 1 0-2h2a1 1 0 0 1 0 2h-2zM5 15a1 1 0 0 1 0-2h2a1 1 0 0 1 0 2H5zm5 0a1 1 0 0 1 0-2h2a1 1 0 0 1 0 2h-2zm5 0a1 1 0 0 1 0-2h2a1 1 0 0 1 0 2h-2zM5 19a1 1 0 0 1 0-2h2a1 1 0 0 1 0 2H5zm5 0a1 1 0 0 1 0-2h2a1 1 0 0 1 0 2h-2zm5 0a1 1 0 0 1 0-2h2a1 1 0 0 1 0 2h-2z" id="a"/></defs><g transform="translate(1)" fill="none" fill-rule="evenodd"><mask id="b" fill="#fff"><use xlink:href="#a"/></mask><use fill="currentColor" fill-rule="nonzero" xlink:href="#a"/><path fill="currentColor" mask="url(#b)" d="M-1 0h24v24H-1z"/></g></svg>
