{% load app_tags %}

{% random_hash as hash %}
<svg width="24" height="24" viewBox="0 0 24 24" xmlns="http://www.w3.org/2000/svg" xmlns:xlink="http://www.w3.org/1999/xlink" aria-labelledby="email-icon"><title id="email-icon">Email</title><defs><path d="M2.107 2.554L11 8.779l8.893-6.225A1.006 1.006 0 0 0 19 2H3c-.388 0-.728.227-.893.554zM2 4.92V15c0 .548.452 1 1 1h16c.548 0 1-.452 1-1V4.92l-8.427 5.9a1 1 0 0 1-1.146 0L2 4.92zm20-1.938V15c0 1.652-1.348 3-3 3H3c-1.652 0-3-1.348-3-3V3.012v-.03A3.006 3.006 0 0 1 3 0h16a3.006 3.006 0 0 1 3 2.983z" id="{{ hash }}-a"/></defs><g transform="translate(1 3)" fill="none" fill-rule="evenodd"><mask id="{{ hash }}-b" fill="#fff"><use xlink:href="#{{ hash }}-a"/></mask><use fill="currentColor" fill-rule="nonzero" xlink:href="#{{ hash }}-a"/><path fill="currentColor" mask="url(#{{ hash }}-b)" d="M-1-3h24v24H-1z"/></g></svg>
