{% load app_tags %}

{% random_hash as hash %}
<svg width="16" height="16" viewBox="0 0 24 24" xmlns="http://www.w3.org/2000/svg" xmlns:xlink="http://www.w3.org/1999/xlink" aria-labelledby="linkedin-icon"><title id="linkedin-icon">Linkedin</title><defs><path d="M22 13.488V22h-4.715v-7.942c0-1.995-.682-3.356-2.39-3.356-1.302 0-2.077.917-2.419 1.805-.124.317-.156.759-.156 1.203V22H7.603s.064-13.45 0-14.844h4.717V9.26l-.031.048h.03V9.26c.627-1.01 1.746-2.453 4.251-2.453 3.104 0 5.43 2.122 5.43 6.681zM2.67 0C1.054 0 0 1.108 0 2.564 0 3.99 1.025 5.13 2.606 5.13h.032c1.645 0 2.668-1.14 2.668-2.566C5.275 1.108 4.283 0 2.669 0zM.28 22h4.715V7.156H.28V22z" id="{{ hash }}-a"/></defs><g transform="translate(1 1)" fill="none" fill-rule="evenodd"><mask id="{{ hash }}-b" fill="#fff"><use xlink:href="#{{ hash }}-a"/></mask><use fill="currentColor" fill-rule="nonzero" xlink:href="#{{ hash }}-a"/><path fill="currentColor" mask="url(#{{ hash }}-b)" d="M-1-1h24v24H-1z"/></g></svg>
