<svg width="24" height="24" xmlns="http://www.w3.org/2000/svg" xmlns:xlink="http://www.w3.org/1999/xlink"><defs><path d="M9 12a2 2 0 1 1 0-4 2 2 0 0 1 0 4zM9 2C4.736 2 2 4.86 2 9c0 1.85 1.247 5.05 3.11 8.176C6.734 19.905 8.574 22 9 22c.439 0 2.278-2.053 3.893-4.735C14.762 14.162 16 10.961 16 9c0-4.294-2.646-7-7-7zm0-2c5.468 0 9 3.612 9 9 0 4.873-6.098 15-9 15-2.86 0-9-10.306-9-15 0-5.224 3.611-9 9-9z" id="a-location"/></defs><g fill="none" fill-rule="evenodd"><mask id="b-location" fill="#fff"><use xlink:href="#a-location"/></mask><use fill="currentColor" xlink:href="#a-location"/><path fill="currentColor" mask="url(#b-location)" d="M-3 0h24v24H-3z"/></g></svg>
