{% load app_tags %}

{% random_hash as hash %}
<svg width="24" height="16" xmlns="http://www.w3.org/2000/svg" xmlns:xlink="http://www.w3.org/1999/xlink"><defs><path d="M18 14h4v-2h-2V5.127C19.428 3 18.01 2 15.5 2c-1.141 0-2.114.278-2.945.832l-.555.37-.555-.37C10.615 2.278 9.641 2 8.5 2c-.855 0-1.537.136-2.053.394L5 3.118V2H2v2h2v8H2v2h7v-2H6V7c0-1.833.875-3 2.5-3S11 5.167 11 7v7h5v-2h-3V7c0-1.833.875-3 2.5-3S18 5.167 18 7v7zM2 6a2 2 0 0 1-2-2V2a2 2 0 0 1 2-2h6.5c1.29 0 2.462.278 3.5.835C13.038.278 14.21 0 15.5 0c3.445 0 5.689 1.631 6.47 4.757l.03.12V10a2 2 0 0 1 2 2v2a2 2 0 0 1-2 2H2a2 2 0 0 1-2-2v-2a2 2 0 0 1 2-2V6zm7 4V7c0-.833-.125-1-.5-1S8 6.167 8 7v3h1zm7 0V7c0-.833-.125-1-.5-1s-.5.167-.5 1v3h1z" id="{{ hash }}-a"/></defs><g fill="none" fill-rule="evenodd"><mask id="{{ hash }}-b" fill="#fff"><use xlink:href="#{{ hash }}-a"/></mask><use fill="#000" fill-rule="nonzero" xlink:href="#{{ hash }}-a"/><path fill="currentColor" mask="url(#{{ hash }}-b)" d="M0-4h24v24H0z"/></g></svg>
