{% load app_tags %}

{% random_hash as hash %}
<svg width="24" height="24" viewBox="0 0 24 24" xmlns="http://www.w3.org/2000/svg" xmlns:xlink="http://www.w3.org/1999/xlink" aria-labelledby="reading-time-icon"><title id="reading-time-icon">Reading time</title><defs><path d="M3 2a1 1 0 0 0-1 1v14a1 1 0 0 0 1 1h14a1 1 0 0 0 1-1V3a1 1 0 0 0-1-1H3zm0-2h14a3 3 0 0 1 3 3v14a3 3 0 0 1-3 3H3a3 3 0 0 1-3-3V3a3 3 0 0 1 3-3zm2 7a1 1 0 1 1 0-2h10a1 1 0 0 1 0 2H5zm0 4a1 1 0 0 1 0-2h10a1 1 0 0 1 0 2H5zm0 4a1 1 0 0 1 0-2h4a1 1 0 0 1 0 2H5z" id="{{ hash }}-a"/></defs><g transform="translate(2 2)" fill="none" fill-rule="evenodd"><mask id="{{ hash }}-b" fill="#fff"><use xlink:href="#{{ hash }}-a"/></mask><use fill="currentColor" fill-rule="nonzero" xlink:href="#{{ hash }}-a"/><path fill="currentColor" mask="url(#{{ hash }}-b)" d="M-2-2h24v24H-2z"/></g></svg>
