{% load app_tags %}

{% random_hash as hash %}
<svg width="24" height="24" viewBox="0 0 24 24" xmlns="http://www.w3.org/2000/svg" xmlns:xlink="http://www.w3.org/1999/xlink"><defs><path d="M.957 1.395c.528 0 .956.429.956.957v5.994a.957.957 0 0 1-1.913 0V2.352c0-.528.428-.957.957-.957zm20.086 0c.529 0 .957.429.957.957v5.994a.957.957 0 0 1-1.913 0V2.352c0-.528.428-.957.956-.957zM4.304 0c.529 0 .957.428.957.957v10.645a.957.957 0 1 1-1.913 0V.957c0-.529.428-.957.956-.957zm13.392 0c.528 0 .956.428.956.957v10.645a.957.957 0 1 1-1.913 0V.957c0-.529.428-.957.957-.957zM7.652 0c.528 0 .957.428.957.957v13.9a.957.957 0 1 1-1.913 0V.957c0-.529.428-.957.956-.957zm6.696 0c.528 0 .956.428.956.957v13.9a.957.957 0 1 1-1.913 0V.957c0-.529.429-.957.957-.957zM11 3.256c.528 0 .957.428.957.956v14.831a.957.957 0 1 1-1.914 0V4.213c0-.529.429-.957.957-.957z" id="{{ hash }}-a"/></defs><g transform="translate(1 2)" fill="none" fill-rule="evenodd"><mask id="{{ hash }}-b" fill="#fff"><use xlink:href="#{{ hash }}-a"/></mask><use fill="currentColor" xlink:href="#{{ hash }}-a"/><path fill="currentColor" mask="url(#{{ hash }}-b)" d="M-1-2h24v24H-1z"/></g></svg>
