{% load app_tags %}

{% random_hash as hash %}
<svg width="16" height="16" viewBox="0 0 24 24" xmlns="http://www.w3.org/2000/svg" xmlns:xlink="http://www.w3.org/1999/xlink" aria-labelledby="twitter-icon"><title id="twitter-icon">Twitter</title><defs><path d="M7.548 19.75c9.056 0 14.01-7.503 14.01-14.01 0-.212 0-.424-.015-.636A10.018 10.018 0 0 0 24 2.556a9.829 9.829 0 0 1-2.828.774A4.94 4.94 0 0 0 23.337.607a9.868 9.868 0 0 1-3.127 1.195 4.929 4.929 0 0 0-8.391 4.49A13.98 13.98 0 0 1 1.67 1.149a4.927 4.927 0 0 0 1.525 6.573A4.888 4.888 0 0 1 .96 7.105v.062a4.925 4.925 0 0 0 3.95 4.827 4.917 4.917 0 0 1-2.223.084 4.93 4.93 0 0 0 4.6 3.42A9.88 9.88 0 0 1 0 17.538a13.94 13.94 0 0 0 7.548 2.208" id="{{ hash }}-a"/></defs><g transform="translate(0 2)" fill="none" fill-rule="evenodd"><mask id="{{ hash }}-b" fill="#fff"><use xlink:href="#{{ hash }}-a"/></mask><use fill="currentColor" xlink:href="#{{ hash }}-a"/><path fill="currentColor" mask="url(#{{ hash }}-b)" d="M0-2h24v24H0z"/></g></svg>
