{% load app_tags %}

{% random_hash as hash %}
<svg width="24" height="18" xmlns="http://www.w3.org/2000/svg" xmlns:xlink="http://www.w3.org/1999/xlink" aria-labelledby="video-icon"><title id="video-icon">Video</title><defs><path d="M3 0h18a3 3 0 0 1 3 3v12a3 3 0 0 1-3 3H3a3 3 0 0 1-3-3V3a3 3 0 0 1 3-3zm0 2a1 1 0 0 0-1 1v12a1 1 0 0 0 1 1h18a1 1 0 0 0 1-1V3a1 1 0 0 0-1-1H3zm13.496 6.132a1 1 0 0 1 0 1.736l-7 4A1 1 0 0 1 8 13V5a1 1 0 0 1 1.496-.868l7 4zM10 6.723v4.554L13.984 9 10 6.723z" id="{{ hash }}-a"/></defs><g fill="none" fill-rule="evenodd"><mask id="{{ hash }}-b" fill="#fff"><use xlink:href="#{{ hash }}-a"/></mask><use fill="currentColor" fill-rule="nonzero" xlink:href="#{{ hash }}-a"/><path fill="#697276" mask="url(#{{ hash }}-b)" d="M0-3h24v24H0z"/></g></svg>
