<svg width="55" height="47" viewBox="0 0 55 47" xmlns="http://www.w3.org/2000/svg"><defs><linearGradient x1="50%" y1="100.019%" x2="50%" y2="0%" id="a"><stop stop-color="#2075BC" offset="0%"/><stop stop-color="#29AAE1" offset="100%"/></linearGradient></defs><g fill-rule="nonzero" fill="none"><path fill="url(#a)" d="M41.271.02V0l-.042.02-.022-.02v.02L27.5 5.33 13.793.02V0l-.022.02L13.73 0v.02L0 5.35V47l13.771-5.1 13.686 5.08V47h.086v-.02l13.686-5.08L55 47V5.35z"/><path d="M41.53 29.912v.362c-.064.021-.106.064-.17.086-1.24.28-3.87-.626-5.068-.863-2.203-.41-2.438.129-4.363 1.122-2.865 1.446-2.288 5.05-3.4 7.145.022.021.022.021.022.043.085.216.15.453.214.69l.128.583c-.32.043-.62.065-.94.087v-.073c-3.092.277-6.185-.23-9.012-1.65-2.29-1.156-4.3-2.835-5.927-4.95.406-.218.792-.436 1.155-.633.236-.13.471-.24.664-.348l-.374-.02v.054c-.3-.086-.107-.021-.577 0l.138-.154c-.17-.04-.069.001-.493.032.664-.785 1.648-1.483 1.712-1.548l.107-.109c-.256.09-.546.18-.844.282v.267c-.599.216-1.197.475-1.582.863.037-.18.089-.352.152-.517a2.847 2.847 0 0 0-.55.413c.192-.943.783-1.654 1.25-2.417-.79.473-1.552 1.012-2.2 1.615.01-.2.063-.397.147-.59-.189.154-.371.313-.545.477.043-.982 1.155-1.898 1.626-2.704.256-.44.62-.795.885-1.193-1.165.53-2.935 1.482-3.716 2.002.05-.162.118-.333.202-.51-.234.14-.44.267-.602.377.406-1.339 2.066-3.263 3.188-4.476-1.16.412-2.805 1.39-3.58 1.825-.02-.065.043-.173-.042-.216.05-.08.108-.164.172-.25-.202.116-.382.22-.53.303-.021-.065.043-.174-.043-.218.66-1.057 2.536-2.658 3.733-3.71-1.353.423-3.219 1.426-4.209 1.76.079-.15.173-.302.279-.456-.254.11-.484.203-.68.27.871-1.68 3.654-3.752 5.41-5.159l-2.85.747c-.555.065-1.09.432-1.582.367.119-.124.245-.252.377-.385-.283.101-.558.19-.82.155 2.033-2.137 6.29-5.779 9.008-7.523 0 0 3.766-2.726 7.575-2.312 1.69.502 3.317 1.156 5.071 1.527 1.54-.414 3.552-.894 4.986.174.067.064.134.13.2.196.07.043.138.089.204.138.963.907 1.903 2.094 1.433 3.54.252.284.536.543.845.784 2.91 2.005 7.446 2.564 8.83 4.501.256.37.107 2.879.599 4.34l-.064.545c-.514 1.09-1.712 3.947-1.306 3.358-.47.676-.855.785-2.097.567-.811.63-1.347.933-2.145 1.387z" fill="#FFF"/></g></svg>
