<?xml version="1.0" encoding="UTF-8"?><svg width="16" height="16" viewBox="0 0 16 16" xmlns="http://www.w3.org/2000/svg" xmlns:xlink="http://www.w3.org/1999/xlink"><defs><path d="M13.269 1.6H9.6a.8.8 0 1 1 0-1.6h5.6a.8.8 0 0 1 .8.8v5.6a.8.8 0 1 1-1.6 0V2.731L8.566 8.566a.8.8 0 1 1-1.132-1.132L13.27 1.6zM5.6 0a.8.8 0 1 1 0 1.6H2.4a.8.8 0 0 0-.8.8v11.2a.8.8 0 0 0 .8.8h11.2a.8.8 0 0 0 .8-.8v-3.2a.8.8 0 1 1 1.6 0v3.2a2.4 2.4 0 0 1-2.4 2.4H2.4A2.4 2.4 0 0 1 0 13.6V2.4A2.4 2.4 0 0 1 2.4 0h3.2z" id="a"/></defs><g fill="none" fill-rule="evenodd"><mask id="b" fill="#fff"><use xlink:href="#a"/></mask><use fill="#0060df" fill-rule="nonzero" xlink:href="#a"/><path fill="#0060df" mask="url(#b)" d="M-2-2h24v24H-2z"/></g></svg>
