<svg width="36px" height="48px" viewBox="0 0 36 48" version="1.1" xmlns="http://www.w3.org/2000/svg" xmlns:xlink="http://www.w3.org/1999/xlink">
    <g id="Website---Desktop" stroke="none" stroke-width="1" fill="none" fill-rule="evenodd">
        <g id="Desktop---Profile-Page---01" transform="translate(-231.000000, -159.000000)" fill="#FFFFFF" fill-rule="nonzero">
            <path d="M264.421875,207 C265.382812,207 266.132812,206.226562 266.132812,205.289062 L266.132812,174.421875 L250.710938,159 L233.578125,159 C232.617188,159 231.867188,159.773438 231.867188,160.710938 L231.867188,205.289062 C231.867188,206.226562 232.617188,207 233.578125,207 L264.421875,207 Z M264.421875,205.289062 L233.578125,205.289062 L233.578125,160.710938 L249,160.710938 L249,175.289062 C249,175.757812 249.375,176.132812 249.867188,176.132812 L264.421875,176.132812 L264.421875,205.289062 Z M263.578125,174.421875 L250.710938,174.421875 L250.710938,161.578125 L263.578125,174.421875 Z" id="d"></path>
        </g>
    </g>
</svg>