<svg width="36" height="48" viewBox="0 0 36 48" version="1.1" xmlns="http://www.w3.org/2000/svg" xmlns:xlink="http://www.w3.org/1999/xlink"><g id="about" stroke="none" stroke-width="1" fill="none" fill-rule="evenodd"><g id="about-1" transform="translate(-231.000000, -159.000000)" fill="#FFF" fill-rule="nonzero"><g id="about-1-1" transform="translate(0.000000, 96.000000)"><path d="M264.421875,111 C265.382812,111 266.132812,110.226562 266.132812,109.289062 L266.132812,64.7109375 C266.132812,63.7734375 265.382812,63 264.421875,63 L233.578125,63 C232.617188,63 231.867188,63.7734375 231.867188,64.7109375 L231.867188,109.289062 C231.867188,110.226562 232.617188,111 233.578125,111 L264.421875,111 Z M264.421875,109.289062 L233.578125,109.289062 L233.578125,64.7109375 L264.421875,64.7109375 L264.421875,109.289062 Z M246.421875,69.84375 C246.890625,69.84375 247.289062,69.46875 247.289062,69 C247.289062,68.53125 246.890625,68.1328125 246.421875,68.1328125 L237.867188,68.1328125 C237.375,68.1328125 237,68.53125 237,69 C237,69.46875 237.375,69.84375 237.867188,69.84375 L246.421875,69.84375 Z M260.132812,80.1328125 C260.625,80.1328125 261,79.7578125 261,79.2890625 L261,69 C261,68.53125 260.625,68.1328125 260.132812,68.1328125 L251.578125,68.1328125 C251.109375,68.1328125 250.710938,68.53125 250.710938,69 L250.710938,79.2890625 C250.710938,79.7578125 251.109375,80.1328125 251.578125,80.1328125 L260.132812,80.1328125 Z M259.289062,78.421875 L252.421875,78.421875 L252.421875,69.84375 L259.289062,69.84375 L259.289062,78.421875 Z M246.421875,75 C246.890625,75 247.289062,74.625 247.289062,74.1328125 C247.289062,73.6640625 246.890625,73.2890625 246.421875,73.2890625 L237.867188,73.2890625 C237.375,73.2890625 237,73.6640625 237,74.1328125 C237,74.625 237.375,75 237.867188,75 L246.421875,75 Z M246.421875,80.1328125 C246.890625,80.1328125 247.289062,79.7578125 247.289062,79.2890625 C247.289062,78.8203125 246.890625,78.421875 246.421875,78.421875 L237.867188,78.421875 C237.375,78.421875 237,78.8203125 237,79.2890625 C237,79.7578125 237.375,80.1328125 237.867188,80.1328125 L246.421875,80.1328125 Z M260.132812,85.2890625 C260.625,85.2890625 261,84.890625 261,84.421875 C261,83.953125 260.625,83.578125 260.132812,83.578125 L237.867188,83.578125 C237.375,83.578125 237,83.953125 237,84.421875 C237,84.890625 237.375,85.2890625 237.867188,85.2890625 L260.132812,85.2890625 Z M260.132812,90.421875 C260.625,90.421875 261,90.046875 261,89.578125 C261,89.0859375 260.625,88.7109375 260.132812,88.7109375 L237.867188,88.7109375 C237.375,88.7109375 237,89.0859375 237,89.578125 C237,90.046875 237.375,90.421875 237.867188,90.421875 L260.132812,90.421875 Z M260.132812,95.578125 C260.625,95.578125 261,95.1796875 261,94.7109375 C261,94.2421875 260.625,93.84375 260.132812,93.84375 L237.867188,93.84375 C237.375,93.84375 237,94.2421875 237,94.7109375 C237,95.1796875 237.375,95.578125 237.867188,95.578125 L260.132812,95.578125 Z M260.132812,100.710938 C260.625,100.710938 261,100.335938 261,99.84375 C261,99.375 260.625,99 260.132812,99 L237.867188,99 C237.375,99 237,99.375 237,99.84375 C237,100.335938 237.375,100.710938 237.867188,100.710938 L260.132812,100.710938 Z M255,105.84375 C255.46875,105.84375 255.867188,105.46875 255.867188,105 C255.867188,104.53125 255.46875,104.132812 255,104.132812 L237.867188,104.132812 C237.375,104.132812 237,104.53125 237,105 C237,105.46875 237.375,105.84375 237.867188,105.84375 L255,105.84375 Z" id="p"/></g></g></g></svg>
