<svg version="1.1" xmlns="http://www.w3.org/2000/svg" xmlns:xlink="http://www.w3.org/1999/xlink" x="0" y="0" width="60" height="60" viewBox="0, 0, 60, 60">
  <g id="icon-/-events">
    <path d="M46,44 L38,44 L38,36 L46,36 L46,44 z M34,24 L26,24 L26,32 L34,32 L34,24 z M46,24 L38,24 L38,32 L46,32 L46,24 z M22,36 L14,36 L14,44 L22,44 L22,36 z M54,8 L54,52 L6,52 L6,8 L54,8 z M50,20 L10,20 L10,48 L50,48 L50,20 z M34,36 L26,36 L26,44 L34,44 L34,36 z M22,24 L14,24 L14,32 L22,32 L22,24 z" fill="#FFFFFF" id="events"/>
  </g>
</svg>
