<svg width="48px" height="48px" viewBox="0 0 48 48" version="1.1" xmlns="http://www.w3.org/2000/svg" xmlns:xlink="http://www.w3.org/1999/xlink">
    <g id="Website---Desktop" stroke="none" stroke-width="1" fill="none" fill-rule="evenodd">
        <g id="Desktop---Events-Page---01" transform="translate(-225.000000, -159.000000)" fill="#FFFFFF" fill-rule="nonzero">
            <g id="Group" transform="translate(0.000000, 96.000000)">
                <path d="M273,111 L273,68.1328125 L265.289062,68.1328125 L265.289062,63 L263.578125,63 L263.578125,68.1328125 L234.421875,68.1328125 L234.421875,63 L232.710938,63 L232.710938,68.1328125 L225,68.1328125 L225,111 L273,111 Z M271.289062,73.2890625 L226.710938,73.2890625 L226.710938,69.8671875 L232.710938,69.8671875 L232.710938,71.578125 L234.421875,71.578125 L234.421875,69.8671875 L263.578125,69.8671875 L263.578125,71.578125 L265.289062,71.578125 L265.289062,69.8671875 L271.289062,69.8671875 L271.289062,73.2890625 Z M271.289062,109.289062 L226.710938,109.289062 L226.710938,75 L271.289062,75 L271.289062,109.289062 Z M257.578125,85.2890625 L257.578125,78.421875 L250.710938,78.421875 L250.710938,85.2890625 L257.578125,85.2890625 Z M247.289062,85.2890625 L247.289062,78.421875 L240.421875,78.421875 L240.421875,85.2890625 L247.289062,85.2890625 Z M267.867188,85.2890625 L267.867188,78.421875 L261,78.421875 L261,85.2890625 L267.867188,85.2890625 Z M245.578125,83.578125 L242.132812,83.578125 L242.132812,80.1328125 L245.578125,80.1328125 L245.578125,83.578125 Z M255.867188,83.578125 L252.421875,83.578125 L252.421875,80.1328125 L255.867188,80.1328125 L255.867188,83.578125 Z M266.132812,83.578125 L262.710938,83.578125 L262.710938,80.1328125 L266.132812,80.1328125 L266.132812,83.578125 Z M267.867188,95.578125 L267.867188,88.7109375 L261,88.7109375 L261,95.578125 L267.867188,95.578125 Z M247.289062,95.578125 L247.289062,88.7109375 L240.421875,88.7109375 L240.421875,95.578125 L247.289062,95.578125 Z M237,95.578125 L237,88.7109375 L230.132812,88.7109375 L230.132812,95.578125 L237,95.578125 Z M257.578125,95.578125 L257.578125,88.7109375 L250.710938,88.7109375 L250.710938,95.578125 L257.578125,95.578125 Z M255.867188,93.8671875 L252.421875,93.8671875 L252.421875,90.421875 L255.867188,90.421875 L255.867188,93.8671875 Z M266.132812,93.8671875 L262.710938,93.8671875 L262.710938,90.421875 L266.132812,90.421875 L266.132812,93.8671875 Z M235.289062,93.8671875 L231.867188,93.8671875 L231.867188,90.421875 L235.289062,90.421875 L235.289062,93.8671875 Z M245.578125,93.8671875 L242.132812,93.8671875 L242.132812,90.421875 L245.578125,90.421875 L245.578125,93.8671875 Z M237,105.867188 L237,99 L230.132812,99 L230.132812,105.867188 L237,105.867188 Z M257.578125,105.867188 L257.578125,99 L250.710938,99 L250.710938,105.867188 L257.578125,105.867188 Z M247.289062,105.867188 L247.289062,99 L240.421875,99 L240.421875,105.867188 L247.289062,105.867188 Z M255.867188,104.132812 L252.421875,104.132812 L252.421875,100.710938 L255.867188,100.710938 L255.867188,104.132812 Z M235.289062,104.132812 L231.867188,104.132812 L231.867188,100.710938 L235.289062,100.710938 L235.289062,104.132812 Z M245.578125,104.132812 L242.132812,104.132812 L242.132812,100.710938 L245.578125,100.710938 L245.578125,104.132812 Z" id="c"></path>
            </g>
        </g>
    </g>
</svg>