<svg width="24" height="24" viewBox="0 0 24 24" xmlns="http://www.w3.org/2000/svg" xmlns:xlink="http://www.w3.org/1999/xlink"><defs><path d="M16 17.956v-4.785c4.143.378 6 1.301 6 1.829 0 1.028-2.706 2.667-6 2.956zm6-10.081v4.596c-1.549-.751-3.795-1.13-6-1.314V9.956c2.251-.192 4.472-1.008 6-2.081zM12 11c-.616 0-1.297.014-2 .04V9a1 1 0 0 0-1-1C5.167 8 2.008 5.735 2 5c0-.917 3.778-3 10-3 6.222 0 10 2.083 10 3-.008.735-3.167 3-7 3a1 1 0 0 0-1 1v2.04a54.939 54.939 0 0 0-2-.04zm-4 6.956C4.706 17.667 2 16.028 2 15c0-.528 1.857-1.451 6-1.829v4.785zm0-6.799c-2.205.184-4.451.563-6 1.314V7.875c1.528 1.073 3.749 1.889 6 2.081v1.201zm15.996-6.193C23.947 1.897 17.749 0 12 0 6.229 0 0 1.912 0 5v10c0 2.861 4.751 5 9 5a1 1 0 0 0 1-1v-5.958c.63-.025 1.289-.042 2-.042.711 0 1.37.017 2 .042V19a1 1 0 0 0 1 1c4.249 0 9-2.139 9-5V5v-.015c0-.007-.004-.013-.004-.021z" id="a"/></defs><g transform="translate(0 2)" fill="none" fill-rule="evenodd"><mask id="b" fill="#fff"><use xlink:href="#a"/></mask><use fill="#000" xlink:href="#a"/><path fill="#000" mask="url(#b)" d="M-5.684-7.5h35.368v35H-5.684z"/></g></svg>
