<svg width="48px" height="42px" viewBox="0 0 48 42" version="1.1" xmlns="http://www.w3.org/2000/svg" xmlns:xlink="http://www.w3.org/1999/xlink">
    <g id="Website---Desktop" stroke="none" stroke-width="1" fill="none" fill-rule="evenodd">
        <g id="Desktop---People-Page---01" transform="translate(-225.000000, -162.000000)" fill="#FFFFFF" fill-rule="nonzero">
            <g id="Group" transform="translate(0.000000, 96.000000)">
                <path d="M262.710938,107.554688 L262.710938,106.664062 C262.617188,101.53125 258.703125,99.7734375 255.867188,98.484375 C254.273438,97.7578125 253.265625,97.0546875 252.351562,96.5625 C250.640625,95.5546875 249.84375,95.109375 249.84375,92.109375 C249.84375,88.2890625 253.007812,86.0390625 253.195312,85.640625 C254.226562,83.53125 253.710938,81.7734375 253.382812,80.9765625 C255.609375,76.0078125 252.914062,71.9296875 252.328125,71.1328125 C250.875,66.9609375 247.78125,66.0703125 245.414062,66.0703125 C242.625,66.0703125 240.140625,67.2890625 240.09375,67.3125 C237.515625,68.3671875 235.757812,70.0078125 234.867188,72.234375 C233.414062,75.8203125 234.726562,79.7578125 235.195312,80.953125 C234.046875,83.765625 235.382812,85.6875 235.429688,85.7578125 C235.6875,86.015625 238.710938,88.3359375 238.710938,92.109375 C238.710938,95.7421875 236.742188,96.5625 233.8125,97.40625 C230.953125,98.3671875 225,100.3125 225,106.6875 L225,107.554688 L262.710938,107.554688 Z M260.929688,105.820312 L226.757812,105.820312 C227.273438,101.367188 231.84375,99.8671875 234.351562,99.046875 L234.705845,98.9287088 C237.489269,97.9970683 240.421875,96.8753189 240.421875,92.109375 C240.421875,87.9140625 237.46875,85.2421875 236.789062,84.6796875 C236.601562,84.3515625 236.0625,83.109375 236.90625,81.3515625 L237.070312,80.9765625 L236.90625,80.625 C236.90625,80.578125 235.03125,76.40625 236.460938,72.8671875 C237.164062,71.0859375 238.59375,69.7734375 240.796875,68.8828125 C240.820312,68.8828125 243.046875,67.78125 245.414062,67.78125 C248.109375,67.78125 249.84375,69.09375 250.804688,71.953125 C250.921875,72.1171875 253.945312,75.984375 251.648438,80.6015625 L251.4375,81.0234375 L251.695312,81.421875 C251.695312,81.4453125 252.5625,82.8515625 251.71875,84.7265625 C250.96875,85.359375 248.132812,88.03125 248.132812,92.109375 C248.132812,95.90625 249.421875,96.8203125 251.507812,98.0390625 C252.46875,98.6015625 253.664062,99.3515625 255.140625,100.03125 C257.648438,101.15625 260.460938,102.445312 260.929688,105.820312 Z M273,104.15625 L272.976562,103.265625 C272.90625,98.7421875 269.507812,97.1953125 267.046875,96.0703125 C265.664062,95.4609375 264.796875,94.8515625 264.046875,94.4296875 C262.570312,93.5625 261.960938,93.2109375 261.960938,90.7265625 C261.960938,87.421875 264.632812,85.59375 264.820312,85.1953125 C265.6875,83.390625 265.289062,81.84375 265.007812,81.1171875 C266.882812,76.828125 264.609375,73.3125 264.070312,72.5859375 C262.804688,68.90625 260.109375,68.1328125 258.046875,68.1328125 C255.632812,68.1328125 253.476562,69.2109375 253.453125,69.234375 C253.40625,69.234375 253.382812,69.2578125 253.359375,69.28125 C253.546875,69.6328125 253.710938,69.984375 253.851562,70.3828125 C253.945312,70.5 254.039062,70.640625 254.132812,70.828125 C254.132812,70.8046875 254.15625,70.8046875 254.15625,70.8046875 C254.179688,70.8046875 256.03125,69.8671875 258.046875,69.8671875 C260.273438,69.8671875 261.75,70.9921875 262.546875,73.40625 C262.757812,73.6640625 265.195312,76.875 263.273438,80.71875 L263.0625,81.1640625 L263.296875,81.5625 C263.34375,81.609375 264,82.7578125 263.34375,84.2578125 C262.664062,84.84375 260.25,87.1875 260.25,90.7265625 C260.25,94.21875 261.609375,95.015625 263.179688,95.9296875 C264.023438,96.4453125 265.054688,97.0546875 266.320312,97.6640625 C268.40625,98.6015625 270.726562,99.65625 271.171875,102.398438 L263.367188,102.398438 C263.648438,102.9375 263.882812,103.523438 264.046875,104.15625 L273,104.15625 Z" id="a"></path>
            </g>
        </g>
    </g>
</svg>