<svg version="1.1" xmlns="http://www.w3.org/2000/svg" xmlns:xlink="http://www.w3.org/1999/xlink" x="0" y="0" width="60" height="60" viewBox="0, 0, 60, 60">
  <g id="icon-/-speaker">
    <path d="M30,12.5 C31.93,12.5 33.5,14.07 33.5,16 L33.5,28.25 C33.5,30.18 31.93,31.75 30,31.75 C28.07,31.75 26.5,30.18 26.5,28.25 L26.5,16 C26.5,14.07 28.07,12.5 30,12.5 z M30,9 C26.134,9 23,12.134 23,16 L23,28.25 C23,32.116 26.134,35.25 30,35.25 C33.866,35.25 37,32.116 37,28.25 L37,16 C37,12.134 33.866,9 30,9 z M44,24.75 L44,28.25 C44,35.981 37.731,42.25 30,42.25 C22.268,42.25 16,35.981 16,28.25 L16,24.75 L19.5,24.75 L19.5,28.25 C19.5,34.041 24.209,38.75 30,38.75 C35.791,38.75 40.5,34.041 40.5,28.25 L40.5,24.75 L44,24.75 z M31.75,47.5 L31.75,44 L28.25,44 L28.25,47.5 L21.25,47.5 L21.25,51 L38.75,51 L38.75,47.5 L31.75,47.5 z" fill="#FFFFFF" id="speaker"/>
  </g>
</svg>
