<svg width="48px" height="32px" viewBox="0 0 48 32" version="1.1" xmlns="http://www.w3.org/2000/svg" xmlns:xlink="http://www.w3.org/1999/xlink">
    <g id="Website---Desktop" stroke="none" stroke-width="1" fill="none" fill-rule="evenodd">
        <g id="Desktop---Topic-Page---01" transform="translate(-225.000000, -167.000000)" fill="#FFFFFF" fill-rule="nonzero">
            <g id="Group-3" transform="translate(0.000000, 96.000000)">
                <path d="M252.421875,102.421875 C254.320312,102.421875 255.867188,100.898438 255.867188,99 L255.867188,75 C255.867188,73.1015625 254.320312,71.578125 252.421875,71.578125 L228.421875,71.578125 C226.523438,71.578125 225,73.1015625 225,75 L225,99 C225,100.898438 226.523438,102.421875 228.421875,102.421875 L252.421875,102.421875 Z M252.421875,100.710938 L228.421875,100.710938 C227.484375,100.710938 226.710938,99.9375 226.710938,99 L226.710938,75 C226.710938,74.0625 227.484375,73.2890625 228.421875,73.2890625 L252.421875,73.2890625 C253.382812,73.2890625 254.132812,74.0625 254.132812,75 L254.132812,99 C254.132812,99.9375 253.382812,100.710938 252.421875,100.710938 Z M272.132812,100.710938 C272.625,100.710938 273,100.335938 273,99.8671875 L273,74.1328125 C273,73.6640625 272.625,73.2890625 272.132812,73.2890625 C271.96875,73.2890625 271.804688,73.359375 271.664062,73.453125 L271.664062,73.4296875 L257.953125,82.875 C257.71875,83.0390625 257.578125,83.2734375 257.578125,83.578125 L257.578125,92.1328125 C257.578125,92.4609375 257.765625,92.7421875 258.023438,92.8828125 L258,92.8828125 L271.734375,100.59375 C271.851562,100.664062 271.992188,100.710938 272.132812,100.710938 Z M271.289062,98.390625 L259.289062,91.640625 L259.289062,84.0234375 L271.289062,75.7734375 L271.289062,98.390625 Z" id="v"></path>
            </g>
        </g>
    </g>
</svg>