<svg version="1.1" xmlns="http://www.w3.org/2000/svg" xmlns:xlink="http://www.w3.org/1999/xlink" x="0" y="0" width="46" height="46" viewBox="0, 0, 46, 46">
  <g id="av1-video" transform="translate(-7, -7)">
    <path d="M40.47,28.714 C41.844,29.568 41.844,31.582 40.47,32.436 L26.4,41.172 C24.958,42.068 23.101,41.022 23.101,39.313 L23.101,21.837 C23.101,20.128 24.958,19.082 26.4,19.978 L40.471,28.714 L40.47,28.714 z M27.429,25.747 L27.429,35.404 L35.205,30.575 L27.43,25.746 L27.429,25.747 z M30,53 C17.297,53 7,42.703 7,30 C7,17.297 17.297,7 30,7 C42.703,7 53,17.297 53,30 C53,42.703 42.703,53 30,53 z M30,48.819 C40.393,48.819 48.819,40.393 48.819,30 C48.819,19.607 40.393,11.181 30,11.181 C19.607,11.181 11.181,19.607 11.181,30 C11.181,40.393 19.607,48.819 30,48.819 z" fill="#FFFFFF" id="av1video"/>
  </g>
</svg>
