<?xml version="1.0" encoding="UTF-8"?><svg width="320" height="344" xmlns="http://www.w3.org/2000/svg"><g fill="none" fill-rule="evenodd"><path stroke="#67CEDF" stroke-width="4" stroke-linejoin="round" d="M94 24L24 137 17 34.21z"/><path stroke="#F63B87" stroke-width="4" stroke-linejoin="round" d="M127 19L59.382 51.413 40 152z"/><path stroke="#FBD642" stroke-width="3" stroke-linejoin="round" d="M33.18 19L105 40.092 5 93z"/><path stroke="#191316" stroke-width="2" stroke-linejoin="round" d="M17 120L67.5 5l50.473 14z"/><circle fill="#000" cx="68.5" cy="5.5" r="5.5"/><circle fill="#000" cx="116.5" cy="18.5" r="3.5"/><circle fill="#000" cx="34.5" cy="18.5" r="5.5"/><circle fill="#000" cx="40.5" cy="152.5" r="4.5"/><circle fill="#000" cx="4.5" cy="91.5" r="4.5"/><circle fill="#000" cx="16.5" cy="120.5" r="3.5"/><g transform="translate(183 201)"><path stroke="#F63B87" stroke-width="3" stroke-linejoin="round" d="M0 132L99.717 4 111 100.66z"/><path stroke="#FBD642" stroke-width="2" stroke-linejoin="round" d="M35 140l80.27-111L133 55.052z"/><path stroke="#191316" stroke-width="2" stroke-linejoin="round" d="M56 140l8.397-117L103 127.79z"/><path stroke="#67CEDF" stroke-width="3" stroke-linejoin="round" d="M12 137L91.616 29l28.804 20.243L127 92.925 46.377 137z"/><circle fill="#000" cx="99.5" cy="5.5" r="5.5"/><circle fill="#000" cx="133.5" cy="55.5" r="3.5"/><circle fill="#000" cx="12.5" cy="137.5" r="5.5"/><circle fill="#000" cx="102.5" cy="128.5" r="2.5"/><circle fill="#000" cx="64.5" cy="22.5" r="2.5"/></g></g></svg>
