<?xml version="1.0" encoding="UTF-8"?><svg width="320" height="344" xmlns="http://www.w3.org/2000/svg"><g fill="none" fill-rule="evenodd"><g transform="translate(122)"><path stroke="#67CEDF" stroke-width="3" stroke-linejoin="bevel" d="M5.472 41.057L133.44 95.179l42.745-43.294L47.148 18.958z"/><path stroke="#191316" stroke-width="2" stroke-linejoin="bevel" d="M2.029 60.584L160.883 31.46l3.639 57.776z"/><path stroke="#F63B87" stroke-width="3" stroke-linejoin="bevel" d="M96.528 14.853l92.29 69.044L3.674 51.25z"/><path stroke="#FBD642" stroke-width="2" stroke-linejoin="bevel" d="M64.893 9.275L183.49 62.292l-95.402-1.59z"/><circle fill="#000" cx="99.5" cy="15.5" r="5.5"/><circle fill="#000" cx="65.5" cy="8.5" r="3.5"/><circle fill="#000" cx="160.5" cy="31.5" r="5.5"/><circle fill="#000" cx="175.5" cy="51.5" r="3.5"/><circle fill="#000" cx="188.5" cy="83.5" r="5.5"/><circle fill="#000" cx="4.5" cy="41.5" r="4.5"/><circle fill="#000" cx="87.5" cy="60.5" r="3.5"/></g><g transform="translate(0 243)"><path stroke="#FADA5B" stroke-width="4" stroke-linejoin="bevel" d="M5.452 5.874L77.19 37.207 43.596 64.958z"/><path stroke="#F63B87" stroke-width="2" stroke-linejoin="bevel" d="M6.216 16.014L116.94 84.296 80.22 91.244z"/><path stroke="#191316" stroke-width="3" stroke-linejoin="bevel" d="M7.926 49.803l142.013-14.512L163.914 64.6z"/><path stroke="#67CEDF" stroke-width="3" stroke-linejoin="bevel" d="M147.4 71.447L32.77 24.207l97.348 71.003z"/><circle fill="#000" cx="5.5" cy="5.5" r="5.5"/><circle fill="#000" cx="163.5" cy="63.5" r="5.5"/><circle fill="#000" cx="81.5" cy="91.5" r="3.5"/><circle fill="#000" cx="7.5" cy="49.5" r="3.5"/></g></g></svg>
