<svg width="606" height="321" xmlns="http://www.w3.org/2000/svg" xmlns:xlink="http://www.w3.org/1999/xlink"><defs><path id="a" d="M0 0h609v321H0z"/><path id="c" d="M0 500h200L445 0H245z"/><linearGradient x1="50%" y1="0%" x2="50%" y2="100%" id="e"><stop offset="0%"/><stop stop-color="#686874" offset="100%"/></linearGradient><linearGradient x1="50%" y1="0%" x2="50%" y2="100%" id="f"><stop offset="0%"/><stop stop-color="#686874" offset="100%"/></linearGradient><linearGradient x1="50%" y1="0%" x2="50%" y2="100%" id="g"><stop offset="0%"/><stop stop-color="#686874" offset="100%"/></linearGradient><linearGradient x1="50%" y1="0%" x2="50%" y2="100%" id="h"><stop offset="0%"/><stop stop-color="#686874" offset="100%"/></linearGradient><linearGradient x1="50%" y1="0%" x2="50%" y2="100%" id="i"><stop offset="0%"/><stop stop-color="#686874" offset="100%"/></linearGradient><linearGradient x1="50%" y1="0%" x2="50%" y2="100%" id="j"><stop offset="0%"/><stop stop-color="#686874" offset="100%"/></linearGradient><path id="k" d="M0 500h200L445 0H245z"/></defs><g transform="translate(-3)" fill="none" fill-rule="evenodd"><mask id="b" fill="#fff"><use xlink:href="#a"/></mask><g mask="url(#b)"><g transform="translate(-84)"><mask id="d" fill="#fff"><use xlink:href="#c"/></mask><use fill="#EDEDF0" xlink:href="#c"/><g mask="url(#d)"><path d="M21.6 333l-4.5 11H16l4.5-11h1.1zm3.4 0l-4.5 11h-1.1l4.5-11H25zm16.6 50l-4.5 11H36l4.5-11h1.1zm3.4 0l-4.5 11h-1.1l4.5-11H45zm21.6 17l-4.5 11H61l4.5-11h1.1zm3.4 0l-4.5 11h-1.1l4.5-11H70zm-58-63h2v2h-2v-2zm0 5h2v2h-2v-2zm20 45h2v2h-2v-2zm0 5h2v2h-2v-2zm-23-1h2v2H9v-2zm0 5h2v2H9v-2zm21.7-52.8a7.4 7.4 0 0 1-2.7-5.5l.1-1.5a6.7 6.7 0 0 1 .5-1.4 7.7 7.7 0 0 1 .9-1.4c.3-.5.7-1 1.2-1.4l.6.6a6.9 6.9 0 0 0-2.3 5c0 .9.2 1.8.6 2.6a8 8 0 0 0 1.7 2.4l-.6.6zm-5-48a7.4 7.4 0 0 1-2.7-5.5l.1-1.5a6.7 6.7 0 0 1 .5-1.4 7.7 7.7 0 0 1 .9-1.4c.3-.5.7-1 1.2-1.4l.6.6a6.9 6.9 0 0 0-2.3 5c0 .9.2 1.8.6 2.6a8 8 0 0 0 1.7 2.4l-.6.6zm50 88a7.4 7.4 0 0 1-2.7-5.5l.1-1.5a6.7 6.7 0 0 1 .5-1.4 7.7 7.7 0 0 1 .9-1.4c.3-.5.7-1 1.2-1.4l.6.6a6.9 6.9 0 0 0-2.3 5c0 .9.2 1.8.6 2.6a8 8 0 0 0 1.7 2.4l-.6.6zm-41-51.2a7.5 7.5 0 0 1 2.6 5.6l-.1 1.3a6.5 6.5 0 0 1-.5 1.4 8 8 0 0 1-.8 1.4c-.3.5-.8 1-1.3 1.5l-.6-.6c.8-.8 1.3-1.6 1.7-2.4.4-.8.6-1.7.6-2.6 0-1.8-.8-3.5-2.3-5l.6-.6zm46 40a7.5 7.5 0 0 1 2.6 5.6l-.1 1.3a6.5 6.5 0 0 1-.5 1.4 8 8 0 0 1-.8 1.4c-.3.5-.8 1-1.3 1.5l-.6-.6c.8-.8 1.3-1.6 1.7-2.4.4-.8.6-1.7.6-2.6 0-1.8-.8-3.5-2.3-5l.6-.6zm-33-28.5H45v-10.9h2.9v.9h-2v9.2h2v.8zM70 313H67V302h2.9v.8h-2v9.3h2v.8zm-9-27H58V275h2.9v.8h-2v9.3h2v.8zm-6 58H52v-.8h2v-9.3h-2v-.8h2.9v10.9zm21-31H73v-.8h2v-9.3h-2v-.8h2.9v10.9zm61 59H134v-.8h2v-9.3h-2v-.8h2.9v10.9zM38 343.6v-1.1h.9c.3 0 .6-.1.8-.3.2-.2.3-.5.3-.9v-.8c0-.4 0-.7.2-1 .1-.3.3-.6.6-.7a1.8 1.8 0 0 1-.7-.7 2 2 0 0 1-.2-1v-1c0-.4 0-.6-.2-.8l-.5-.2H38V334h1c.7 0 1.3.2 1.7.5.4.4.6 1 .6 1.7v1l.1.8c.1.2.3.2.6.2h.5v1.1H42c-.3 0-.4 0-.6.2l-.1.8v1c0 .6 0 1-.3 1.4-.2.3-.5.5-.9.7l-1.4.2H38zm-34.2 0l-1.5-.2a1.6 1.6 0 0 1-.8-.7c-.2-.4-.3-.8-.3-1.4v-1c0-.4 0-.6-.2-.8l-.5-.2H0v-1h.5c.2 0 .4-.1.5-.3.2-.1.2-.4.2-.7v-1.1c0-.7.2-1.3.6-1.7.4-.3 1-.5 1.7-.5h1v1H3.3c-.3 0-.5.2-.6.3l-.2.7v1.2c0 .3 0 .6-.2.9-.1.3-.3.5-.6.7.2.1.5.4.6.7.2.3.2.6.2 1v.8c0 .4 0 .7.3 1l.8.2h.8v1h-.6z" fill="url(#e)" fill-rule="nonzero" transform="translate(65 1)"/><path d="M74.6 200l-4.5 11H69l4.5-11h1.1zm3.4 0l-4.5 11h-1.1l4.5-11H78zm-13 4h2v2h-2v-2zm0 5h2v2h-2v-2zm18.7 1.2a7.4 7.4 0 0 1-2.7-5.5l.1-1.5a6.7 6.7 0 0 1 .5-1.4 7.7 7.7 0 0 1 .9-1.4c.3-.5.7-1 1.2-1.4l.6.6a6.9 6.9 0 0 0-2.3 5c0 .9.2 1.8.6 2.6a8 8 0 0 0 1.7 2.4l-.6.6zm-5-48a7.4 7.4 0 0 1-2.7-5.5l.1-1.5a6.7 6.7 0 0 1 .5-1.4 7.7 7.7 0 0 1 .9-1.4c.3-.5.7-1 1.2-1.4l.6.6a6.9 6.9 0 0 0-2.3 5c0 .9.2 1.8.6 2.6a8 8 0 0 0 1.7 2.4l-.6.6zm50 88a7.4 7.4 0 0 1-2.7-5.5l.1-1.5a6.7 6.7 0 0 1 .5-1.4 7.7 7.7 0 0 1 .9-1.4c.3-.5.7-1 1.2-1.4l.6.6a6.9 6.9 0 0 0-2.3 5c0 .9.2 1.8.6 2.6a8 8 0 0 0 1.7 2.4l-.6.6zm-41-51.2a7.5 7.5 0 0 1 2.6 5.6l-.1 1.3a6.5 6.5 0 0 1-.5 1.4 8 8 0 0 1-.8 1.4c-.3.5-.8 1-1.3 1.5l-.6-.6c.8-.8 1.3-1.6 1.7-2.4.4-.8.6-1.7.6-2.6 0-1.8-.8-3.5-2.3-5l.6-.6zm46 40a7.5 7.5 0 0 1 2.6 5.6l-.1 1.3a6.5 6.5 0 0 1-.5 1.4 8 8 0 0 1-.8 1.4c-.3.5-.8 1-1.3 1.5l-.6-.6c.8-.8 1.3-1.6 1.7-2.4.4-.8.6-1.7.6-2.6 0-1.8-.8-3.5-2.3-5l.6-.6zm-33-28.5H98v-10.9h2.9v.9h-2v9.2h2v.8zM123 180H120V169h2.9v.8h-2v9.3h2v.8zm-9-27H111V142h2.9v.8h-2v9.3h2v.8zm-6 58H105v-.8h2v-9.3h-2v-.8h2.9v10.9zm21-31H126v-.8h2v-9.3h-2v-.8h2.9v10.9zm61 59H187v-.8h2v-9.3h-2v-.8h2.9v10.9zM91 210.6v-1.1h.9c.3 0 .6-.1.8-.3.2-.2.3-.5.3-.9v-.8c0-.4 0-.7.2-1 .1-.3.3-.6.6-.7a1.8 1.8 0 0 1-.7-.7 2 2 0 0 1-.2-1v-1c0-.4 0-.6-.2-.8l-.5-.2H91V201h1c.7 0 1.3.2 1.7.5.4.4.6 1 .6 1.7v1l.1.8c.1.2.3.2.6.2h.5v1.1H95c-.3 0-.4 0-.6.2l-.1.8v1c0 .6-.1 1-.3 1.4-.2.3-.5.5-.9.7l-1.4.2H91zm-34.2 0l-1.5-.2a1.6 1.6 0 0 1-.8-.7c-.2-.4-.3-.8-.3-1.4v-1c0-.4 0-.6-.2-.8l-.5-.2H53v-1h.5c.2 0 .4-.1.5-.3.2-.1.2-.4.2-.7v-1.1c0-.7.2-1.3.6-1.7.4-.3 1-.5 1.7-.5h1v1h-1.2c-.3 0-.5.2-.6.3l-.2.7v1.2c0 .3 0 .6-.2.9-.1.3-.3.5-.6.7l.6.7c.2.3.2.6.2 1v.8c0 .4 0 .7.3 1l.8.2h.8v1h-.6z" fill="url(#f)" fill-rule="nonzero" transform="translate(65 1)"/><path d="M259 94.5h3v.8h-2v8.4h2v.8h-3v-10zm16.9 0l-.2 5.8h-.9l-.1-5.8h1.2zm-.6 6.5a.7.7 0 0 1 .5.2l.1.3a.7.7 0 0 1 0 .6.7.7 0 0 1-1 .3.8.8 0 0 1-.2-.1.7.7 0 0 1-.1-.8.8.8 0 0 1 .4-.4.7.7 0 0 1 .3 0zm8.7 3.5h-3v-10h3v.8h-2v8.4h2v.8zm7 0h-3v-.8h2v-8.4h-2v-.8h3v10zM318.6 94a7.1 7.1 0 0 1 2.3 6.5 6.3 6.3 0 0 1-.4 1.3l-.8 1.3a9.2 9.2 0 0 1-1.2 1.4l-.5-.6c.7-.7 1.2-1.4 1.5-2.2a6 6 0 0 0 .6-2.4c0-1.7-.7-3.3-2.1-4.7l.6-.6zm9.9 10.5h-3v-10h3v.8h-2v8.4h2v.8zm-67 13.5h-3v-.8h2v-8.4h-2v-.8h3v10zm15.5 0h-3v-10h3v.8h-2v8.4h2v.8zm22 0h-3v-10h3v.8h-2v8.4h2v.8zm6.4-10l-.2 5.8h-.9l-.1-5.8h1.2zm-.6 6.5a.7.7 0 0 1 .5.2l.1.3a.7.7 0 0 1 0 .6.7.7 0 0 1-1 .3.8.8 0 0 1-.2-.1.7.7 0 0 1-.1-.8.8.8 0 0 1 .4-.4.7.7 0 0 1 .3 0zM321 118h-3v-10h3v.8h-2v8.4h2v.8zm7 0h-3v-.8h2v-8.4h-2v-.8h3v10zm-37 14a7 7 0 0 1-2.4-6.5 6.4 6.4 0 0 1 .4-1.3l.8-1.4 1.2-1.3.5.6c-1.4 1.4-2 3-2 4.6 0 .9.1 1.7.5 2.5.3.8.8 1.5 1.5 2.2l-.6.6zm6.9-10.5l-.2 5.8h-.9l-.1-5.8h1.2zm-.6 6.5a.7.7 0 0 1 .5.2l.1.3a.7.7 0 0 1 0 .6.7.7 0 0 1-1 .3.8.8 0 0 1-.2-.1.7.7 0 0 1-.1-.8.8.8 0 0 1 .4-.4.7.7 0 0 1 .3 0zm31.2 4h-3v-10h3v.8h-2v8.4h2v.8zm7 0h-3v-.8h2v-8.4h-2v-.8h3v10zm-59 13.5h-3v-.8h2v-8.4h-2v-.8h3v10zm15 0h-3v-10h3v.8h-2v8.4h2v.8zm43.4-10l-.2 5.8h-.9l-.1-5.8h1.2zm-.6 6.5a.7.7 0 0 1 .5.2l.1.3a.7.7 0 0 1 0 .6.7.7 0 0 1-1 .3.8.8 0 0 1-.2-.1.7.7 0 0 1-.1-.8.8.8 0 0 1 .4-.4.7.7 0 0 1 .3 0zm-64.8 17h-3v-10h3v.8h-2v8.4h2v.8zm7 0h-3v-.8h2v-8.4h-2v-.8h3v10zm21.9-10l-.2 5.8h-.9l-.1-5.8h1.2zm-.6 6.5a.7.7 0 0 1 .5.2l.1.3a.7.7 0 0 1 0 .6.7.7 0 0 1-1 .3.8.8 0 0 1-.2-.1.7.7 0 0 1-.1-.8.8.8 0 0 1 .4-.4.7.7 0 0 1 .3 0zm8.7 3.5h-3v-10h3v.8h-2v8.4h2v.8zm29 .5a7 7 0 0 1-2.4-6.5 6.4 6.4 0 0 1 .4-1.3l.8-1.4 1.2-1.3.5.6c-1.4 1.4-2 3-2 4.6 0 .9.1 1.7.5 2.5.3.8.8 1.5 1.5 2.2l-.6.6zm-58.5 13h-3v-10h3v.8h-2v8.4h2v.8zm14.5 0h-3v-10h3v.8h-2v8.4h2v.8zm14.5 0h-3v-.8h2v-8.4h-2v-.8h3v10zm22.5 0h-3v-10h3v.8h-2v8.4h2v.8zm-67 14h-3v-.8h2v-8.4h-2v-.8h3v10zm7.5 0h-3v-.8h2v-8.4h-2v-.8h3v10zm22 0h-3v-.8h2v-8.4h-2v-.8h3v10zm37 0h-3v-.8h2v-8.4h-2v-.8h3v10zm7.5 0h-3v-.8h2v-8.4h-2v-.8h3v10zm-66.1-79l-4.3 10.5H264l4.3-10.5h1.1zm3.1 0l-4.3 10.5H267l4.3-10.5h1.1zm41.4 0l-4.3 10.5h-1.1l4.3-10.5h1.1zm3.1 0l-4.3 10.5h-1.1l4.3-10.5h1.1zM304.4 94l-4.3 10.5H299l4.3-10.5h1.1zm3.1 0l-4.3 10.5H302l4.3-10.5h1.1zm-2.1 41l-4.3 10.5H300l4.3-10.5h1.1zm3.1 0l-4.3 10.5H303l4.3-10.5h1.1zm-25.1-13.5l-4.3 10.5H278l4.3-10.5h1.1zm3.1 0l-4.3 10.5H281l4.3-10.5h1.1zm-32.6 0l-4.3 10.5h-1.1l4.3-10.5h1.1zm3.1 0l-4.3 10.5h-1.1l4.3-10.5h1.1zm2.4 40.5l-4.3 10.5H254l4.3-10.5h1.1zm3.1 0l-4.3 10.5H257l4.3-10.5h1.1zm57.9 0l-4.3 10.5H315l4.3-10.5h1.1zm3.1 0l-4.3 10.5H318l4.3-10.5h1.1zm-61.8-27.5l-4.6 11H256l4.6-11h1.1zm3.3 0l-4.6 11h-1.1l4.6-11h1.1zM295 98h2v1.9h-2V98zm0 4.6h2v1.9h-2v-1.9zm-21 22.9h2v1.9h-2v-1.9zm0 4.6h2v1.9h-2v-1.9zm-29.5-4.6h2v1.9h-2v-1.9zm0 4.6h2v1.9h-2v-1.9zm7 22.9h2v1.9h-2V153zm0 4.6h2v1.9h-2v-1.9zM333 98h2v1.9h-2V98zm0 4.6h2v1.9h-2v-1.9zm0 8.9h2v1.9h-2v-1.9zm0 4.6h2v1.9h-2v-1.9zm-37 22.4h2v1.9h-2v-1.9zm0 4.6h2v1.9h-2v-1.9zm-14 8.9h2v1.9h-2V152zm0 4.6h2v1.9h-2v-1.9zm37-3.6h2v1.9h-2V153zm0 4.6h2v1.9h-2v-1.9zm-8 8.4h2v1.9h-2V166zm0 4.6h2v1.9h-2v-1.9zM260.3 149l-4.3 10.5h-1l4.3-10.5h1zm3.2 0l-4.3 10.5h-1l4.3-10.5h1zm27.3-1l-4.3 10.5h-1l4.3-10.5h1zm3.2 0l-4.3 10.5h-1L293 148h1zm33.8 1l-4.3 10.5h-1l4.3-10.5h1zm3.2 0l-4.3 10.5h-1L330 149h1zm-2.8-14.5l-4.6 11h-1.1l4.6-11h1.1zm3.3 0l-4.6 11h-1.1l4.6-11h1.1zm-10.8-13l-4.6 11H315l4.6-11h1.1zm3.3 0l-4.6 11h-1.1l4.6-11h1.1zm-47.2 55l-4.3 10.5h-1l4.3-10.5h1zm3.2 0l-4.3 10.5h-1l4.3-10.5h1zm-116.5-83h3v.8h-2v8.4h2v.8h-3v-10zm16.9 0l-.2 5.8h-.9l-.1-5.8h1.2zm-.6 6.5a.7.7 0 0 1 .5.2l.1.3a.7.7 0 0 1 0 .6.7.7 0 0 1-1 .3.8.8 0 0 1-.2-.1.7.7 0 0 1-.1-.8.8.8 0 0 1 .4-.4.7.7 0 0 1 .3 0zm8.7 3.5h-3v-10h3v.8h-2v8.4h2v.8zm7 0h-3v-.8h2v-8.4h-2v-.8h3v10zM223.1 93a7.1 7.1 0 0 1 2.3 6.5 6.3 6.3 0 0 1-.4 1.3l-.8 1.3a9.2 9.2 0 0 1-1.2 1.4l-.5-.6c.7-.7 1.2-1.4 1.5-2.2a6 6 0 0 0 .6-2.4c0-1.7-.7-3.3-2.1-4.7l.6-.6zm9.9 10.5h-3v-10h3v.8h-2v8.4h2v.8zM166 117h-3v-.8h2v-8.4h-2v-.8h3v10zm15.5 0h-3v-10h3v.8h-2v8.4h2v.8zm22 0h-3v-10h3v.8h-2v8.4h2v.8zm6.4-10l-.2 5.8h-.9l-.1-5.8h1.2zm-.6 6.5a.7.7 0 0 1 .5.2l.1.3a.7.7 0 0 1 0 .6.7.7 0 0 1-1 .3.8.8 0 0 1-.2-.1.7.7 0 0 1-.1-.8.8.8 0 0 1 .4-.4.7.7 0 0 1 .3 0zm16.2 3.5h-3v-10h3v.8h-2v8.4h2v.8zm7 0h-3v-.8h2v-8.4h-2v-.8h3v10zm-37 14a7 7 0 0 1-2.4-6.5 6.4 6.4 0 0 1 .4-1.3l.8-1.4 1.2-1.3.5.6c-1.4 1.4-2 3-2 4.6 0 .9.1 1.7.5 2.5.3.8.8 1.5 1.5 2.2l-.6.6zm6.9-10.5l-.2 5.8h-.9l-.1-5.8h1.2zm-.6 6.5a.7.7 0 0 1 .5.2l.1.3a.7.7 0 0 1 0 .6.7.7 0 0 1-1 .3.8.8 0 0 1-.2-.1.7.7 0 0 1-.1-.8.8.8 0 0 1 .4-.4.7.7 0 0 1 .3 0zm31.2 4h-3v-10h3v.8h-2v8.4h2v.8zm7 0h-3v-.8h2v-8.4h-2v-.8h3v10zm-59 13.5h-3v-.8h2v-8.4h-2v-.8h3v10zm15 0h-3v-10h3v.8h-2v8.4h2v.8zm43.4-10l-.2 5.8h-.9l-.1-5.8h1.2zm-.6 6.5a.7.7 0 0 1 .5.2l.1.3a.7.7 0 0 1 0 .6.7.7 0 0 1-1 .3.8.8 0 0 1-.2-.1.7.7 0 0 1-.1-.8.8.8 0 0 1 .4-.4.7.7 0 0 1 .3 0zM174 158h-3v-10h3v.8h-2v8.4h2v.8zm7 0h-3v-.8h2v-8.4h-2v-.8h3v10zm21.9-10l-.2 5.8h-.9l-.1-5.8h1.2zm-.6 6.5a.7.7 0 0 1 .5.2l.1.3a.7.7 0 0 1 0 .6.7.7 0 0 1-1 .3.8.8 0 0 1-.2-.1.7.7 0 0 1-.1-.8.8.8 0 0 1 .4-.4.7.7 0 0 1 .3 0zm37.6 4a7 7 0 0 1-2.3-6.5 6.4 6.4 0 0 1 .4-1.3l.8-1.4 1.2-1.3.5.6c-1.4 1.4-2 3-2 4.6 0 .9.1 1.7.5 2.5.3.8.8 1.5 1.5 2.2l-.6.6zm-58.4 13h-3v-10h3v.8h-2v8.4h2v.8zm29 0h-3v-.8h2v-8.4h-2v-.8h3v10zm-44.5 14h-3v-.8h2v-8.4h-2v-.8h3v10zm7.5 0h-3v-.8h2v-8.4h-2v-.8h3v10zm22 0h-3v-.8h2v-8.4h-2v-.8h3v10zm37 0h-3v-.8h2v-8.4h-2v-.8h3v10zm7.5 0h-3v-.8h2v-8.4h-2v-.8h3v10zm-66.1-79l-4.3 10.5h-1.1l4.3-10.5h1.1zm3.1 0l-4.3 10.5h-1.1l4.3-10.5h1.1zM208.9 93l-4.3 10.5h-1.1l4.3-10.5h1.1zm3.1 0l-4.3 10.5h-1.1l4.3-10.5h1.1zm-2.1 41l-4.3 10.5h-1.1l4.3-10.5h1.1zm3.1 0l-4.3 10.5h-1.1l4.3-10.5h1.1zm-25.1-13.5l-4.3 10.5h-1.1l4.3-10.5h1.1zm3.1 0l-4.3 10.5h-1.1l4.3-10.5h1.1zm-32.6 0l-4.3 10.5H153l4.3-10.5h1.1zm3.1 0l-4.3 10.5H156l4.3-10.5h1.1zm2.4 40.5l-4.3 10.5h-1.1l4.3-10.5h1.1zm3.1 0l-4.3 10.5h-1.1l4.3-10.5h1.1zm57.9 0l-4.3 10.5h-1.1l4.3-10.5h1.1zm3.1 0l-4.3 10.5h-1.1l4.3-10.5h1.1zm-61.8-27.5l-4.6 11h-1.1l4.6-11h1.1zm3.3 0l-4.6 11h-1.1l4.6-11h1.1zm30-36.5h2v1.9h-2V97zm0 4.6h2v1.9h-2v-1.9zM149 124.5h2v1.9h-2v-1.9zm0 4.6h2v1.9h-2v-1.9zm7 22.9h2v1.9h-2V152zm0 4.6h2v1.9h-2v-1.9zM237.5 97h2v1.9h-2V97zm0 4.6h2v1.9h-2v-1.9zm0 8.9h2v1.9h-2v-1.9zm0 4.6h2v1.9h-2v-1.9zm-37 22.4h2v1.9h-2v-1.9zm0 4.6h2v1.9h-2v-1.9zm23 9.9h2v1.9h-2V152zm0 4.6h2v1.9h-2v-1.9zm-8 8.4h2v1.9h-2V165zm0 4.6h2v1.9h-2v-1.9zM164.8 148l-4.3 10.5h-1l4.3-10.5h1zm3.2 0l-4.3 10.5h-1L167 148h1zm27.3-1l-4.3 10.5h-1l4.3-10.5h1zm3.2 0l-4.3 10.5h-1l4.3-10.5h1zm33.8 1l-4.3 10.5h-1l4.3-10.5h1zm3.2 0l-4.3 10.5h-1l4.3-10.5h1zm-2.8-14.5l-4.6 11H227l4.6-11h1.1zm3.3 0l-4.6 11h-1.1l4.6-11h1.1zm-10.8-13l-4.6 11h-1.1l4.6-11h1.1zm3.3 0l-4.6 11h-1.1l4.6-11h1.1zm-47.2 55L177 186h-1l4.3-10.5h1zm3.2 0l-4.3 10.5h-1l4.3-10.5h1z" fill="url(#g)" transform="translate(65 1)"/><path d="M225.5 249.5h3v.8h-2v8.4h2v.8h-3v-10zm7 0h3v10h-3v-.8h2v-8.4h-2v-.8zm7.5 0h3v.8h-2v8.4h2v.8h-3v-10zm10 10a7 7 0 0 1-2.4-6.5 6.4 6.4 0 0 1 .4-1.3l.8-1.4 1.2-1.3.5.6c-1.4 1.4-2 3-2 4.6 0 .9.1 1.7.5 2.5.3.8.8 1.5 1.5 2.2l-.6.6zm6.9-10l-.2 5.8h-.9l-.1-5.8h1.2zm-.6 6.5a.7.7 0 0 1 .5.2l.1.3a.7.7 0 0 1 0 .6.7.7 0 0 1-1 .3.8.8 0 0 1-.2-.1.7.7 0 0 1-.1-.8.8.8 0 0 1 .4-.4.7.7 0 0 1 .3 0zm8.7 3.5h-3v-10h3v.8h-2v8.4h2v.8zm7 0h-3v-.8h2v-8.4h-2v-.8h3v10zm22.5 0h-3v-.8h2v-8.4h-2v-.8h3v10zm5-10.5a7.1 7.1 0 0 1 2.4 6.5 6.3 6.3 0 0 1-.4 1.3l-.8 1.3a9.2 9.2 0 0 1-1.2 1.4l-.5-.6c.7-.7 1.2-1.4 1.5-2.2a6 6 0 0 0 .6-2.4c0-1.7-.7-3.3-2.1-4.7l.6-.6zm10 10.5h-3v-10h3v.8h-2v8.4h2v.8zm-74 13.5h-3v-10h3v.8h-2v8.4h2v.8zm7 0h-3v-.8h2v-8.4h-2v-.8h3v10zm15.5 0h-3v-10h3v.8h-2v8.4h2v.8zm7 0h-3v-.8h2v-8.4h-2v-.8h3v10zm15 0h-3v-10h3v.8h-2v8.4h2v.8zm6.4-10l-.2 5.8h-.9l-.1-5.8h1.2zm-.6 6.5a.7.7 0 0 1 .5.2l.1.3a.7.7 0 0 1 0 .6.7.7 0 0 1-1 .3.8.8 0 0 1-.2-.1.7.7 0 0 1-.1-.8.8.8 0 0 1 .4-.4.7.7 0 0 1 .3 0zM302 273h-3v-10h3v.8h-2v8.4h2v.8zm7 0h-3v-.8h2v-8.4h-2v-.8h3v10zm-66.5 14h-3v-.8h2v-8.4h-2v-.8h3v10zm7.5 0h-3v-.8h2v-8.4h-2v-.8h3v10zm22 0a7 7 0 0 1-2.4-6.5 6.4 6.4 0 0 1 .4-1.3l.8-1.4 1.2-1.3.5.6c-1.4 1.4-2 3-2 4.6 0 .9.1 1.7.5 2.5.3.8.8 1.5 1.5 2.2l-.6.6zm6.9-10.5l-.2 5.8h-.9l-.1-5.8h1.2zm-.6 6.5a.7.7 0 0 1 .5.2l.1.3a.7.7 0 0 1 0 .6.7.7 0 0 1-1 .3.8.8 0 0 1-.2-.1.7.7 0 0 1-.1-.8.8.8 0 0 1 .4-.4.7.7 0 0 1 .3 0zm9.2 4h-3v-10h3v.8h-2v8.4h2v.8zm7 0h-3v-.8h2v-8.4h-2v-.8h3v10zm15 0h-3v-10h3v.8h-2v8.4h2v.8zm7 0h-3v-.8h2v-8.4h-2v-.8h3v10zM228 300.5h-3v-.8h2v-8.4h-2v-.8h3v10zm29.5 0h-3v-.8h2v-8.4h-2v-.8h3v10zm5-10.5a7.1 7.1 0 0 1 2.4 6.5 6.3 6.3 0 0 1-.4 1.3l-.8 1.3a9.2 9.2 0 0 1-1.2 1.4l-.5-.6c.7-.7 1.2-1.4 1.5-2.2a6 6 0 0 0 .6-2.4c0-1.7-.7-3.3-2.1-4.7l.6-.6zm10 10.5h-3v-10h3v.8h-2v8.4h2v.8zm29.5 0h-3v-.8h2v-8.4h-2v-.8h3v10zm13.9-10l-.2 5.8h-.9l-.1-5.8h1.2zm-.6 6.5a.7.7 0 0 1 .5.2l.1.3a.7.7 0 0 1 0 .6.7.7 0 0 1-1 .3.8.8 0 0 1-.2-.1.7.7 0 0 1-.1-.8.8.8 0 0 1 .4-.4.7.7 0 0 1 .3 0zm-86.8 17h-3v-10h3v.8h-2v8.4h2v.8zm22 0h-3v-10h3v.8h-2v8.4h2v.8zm7 0h-3v-.8h2v-8.4h-2v-.8h3v10zm21.9-10l-.2 5.8h-.9l-.1-5.8h1.2zm-.6 6.5a.7.7 0 0 1 .5.2l.1.3a.7.7 0 0 1 0 .6.7.7 0 0 1-1 .3.8.8 0 0 1-.2-.1.7.7 0 0 1-.1-.8.8.8 0 0 1 .4-.4.7.7 0 0 1 .3 0zm8.7 3.5h-3v-10h3v.8h-2v8.4h2v.8zm7 0h-3v-.8h2v-8.4h-2v-.8h3v10zm22 .5a7 7 0 0 1-2.4-6.5 6.4 6.4 0 0 1 .4-1.3l.8-1.4 1.2-1.3.5.6c-1.4 1.4-2 3-2 4.6 0 .9.1 1.7.5 2.5.3.8.8 1.5 1.5 2.2l-.6.6zm-88.5 13h-3v-.8h2v-8.4h-2v-.8h3v10zm22 .5a7 7 0 0 1-2.4-6.5 6.4 6.4 0 0 1 .4-1.3l.8-1.4 1.2-1.3.5.6c-1.4 1.4-2 3-2 4.6 0 .9.1 1.7.5 2.5.3.8.8 1.5 1.5 2.2l-.6.6zm8-.5h-3v-10h3v.8h-2v8.4h2v.8zm7 0h-3v-.8h2v-8.4h-2v-.8h3v10zm7.5 0h-3v-10h3v.8h-2v8.4h2v.8zm14.5 0h-3v-.8h2v-8.4h-2v-.8h3v10zm22.5 0h-3v-10h3v.8h-2v8.4h2v.8zm-74 14h-3v-10h3v.8h-2v8.4h2v.8zm7 0h-3v-.8h2v-8.4h-2v-.8h3v10zm7.5 0h-3v-.8h2v-8.4h-2v-.8h3v10zm15 0h-3v-10h3v.8h-2v8.4h2v.8zm7 0h-3v-.8h2v-8.4h-2v-.8h3v10zm5-10.5a7.1 7.1 0 0 1 2.4 6.5 6.3 6.3 0 0 1-.4 1.3l-.8 1.3a9.2 9.2 0 0 1-1.2 1.4l-.5-.6c.7-.7 1.2-1.4 1.5-2.2a6 6 0 0 0 .6-2.4c0-1.7-.7-3.3-2.1-4.7l.6-.6zm25 10.5h-3v-10h3v.8h-2v8.4h2v.8zm7 0h-3v-.8h2v-8.4h-2v-.8h3v10zm7.5 0h-3v-.8h2v-8.4h-2v-.8h3v10zm-66.1-79l-4.3 10.5H245l4.3-10.5h1.1zm3.1 0l-4.3 10.5H248l4.3-10.5h1.1zm41.4 0l-4.3 10.5h-1.1l4.3-10.5h1.1zm3.1 0l-4.3 10.5h-1.1l4.3-10.5h1.1zM285.4 249l-4.3 10.5H280l4.3-10.5h1.1zm3.1 0l-4.3 10.5H283l4.3-10.5h1.1zm-2.1 41l-4.3 10.5H281l4.3-10.5h1.1zm3.1 0l-4.3 10.5H284l4.3-10.5h1.1zm-25.1-13.5l-4.3 10.5H259l4.3-10.5h1.1zm3.1 0l-4.3 10.5H262l4.3-10.5h1.1zm-32.6 0l-4.3 10.5h-1.1l4.3-10.5h1.1zm3.1 0l-4.3 10.5h-1.1l4.3-10.5h1.1zm2.4 40.5l-4.3 10.5H235l4.3-10.5h1.1zm3.1 0l-4.3 10.5H238l4.3-10.5h1.1zm57.9 0l-4.3 10.5H296l4.3-10.5h1.1zm3.1 0l-4.3 10.5H299l4.3-10.5h1.1zm-61.8-27.5l-4.6 11H237l4.6-11h1.1zm3.3 0l-4.6 11h-1.1l4.6-11h1.1zm30-36.5h2v1.9h-2V253zm0 4.6h2v1.9h-2v-1.9zm-21 22.9h2v1.9h-2v-1.9zm0 4.6h2v1.9h-2v-1.9zm-29.5-4.6h2v1.9h-2v-1.9zm0 4.6h2v1.9h-2v-1.9zm7 22.9h2v1.9h-2V308zm0 4.6h2v1.9h-2v-1.9zM314 253h2v1.9h-2V253zm0 4.6h2v1.9h-2v-1.9zm0 8.9h2v1.9h-2v-1.9zm0 4.6h2v1.9h-2v-1.9zm-37 22.4h2v1.9h-2v-1.9zm0 4.6h2v1.9h-2v-1.9zm-14 8.9h2v1.9h-2V307zm0 4.6h2v1.9h-2v-1.9zm37-3.6h2v1.9h-2V308zm0 4.6h2v1.9h-2v-1.9zm-8 8.4h2v1.9h-2V321zm0 4.6h2v1.9h-2v-1.9zm-7.5 9.9h2v1.9h-2v-1.9zm0 4.6h2v1.9h-2v-1.9zM241.3 304l-4.3 10.5h-1l4.3-10.5h1zm3.2 0l-4.3 10.5h-1l4.3-10.5h1zm27.3-1l-4.3 10.5h-1l4.3-10.5h1zm3.2 0l-4.3 10.5h-1L274 303h1zm18.8 28.5l-4.3 10.5h-1l4.3-10.5h1zm3.2 0l-4.3 10.5h-1l4.3-10.5h1zm11.8-27.5l-4.3 10.5h-1l4.3-10.5h1zm3.2 0l-4.3 10.5h-1L311 304h1zm-2.8-14.5l-4.6 11h-1.1l4.6-11h1.1zm3.3 0l-4.6 11h-1.1l4.6-11h1.1zm-10.8-13l-4.6 11H296l4.6-11h1.1zm3.3 0l-4.6 11h-1.1l4.6-11h1.1zm-47.2 55l-4.3 10.5h-1l4.3-10.5h1zm3.2 0l-4.3 10.5h-1l4.3-10.5h1zM114.5.5h3v10h-3v-.8h2V1.3h-2V.5zm7.5 0h3v.8h-2v8.4h2v.8h-3V.5zm25 10h-3V.5h3v.8h-2v8.4h2v.8zm29.5 0h-3v-.8h2V1.3h-2V.5h3v10zm15 0h-3V.5h3v.8h-2v8.4h2v.8zm-67 13.5h-3v-.8h2v-8.4h-2V14h3v10zm59.5 0h-3V14h3v.8h-2v8.4h2v.8zm7 0h-3v-.8h2v-8.4h-2V14h3v10zm-66.5 14h-3v-.8h2v-8.4h-2V28h3v10zm7.5 0h-3v-.8h2v-8.4h-2V28h3v10zm28.9-10.5l-.2 5.8h-.9l-.1-5.8h1.2zm-.6 6.5a.7.7 0 0 1 .5.2l.1.3a.7.7 0 0 1 0 .6.7.7 0 0 1-1 .3.8.8 0 0 1-.2-.1.7.7 0 0 1-.1-.8.8.8 0 0 1 .4-.4.7.7 0 0 1 .3 0zm9.2 4h-3V28h3v.8h-2v8.4h2v.8zm7 0h-3v-.8h2v-8.4h-2V28h3v10zm22 0h-3v-.8h2v-8.4h-2V28h3v10zM110 51.5h-3v-.8h2v-8.4h-2v-.8h3v10zm29.5 0h-3v-.8h2v-8.4h-2v-.8h3v10zm15 0h-3v-10h3v.8h-2v8.4h2v.8zm29.5 0h-3v-.8h2v-8.4h-2v-.8h3v10zm13.9-10l-.2 5.8h-.9l-.1-5.8h1.2zm-.6 6.5a.7.7 0 0 1 .5.2l.1.3a.7.7 0 0 1 0 .6.7.7 0 0 1-1 .3.8.8 0 0 1-.2-.1.7.7 0 0 1-.1-.8.8.8 0 0 1 .4-.4.7.7 0 0 1 .3 0zm-64.8 17h-3V55h3v.8h-2v8.4h2v.8zm7 0h-3v-.8h2v-8.4h-2V55h3v10zm21.9-10l-.2 5.8h-.9l-.1-5.8h1.2zm-.6 6.5a.7.7 0 0 1 .5.2l.1.3a.7.7 0 0 1 0 .6.7.7 0 0 1-1 .3.8.8 0 0 1-.2-.1.7.7 0 0 1-.1-.8.8.8 0 0 1 .4-.4.7.7 0 0 1 .3 0zm8.7 3.5h-3V55h3v.8h-2v8.4h2v.8zm29 .5A7 7 0 0 1 196 59a6.4 6.4 0 0 1 .4-1.3l.8-1.4 1.2-1.3.5.6c-1.4 1.4-2 3-2 4.6 0 .9.1 1.7.5 2.5.3.8.8 1.5 1.5 2.2l-.6.6zm-88.5 13h-3v-.8h2v-8.4h-2v-.8h3v10zm30 0h-3v-10h3v.8h-2v8.4h2v.8zm14.5 0h-3v-10h3v.8h-2v8.4h2v.8zm14.5 0h-3v-.8h2v-8.4h-2v-.8h3v10zm22.5 0h-3v-10h3v.8h-2v8.4h2v.8zm-74 14h-3v-10h3v.8h-2v8.4h2v.8zm29.5 0h-3v-10h3v.8h-2v8.4h2v.8zm7 0h-3v-.8h2v-8.4h-2v-.8h3v10zm5-10.5a7.1 7.1 0 0 1 2.4 6.5 6.3 6.3 0 0 1-.4 1.3l-.8 1.3a9.2 9.2 0 0 1-1.2 1.4l-.5-.6c.7-.7 1.2-1.4 1.5-2.2a6 6 0 0 0 .6-2.4c0-1.7-.7-3.3-2.1-4.7l.6-.6zm25 10.5h-3v-10h3v.8h-2v8.4h2v.8zm14.5 0h-3v-.8h2v-8.4h-2v-.8h3v10zm-66.1-79L128.1 24H127l4.3-10.5h1.1zm3.1 0L131.2 24H130l4.3-10.5h1.1zm41.4 0L172.6 24h-1.1l4.3-10.5h1.1zm3.1 0L175.7 24h-1.1l4.3-10.5h1.1zM167.4 0l-4.3 10.5H162L166.3 0h1.1zm3.1 0l-4.3 10.5H165L169.4 0h1.1zm-24.1 27.5L142.1 38H141l4.3-10.5h1.1zm3.1 0L145.2 38H144l4.3-10.5h1.1zm-32.6 0L112.6 38h-1.1l4.3-10.5h1.1zm3.1 0L115.7 38h-1.1l4.3-10.5h1.1zm2.4 40.5l-4.3 10.5H117l4.3-10.5h1.1zm3.1 0l-4.3 10.5H120l4.3-10.5h1.1zm-.8-27.5l-4.6 11H119l4.6-11h1.1zm3.3 0l-4.6 11h-1.1l4.6-11h1.1zM158 4h2v1.9h-2V4zm0 4.6h2v1.9h-2V8.6zM114.5 59h2v1.9h-2V59zm0 4.6h2v1.9h-2v-1.9zM196 4h2v1.9h-2V4zm0 4.6h2v1.9h-2V8.6zM182 59h2v1.9h-2V59zm0 4.6h2v1.9h-2v-1.9zM123.3 55L119 65.5h-1l4.3-10.5h1zm3.2 0l-4.3 10.5h-1l4.3-10.5h1zm27.3-1l-4.3 10.5h-1l4.3-10.5h1zm3.2 0l-4.3 10.5h-1L156 54h1zm18.8 28.5L171.5 93h-1l4.3-10.5h1zm3.2 0L174.7 93h-1l4.3-10.5h1zM190.8 55l-4.3 10.5h-1l4.3-10.5h1zm3.2 0l-4.3 10.5h-1L193 55h1zm-2.8-14.5l-4.6 11h-1.1l4.6-11h1.1zm3.3 0l-4.6 11h-1.1l4.6-11h1.1zm-10.8-13l-4.6 11H178l4.6-11h1.1zm3.3 0l-4.6 11h-1.1l4.6-11h1.1zm-47.2 55L135.5 93h-1l4.3-10.5h1zm3.2 0L138.7 93h-1l4.3-10.5h1z" fill="url(#h)" transform="translate(65 1)"/><path d="M129 200h2.9v.8h-2v9.4h2v.8H129v-11zm7 0h2.9v11H136v-.8h2v-9.4h-2v-.8zm9 0h2.9v.8h-2v9.4h2v.8H145v-11zm9.7 11a7.3 7.3 0 0 1-2.7-5.4 6.9 6.9 0 0 1 1.5-4.2c.3-.5.7-1 1.2-1.4l.6.6a6.7 6.7 0 0 0-2.3 4.9c0 .9.2 1.7.6 2.6a8 8 0 0 0 1.7 2.3l-.6.6zm15.2 0H167v-11h2.9v.8h-2v9.4h2v.8zm7 0H174v-.8h2v-9.4h-2v-.8h2.9v11zm23 0H197v-.8h2v-9.4h-2v-.8h2.9v11zm5.7-11a7.3 7.3 0 0 1 2.7 5.5l-.1 1.3a6.4 6.4 0 0 1-.5 1.3c-.2.5-.4 1-.8 1.5l-1.3 1.4-.6-.6a8 8 0 0 0 1.7-2.3 6 6 0 0 0 .6-2.6c0-1.8-.8-3.4-2.3-4.9l.6-.6zm10.3 11H213v-11h2.9v.8h-2v9.4h2v.8zm-34.9-7h2v2h-2v-2zm0 5h2v2h-2v-2zm9.8-9l-4.7 11H185l4.6-11h1.2zm3.4 0l-4.6 11h-1.1l4.6-11h1.1zm-31.8 0l-.2 8.6h-.9l-.1-8.6h1.2zm-.7 9.5a.7.7 0 0 1 .6.2.8.8 0 0 1 .1.3.7.7 0 0 1 0 .6.7.7 0 0 1-.4.3.7.7 0 0 1-.5 0 .8.8 0 0 1-.3-.1.7.7 0 0 1-.1-.8.8.8 0 0 1 .4-.4.7.7 0 0 1 .2 0z" fill="url(#i)" transform="translate(65 1)"/><path d="M65 275h2.9v.8h-2v9.4h2v.8H65v-11zm7 0h2.9v11H72v-.8h2v-9.4h-2v-.8zm9 0h2.9v.8h-2v9.4h2v.8H81v-11zm9.7 11a7.3 7.3 0 0 1-2.7-5.4 6.9 6.9 0 0 1 1.5-4.2c.3-.5.7-1 1.2-1.4l.6.6a6.7 6.7 0 0 0-2.3 4.9c0 .9.2 1.7.6 2.6a8 8 0 0 0 1.7 2.3l-.6.6zm15.2 0H103v-11h2.9v.8h-2v9.4h2v.8zm7 0H110v-.8h2v-9.4h-2v-.8h2.9v11zm23 0H133v-.8h2v-9.4h-2v-.8h2.9v11zm5.7-11a7.3 7.3 0 0 1 2.7 5.5l-.1 1.3a6.4 6.4 0 0 1-.5 1.3c-.2.5-.4 1-.8 1.5l-1.3 1.4-.6-.6a8 8 0 0 0 1.7-2.3 6 6 0 0 0 .6-2.6c0-1.8-.8-3.4-2.3-4.9l.6-.6zm-24.6 4h2v2h-2v-2zm0 5h2v2h-2v-2zm9.8-9l-4.7 11H121l4.6-11h1.2zm3.4 0l-4.6 11h-1.1l4.6-11h1.1zm-31.8 0l-.2 8.6h-.9l-.1-8.6h1.2zm-.7 9.5a.7.7 0 0 1 .6.2.8.8 0 0 1 .1.3.7.7 0 0 1 0 .6.7.7 0 0 1-.4.3.7.7 0 0 1-.5 0 .8.8 0 0 1-.3-.1.7.7 0 0 1-.1-.8.8.8 0 0 1 .4-.4.7.7 0 0 1 .2 0z" fill="url(#j)" transform="translate(65 1)"/><path d="M286.5.5h3v.8h-2v8.4h2v.8h-3V.5zm7 0h3v10h-3v-.8h2V1.3h-2V.5zm7.5 0h3v.8h-2v8.4h2v.8h-3V.5zm16.9 0l-.2 5.8h-.9l-.1-5.8h1.2zm-.6 6.5a.7.7 0 0 1 .5.2l.1.3a.7.7 0 0 1 0 .6.7.7 0 0 1-1 .3.8.8 0 0 1-.2-.1.7.7 0 0 1-.1-.8.8.8 0 0 1 .4-.4.7.7 0 0 1 .3 0zm15.7 3.5h-3v-.8h2V1.3h-2V.5h3v10zm22.5 0h-3v-.8h2V1.3h-2V.5h3v10zm5-10.5a7.1 7.1 0 0 1 2.4 6.5 6.3 6.3 0 0 1-.4 1.3l-.8 1.3a9.2 9.2 0 0 1-1.2 1.4l-.5-.6c.7-.7 1.2-1.4 1.5-2.2a6 6 0 0 0 .6-2.4c0-1.7-.7-3.3-2.1-4.7l.6-.6zm-64 24h-3V14h3v.8h-2v8.4h2v.8zm7 0h-3v-.8h2v-8.4h-2V14h3v10zm22.5 0h-3v-.8h2v-8.4h-2V14h3v10zm21.4-10l-.2 5.8h-.9l-.1-5.8h1.2zm-.6 6.5a.7.7 0 0 1 .5.2l.1.3a.7.7 0 0 1 0 .6.7.7 0 0 1-1 .3.8.8 0 0 1-.2-.1.7.7 0 0 1-.1-.8.8.8 0 0 1 .4-.4.7.7 0 0 1 .3 0zM363 24h-3V14h3v.8h-2v8.4h2v.8zm-52 14h-3v-.8h2v-8.4h-2V28h3v10zm22 0a7 7 0 0 1-2.4-6.5 6.4 6.4 0 0 1 .4-1.3l.8-1.4 1.2-1.3.5.6c-1.4 1.4-2 3-2 4.6 0 .9.1 1.7.5 2.5.3.8.8 1.5 1.5 2.2l-.6.6zm22.5 0h-3v-.8h2v-8.4h-2V28h3v10zm22 0h-3v-.8h2v-8.4h-2V28h3v10zM289 51.5h-3v-.8h2v-8.4h-2v-.8h3v10zM323.6 41a7.1 7.1 0 0 1 2.3 6.5 6.3 6.3 0 0 1-.4 1.3l-.8 1.3a9.2 9.2 0 0 1-1.2 1.4l-.5-.6c.7-.7 1.2-1.4 1.5-2.2a6 6 0 0 0 .6-2.4c0-1.7-.7-3.3-2.1-4.7l.6-.6zm53.3.5l-.2 5.8h-.9l-.1-5.8h1.2zm-.6 6.5a.7.7 0 0 1 .5.2l.1.3a.7.7 0 0 1 0 .6.7.7 0 0 1-1 .3.8.8 0 0 1-.2-.1.7.7 0 0 1-.1-.8.8.8 0 0 1 .4-.4.7.7 0 0 1 .3 0zm-86.8 17h-3V55h3v.8h-2v8.4h2v.8zm29 0h-3v-.8h2v-8.4h-2V55h3v10zm21.9-10l-.2 5.8h-.9l-.1-5.8h1.2zm-.6 6.5a.7.7 0 0 1 .5.2l.1.3a.7.7 0 0 1 0 .6.7.7 0 0 1-1 .3.8.8 0 0 1-.2-.1.7.7 0 0 1-.1-.8.8.8 0 0 1 .4-.4.7.7 0 0 1 .3 0zm8.7 3.5h-3V55h3v.8h-2v8.4h2v.8zM319 78.5h-3v-10h3v.8h-2v8.4h2v.8zm7 0h-3v-.8h2v-8.4h-2v-.8h3v10zm44.5 0h-3v-10h3v.8h-2v8.4h2v.8zm-59.5 14h-3v-.8h2v-8.4h-2v-.8h3v10zm15 0h-3v-10h3v.8h-2v8.4h2v.8zM338 82a7.1 7.1 0 0 1 2.4 6.5 6.3 6.3 0 0 1-.4 1.3l-.8 1.3a9.2 9.2 0 0 1-1.2 1.4l-.5-.6c.7-.7 1.2-1.4 1.5-2.2a6 6 0 0 0 .6-2.4c0-1.7-.7-3.3-2.1-4.7l.6-.6zm25 10.5h-3v-10h3v.8h-2v8.4h2v.8zm-51.6-79L307.1 24H306l4.3-10.5h1.1zm3.1 0L310.2 24H309l4.3-10.5h1.1zm41.4 0L351.6 24h-1.1l4.3-10.5h1.1zm3.1 0L354.7 24h-1.1l4.3-10.5h1.1zM346.4 0l-4.3 10.5H341L345.3 0h1.1zm3.1 0l-4.3 10.5H344L348.4 0h1.1zm-2.1 41l-4.3 10.5H342l4.3-10.5h1.1zm3.1 0l-4.3 10.5H345l4.3-10.5h1.1zm-25.1-13.5L321.1 38H320l4.3-10.5h1.1zm3.1 0L324.2 38H323l4.3-10.5h1.1zM301.4 68l-4.3 10.5H296l4.3-10.5h1.1zm3.1 0l-4.3 10.5H299l4.3-10.5h1.1zm57.9 0l-4.3 10.5H357l4.3-10.5h1.1zm3.1 0l-4.3 10.5H360l4.3-10.5h1.1zm-61.8-27.5l-4.6 11H298l4.6-11h1.1zm3.3 0l-4.6 11h-1.1l4.6-11h1.1zM337 4h2v1.9h-2V4zm0 4.6h2v1.9h-2V8.6zm-21 22.9h2v1.9h-2v-1.9zm0 4.6h2V38h-2v-1.9zm-29.5-4.6h2v1.9h-2v-1.9zm0 4.6h2V38h-2v-1.9zM375 4h2v1.9h-2V4zm0 4.6h2v1.9h-2V8.6zm0 8.9h2v1.9h-2v-1.9zm0 4.6h2V24h-2v-1.9zm-37 22.4h2v1.9h-2v-1.9zm0 4.6h2V51h-2v-1.9zm23 9.9h2v1.9h-2V59zm0 4.6h2v1.9h-2v-1.9zm-15.5 22.9h2v1.9h-2v-1.9zm0 4.6h2V93h-2v-1.9zM332.8 54l-4.3 10.5h-1l4.3-10.5h1zm3.2 0l-4.3 10.5h-1L335 54h1zm18.8 28.5L350.5 93h-1l4.3-10.5h1zm3.2 0L353.7 93h-1l4.3-10.5h1zM369.8 55l-4.3 10.5h-1l4.3-10.5h1zm3.2 0l-4.3 10.5h-1L372 55h1zm-10.3-27.5l-4.6 11H357l4.6-11h1.1zm3.3 0l-4.6 11h-1.1l4.6-11h1.1zm-47.2 55L314.5 93h-1l4.3-10.5h1zm3.2 0L317.7 93h-1l4.3-10.5h1z" fill="url(#g)" transform="translate(65 1)"/><path d="M199.5.5h3v.8h-2v8.4h2v.8h-3V.5zm7 0h3v10h-3v-.8h2V1.3h-2V.5zm7.5 0h3v.8h-2v8.4h2v.8h-3V.5zm16.9 0l-.2 5.8h-.9l-.1-5.8h1.2zm-.6 6.5a.7.7 0 0 1 .5.2l.1.3a.7.7 0 0 1 0 .6.7.7 0 0 1-1 .3.8.8 0 0 1-.2-.1.7.7 0 0 1-.1-.8.8.8 0 0 1 .4-.4.7.7 0 0 1 .3 0zm15.7 3.5h-3v-.8h2V1.3h-2V.5h3v10zm22.5 0h-3v-.8h2V1.3h-2V.5h3v10zm5-10.5a7.1 7.1 0 0 1 2.4 6.5 6.3 6.3 0 0 1-.4 1.3l-.8 1.3a9.2 9.2 0 0 1-1.2 1.4l-.5-.6c.7-.7 1.2-1.4 1.5-2.2a6 6 0 0 0 .6-2.4c0-1.7-.7-3.3-2.1-4.7l.6-.6zm-64 24h-3V14h3v.8h-2v8.4h2v.8zm7 0h-3v-.8h2v-8.4h-2V14h3v10zm22.5 0h-3v-.8h2v-8.4h-2V14h3v10zm21.4-10l-.2 5.8h-.9l-.1-5.8h1.2zm-.6 6.5a.7.7 0 0 1 .5.2l.1.3a.7.7 0 0 1 0 .6.7.7 0 0 1-1 .3.8.8 0 0 1-.2-.1.7.7 0 0 1-.1-.8.8.8 0 0 1 .4-.4.7.7 0 0 1 .3 0zM276 24h-3V14h3v.8h-2v8.4h2v.8zm-52 14h-3v-.8h2v-8.4h-2V28h3v10zm44.5 0h-3v-.8h2v-8.4h-2V28h3v10zm22 0h-3v-.8h2v-8.4h-2V28h3v10zM202 51.5h-3v-.8h2v-8.4h-2v-.8h3v10zM236.6 41a7.1 7.1 0 0 1 2.3 6.5 6.3 6.3 0 0 1-.4 1.3l-.8 1.3a9.2 9.2 0 0 1-1.2 1.4l-.5-.6c.7-.7 1.2-1.4 1.5-2.2a6 6 0 0 0 .6-2.4c0-1.7-.7-3.3-2.1-4.7l.6-.6zm53.3.5l-.2 5.8h-.9l-.1-5.8h1.2zm-.6 6.5a.7.7 0 0 1 .5.2l.1.3a.7.7 0 0 1 0 .6.7.7 0 0 1-1 .3.8.8 0 0 1-.2-.1.7.7 0 0 1-.1-.8.8.8 0 0 1 .4-.4.7.7 0 0 1 .3 0zm-86.8 17h-3V55h3v.8h-2v8.4h2v.8zM232 78.5h-3v-10h3v.8h-2v8.4h2v.8zm51.5 0h-3v-10h3v.8h-2v8.4h2v.8zm-59.5 14h-3v-.8h2v-8.4h-2v-.8h3v10zM251 82a7.1 7.1 0 0 1 2.4 6.5 6.3 6.3 0 0 1-.4 1.3l-.8 1.3a9.2 9.2 0 0 1-1.2 1.4l-.5-.6c.7-.7 1.2-1.4 1.5-2.2a6 6 0 0 0 .6-2.4c0-1.7-.7-3.3-2.1-4.7l.6-.6zm25 10.5h-3v-10h3v.8h-2v8.4h2v.8zm-7.1-79L264.6 24h-1.1l4.3-10.5h1.1zm3.1 0L267.7 24h-1.1l4.3-10.5h1.1zM260.4 41l-4.3 10.5H255l4.3-10.5h1.1zm3.1 0l-4.3 10.5H258l4.3-10.5h1.1zm-25.1-13.5L234.1 38H233l4.3-10.5h1.1zm3.1 0L237.2 38H236l4.3-10.5h1.1zM214.4 68l-4.3 10.5H209l4.3-10.5h1.1zm3.1 0l-4.3 10.5H212l4.3-10.5h1.1zm57.9 0l-4.3 10.5H270l4.3-10.5h1.1zm3.1 0l-4.3 10.5H273l4.3-10.5h1.1zM250 4h2v1.9h-2V4zm0 4.6h2v1.9h-2V8.6zm-21 22.9h2v1.9h-2v-1.9zm0 4.6h2V38h-2v-1.9zm-29.5-4.6h2v1.9h-2v-1.9zm0 4.6h2V38h-2v-1.9zM288 4h2v1.9h-2V4zm0 4.6h2v1.9h-2V8.6zm0 8.9h2v1.9h-2v-1.9zm0 4.6h2V24h-2v-1.9zm-37 22.4h2v1.9h-2v-1.9zm0 4.6h2V51h-2v-1.9zm23 9.9h2v1.9h-2V59zm0 4.6h2v1.9h-2v-1.9zm-15.5 22.9h2v1.9h-2v-1.9zm0 4.6h2V93h-2v-1.9zM245.8 54l-4.3 10.5h-1l4.3-10.5h1zm3.2 0l-4.3 10.5h-1L248 54h1zm18.8 28.5L263.5 93h-1l4.3-10.5h1zm3.2 0L266.7 93h-1l4.3-10.5h1zm4.7-55l-4.6 11H270l4.6-11h1.1zm3.3 0l-4.6 11h-1.1l4.6-11h1.1zm-47.2 55L227.5 93h-1l4.3-10.5h1zm3.2 0L230.7 93h-1l4.3-10.5h1z" fill="url(#g)" transform="translate(65 1)"/><path d="M140 262h2.9v.8h-2v9.4h2v.8H140v-11zm7 0h2.9v11H147v-.8h2v-9.4h-2v-.8zm9 0h2.9v.8h-2v9.4h2v.8H156v-11zm9.7 11a7.3 7.3 0 0 1-2.7-5.4 6.9 6.9 0 0 1 1.5-4.2c.3-.5.7-1 1.2-1.4l.6.6a6.7 6.7 0 0 0-2.3 4.9c0 .9.2 1.7.6 2.6a8 8 0 0 0 1.7 2.3l-.6.6zm15.2 0H178v-11h2.9v.8h-2v9.4h2v.8zm7 0H185v-.8h2v-9.4h-2v-.8h2.9v11zm23 0H208v-.8h2v-9.4h-2v-.8h2.9v11zm5.7-11a7.3 7.3 0 0 1 2.7 5.5l-.1 1.3a6.4 6.4 0 0 1-.5 1.3c-.2.5-.4 1-.8 1.5l-1.3 1.4-.6-.6a8 8 0 0 0 1.7-2.3 6 6 0 0 0 .6-2.6c0-1.8-.8-3.4-2.3-4.9l.6-.6zm10.3 11H224v-11h2.9v.8h-2v9.4h2v.8zm-34.9-7h2v2h-2v-2zm0 5h2v2h-2v-2zm9.8-9l-4.7 11H196l4.6-11h1.2zm3.4 0l-4.6 11h-1.1l4.6-11h1.1zm-31.8 0l-.2 8.6h-.9l-.1-8.6h1.2zm-.7 9.5a.7.7 0 0 1 .6.2.8.8 0 0 1 .1.3.7.7 0 0 1 0 .6.7.7 0 0 1-.4.3.7.7 0 0 1-.5 0 .8.8 0 0 1-.3-.1.7.7 0 0 1-.1-.8.8.8 0 0 1 .4-.4.7.7 0 0 1 .2 0zM204 215h2.9v.8h-2v9.4h2v.8H204v-11zm7 0h2.9v11H211v-.8h2v-9.4h-2v-.8zm9 0h2.9v.8h-2v9.4h2v.8H220v-11zm9.7 11a7.3 7.3 0 0 1-2.7-5.4 6.9 6.9 0 0 1 1.5-4.2c.3-.5.7-1 1.2-1.4l.6.6a6.7 6.7 0 0 0-2.3 4.9c0 .9.2 1.7.6 2.6a8 8 0 0 0 1.7 2.3l-.6.6zm15.2 0H242v-11h2.9v.8h-2v9.4h2v.8zm7 0H249v-.8h2v-9.4h-2v-.8h2.9v11zm23 0H272v-.8h2v-9.4h-2v-.8h2.9v11zm5.7-11a7.3 7.3 0 0 1 2.7 5.5l-.1 1.3a6.4 6.4 0 0 1-.5 1.3c-.2.5-.4 1-.8 1.5l-1.3 1.4-.6-.6a8 8 0 0 0 1.7-2.3 6 6 0 0 0 .6-2.6c0-1.8-.8-3.4-2.3-4.9l.6-.6zm10.3 11H288v-11h2.9v.8h-2v9.4h2v.8zm-34.9-7h2v2h-2v-2zm0 5h2v2h-2v-2zm9.8-9l-4.7 11H260l4.6-11h1.2zm3.4 0l-4.6 11h-1.1l4.6-11h1.1zm-31.8 0l-.2 8.6h-.9l-.1-8.6h1.2zm-.7 9.5a.7.7 0 0 1 .6.2.8.8 0 0 1 .1.3.7.7 0 0 1 0 .6.7.7 0 0 1-.4.3.7.7 0 0 1-.5 0 .8.8 0 0 1-.3-.1.7.7 0 0 1-.1-.8.8.8 0 0 1 .4-.4.7.7 0 0 1 .2 0z" fill="url(#i)" transform="translate(65 1)"/></g></g><g transform="translate(164)"><mask id="l" fill="#fff"><use xlink:href="#k"/></mask><use fill="#EDEDF0" xlink:href="#k"/><g mask="url(#l)"><path d="M21.6 333l-4.5 11H16l4.5-11h1.1zm3.4 0l-4.5 11h-1.1l4.5-11H25zm16.6 50l-4.5 11H36l4.5-11h1.1zm3.4 0l-4.5 11h-1.1l4.5-11H45zm21.6 17l-4.5 11H61l4.5-11h1.1zm3.4 0l-4.5 11h-1.1l4.5-11H70zm-58-63h2v2h-2v-2zm0 5h2v2h-2v-2zm20 45h2v2h-2v-2zm0 5h2v2h-2v-2zm-23-1h2v2H9v-2zm0 5h2v2H9v-2zm21.7-52.8a7.4 7.4 0 0 1-2.7-5.5l.1-1.5a6.7 6.7 0 0 1 .5-1.4 7.7 7.7 0 0 1 .9-1.4c.3-.5.7-1 1.2-1.4l.6.6a6.9 6.9 0 0 0-2.3 5c0 .9.2 1.8.6 2.6a8 8 0 0 0 1.7 2.4l-.6.6zm-5-48a7.4 7.4 0 0 1-2.7-5.5l.1-1.5a6.7 6.7 0 0 1 .5-1.4 7.7 7.7 0 0 1 .9-1.4c.3-.5.7-1 1.2-1.4l.6.6a6.9 6.9 0 0 0-2.3 5c0 .9.2 1.8.6 2.6a8 8 0 0 0 1.7 2.4l-.6.6zm50 88a7.4 7.4 0 0 1-2.7-5.5l.1-1.5a6.7 6.7 0 0 1 .5-1.4 7.7 7.7 0 0 1 .9-1.4c.3-.5.7-1 1.2-1.4l.6.6a6.9 6.9 0 0 0-2.3 5c0 .9.2 1.8.6 2.6a8 8 0 0 0 1.7 2.4l-.6.6zm-41-51.2a7.5 7.5 0 0 1 2.6 5.6l-.1 1.3a6.5 6.5 0 0 1-.5 1.4 8 8 0 0 1-.8 1.4c-.3.5-.8 1-1.3 1.5l-.6-.6c.8-.8 1.3-1.6 1.7-2.4.4-.8.6-1.7.6-2.6 0-1.8-.8-3.5-2.3-5l.6-.6zm46 40a7.5 7.5 0 0 1 2.6 5.6l-.1 1.3a6.5 6.5 0 0 1-.5 1.4 8 8 0 0 1-.8 1.4c-.3.5-.8 1-1.3 1.5l-.6-.6c.8-.8 1.3-1.6 1.7-2.4.4-.8.6-1.7.6-2.6 0-1.8-.8-3.5-2.3-5l.6-.6zm-33-28.5H45v-10.9h2.9v.9h-2v9.2h2v.8zM70 313H67V302h2.9v.8h-2v9.3h2v.8zm-9-27H58V275h2.9v.8h-2v9.3h2v.8zm-6 58H52v-.8h2v-9.3h-2v-.8h2.9v10.9zm21-31H73v-.8h2v-9.3h-2v-.8h2.9v10.9zm61 59H134v-.8h2v-9.3h-2v-.8h2.9v10.9zM38 343.6v-1.1h.9c.3 0 .6-.1.8-.3.2-.2.3-.5.3-.9v-.8c0-.4 0-.7.2-1 .1-.3.3-.6.6-.7a1.8 1.8 0 0 1-.7-.7 2 2 0 0 1-.2-1v-1c0-.4 0-.6-.2-.8l-.5-.2H38V334h1c.7 0 1.3.2 1.7.5.4.4.6 1 .6 1.7v1l.1.8c.1.2.3.2.6.2h.5v1.1H42c-.3 0-.4 0-.6.2l-.1.8v1c0 .6 0 1-.3 1.4-.2.3-.5.5-.9.7l-1.4.2H38zm-34.2 0l-1.5-.2a1.6 1.6 0 0 1-.8-.7c-.2-.4-.3-.8-.3-1.4v-1c0-.4 0-.6-.2-.8l-.5-.2H0v-1h.5c.2 0 .4-.1.5-.3.2-.1.2-.4.2-.7v-1.1c0-.7.2-1.3.6-1.7.4-.3 1-.5 1.7-.5h1v1H3.3c-.3 0-.5.2-.6.3l-.2.7v1.2c0 .3 0 .6-.2.9-.1.3-.3.5-.6.7.2.1.5.4.6.7.2.3.2.6.2 1v.8c0 .4 0 .7.3 1l.8.2h.8v1h-.6z" fill="url(#e)" fill-rule="nonzero" transform="translate(65 1)"/><path d="M74.6 200l-4.5 11H69l4.5-11h1.1zm3.4 0l-4.5 11h-1.1l4.5-11H78zm-13 4h2v2h-2v-2zm0 5h2v2h-2v-2zm18.7 1.2a7.4 7.4 0 0 1-2.7-5.5l.1-1.5a6.7 6.7 0 0 1 .5-1.4 7.7 7.7 0 0 1 .9-1.4c.3-.5.7-1 1.2-1.4l.6.6a6.9 6.9 0 0 0-2.3 5c0 .9.2 1.8.6 2.6a8 8 0 0 0 1.7 2.4l-.6.6zm-5-48a7.4 7.4 0 0 1-2.7-5.5l.1-1.5a6.7 6.7 0 0 1 .5-1.4 7.7 7.7 0 0 1 .9-1.4c.3-.5.7-1 1.2-1.4l.6.6a6.9 6.9 0 0 0-2.3 5c0 .9.2 1.8.6 2.6a8 8 0 0 0 1.7 2.4l-.6.6zm50 88a7.4 7.4 0 0 1-2.7-5.5l.1-1.5a6.7 6.7 0 0 1 .5-1.4 7.7 7.7 0 0 1 .9-1.4c.3-.5.7-1 1.2-1.4l.6.6a6.9 6.9 0 0 0-2.3 5c0 .9.2 1.8.6 2.6a8 8 0 0 0 1.7 2.4l-.6.6zm-41-51.2a7.5 7.5 0 0 1 2.6 5.6l-.1 1.3a6.5 6.5 0 0 1-.5 1.4 8 8 0 0 1-.8 1.4c-.3.5-.8 1-1.3 1.5l-.6-.6c.8-.8 1.3-1.6 1.7-2.4.4-.8.6-1.7.6-2.6 0-1.8-.8-3.5-2.3-5l.6-.6zm46 40a7.5 7.5 0 0 1 2.6 5.6l-.1 1.3a6.5 6.5 0 0 1-.5 1.4 8 8 0 0 1-.8 1.4c-.3.5-.8 1-1.3 1.5l-.6-.6c.8-.8 1.3-1.6 1.7-2.4.4-.8.6-1.7.6-2.6 0-1.8-.8-3.5-2.3-5l.6-.6zm-33-28.5H98v-10.9h2.9v.9h-2v9.2h2v.8zM123 180H120V169h2.9v.8h-2v9.3h2v.8zm-9-27H111V142h2.9v.8h-2v9.3h2v.8zm-6 58H105v-.8h2v-9.3h-2v-.8h2.9v10.9zm21-31H126v-.8h2v-9.3h-2v-.8h2.9v10.9zm61 59H187v-.8h2v-9.3h-2v-.8h2.9v10.9zM91 210.6v-1.1h.9c.3 0 .6-.1.8-.3.2-.2.3-.5.3-.9v-.8c0-.4 0-.7.2-1 .1-.3.3-.6.6-.7a1.8 1.8 0 0 1-.7-.7 2 2 0 0 1-.2-1v-1c0-.4 0-.6-.2-.8l-.5-.2H91V201h1c.7 0 1.3.2 1.7.5.4.4.6 1 .6 1.7v1l.1.8c.1.2.3.2.6.2h.5v1.1H95c-.3 0-.4 0-.6.2l-.1.8v1c0 .6-.1 1-.3 1.4-.2.3-.5.5-.9.7l-1.4.2H91zm-34.2 0l-1.5-.2a1.6 1.6 0 0 1-.8-.7c-.2-.4-.3-.8-.3-1.4v-1c0-.4 0-.6-.2-.8l-.5-.2H53v-1h.5c.2 0 .4-.1.5-.3.2-.1.2-.4.2-.7v-1.1c0-.7.2-1.3.6-1.7.4-.3 1-.5 1.7-.5h1v1h-1.2c-.3 0-.5.2-.6.3l-.2.7v1.2c0 .3 0 .6-.2.9-.1.3-.3.5-.6.7l.6.7c.2.3.2.6.2 1v.8c0 .4 0 .7.3 1l.8.2h.8v1h-.6z" fill="url(#f)" fill-rule="nonzero" transform="translate(65 1)"/><path d="M259 94.5h3v.8h-2v8.4h2v.8h-3v-10zm16.9 0l-.2 5.8h-.9l-.1-5.8h1.2zm-.6 6.5a.7.7 0 0 1 .5.2l.1.3a.7.7 0 0 1 0 .6.7.7 0 0 1-1 .3.8.8 0 0 1-.2-.1.7.7 0 0 1-.1-.8.8.8 0 0 1 .4-.4.7.7 0 0 1 .3 0zm8.7 3.5h-3v-10h3v.8h-2v8.4h2v.8zm7 0h-3v-.8h2v-8.4h-2v-.8h3v10zM318.6 94a7.1 7.1 0 0 1 2.3 6.5 6.3 6.3 0 0 1-.4 1.3l-.8 1.3a9.2 9.2 0 0 1-1.2 1.4l-.5-.6c.7-.7 1.2-1.4 1.5-2.2a6 6 0 0 0 .6-2.4c0-1.7-.7-3.3-2.1-4.7l.6-.6zm9.9 10.5h-3v-10h3v.8h-2v8.4h2v.8zm-67 13.5h-3v-.8h2v-8.4h-2v-.8h3v10zm15.5 0h-3v-10h3v.8h-2v8.4h2v.8zm22 0h-3v-10h3v.8h-2v8.4h2v.8zm6.4-10l-.2 5.8h-.9l-.1-5.8h1.2zm-.6 6.5a.7.7 0 0 1 .5.2l.1.3a.7.7 0 0 1 0 .6.7.7 0 0 1-1 .3.8.8 0 0 1-.2-.1.7.7 0 0 1-.1-.8.8.8 0 0 1 .4-.4.7.7 0 0 1 .3 0zM321 118h-3v-10h3v.8h-2v8.4h2v.8zm7 0h-3v-.8h2v-8.4h-2v-.8h3v10zm-37 14a7 7 0 0 1-2.4-6.5 6.4 6.4 0 0 1 .4-1.3l.8-1.4 1.2-1.3.5.6c-1.4 1.4-2 3-2 4.6 0 .9.1 1.7.5 2.5.3.8.8 1.5 1.5 2.2l-.6.6zm6.9-10.5l-.2 5.8h-.9l-.1-5.8h1.2zm-.6 6.5a.7.7 0 0 1 .5.2l.1.3a.7.7 0 0 1 0 .6.7.7 0 0 1-1 .3.8.8 0 0 1-.2-.1.7.7 0 0 1-.1-.8.8.8 0 0 1 .4-.4.7.7 0 0 1 .3 0zm31.2 4h-3v-10h3v.8h-2v8.4h2v.8zm7 0h-3v-.8h2v-8.4h-2v-.8h3v10zm-59 13.5h-3v-.8h2v-8.4h-2v-.8h3v10zm15 0h-3v-10h3v.8h-2v8.4h2v.8zm43.4-10l-.2 5.8h-.9l-.1-5.8h1.2zm-.6 6.5a.7.7 0 0 1 .5.2l.1.3a.7.7 0 0 1 0 .6.7.7 0 0 1-1 .3.8.8 0 0 1-.2-.1.7.7 0 0 1-.1-.8.8.8 0 0 1 .4-.4.7.7 0 0 1 .3 0zm-64.8 17h-3v-10h3v.8h-2v8.4h2v.8zm7 0h-3v-.8h2v-8.4h-2v-.8h3v10zm21.9-10l-.2 5.8h-.9l-.1-5.8h1.2zm-.6 6.5a.7.7 0 0 1 .5.2l.1.3a.7.7 0 0 1 0 .6.7.7 0 0 1-1 .3.8.8 0 0 1-.2-.1.7.7 0 0 1-.1-.8.8.8 0 0 1 .4-.4.7.7 0 0 1 .3 0zm8.7 3.5h-3v-10h3v.8h-2v8.4h2v.8zm29 .5a7 7 0 0 1-2.4-6.5 6.4 6.4 0 0 1 .4-1.3l.8-1.4 1.2-1.3.5.6c-1.4 1.4-2 3-2 4.6 0 .9.1 1.7.5 2.5.3.8.8 1.5 1.5 2.2l-.6.6zm-58.5 13h-3v-10h3v.8h-2v8.4h2v.8zm14.5 0h-3v-10h3v.8h-2v8.4h2v.8zm14.5 0h-3v-.8h2v-8.4h-2v-.8h3v10zm22.5 0h-3v-10h3v.8h-2v8.4h2v.8zm-67 14h-3v-.8h2v-8.4h-2v-.8h3v10zm7.5 0h-3v-.8h2v-8.4h-2v-.8h3v10zm22 0h-3v-.8h2v-8.4h-2v-.8h3v10zm37 0h-3v-.8h2v-8.4h-2v-.8h3v10zm7.5 0h-3v-.8h2v-8.4h-2v-.8h3v10zm-66.1-79l-4.3 10.5H264l4.3-10.5h1.1zm3.1 0l-4.3 10.5H267l4.3-10.5h1.1zm41.4 0l-4.3 10.5h-1.1l4.3-10.5h1.1zm3.1 0l-4.3 10.5h-1.1l4.3-10.5h1.1zM304.4 94l-4.3 10.5H299l4.3-10.5h1.1zm3.1 0l-4.3 10.5H302l4.3-10.5h1.1zm-2.1 41l-4.3 10.5H300l4.3-10.5h1.1zm3.1 0l-4.3 10.5H303l4.3-10.5h1.1zm-25.1-13.5l-4.3 10.5H278l4.3-10.5h1.1zm3.1 0l-4.3 10.5H281l4.3-10.5h1.1zm-32.6 0l-4.3 10.5h-1.1l4.3-10.5h1.1zm3.1 0l-4.3 10.5h-1.1l4.3-10.5h1.1zm2.4 40.5l-4.3 10.5H254l4.3-10.5h1.1zm3.1 0l-4.3 10.5H257l4.3-10.5h1.1zm57.9 0l-4.3 10.5H315l4.3-10.5h1.1zm3.1 0l-4.3 10.5H318l4.3-10.5h1.1zm-61.8-27.5l-4.6 11H256l4.6-11h1.1zm3.3 0l-4.6 11h-1.1l4.6-11h1.1zM295 98h2v1.9h-2V98zm0 4.6h2v1.9h-2v-1.9zm-21 22.9h2v1.9h-2v-1.9zm0 4.6h2v1.9h-2v-1.9zm-29.5-4.6h2v1.9h-2v-1.9zm0 4.6h2v1.9h-2v-1.9zm7 22.9h2v1.9h-2V153zm0 4.6h2v1.9h-2v-1.9zM333 98h2v1.9h-2V98zm0 4.6h2v1.9h-2v-1.9zm0 8.9h2v1.9h-2v-1.9zm0 4.6h2v1.9h-2v-1.9zm-37 22.4h2v1.9h-2v-1.9zm0 4.6h2v1.9h-2v-1.9zm-14 8.9h2v1.9h-2V152zm0 4.6h2v1.9h-2v-1.9zm37-3.6h2v1.9h-2V153zm0 4.6h2v1.9h-2v-1.9zm-8 8.4h2v1.9h-2V166zm0 4.6h2v1.9h-2v-1.9zM260.3 149l-4.3 10.5h-1l4.3-10.5h1zm3.2 0l-4.3 10.5h-1l4.3-10.5h1zm27.3-1l-4.3 10.5h-1l4.3-10.5h1zm3.2 0l-4.3 10.5h-1L293 148h1zm33.8 1l-4.3 10.5h-1l4.3-10.5h1zm3.2 0l-4.3 10.5h-1L330 149h1zm-2.8-14.5l-4.6 11h-1.1l4.6-11h1.1zm3.3 0l-4.6 11h-1.1l4.6-11h1.1zm-10.8-13l-4.6 11H315l4.6-11h1.1zm3.3 0l-4.6 11h-1.1l4.6-11h1.1zm-47.2 55l-4.3 10.5h-1l4.3-10.5h1zm3.2 0l-4.3 10.5h-1l4.3-10.5h1zm-116.5-83h3v.8h-2v8.4h2v.8h-3v-10zm16.9 0l-.2 5.8h-.9l-.1-5.8h1.2zm-.6 6.5a.7.7 0 0 1 .5.2l.1.3a.7.7 0 0 1 0 .6.7.7 0 0 1-1 .3.8.8 0 0 1-.2-.1.7.7 0 0 1-.1-.8.8.8 0 0 1 .4-.4.7.7 0 0 1 .3 0zm8.7 3.5h-3v-10h3v.8h-2v8.4h2v.8zm7 0h-3v-.8h2v-8.4h-2v-.8h3v10zM223.1 93a7.1 7.1 0 0 1 2.3 6.5 6.3 6.3 0 0 1-.4 1.3l-.8 1.3a9.2 9.2 0 0 1-1.2 1.4l-.5-.6c.7-.7 1.2-1.4 1.5-2.2a6 6 0 0 0 .6-2.4c0-1.7-.7-3.3-2.1-4.7l.6-.6zm9.9 10.5h-3v-10h3v.8h-2v8.4h2v.8zM166 117h-3v-.8h2v-8.4h-2v-.8h3v10zm15.5 0h-3v-10h3v.8h-2v8.4h2v.8zm22 0h-3v-10h3v.8h-2v8.4h2v.8zm6.4-10l-.2 5.8h-.9l-.1-5.8h1.2zm-.6 6.5a.7.7 0 0 1 .5.2l.1.3a.7.7 0 0 1 0 .6.7.7 0 0 1-1 .3.8.8 0 0 1-.2-.1.7.7 0 0 1-.1-.8.8.8 0 0 1 .4-.4.7.7 0 0 1 .3 0zm16.2 3.5h-3v-10h3v.8h-2v8.4h2v.8zm7 0h-3v-.8h2v-8.4h-2v-.8h3v10zm-37 14a7 7 0 0 1-2.4-6.5 6.4 6.4 0 0 1 .4-1.3l.8-1.4 1.2-1.3.5.6c-1.4 1.4-2 3-2 4.6 0 .9.1 1.7.5 2.5.3.8.8 1.5 1.5 2.2l-.6.6zm6.9-10.5l-.2 5.8h-.9l-.1-5.8h1.2zm-.6 6.5a.7.7 0 0 1 .5.2l.1.3a.7.7 0 0 1 0 .6.7.7 0 0 1-1 .3.8.8 0 0 1-.2-.1.7.7 0 0 1-.1-.8.8.8 0 0 1 .4-.4.7.7 0 0 1 .3 0zm31.2 4h-3v-10h3v.8h-2v8.4h2v.8zm7 0h-3v-.8h2v-8.4h-2v-.8h3v10zm-59 13.5h-3v-.8h2v-8.4h-2v-.8h3v10zm15 0h-3v-10h3v.8h-2v8.4h2v.8zm43.4-10l-.2 5.8h-.9l-.1-5.8h1.2zm-.6 6.5a.7.7 0 0 1 .5.2l.1.3a.7.7 0 0 1 0 .6.7.7 0 0 1-1 .3.8.8 0 0 1-.2-.1.7.7 0 0 1-.1-.8.8.8 0 0 1 .4-.4.7.7 0 0 1 .3 0zM174 158h-3v-10h3v.8h-2v8.4h2v.8zm7 0h-3v-.8h2v-8.4h-2v-.8h3v10zm21.9-10l-.2 5.8h-.9l-.1-5.8h1.2zm-.6 6.5a.7.7 0 0 1 .5.2l.1.3a.7.7 0 0 1 0 .6.7.7 0 0 1-1 .3.8.8 0 0 1-.2-.1.7.7 0 0 1-.1-.8.8.8 0 0 1 .4-.4.7.7 0 0 1 .3 0zm37.6 4a7 7 0 0 1-2.3-6.5 6.4 6.4 0 0 1 .4-1.3l.8-1.4 1.2-1.3.5.6c-1.4 1.4-2 3-2 4.6 0 .9.1 1.7.5 2.5.3.8.8 1.5 1.5 2.2l-.6.6zm-58.4 13h-3v-10h3v.8h-2v8.4h2v.8zm29 0h-3v-.8h2v-8.4h-2v-.8h3v10zm-44.5 14h-3v-.8h2v-8.4h-2v-.8h3v10zm7.5 0h-3v-.8h2v-8.4h-2v-.8h3v10zm22 0h-3v-.8h2v-8.4h-2v-.8h3v10zm37 0h-3v-.8h2v-8.4h-2v-.8h3v10zm7.5 0h-3v-.8h2v-8.4h-2v-.8h3v10zm-66.1-79l-4.3 10.5h-1.1l4.3-10.5h1.1zm3.1 0l-4.3 10.5h-1.1l4.3-10.5h1.1zM208.9 93l-4.3 10.5h-1.1l4.3-10.5h1.1zm3.1 0l-4.3 10.5h-1.1l4.3-10.5h1.1zm-2.1 41l-4.3 10.5h-1.1l4.3-10.5h1.1zm3.1 0l-4.3 10.5h-1.1l4.3-10.5h1.1zm-25.1-13.5l-4.3 10.5h-1.1l4.3-10.5h1.1zm3.1 0l-4.3 10.5h-1.1l4.3-10.5h1.1zm-32.6 0l-4.3 10.5H153l4.3-10.5h1.1zm3.1 0l-4.3 10.5H156l4.3-10.5h1.1zm2.4 40.5l-4.3 10.5h-1.1l4.3-10.5h1.1zm3.1 0l-4.3 10.5h-1.1l4.3-10.5h1.1zm57.9 0l-4.3 10.5h-1.1l4.3-10.5h1.1zm3.1 0l-4.3 10.5h-1.1l4.3-10.5h1.1zm-61.8-27.5l-4.6 11h-1.1l4.6-11h1.1zm3.3 0l-4.6 11h-1.1l4.6-11h1.1zm30-36.5h2v1.9h-2V97zm0 4.6h2v1.9h-2v-1.9zM149 124.5h2v1.9h-2v-1.9zm0 4.6h2v1.9h-2v-1.9zm7 22.9h2v1.9h-2V152zm0 4.6h2v1.9h-2v-1.9zM237.5 97h2v1.9h-2V97zm0 4.6h2v1.9h-2v-1.9zm0 8.9h2v1.9h-2v-1.9zm0 4.6h2v1.9h-2v-1.9zm-37 22.4h2v1.9h-2v-1.9zm0 4.6h2v1.9h-2v-1.9zm23 9.9h2v1.9h-2V152zm0 4.6h2v1.9h-2v-1.9zm-8 8.4h2v1.9h-2V165zm0 4.6h2v1.9h-2v-1.9zM164.8 148l-4.3 10.5h-1l4.3-10.5h1zm3.2 0l-4.3 10.5h-1L167 148h1zm27.3-1l-4.3 10.5h-1l4.3-10.5h1zm3.2 0l-4.3 10.5h-1l4.3-10.5h1zm33.8 1l-4.3 10.5h-1l4.3-10.5h1zm3.2 0l-4.3 10.5h-1l4.3-10.5h1zm-2.8-14.5l-4.6 11H227l4.6-11h1.1zm3.3 0l-4.6 11h-1.1l4.6-11h1.1zm-10.8-13l-4.6 11h-1.1l4.6-11h1.1zm3.3 0l-4.6 11h-1.1l4.6-11h1.1zm-47.2 55L177 186h-1l4.3-10.5h1zm3.2 0l-4.3 10.5h-1l4.3-10.5h1z" fill="url(#g)" transform="translate(65 1)"/><path d="M225.5 249.5h3v.8h-2v8.4h2v.8h-3v-10zm7 0h3v10h-3v-.8h2v-8.4h-2v-.8zm7.5 0h3v.8h-2v8.4h2v.8h-3v-10zm10 10a7 7 0 0 1-2.4-6.5 6.4 6.4 0 0 1 .4-1.3l.8-1.4 1.2-1.3.5.6c-1.4 1.4-2 3-2 4.6 0 .9.1 1.7.5 2.5.3.8.8 1.5 1.5 2.2l-.6.6zm6.9-10l-.2 5.8h-.9l-.1-5.8h1.2zm-.6 6.5a.7.7 0 0 1 .5.2l.1.3a.7.7 0 0 1 0 .6.7.7 0 0 1-1 .3.8.8 0 0 1-.2-.1.7.7 0 0 1-.1-.8.8.8 0 0 1 .4-.4.7.7 0 0 1 .3 0zm8.7 3.5h-3v-10h3v.8h-2v8.4h2v.8zm7 0h-3v-.8h2v-8.4h-2v-.8h3v10zm22.5 0h-3v-.8h2v-8.4h-2v-.8h3v10zm5-10.5a7.1 7.1 0 0 1 2.4 6.5 6.3 6.3 0 0 1-.4 1.3l-.8 1.3a9.2 9.2 0 0 1-1.2 1.4l-.5-.6c.7-.7 1.2-1.4 1.5-2.2a6 6 0 0 0 .6-2.4c0-1.7-.7-3.3-2.1-4.7l.6-.6zm10 10.5h-3v-10h3v.8h-2v8.4h2v.8zm-74 13.5h-3v-10h3v.8h-2v8.4h2v.8zm7 0h-3v-.8h2v-8.4h-2v-.8h3v10zm15.5 0h-3v-10h3v.8h-2v8.4h2v.8zm7 0h-3v-.8h2v-8.4h-2v-.8h3v10zm15 0h-3v-10h3v.8h-2v8.4h2v.8zm6.4-10l-.2 5.8h-.9l-.1-5.8h1.2zm-.6 6.5a.7.7 0 0 1 .5.2l.1.3a.7.7 0 0 1 0 .6.7.7 0 0 1-1 .3.8.8 0 0 1-.2-.1.7.7 0 0 1-.1-.8.8.8 0 0 1 .4-.4.7.7 0 0 1 .3 0zM302 273h-3v-10h3v.8h-2v8.4h2v.8zm7 0h-3v-.8h2v-8.4h-2v-.8h3v10zm-66.5 14h-3v-.8h2v-8.4h-2v-.8h3v10zm7.5 0h-3v-.8h2v-8.4h-2v-.8h3v10zm22 0a7 7 0 0 1-2.4-6.5 6.4 6.4 0 0 1 .4-1.3l.8-1.4 1.2-1.3.5.6c-1.4 1.4-2 3-2 4.6 0 .9.1 1.7.5 2.5.3.8.8 1.5 1.5 2.2l-.6.6zm6.9-10.5l-.2 5.8h-.9l-.1-5.8h1.2zm-.6 6.5a.7.7 0 0 1 .5.2l.1.3a.7.7 0 0 1 0 .6.7.7 0 0 1-1 .3.8.8 0 0 1-.2-.1.7.7 0 0 1-.1-.8.8.8 0 0 1 .4-.4.7.7 0 0 1 .3 0zm9.2 4h-3v-10h3v.8h-2v8.4h2v.8zm7 0h-3v-.8h2v-8.4h-2v-.8h3v10zm15 0h-3v-10h3v.8h-2v8.4h2v.8zm7 0h-3v-.8h2v-8.4h-2v-.8h3v10zM228 300.5h-3v-.8h2v-8.4h-2v-.8h3v10zm29.5 0h-3v-.8h2v-8.4h-2v-.8h3v10zm5-10.5a7.1 7.1 0 0 1 2.4 6.5 6.3 6.3 0 0 1-.4 1.3l-.8 1.3a9.2 9.2 0 0 1-1.2 1.4l-.5-.6c.7-.7 1.2-1.4 1.5-2.2a6 6 0 0 0 .6-2.4c0-1.7-.7-3.3-2.1-4.7l.6-.6zm10 10.5h-3v-10h3v.8h-2v8.4h2v.8zm29.5 0h-3v-.8h2v-8.4h-2v-.8h3v10zm13.9-10l-.2 5.8h-.9l-.1-5.8h1.2zm-.6 6.5a.7.7 0 0 1 .5.2l.1.3a.7.7 0 0 1 0 .6.7.7 0 0 1-1 .3.8.8 0 0 1-.2-.1.7.7 0 0 1-.1-.8.8.8 0 0 1 .4-.4.7.7 0 0 1 .3 0zm-86.8 17h-3v-10h3v.8h-2v8.4h2v.8zm22 0h-3v-10h3v.8h-2v8.4h2v.8zm7 0h-3v-.8h2v-8.4h-2v-.8h3v10zm21.9-10l-.2 5.8h-.9l-.1-5.8h1.2zm-.6 6.5a.7.7 0 0 1 .5.2l.1.3a.7.7 0 0 1 0 .6.7.7 0 0 1-1 .3.8.8 0 0 1-.2-.1.7.7 0 0 1-.1-.8.8.8 0 0 1 .4-.4.7.7 0 0 1 .3 0zm8.7 3.5h-3v-10h3v.8h-2v8.4h2v.8zm7 0h-3v-.8h2v-8.4h-2v-.8h3v10zm22 .5a7 7 0 0 1-2.4-6.5 6.4 6.4 0 0 1 .4-1.3l.8-1.4 1.2-1.3.5.6c-1.4 1.4-2 3-2 4.6 0 .9.1 1.7.5 2.5.3.8.8 1.5 1.5 2.2l-.6.6zm-88.5 13h-3v-.8h2v-8.4h-2v-.8h3v10zm22 .5a7 7 0 0 1-2.4-6.5 6.4 6.4 0 0 1 .4-1.3l.8-1.4 1.2-1.3.5.6c-1.4 1.4-2 3-2 4.6 0 .9.1 1.7.5 2.5.3.8.8 1.5 1.5 2.2l-.6.6zm8-.5h-3v-10h3v.8h-2v8.4h2v.8zm7 0h-3v-.8h2v-8.4h-2v-.8h3v10zm7.5 0h-3v-10h3v.8h-2v8.4h2v.8zm14.5 0h-3v-.8h2v-8.4h-2v-.8h3v10zm22.5 0h-3v-10h3v.8h-2v8.4h2v.8zm-74 14h-3v-10h3v.8h-2v8.4h2v.8zm7 0h-3v-.8h2v-8.4h-2v-.8h3v10zm7.5 0h-3v-.8h2v-8.4h-2v-.8h3v10zm15 0h-3v-10h3v.8h-2v8.4h2v.8zm7 0h-3v-.8h2v-8.4h-2v-.8h3v10zm5-10.5a7.1 7.1 0 0 1 2.4 6.5 6.3 6.3 0 0 1-.4 1.3l-.8 1.3a9.2 9.2 0 0 1-1.2 1.4l-.5-.6c.7-.7 1.2-1.4 1.5-2.2a6 6 0 0 0 .6-2.4c0-1.7-.7-3.3-2.1-4.7l.6-.6zm25 10.5h-3v-10h3v.8h-2v8.4h2v.8zm7 0h-3v-.8h2v-8.4h-2v-.8h3v10zm7.5 0h-3v-.8h2v-8.4h-2v-.8h3v10zm-66.1-79l-4.3 10.5H245l4.3-10.5h1.1zm3.1 0l-4.3 10.5H248l4.3-10.5h1.1zm41.4 0l-4.3 10.5h-1.1l4.3-10.5h1.1zm3.1 0l-4.3 10.5h-1.1l4.3-10.5h1.1zM285.4 249l-4.3 10.5H280l4.3-10.5h1.1zm3.1 0l-4.3 10.5H283l4.3-10.5h1.1zm-2.1 41l-4.3 10.5H281l4.3-10.5h1.1zm3.1 0l-4.3 10.5H284l4.3-10.5h1.1zm-25.1-13.5l-4.3 10.5H259l4.3-10.5h1.1zm3.1 0l-4.3 10.5H262l4.3-10.5h1.1zm-32.6 0l-4.3 10.5h-1.1l4.3-10.5h1.1zm3.1 0l-4.3 10.5h-1.1l4.3-10.5h1.1zm2.4 40.5l-4.3 10.5H235l4.3-10.5h1.1zm3.1 0l-4.3 10.5H238l4.3-10.5h1.1zm57.9 0l-4.3 10.5H296l4.3-10.5h1.1zm3.1 0l-4.3 10.5H299l4.3-10.5h1.1zm-61.8-27.5l-4.6 11H237l4.6-11h1.1zm3.3 0l-4.6 11h-1.1l4.6-11h1.1zm30-36.5h2v1.9h-2V253zm0 4.6h2v1.9h-2v-1.9zm-21 22.9h2v1.9h-2v-1.9zm0 4.6h2v1.9h-2v-1.9zm-29.5-4.6h2v1.9h-2v-1.9zm0 4.6h2v1.9h-2v-1.9zm7 22.9h2v1.9h-2V308zm0 4.6h2v1.9h-2v-1.9zM314 253h2v1.9h-2V253zm0 4.6h2v1.9h-2v-1.9zm0 8.9h2v1.9h-2v-1.9zm0 4.6h2v1.9h-2v-1.9zm-37 22.4h2v1.9h-2v-1.9zm0 4.6h2v1.9h-2v-1.9zm-14 8.9h2v1.9h-2V307zm0 4.6h2v1.9h-2v-1.9zm37-3.6h2v1.9h-2V308zm0 4.6h2v1.9h-2v-1.9zm-8 8.4h2v1.9h-2V321zm0 4.6h2v1.9h-2v-1.9zm-7.5 9.9h2v1.9h-2v-1.9zm0 4.6h2v1.9h-2v-1.9zM241.3 304l-4.3 10.5h-1l4.3-10.5h1zm3.2 0l-4.3 10.5h-1l4.3-10.5h1zm27.3-1l-4.3 10.5h-1l4.3-10.5h1zm3.2 0l-4.3 10.5h-1L274 303h1zm18.8 28.5l-4.3 10.5h-1l4.3-10.5h1zm3.2 0l-4.3 10.5h-1l4.3-10.5h1zm11.8-27.5l-4.3 10.5h-1l4.3-10.5h1zm3.2 0l-4.3 10.5h-1L311 304h1zm-2.8-14.5l-4.6 11h-1.1l4.6-11h1.1zm3.3 0l-4.6 11h-1.1l4.6-11h1.1zm-10.8-13l-4.6 11H296l4.6-11h1.1zm3.3 0l-4.6 11h-1.1l4.6-11h1.1zm-47.2 55l-4.3 10.5h-1l4.3-10.5h1zm3.2 0l-4.3 10.5h-1l4.3-10.5h1zM114.5.5h3v10h-3v-.8h2V1.3h-2V.5zm7.5 0h3v.8h-2v8.4h2v.8h-3V.5zm25 10h-3V.5h3v.8h-2v8.4h2v.8zm29.5 0h-3v-.8h2V1.3h-2V.5h3v10zm15 0h-3V.5h3v.8h-2v8.4h2v.8zm-67 13.5h-3v-.8h2v-8.4h-2V14h3v10zm59.5 0h-3V14h3v.8h-2v8.4h2v.8zm7 0h-3v-.8h2v-8.4h-2V14h3v10zm-66.5 14h-3v-.8h2v-8.4h-2V28h3v10zm7.5 0h-3v-.8h2v-8.4h-2V28h3v10zm28.9-10.5l-.2 5.8h-.9l-.1-5.8h1.2zm-.6 6.5a.7.7 0 0 1 .5.2l.1.3a.7.7 0 0 1 0 .6.7.7 0 0 1-1 .3.8.8 0 0 1-.2-.1.7.7 0 0 1-.1-.8.8.8 0 0 1 .4-.4.7.7 0 0 1 .3 0zm9.2 4h-3V28h3v.8h-2v8.4h2v.8zm7 0h-3v-.8h2v-8.4h-2V28h3v10zm22 0h-3v-.8h2v-8.4h-2V28h3v10zM110 51.5h-3v-.8h2v-8.4h-2v-.8h3v10zm29.5 0h-3v-.8h2v-8.4h-2v-.8h3v10zm15 0h-3v-10h3v.8h-2v8.4h2v.8zm29.5 0h-3v-.8h2v-8.4h-2v-.8h3v10zm13.9-10l-.2 5.8h-.9l-.1-5.8h1.2zm-.6 6.5a.7.7 0 0 1 .5.2l.1.3a.7.7 0 0 1 0 .6.7.7 0 0 1-1 .3.8.8 0 0 1-.2-.1.7.7 0 0 1-.1-.8.8.8 0 0 1 .4-.4.7.7 0 0 1 .3 0zm-64.8 17h-3V55h3v.8h-2v8.4h2v.8zm7 0h-3v-.8h2v-8.4h-2V55h3v10zm21.9-10l-.2 5.8h-.9l-.1-5.8h1.2zm-.6 6.5a.7.7 0 0 1 .5.2l.1.3a.7.7 0 0 1 0 .6.7.7 0 0 1-1 .3.8.8 0 0 1-.2-.1.7.7 0 0 1-.1-.8.8.8 0 0 1 .4-.4.7.7 0 0 1 .3 0zm8.7 3.5h-3V55h3v.8h-2v8.4h2v.8zm29 .5A7 7 0 0 1 196 59a6.4 6.4 0 0 1 .4-1.3l.8-1.4 1.2-1.3.5.6c-1.4 1.4-2 3-2 4.6 0 .9.1 1.7.5 2.5.3.8.8 1.5 1.5 2.2l-.6.6zm-88.5 13h-3v-.8h2v-8.4h-2v-.8h3v10zm30 0h-3v-10h3v.8h-2v8.4h2v.8zm14.5 0h-3v-10h3v.8h-2v8.4h2v.8zm14.5 0h-3v-.8h2v-8.4h-2v-.8h3v10zm22.5 0h-3v-10h3v.8h-2v8.4h2v.8zm-74 14h-3v-10h3v.8h-2v8.4h2v.8zm29.5 0h-3v-10h3v.8h-2v8.4h2v.8zm7 0h-3v-.8h2v-8.4h-2v-.8h3v10zm5-10.5a7.1 7.1 0 0 1 2.4 6.5 6.3 6.3 0 0 1-.4 1.3l-.8 1.3a9.2 9.2 0 0 1-1.2 1.4l-.5-.6c.7-.7 1.2-1.4 1.5-2.2a6 6 0 0 0 .6-2.4c0-1.7-.7-3.3-2.1-4.7l.6-.6zm25 10.5h-3v-10h3v.8h-2v8.4h2v.8zm14.5 0h-3v-.8h2v-8.4h-2v-.8h3v10zm-66.1-79L128.1 24H127l4.3-10.5h1.1zm3.1 0L131.2 24H130l4.3-10.5h1.1zm41.4 0L172.6 24h-1.1l4.3-10.5h1.1zm3.1 0L175.7 24h-1.1l4.3-10.5h1.1zM167.4 0l-4.3 10.5H162L166.3 0h1.1zm3.1 0l-4.3 10.5H165L169.4 0h1.1zm-24.1 27.5L142.1 38H141l4.3-10.5h1.1zm3.1 0L145.2 38H144l4.3-10.5h1.1zm-32.6 0L112.6 38h-1.1l4.3-10.5h1.1zm3.1 0L115.7 38h-1.1l4.3-10.5h1.1zm2.4 40.5l-4.3 10.5H117l4.3-10.5h1.1zm3.1 0l-4.3 10.5H120l4.3-10.5h1.1zm-.8-27.5l-4.6 11H119l4.6-11h1.1zm3.3 0l-4.6 11h-1.1l4.6-11h1.1zM158 4h2v1.9h-2V4zm0 4.6h2v1.9h-2V8.6zM114.5 59h2v1.9h-2V59zm0 4.6h2v1.9h-2v-1.9zM196 4h2v1.9h-2V4zm0 4.6h2v1.9h-2V8.6zM182 59h2v1.9h-2V59zm0 4.6h2v1.9h-2v-1.9zM123.3 55L119 65.5h-1l4.3-10.5h1zm3.2 0l-4.3 10.5h-1l4.3-10.5h1zm27.3-1l-4.3 10.5h-1l4.3-10.5h1zm3.2 0l-4.3 10.5h-1L156 54h1zm18.8 28.5L171.5 93h-1l4.3-10.5h1zm3.2 0L174.7 93h-1l4.3-10.5h1zM190.8 55l-4.3 10.5h-1l4.3-10.5h1zm3.2 0l-4.3 10.5h-1L193 55h1zm-2.8-14.5l-4.6 11h-1.1l4.6-11h1.1zm3.3 0l-4.6 11h-1.1l4.6-11h1.1zm-10.8-13l-4.6 11H178l4.6-11h1.1zm3.3 0l-4.6 11h-1.1l4.6-11h1.1zm-47.2 55L135.5 93h-1l4.3-10.5h1zm3.2 0L138.7 93h-1l4.3-10.5h1z" fill="url(#h)" transform="translate(65 1)"/><path d="M129 200h2.9v.8h-2v9.4h2v.8H129v-11zm7 0h2.9v11H136v-.8h2v-9.4h-2v-.8zm9 0h2.9v.8h-2v9.4h2v.8H145v-11zm9.7 11a7.3 7.3 0 0 1-2.7-5.4 6.9 6.9 0 0 1 1.5-4.2c.3-.5.7-1 1.2-1.4l.6.6a6.7 6.7 0 0 0-2.3 4.9c0 .9.2 1.7.6 2.6a8 8 0 0 0 1.7 2.3l-.6.6zm15.2 0H167v-11h2.9v.8h-2v9.4h2v.8zm7 0H174v-.8h2v-9.4h-2v-.8h2.9v11zm23 0H197v-.8h2v-9.4h-2v-.8h2.9v11zm5.7-11a7.3 7.3 0 0 1 2.7 5.5l-.1 1.3a6.4 6.4 0 0 1-.5 1.3c-.2.5-.4 1-.8 1.5l-1.3 1.4-.6-.6a8 8 0 0 0 1.7-2.3 6 6 0 0 0 .6-2.6c0-1.8-.8-3.4-2.3-4.9l.6-.6zm10.3 11H213v-11h2.9v.8h-2v9.4h2v.8zm-34.9-7h2v2h-2v-2zm0 5h2v2h-2v-2zm9.8-9l-4.7 11H185l4.6-11h1.2zm3.4 0l-4.6 11h-1.1l4.6-11h1.1zm-31.8 0l-.2 8.6h-.9l-.1-8.6h1.2zm-.7 9.5a.7.7 0 0 1 .6.2.8.8 0 0 1 .1.3.7.7 0 0 1 0 .6.7.7 0 0 1-.4.3.7.7 0 0 1-.5 0 .8.8 0 0 1-.3-.1.7.7 0 0 1-.1-.8.8.8 0 0 1 .4-.4.7.7 0 0 1 .2 0z" fill="url(#i)" transform="translate(65 1)"/><path d="M65 275h2.9v.8h-2v9.4h2v.8H65v-11zm7 0h2.9v11H72v-.8h2v-9.4h-2v-.8zm9 0h2.9v.8h-2v9.4h2v.8H81v-11zm9.7 11a7.3 7.3 0 0 1-2.7-5.4 6.9 6.9 0 0 1 1.5-4.2c.3-.5.7-1 1.2-1.4l.6.6a6.7 6.7 0 0 0-2.3 4.9c0 .9.2 1.7.6 2.6a8 8 0 0 0 1.7 2.3l-.6.6zm15.2 0H103v-11h2.9v.8h-2v9.4h2v.8zm7 0H110v-.8h2v-9.4h-2v-.8h2.9v11zm23 0H133v-.8h2v-9.4h-2v-.8h2.9v11zm5.7-11a7.3 7.3 0 0 1 2.7 5.5l-.1 1.3a6.4 6.4 0 0 1-.5 1.3c-.2.5-.4 1-.8 1.5l-1.3 1.4-.6-.6a8 8 0 0 0 1.7-2.3 6 6 0 0 0 .6-2.6c0-1.8-.8-3.4-2.3-4.9l.6-.6zm-24.6 4h2v2h-2v-2zm0 5h2v2h-2v-2zm9.8-9l-4.7 11H121l4.6-11h1.2zm3.4 0l-4.6 11h-1.1l4.6-11h1.1zm-31.8 0l-.2 8.6h-.9l-.1-8.6h1.2zm-.7 9.5a.7.7 0 0 1 .6.2.8.8 0 0 1 .1.3.7.7 0 0 1 0 .6.7.7 0 0 1-.4.3.7.7 0 0 1-.5 0 .8.8 0 0 1-.3-.1.7.7 0 0 1-.1-.8.8.8 0 0 1 .4-.4.7.7 0 0 1 .2 0z" fill="url(#j)" transform="translate(65 1)"/><path d="M286.5.5h3v.8h-2v8.4h2v.8h-3V.5zm7 0h3v10h-3v-.8h2V1.3h-2V.5zm7.5 0h3v.8h-2v8.4h2v.8h-3V.5zm16.9 0l-.2 5.8h-.9l-.1-5.8h1.2zm-.6 6.5a.7.7 0 0 1 .5.2l.1.3a.7.7 0 0 1 0 .6.7.7 0 0 1-1 .3.8.8 0 0 1-.2-.1.7.7 0 0 1-.1-.8.8.8 0 0 1 .4-.4.7.7 0 0 1 .3 0zm15.7 3.5h-3v-.8h2V1.3h-2V.5h3v10zm22.5 0h-3v-.8h2V1.3h-2V.5h3v10zm5-10.5a7.1 7.1 0 0 1 2.4 6.5 6.3 6.3 0 0 1-.4 1.3l-.8 1.3a9.2 9.2 0 0 1-1.2 1.4l-.5-.6c.7-.7 1.2-1.4 1.5-2.2a6 6 0 0 0 .6-2.4c0-1.7-.7-3.3-2.1-4.7l.6-.6zm-64 24h-3V14h3v.8h-2v8.4h2v.8zm7 0h-3v-.8h2v-8.4h-2V14h3v10zm22.5 0h-3v-.8h2v-8.4h-2V14h3v10zm21.4-10l-.2 5.8h-.9l-.1-5.8h1.2zm-.6 6.5a.7.7 0 0 1 .5.2l.1.3a.7.7 0 0 1 0 .6.7.7 0 0 1-1 .3.8.8 0 0 1-.2-.1.7.7 0 0 1-.1-.8.8.8 0 0 1 .4-.4.7.7 0 0 1 .3 0zM363 24h-3V14h3v.8h-2v8.4h2v.8zm-52 14h-3v-.8h2v-8.4h-2V28h3v10zm22 0a7 7 0 0 1-2.4-6.5 6.4 6.4 0 0 1 .4-1.3l.8-1.4 1.2-1.3.5.6c-1.4 1.4-2 3-2 4.6 0 .9.1 1.7.5 2.5.3.8.8 1.5 1.5 2.2l-.6.6zm22.5 0h-3v-.8h2v-8.4h-2V28h3v10zm22 0h-3v-.8h2v-8.4h-2V28h3v10zM289 51.5h-3v-.8h2v-8.4h-2v-.8h3v10zM323.6 41a7.1 7.1 0 0 1 2.3 6.5 6.3 6.3 0 0 1-.4 1.3l-.8 1.3a9.2 9.2 0 0 1-1.2 1.4l-.5-.6c.7-.7 1.2-1.4 1.5-2.2a6 6 0 0 0 .6-2.4c0-1.7-.7-3.3-2.1-4.7l.6-.6zm53.3.5l-.2 5.8h-.9l-.1-5.8h1.2zm-.6 6.5a.7.7 0 0 1 .5.2l.1.3a.7.7 0 0 1 0 .6.7.7 0 0 1-1 .3.8.8 0 0 1-.2-.1.7.7 0 0 1-.1-.8.8.8 0 0 1 .4-.4.7.7 0 0 1 .3 0zm-86.8 17h-3V55h3v.8h-2v8.4h2v.8zm29 0h-3v-.8h2v-8.4h-2V55h3v10zm21.9-10l-.2 5.8h-.9l-.1-5.8h1.2zm-.6 6.5a.7.7 0 0 1 .5.2l.1.3a.7.7 0 0 1 0 .6.7.7 0 0 1-1 .3.8.8 0 0 1-.2-.1.7.7 0 0 1-.1-.8.8.8 0 0 1 .4-.4.7.7 0 0 1 .3 0zm8.7 3.5h-3V55h3v.8h-2v8.4h2v.8zM319 78.5h-3v-10h3v.8h-2v8.4h2v.8zm7 0h-3v-.8h2v-8.4h-2v-.8h3v10zm44.5 0h-3v-10h3v.8h-2v8.4h2v.8zm-59.5 14h-3v-.8h2v-8.4h-2v-.8h3v10zm15 0h-3v-10h3v.8h-2v8.4h2v.8zM338 82a7.1 7.1 0 0 1 2.4 6.5 6.3 6.3 0 0 1-.4 1.3l-.8 1.3a9.2 9.2 0 0 1-1.2 1.4l-.5-.6c.7-.7 1.2-1.4 1.5-2.2a6 6 0 0 0 .6-2.4c0-1.7-.7-3.3-2.1-4.7l.6-.6zm25 10.5h-3v-10h3v.8h-2v8.4h2v.8zm-51.6-79L307.1 24H306l4.3-10.5h1.1zm3.1 0L310.2 24H309l4.3-10.5h1.1zm41.4 0L351.6 24h-1.1l4.3-10.5h1.1zm3.1 0L354.7 24h-1.1l4.3-10.5h1.1zM346.4 0l-4.3 10.5H341L345.3 0h1.1zm3.1 0l-4.3 10.5H344L348.4 0h1.1zm-2.1 41l-4.3 10.5H342l4.3-10.5h1.1zm3.1 0l-4.3 10.5H345l4.3-10.5h1.1zm-25.1-13.5L321.1 38H320l4.3-10.5h1.1zm3.1 0L324.2 38H323l4.3-10.5h1.1zM301.4 68l-4.3 10.5H296l4.3-10.5h1.1zm3.1 0l-4.3 10.5H299l4.3-10.5h1.1zm57.9 0l-4.3 10.5H357l4.3-10.5h1.1zm3.1 0l-4.3 10.5H360l4.3-10.5h1.1zm-61.8-27.5l-4.6 11H298l4.6-11h1.1zm3.3 0l-4.6 11h-1.1l4.6-11h1.1zM337 4h2v1.9h-2V4zm0 4.6h2v1.9h-2V8.6zm-21 22.9h2v1.9h-2v-1.9zm0 4.6h2V38h-2v-1.9zm-29.5-4.6h2v1.9h-2v-1.9zm0 4.6h2V38h-2v-1.9zM375 4h2v1.9h-2V4zm0 4.6h2v1.9h-2V8.6zm0 8.9h2v1.9h-2v-1.9zm0 4.6h2V24h-2v-1.9zm-37 22.4h2v1.9h-2v-1.9zm0 4.6h2V51h-2v-1.9zm23 9.9h2v1.9h-2V59zm0 4.6h2v1.9h-2v-1.9zm-15.5 22.9h2v1.9h-2v-1.9zm0 4.6h2V93h-2v-1.9zM332.8 54l-4.3 10.5h-1l4.3-10.5h1zm3.2 0l-4.3 10.5h-1L335 54h1zm18.8 28.5L350.5 93h-1l4.3-10.5h1zm3.2 0L353.7 93h-1l4.3-10.5h1zM369.8 55l-4.3 10.5h-1l4.3-10.5h1zm3.2 0l-4.3 10.5h-1L372 55h1zm-10.3-27.5l-4.6 11H357l4.6-11h1.1zm3.3 0l-4.6 11h-1.1l4.6-11h1.1zm-47.2 55L314.5 93h-1l4.3-10.5h1zm3.2 0L317.7 93h-1l4.3-10.5h1z" fill="url(#g)" transform="translate(65 1)"/><path d="M199.5.5h3v.8h-2v8.4h2v.8h-3V.5zm7 0h3v10h-3v-.8h2V1.3h-2V.5zm7.5 0h3v.8h-2v8.4h2v.8h-3V.5zm16.9 0l-.2 5.8h-.9l-.1-5.8h1.2zm-.6 6.5a.7.7 0 0 1 .5.2l.1.3a.7.7 0 0 1 0 .6.7.7 0 0 1-1 .3.8.8 0 0 1-.2-.1.7.7 0 0 1-.1-.8.8.8 0 0 1 .4-.4.7.7 0 0 1 .3 0zm15.7 3.5h-3v-.8h2V1.3h-2V.5h3v10zm22.5 0h-3v-.8h2V1.3h-2V.5h3v10zm5-10.5a7.1 7.1 0 0 1 2.4 6.5 6.3 6.3 0 0 1-.4 1.3l-.8 1.3a9.2 9.2 0 0 1-1.2 1.4l-.5-.6c.7-.7 1.2-1.4 1.5-2.2a6 6 0 0 0 .6-2.4c0-1.7-.7-3.3-2.1-4.7l.6-.6zm-64 24h-3V14h3v.8h-2v8.4h2v.8zm7 0h-3v-.8h2v-8.4h-2V14h3v10zm22.5 0h-3v-.8h2v-8.4h-2V14h3v10zm21.4-10l-.2 5.8h-.9l-.1-5.8h1.2zm-.6 6.5a.7.7 0 0 1 .5.2l.1.3a.7.7 0 0 1 0 .6.7.7 0 0 1-1 .3.8.8 0 0 1-.2-.1.7.7 0 0 1-.1-.8.8.8 0 0 1 .4-.4.7.7 0 0 1 .3 0zM276 24h-3V14h3v.8h-2v8.4h2v.8zm-52 14h-3v-.8h2v-8.4h-2V28h3v10zm44.5 0h-3v-.8h2v-8.4h-2V28h3v10zm22 0h-3v-.8h2v-8.4h-2V28h3v10zM202 51.5h-3v-.8h2v-8.4h-2v-.8h3v10zM236.6 41a7.1 7.1 0 0 1 2.3 6.5 6.3 6.3 0 0 1-.4 1.3l-.8 1.3a9.2 9.2 0 0 1-1.2 1.4l-.5-.6c.7-.7 1.2-1.4 1.5-2.2a6 6 0 0 0 .6-2.4c0-1.7-.7-3.3-2.1-4.7l.6-.6zm53.3.5l-.2 5.8h-.9l-.1-5.8h1.2zm-.6 6.5a.7.7 0 0 1 .5.2l.1.3a.7.7 0 0 1 0 .6.7.7 0 0 1-1 .3.8.8 0 0 1-.2-.1.7.7 0 0 1-.1-.8.8.8 0 0 1 .4-.4.7.7 0 0 1 .3 0zm-86.8 17h-3V55h3v.8h-2v8.4h2v.8zM232 78.5h-3v-10h3v.8h-2v8.4h2v.8zm51.5 0h-3v-10h3v.8h-2v8.4h2v.8zm-59.5 14h-3v-.8h2v-8.4h-2v-.8h3v10zM251 82a7.1 7.1 0 0 1 2.4 6.5 6.3 6.3 0 0 1-.4 1.3l-.8 1.3a9.2 9.2 0 0 1-1.2 1.4l-.5-.6c.7-.7 1.2-1.4 1.5-2.2a6 6 0 0 0 .6-2.4c0-1.7-.7-3.3-2.1-4.7l.6-.6zm25 10.5h-3v-10h3v.8h-2v8.4h2v.8zm-7.1-79L264.6 24h-1.1l4.3-10.5h1.1zm3.1 0L267.7 24h-1.1l4.3-10.5h1.1zM260.4 41l-4.3 10.5H255l4.3-10.5h1.1zm3.1 0l-4.3 10.5H258l4.3-10.5h1.1zm-25.1-13.5L234.1 38H233l4.3-10.5h1.1zm3.1 0L237.2 38H236l4.3-10.5h1.1zM214.4 68l-4.3 10.5H209l4.3-10.5h1.1zm3.1 0l-4.3 10.5H212l4.3-10.5h1.1zm57.9 0l-4.3 10.5H270l4.3-10.5h1.1zm3.1 0l-4.3 10.5H273l4.3-10.5h1.1zM250 4h2v1.9h-2V4zm0 4.6h2v1.9h-2V8.6zm-21 22.9h2v1.9h-2v-1.9zm0 4.6h2V38h-2v-1.9zm-29.5-4.6h2v1.9h-2v-1.9zm0 4.6h2V38h-2v-1.9zM288 4h2v1.9h-2V4zm0 4.6h2v1.9h-2V8.6zm0 8.9h2v1.9h-2v-1.9zm0 4.6h2V24h-2v-1.9zm-37 22.4h2v1.9h-2v-1.9zm0 4.6h2V51h-2v-1.9zm23 9.9h2v1.9h-2V59zm0 4.6h2v1.9h-2v-1.9zm-15.5 22.9h2v1.9h-2v-1.9zm0 4.6h2V93h-2v-1.9zM245.8 54l-4.3 10.5h-1l4.3-10.5h1zm3.2 0l-4.3 10.5h-1L248 54h1zm18.8 28.5L263.5 93h-1l4.3-10.5h1zm3.2 0L266.7 93h-1l4.3-10.5h1zm4.7-55l-4.6 11H270l4.6-11h1.1zm3.3 0l-4.6 11h-1.1l4.6-11h1.1zm-47.2 55L227.5 93h-1l4.3-10.5h1zm3.2 0L230.7 93h-1l4.3-10.5h1z" fill="url(#g)" transform="translate(65 1)"/><path d="M140 262h2.9v.8h-2v9.4h2v.8H140v-11zm7 0h2.9v11H147v-.8h2v-9.4h-2v-.8zm9 0h2.9v.8h-2v9.4h2v.8H156v-11zm9.7 11a7.3 7.3 0 0 1-2.7-5.4 6.9 6.9 0 0 1 1.5-4.2c.3-.5.7-1 1.2-1.4l.6.6a6.7 6.7 0 0 0-2.3 4.9c0 .9.2 1.7.6 2.6a8 8 0 0 0 1.7 2.3l-.6.6zm15.2 0H178v-11h2.9v.8h-2v9.4h2v.8zm7 0H185v-.8h2v-9.4h-2v-.8h2.9v11zm23 0H208v-.8h2v-9.4h-2v-.8h2.9v11zm5.7-11a7.3 7.3 0 0 1 2.7 5.5l-.1 1.3a6.4 6.4 0 0 1-.5 1.3c-.2.5-.4 1-.8 1.5l-1.3 1.4-.6-.6a8 8 0 0 0 1.7-2.3 6 6 0 0 0 .6-2.6c0-1.8-.8-3.4-2.3-4.9l.6-.6zm10.3 11H224v-11h2.9v.8h-2v9.4h2v.8zm-34.9-7h2v2h-2v-2zm0 5h2v2h-2v-2zm9.8-9l-4.7 11H196l4.6-11h1.2zm3.4 0l-4.6 11h-1.1l4.6-11h1.1zm-31.8 0l-.2 8.6h-.9l-.1-8.6h1.2zm-.7 9.5a.7.7 0 0 1 .6.2.8.8 0 0 1 .1.3.7.7 0 0 1 0 .6.7.7 0 0 1-.4.3.7.7 0 0 1-.5 0 .8.8 0 0 1-.3-.1.7.7 0 0 1-.1-.8.8.8 0 0 1 .4-.4.7.7 0 0 1 .2 0zM204 215h2.9v.8h-2v9.4h2v.8H204v-11zm7 0h2.9v11H211v-.8h2v-9.4h-2v-.8zm9 0h2.9v.8h-2v9.4h2v.8H220v-11zm9.7 11a7.3 7.3 0 0 1-2.7-5.4 6.9 6.9 0 0 1 1.5-4.2c.3-.5.7-1 1.2-1.4l.6.6a6.7 6.7 0 0 0-2.3 4.9c0 .9.2 1.7.6 2.6a8 8 0 0 0 1.7 2.3l-.6.6zm15.2 0H242v-11h2.9v.8h-2v9.4h2v.8zm7 0H249v-.8h2v-9.4h-2v-.8h2.9v11zm23 0H272v-.8h2v-9.4h-2v-.8h2.9v11zm5.7-11a7.3 7.3 0 0 1 2.7 5.5l-.1 1.3a6.4 6.4 0 0 1-.5 1.3c-.2.5-.4 1-.8 1.5l-1.3 1.4-.6-.6a8 8 0 0 0 1.7-2.3 6 6 0 0 0 .6-2.6c0-1.8-.8-3.4-2.3-4.9l.6-.6zm10.3 11H288v-11h2.9v.8h-2v9.4h2v.8zm-34.9-7h2v2h-2v-2zm0 5h2v2h-2v-2zm9.8-9l-4.7 11H260l4.6-11h1.2zm3.4 0l-4.6 11h-1.1l4.6-11h1.1zm-31.8 0l-.2 8.6h-.9l-.1-8.6h1.2zm-.7 9.5a.7.7 0 0 1 .6.2.8.8 0 0 1 .1.3.7.7 0 0 1 0 .6.7.7 0 0 1-.4.3.7.7 0 0 1-.5 0 .8.8 0 0 1-.3-.1.7.7 0 0 1-.1-.8.8.8 0 0 1 .4-.4.7.7 0 0 1 .2 0z" fill="url(#i)" transform="translate(65 1)"/></g></g></g></g></svg>