<svg width="606" height="321" viewBox="0 0 606 321" xmlns="http://www.w3.org/2000/svg" xmlns:xlink="http://www.w3.org/1999/xlink"><defs><path id="a" d="M0 0h609v321H0z"/><path id="c" d="M0 500h200L445 0H245z"/><linearGradient x1="50%" y1="0%" x2="50%" y2="100%" id="e"><stop offset="0%"/><stop stop-color="#686874" offset="100%"/></linearGradient><linearGradient x1="50%" y1="0%" x2="50%" y2="100%" id="f"><stop offset="0%"/><stop stop-color="#686874" offset="100%"/></linearGradient><linearGradient x1="50%" y1="0%" x2="50%" y2="100%" id="g"><stop offset="0%"/><stop stop-color="#686874" offset="100%"/></linearGradient><linearGradient x1="50%" y1="0%" x2="50%" y2="100%" id="h"><stop offset="0%"/><stop stop-color="#686874" offset="100%"/></linearGradient><linearGradient x1="50%" y1="0%" x2="50%" y2="100%" id="i"><stop offset="0%"/><stop stop-color="#686874" offset="100%"/></linearGradient><linearGradient x1="50%" y1="0%" x2="50%" y2="100%" id="j"><stop offset="0%"/><stop stop-color="#686874" offset="100%"/></linearGradient><path id="k" d="M0 500h200L445 0H245z"/></defs><g transform="translate(-3)" fill="none" fill-rule="evenodd"><mask id="b" fill="#fff"><use xlink:href="#a"/></mask><g mask="url(#b)"><g transform="translate(-84)"><mask id="d" fill="#fff"><use xlink:href="#c"/></mask><use fill="#EDEDF0" xlink:href="#c"/><g mask="url(#d)"><path d="M21.628 333l-4.532 11H16l4.531-11h1.097zM25 333l-4.531 11h-1.097l4.532-11H25zm16.628 50l-4.532 11H36l4.531-11h1.097zM45 383l-4.531 11h-1.097l4.532-11H45zm21.628 17l-4.532 11H61l4.531-11h1.097zM70 400l-4.531 11h-1.097l4.532-11H70zm-58-63h2v2h-2v-2zm0 5h2v2h-2v-2zm20 45h2v2h-2v-2zm0 5h2v2h-2v-2zm-23-1h2v2H9v-2zm0 5h2v2H9v-2zm21.702-52.814C28.9 341.518 28 339.674 28 337.655c0-.473.048-.945.143-1.415a6.68 6.68 0 0 1 .463-1.415 7.69 7.69 0 0 1 .845-1.418c.35-.473.774-.942 1.274-1.407l.592.604c-1.515 1.496-2.274 3.154-2.274 4.975 0 .906.192 1.777.575 2.613.383.836.95 1.625 1.7 2.367l-.616.627zm-5-48C23.9 293.518 23 291.674 23 289.655c0-.473.048-.945.143-1.415a6.68 6.68 0 0 1 .463-1.415 7.69 7.69 0 0 1 .845-1.418c.35-.473.774-.942 1.274-1.407l.592.604c-1.515 1.496-2.274 3.154-2.274 4.975 0 .906.192 1.777.575 2.613.383.836.95 1.625 1.7 2.367l-.616.627zm50 88C73.9 381.518 73 379.674 73 377.655c0-.473.048-.945.143-1.415a6.68 6.68 0 0 1 .463-1.415 7.69 7.69 0 0 1 .845-1.418c.35-.473.774-.942 1.274-1.407l.592.604c-1.515 1.496-2.274 3.154-2.274 4.975 0 .906.192 1.777.575 2.613.383.836.95 1.625 1.7 2.367l-.616.627zM34.615 332c1.802 1.668 2.702 3.523 2.702 5.566 0 .422-.043.86-.129 1.313a6.54 6.54 0 0 1-.439 1.392 8.01 8.01 0 0 1-.835 1.444c-.35.488-.79.978-1.322 1.47l-.592-.603c.761-.754 1.33-1.541 1.706-2.361.375-.821.562-1.68.562-2.578 0-1.86-.756-3.532-2.268-5.016l.615-.627zm46 40c1.802 1.668 2.702 3.523 2.702 5.566 0 .422-.043.86-.129 1.313a6.54 6.54 0 0 1-.439 1.392 8.01 8.01 0 0 1-.835 1.444c-.35.488-.79.978-1.322 1.47l-.592-.603c.761-.754 1.33-1.541 1.706-2.361.375-.821.562-1.68.562-2.578 0-1.86-.756-3.532-2.268-5.016l.615-.627zM47.76 343.527h-2.89V332.64h2.89v.821h-1.917v9.246h1.917v.82zm22.13-30.64H67V302h2.89v.821h-1.917v9.246h1.917v.82zm-9-27H58V275h2.89v.821h-1.917v9.246h1.917v.82zm-6 58H52v-.82h1.906v-9.246H52V333h2.89v10.887zm21-31H73v-.82h1.906v-9.246H73V302h2.89v10.887zm61 59H134v-.82h1.906v-9.246H134V361h2.89v10.887zm-98.872-28.33v-1.06h.837c.391 0 .672-.093.844-.276.172-.184.258-.479.258-.885l-.023-.844c0-.379.076-.719.228-1.02.152-.3.354-.53.604-.69a1.806 1.806 0 0 1-.63-.678 1.964 1.964 0 0 1-.226-.946l.024-1.113c0-.32-.062-.56-.185-.72-.123-.16-.313-.241-.571-.241H38V334h.973c.754 0 1.325.183 1.714.548.388.365.583.903.583 1.614l-.03 1.131c0 .332.06.574.179.727.12.152.304.228.554.228h.492v1.072h-.504c-.234 0-.408.074-.522.22-.113.147-.17.41-.17.788l.036 1.008c0 .566-.1 1.012-.3 1.336-.198.324-.487.553-.866.685-.38.133-.864.2-1.453.2h-.668zm-34.239 0c-.59 0-1.074-.067-1.453-.2a1.606 1.606 0 0 1-.867-.685c-.2-.324-.299-.77-.299-1.336l.035-1.008c0-.379-.056-.641-.17-.788-.113-.146-.287-.22-.521-.22H0v-1.072h.492c.25 0 .435-.076.554-.228.119-.153.179-.395.179-.727l-.03-1.13c0-.712.195-1.25.583-1.615.389-.365.96-.548 1.714-.548h.973v1.084H3.287c-.258 0-.448.08-.571.24-.123.16-.185.4-.185.72l.024 1.114c0 .352-.076.667-.226.946-.15.28-.36.505-.63.677.25.16.451.39.604.692.152.3.228.64.228 1.02l-.023.843c0 .406.086.701.258.885.172.183.453.275.843.275h.838v1.06H3.78z" fill="url(#e)" fill-rule="nonzero" transform="translate(65 1)"/><path d="M74.628 200l-4.532 11H69l4.531-11h1.097zM78 200l-4.531 11h-1.097l4.532-11H78zm-13 4h2v2h-2v-2zm0 5h2v2h-2v-2zm18.702 1.186C81.9 208.518 81 206.674 81 204.655c0-.473.048-.945.143-1.415a6.68 6.68 0 0 1 .463-1.415 7.69 7.69 0 0 1 .845-1.418c.35-.473.774-.942 1.274-1.407l.592.604c-1.515 1.496-2.274 3.154-2.274 4.975 0 .906.192 1.777.575 2.613.383.836.95 1.625 1.7 2.367l-.616.627zm-5-48C76.9 160.518 76 158.674 76 156.655c0-.473.048-.945.143-1.415a6.68 6.68 0 0 1 .463-1.415 7.69 7.69 0 0 1 .845-1.418c.35-.473.774-.942 1.274-1.407l.592.604c-1.515 1.496-2.274 3.154-2.274 4.975 0 .906.192 1.777.575 2.613.383.836.95 1.625 1.7 2.367l-.616.627zm50 88c-1.802-1.668-2.702-3.512-2.702-5.531 0-.473.048-.945.143-1.415a6.68 6.68 0 0 1 .463-1.415 7.69 7.69 0 0 1 .845-1.418c.35-.473.774-.942 1.274-1.407l.592.604c-1.515 1.496-2.274 3.154-2.274 4.975 0 .906.192 1.777.575 2.613.383.836.95 1.625 1.7 2.367l-.616.627zM87.615 199c1.802 1.668 2.702 3.523 2.702 5.566 0 .422-.043.86-.129 1.313a6.54 6.54 0 0 1-.439 1.392 8.01 8.01 0 0 1-.835 1.444c-.35.488-.79.978-1.322 1.47l-.592-.603c.761-.754 1.33-1.541 1.706-2.361.375-.821.562-1.68.562-2.578 0-1.86-.756-3.532-2.268-5.016l.615-.627zm46 40c1.802 1.668 2.702 3.523 2.702 5.566 0 .422-.043.86-.129 1.313a6.54 6.54 0 0 1-.439 1.392 8.01 8.01 0 0 1-.835 1.444c-.35.488-.79.978-1.322 1.47l-.592-.603c.761-.754 1.33-1.541 1.706-2.361.375-.821.562-1.68.562-2.578 0-1.86-.756-3.532-2.268-5.016l.615-.627zm-32.855-28.473h-2.89V199.64h2.89v.821h-1.917v9.246h1.917v.82zm22.13-30.64H120V169h2.89v.821h-1.917v9.246h1.917v.82zm-9-27H111V142h2.89v.821h-1.917v9.246h1.917v.82zm-6 58H105v-.82h1.906v-9.246H105V200h2.89v10.887zm21-31H126v-.82h1.906v-9.246H126V169h2.89v10.887zm61 59H187v-.82h1.906v-9.246H187V228h2.89v10.887zm-98.872-28.33v-1.06h.837c.391 0 .672-.093.844-.276.172-.184.258-.479.258-.885l-.023-.844c0-.379.076-.719.228-1.02.152-.3.354-.53.604-.69a1.806 1.806 0 0 1-.63-.678 1.964 1.964 0 0 1-.226-.946l.024-1.113c0-.32-.062-.56-.185-.72-.123-.16-.313-.241-.571-.241H91V201h.973c.754 0 1.325.183 1.714.548.388.365.583.903.583 1.614l-.03 1.131c0 .332.06.574.179.727.12.152.304.228.554.228h.492v1.072h-.504c-.234 0-.408.074-.522.22-.113.147-.17.41-.17.788l.036 1.008c0 .566-.1 1.012-.3 1.336-.198.324-.487.553-.866.685-.38.133-.864.2-1.453.2h-.668zm-34.239 0c-.59 0-1.074-.067-1.453-.2a1.606 1.606 0 0 1-.867-.685c-.2-.324-.299-.77-.299-1.336l.035-1.008c0-.379-.056-.641-.17-.788-.113-.146-.287-.22-.521-.22H53v-1.072h.492c.25 0 .435-.076.554-.228.119-.153.179-.395.179-.727l-.03-1.13c0-.712.195-1.25.583-1.615.389-.365.96-.548 1.714-.548h.973v1.084h-1.178c-.258 0-.448.08-.571.24-.123.16-.185.4-.185.72l.024 1.114c0 .352-.076.667-.226.946-.15.28-.36.505-.63.677.25.16.451.39.604.692.152.3.228.64.228 1.02l-.023.843c0 .406.086.701.258.885.172.183.453.275.843.275h.838v1.06h-.668z" fill="url(#f)" fill-rule="nonzero" transform="translate(65 1)"/><path d="M259 94.5h3v.753h-1.99v8.495H262v.752h-3v-10zm16.853 0l-.154 5.758h-.875l-.17-5.758h1.199zm-.597 6.524a.728.728 0 0 1 .526.218c.066.067.12.146.159.237a.717.717 0 0 1 0 .574.746.746 0 0 1-.98.388.78.78 0 0 1-.239-.157.722.722 0 0 1-.162-.805.77.77 0 0 1 .4-.397.74.74 0 0 1 .296-.058zM284 104.5h-3v-10h3v.754h-1.99v8.493H284v.753zm7 0h-3v-.753h1.978v-8.493H288V94.5h3v10zM318.556 94c1.63 1.566 2.444 3.307 2.444 5.225 0 .396-.039.807-.117 1.232a6.31 6.31 0 0 1-.397 1.307c-.187.445-.44.897-.755 1.355a9.21 9.21 0 0 1-1.195 1.381l-.536-.567c.688-.708 1.203-1.446 1.543-2.216a5.94 5.94 0 0 0 .508-2.42c0-1.746-.684-3.315-2.051-4.708l.556-.589zm9.944 10.5h-3v-10h3v.754h-1.99v8.493h1.99v.753zm-67 13.5h-3v-.753h1.978v-8.493H258.5V108h3v10zm15.5 0h-3v-10h3v.754h-1.99v8.493H277V118zm22 0h-3v-10h3v.754h-1.99v8.493H299V118zm6.353-10l-.154 5.758h-.875l-.17-5.758h1.199zm-.597 6.524a.728.728 0 0 1 .526.218c.066.067.12.146.159.237a.717.717 0 0 1 0 .574.746.746 0 0 1-.98.388.78.78 0 0 1-.239-.157.722.722 0 0 1-.162-.805.77.77 0 0 1 .4-.397.74.74 0 0 1 .296-.058zM321 118h-3v-10h3v.754h-1.99v8.493H321V118zm7 0h-3v-.753h1.978v-8.493H325V108h3v10zm-37.056 14c-1.63-1.566-2.444-3.297-2.444-5.192 0-.444.043-.887.13-1.328a6.44 6.44 0 0 1 .418-1.328c.193-.444.447-.888.764-1.331.316-.444.7-.885 1.152-1.321l.536.567c-1.37 1.404-2.056 2.96-2.056 4.67 0 .85.172 1.668.519 2.453.346.784.858 1.525 1.537 2.221l-.556.589zm6.909-10.5l-.154 5.758h-.875l-.17-5.758h1.199zm-.597 6.524a.728.728 0 0 1 .526.218c.066.067.12.146.159.237a.717.717 0 0 1 0 .574.746.746 0 0 1-.98.388.78.78 0 0 1-.239-.157.722.722 0 0 1-.162-.805.77.77 0 0 1 .4-.397.74.74 0 0 1 .296-.058zM328.5 132h-3v-10h3v.754h-1.99v8.493h1.99V132zm7 0h-3v-.753h1.978v-8.493H332.5V122h3v10zm-59 13.5h-3v-.753h1.978v-8.493H273.5v-.754h3v10zm15 0h-3v-10h3v.754h-1.99v8.493h1.99v.753zm43.353-10l-.154 5.758h-.875l-.17-5.758h1.199zm-.597 6.524a.728.728 0 0 1 .526.218c.066.067.12.146.159.237a.717.717 0 0 1 0 .574.746.746 0 0 1-.98.388.78.78 0 0 1-.239-.157.722.722 0 0 1-.162-.805.77.77 0 0 1 .4-.397.74.74 0 0 1 .296-.058zM269.5 159h-3v-10h3v.754h-1.99v8.493h1.99V159zm7 0h-3v-.753h1.978v-8.493H273.5V149h3v10zm21.853-10l-.154 5.758h-.875l-.17-5.758h1.199zm-.597 6.524a.728.728 0 0 1 .526.218c.066.067.12.146.159.237a.717.717 0 0 1 0 .574.746.746 0 0 1-.98.388.78.78 0 0 1-.239-.157.722.722 0 0 1-.162-.805.77.77 0 0 1 .4-.397.74.74 0 0 1 .296-.058zM306.5 159h-3v-10h3v.754h-1.99v8.493h1.99V159zm28.944.5c-1.63-1.566-2.444-3.297-2.444-5.192 0-.444.043-.887.13-1.328a6.44 6.44 0 0 1 .418-1.328c.193-.444.447-.888.764-1.331.316-.444.7-.885 1.152-1.321l.536.567c-1.37 1.404-2.056 2.96-2.056 4.67 0 .85.172 1.668.519 2.453.346.784.858 1.525 1.537 2.221l-.556.589zM277 172.5h-3v-10h3v.754h-1.99v8.493H277v.753zm14.5 0h-3v-10h3v.754h-1.99v8.493h1.99v.753zm14.5 0h-3v-.753h1.978v-8.493H303v-.754h3v10zm22.5 0h-3v-10h3v.754h-1.99v8.493h1.99v.753zm-67 14h-3v-.753h1.978v-8.493H258.5v-.754h3v10zm7.5 0h-3v-.753h1.978v-8.493H266v-.754h3v10zm22 0h-3v-.753h1.978v-8.493H288v-.754h3v10zm37 0h-3v-.753h1.978v-8.493H325v-.754h3v10zm7.5 0h-3v-.753h1.978v-8.493H332.5v-.754h3v10zm-66.103-79l-4.345 10.5H264l4.345-10.5h1.052zm3.103 0l-4.345 10.5h-1.052l4.345-10.5h1.052zm41.397 0l-4.345 10.5H308.5l4.345-10.5h1.052zm3.103 0l-4.345 10.5h-1.052l4.345-10.5H317zM304.397 94l-4.345 10.5H299l4.345-10.5h1.052zm3.103 0l-4.345 10.5h-1.052l4.345-10.5h1.052zm-2.103 41l-4.345 10.5H300l4.345-10.5h1.052zm3.103 0l-4.345 10.5h-1.052l4.345-10.5h1.052zm-25.103-13.5l-4.345 10.5H278l4.345-10.5h1.052zm3.103 0l-4.345 10.5h-1.052l4.345-10.5h1.052zm-32.603 0l-4.345 10.5H248.5l4.345-10.5h1.052zm3.103 0l-4.345 10.5h-1.052l4.345-10.5H257zm2.397 40.5l-4.345 10.5H254l4.345-10.5h1.052zm3.103 0l-4.345 10.5h-1.052l4.345-10.5h1.052zm57.897 0l-4.345 10.5H315l4.345-10.5h1.052zm3.103 0l-4.345 10.5h-1.052l4.345-10.5h1.052zm-61.786-27.5l-4.6 11H256l4.601-11h1.113zm3.286 0l-4.601 11h-1.113l4.6-11H265zM295 98h2v1.857h-2V98zm0 4.643h2v1.857h-2v-1.857zM274 125.5h2v1.857h-2V125.5zm0 4.643h2V132h-2v-1.857zm-29.5-4.643h2v1.857h-2V125.5zm0 4.643h2V132h-2v-1.857zm7 22.857h2v1.857h-2V153zm0 4.643h2v1.857h-2v-1.857zM333 98h2v1.857h-2V98zm0 4.643h2v1.857h-2v-1.857zm0 8.857h2v1.857h-2V111.5zm0 4.643h2V118h-2v-1.857zM296 138.5h2v1.857h-2V138.5zm0 4.643h2V145h-2v-1.857zM282 152h2v1.857h-2V152zm0 4.643h2v1.857h-2v-1.857zM319 153h2v1.857h-2V153zm0 4.643h2v1.857h-2v-1.857zM311 166h2v1.857h-2V166zm0 4.643h2v1.857h-2v-1.857zM260.315 149l-4.28 10.5H255l4.28-10.5h1.035zm3.185 0l-4.28 10.5h-1.035l4.28-10.5h1.035zm27.315-1l-4.28 10.5H285.5l4.28-10.5h1.035zm3.185 0l-4.28 10.5h-1.035l4.28-10.5H294zm33.815 1l-4.28 10.5H322.5l4.28-10.5h1.035zm3.185 0l-4.28 10.5h-1.035l4.28-10.5H331zm-2.786-14.5l-4.6 11H322.5l4.601-11h1.113zm3.286 0l-4.601 11h-1.113l4.6-11h1.114zm-10.786-13l-4.6 11H315l4.601-11h1.113zm3.286 0l-4.601 11h-1.113l4.6-11H324zm-47.185 55l-4.28 10.5H271.5l4.28-10.5h1.035zm3.185 0l-4.28 10.5h-1.035l4.28-10.5H280zM163.5 93.5h3v.753h-1.99v8.495h1.99v.752h-3v-10zm16.853 0l-.154 5.758h-.875l-.17-5.758h1.199zm-.597 6.524a.728.728 0 0 1 .526.218c.066.067.12.146.159.237a.717.717 0 0 1 0 .574.746.746 0 0 1-.98.388.78.78 0 0 1-.239-.157.722.722 0 0 1-.162-.805.77.77 0 0 1 .4-.397.74.74 0 0 1 .296-.058zm8.744 3.476h-3v-10h3v.754h-1.99v8.493h1.99v.753zm7 0h-3v-.753h1.978v-8.493H192.5V93.5h3v10zM223.056 93c1.63 1.566 2.444 3.307 2.444 5.225 0 .396-.039.807-.117 1.232a6.31 6.31 0 0 1-.397 1.307c-.187.445-.44.897-.755 1.355a9.21 9.21 0 0 1-1.195 1.381l-.536-.567c.688-.708 1.203-1.446 1.543-2.216a5.94 5.94 0 0 0 .508-2.42c0-1.746-.684-3.315-2.051-4.708l.556-.589zM233 103.5h-3v-10h3v.754h-1.99v8.493H233v.753zM166 117h-3v-.753h1.978v-8.493H163V107h3v10zm15.5 0h-3v-10h3v.754h-1.99v8.493h1.99V117zm22 0h-3v-10h3v.754h-1.99v8.493h1.99V117zm6.353-10l-.154 5.758h-.875l-.17-5.758h1.199zm-.597 6.524a.728.728 0 0 1 .526.218c.066.067.12.146.159.237a.717.717 0 0 1 0 .574.746.746 0 0 1-.98.388.78.78 0 0 1-.239-.157.722.722 0 0 1-.162-.805.77.77 0 0 1 .4-.397.74.74 0 0 1 .296-.058zM225.5 117h-3v-10h3v.754h-1.99v8.493h1.99V117zm7 0h-3v-.753h1.978v-8.493H229.5V107h3v10zm-37.056 14c-1.63-1.566-2.444-3.297-2.444-5.192 0-.444.043-.887.13-1.328a6.44 6.44 0 0 1 .418-1.328c.193-.444.447-.888.764-1.331.316-.444.7-.885 1.152-1.321l.536.567c-1.37 1.404-2.056 2.96-2.056 4.67 0 .85.172 1.668.519 2.453.346.784.858 1.525 1.537 2.221l-.556.589zm6.909-10.5l-.154 5.758h-.875l-.17-5.758h1.199zm-.597 6.524a.728.728 0 0 1 .526.218c.066.067.12.146.159.237a.717.717 0 0 1 0 .574.746.746 0 0 1-.98.388.78.78 0 0 1-.239-.157.722.722 0 0 1-.162-.805.77.77 0 0 1 .4-.397.74.74 0 0 1 .296-.058zM233 131h-3v-10h3v.754h-1.99v8.493H233V131zm7 0h-3v-.753h1.978v-8.493H237V121h3v10zm-59 13.5h-3v-.753h1.978v-8.493H178v-.754h3v10zm15 0h-3v-10h3v.754h-1.99v8.493H196v.753zm43.353-10l-.154 5.758h-.875l-.17-5.758h1.199zm-.597 6.524a.728.728 0 0 1 .526.218c.066.067.12.146.159.237a.717.717 0 0 1 0 .574.746.746 0 0 1-.98.388.78.78 0 0 1-.239-.157.722.722 0 0 1-.162-.805.77.77 0 0 1 .4-.397.74.74 0 0 1 .296-.058zM174 158h-3v-10h3v.754h-1.99v8.493H174V158zm7 0h-3v-.753h1.978v-8.493H178V148h3v10zm21.853-10l-.154 5.758h-.875l-.17-5.758h1.199zm-.597 6.524a.728.728 0 0 1 .526.218c.066.067.12.146.159.237a.717.717 0 0 1 0 .574.746.746 0 0 1-.98.388.78.78 0 0 1-.239-.157.722.722 0 0 1-.162-.805.77.77 0 0 1 .4-.397.74.74 0 0 1 .296-.058zm37.688 3.976c-1.63-1.566-2.444-3.297-2.444-5.192 0-.444.043-.887.13-1.328a6.44 6.44 0 0 1 .418-1.328c.193-.444.447-.888.764-1.331.316-.444.7-.885 1.152-1.321l.536.567c-1.37 1.404-2.056 2.96-2.056 4.67 0 .85.172 1.668.519 2.453.346.784.858 1.525 1.537 2.221l-.556.589zm-58.444 13h-3v-10h3v.754h-1.99v8.493h1.99v.753zm29 0h-3v-.753h1.978v-8.493H207.5v-.754h3v10zm-44.5 14h-3v-.753h1.978v-8.493H163v-.754h3v10zm7.5 0h-3v-.753h1.978v-8.493H170.5v-.754h3v10zm22 0h-3v-.753h1.978v-8.493H192.5v-.754h3v10zm37 0h-3v-.753h1.978v-8.493H229.5v-.754h3v10zm7.5 0h-3v-.753h1.978v-8.493H237v-.754h3v10zm-66.103-79l-4.345 10.5H168.5l4.345-10.5h1.052zm3.103 0l-4.345 10.5h-1.052l4.345-10.5H177zM208.897 93l-4.345 10.5H203.5l4.345-10.5h1.052zM212 93l-4.345 10.5h-1.052l4.345-10.5H212zm-2.103 41l-4.345 10.5H204.5l4.345-10.5h1.052zm3.103 0l-4.345 10.5h-1.052l4.345-10.5H213zm-25.103-13.5l-4.345 10.5H182.5l4.345-10.5h1.052zm3.103 0l-4.345 10.5h-1.052l4.345-10.5H191zm-32.603 0l-4.345 10.5H153l4.345-10.5h1.052zm3.103 0l-4.345 10.5h-1.052l4.345-10.5h1.052zm2.397 40.5l-4.345 10.5H158.5l4.345-10.5h1.052zm3.103 0l-4.345 10.5h-1.052l4.345-10.5H167zm57.897 0l-4.345 10.5H219.5l4.345-10.5h1.052zm3.103 0l-4.345 10.5h-1.052l4.345-10.5H228zm-61.786-27.5l-4.6 11H160.5l4.601-11h1.113zm3.286 0l-4.601 11h-1.113l4.6-11h1.114zm30-36.5h2v1.857h-2V97zm0 4.643h2v1.857h-2v-1.857zM149 124.5h2v1.857h-2V124.5zm0 4.643h2V131h-2v-1.857zM156 152h2v1.857h-2V152zm0 4.643h2v1.857h-2v-1.857zM237.5 97h2v1.857h-2V97zm0 4.643h2v1.857h-2v-1.857zm0 8.857h2v1.857h-2V110.5zm0 4.643h2V117h-2v-1.857zm-37 22.357h2v1.857h-2V137.5zm0 4.643h2V144h-2v-1.857zm23 9.857h2v1.857h-2V152zm0 4.643h2v1.857h-2v-1.857zm-8 8.357h2v1.857h-2V165zm0 4.643h2v1.857h-2v-1.857zM164.815 148l-4.28 10.5H159.5l4.28-10.5h1.035zm3.185 0l-4.28 10.5h-1.035l4.28-10.5H168zm27.315-1l-4.28 10.5H190l4.28-10.5h1.035zm3.185 0l-4.28 10.5h-1.035l4.28-10.5h1.035zm33.815 1l-4.28 10.5H227l4.28-10.5h1.035zm3.185 0l-4.28 10.5h-1.035l4.28-10.5h1.035zm-2.786-14.5l-4.6 11H227l4.601-11h1.113zm3.286 0l-4.601 11h-1.113l4.6-11H236zm-10.786-13l-4.6 11H219.5l4.601-11h1.113zm3.286 0l-4.601 11h-1.113l4.6-11h1.114zm-47.185 55l-4.28 10.5H176l4.28-10.5h1.035zm3.185 0l-4.28 10.5h-1.035l4.28-10.5h1.035z" fill="url(#g)" transform="translate(65 1)"/><path d="M225.5 249.5h3v.753h-1.99v8.495h1.99v.752h-3v-10zm7 0h3v10h-3v-.752h1.977v-8.495H232.5v-.753zm7.5 0h3v.753h-1.99v8.495H243v.752h-3v-10zm9.944 10c-1.63-1.566-2.444-3.297-2.444-5.192 0-.444.043-.887.13-1.328a6.44 6.44 0 0 1 .418-1.328c.193-.444.447-.888.764-1.331.316-.444.7-.885 1.152-1.321l.536.567c-1.37 1.404-2.056 2.96-2.056 4.67 0 .85.172 1.668.519 2.453.346.784.858 1.525 1.537 2.221l-.556.589zm6.909-10l-.154 5.758h-.875l-.17-5.758h1.199zm-.597 6.524a.728.728 0 0 1 .526.218c.066.067.12.146.159.237a.717.717 0 0 1 0 .574.746.746 0 0 1-.98.388.78.78 0 0 1-.239-.157.722.722 0 0 1-.162-.805.77.77 0 0 1 .4-.397.74.74 0 0 1 .296-.058zM265 259.5h-3v-10h3v.754h-1.99v8.493H265v.753zm7 0h-3v-.753h1.978v-8.493H269v-.754h3v10zm22.5 0h-3v-.753h1.978v-8.493H291.5v-.754h3v10zm5.056-10.5c1.63 1.566 2.444 3.307 2.444 5.225 0 .396-.039.807-.117 1.232a6.31 6.31 0 0 1-.397 1.307c-.187.445-.44.897-.755 1.355a9.21 9.21 0 0 1-1.195 1.381l-.536-.567c.688-.708 1.203-1.446 1.543-2.216a5.94 5.94 0 0 0 .508-2.42c0-1.746-.684-3.315-2.051-4.708l.556-.589zm9.944 10.5h-3v-10h3v.754h-1.99v8.493h1.99v.753zm-74 13.5h-3v-10h3v.754h-1.99v8.493h1.99V273zm7 0h-3v-.753h1.978v-8.493H239.5V263h3v10zm15.5 0h-3v-10h3v.754h-1.99v8.493H258V273zm7 0h-3v-.753h1.978v-8.493H262V263h3v10zm15 0h-3v-10h3v.754h-1.99v8.493H280V273zm6.353-10l-.154 5.758h-.875l-.17-5.758h1.199zm-.597 6.524a.728.728 0 0 1 .526.218c.066.067.12.146.159.237a.717.717 0 0 1 0 .574.746.746 0 0 1-.98.388.78.78 0 0 1-.239-.157.722.722 0 0 1-.162-.805.77.77 0 0 1 .4-.397.74.74 0 0 1 .296-.058zM302 273h-3v-10h3v.754h-1.99v8.493H302V273zm7 0h-3v-.753h1.978v-8.493H306V263h3v10zm-66.5 14h-3v-.753h1.978v-8.493H239.5V277h3v10zm7.5 0h-3v-.753h1.978v-8.493H247V277h3v10zm21.944 0c-1.63-1.566-2.444-3.297-2.444-5.192 0-.444.043-.887.13-1.328a6.44 6.44 0 0 1 .418-1.328c.193-.444.447-.888.764-1.331.316-.444.7-.885 1.152-1.321l.536.567c-1.37 1.404-2.056 2.96-2.056 4.67 0 .85.172 1.668.519 2.453.346.784.858 1.525 1.537 2.221l-.556.589zm6.909-10.5l-.154 5.758h-.875l-.17-5.758h1.199zm-.597 6.524a.728.728 0 0 1 .526.218c.066.067.12.146.159.237a.717.717 0 0 1 0 .574.746.746 0 0 1-.98.388.78.78 0 0 1-.239-.157.722.722 0 0 1-.162-.805.77.77 0 0 1 .4-.397.74.74 0 0 1 .296-.058zM287.5 287h-3v-10h3v.754h-1.99v8.493h1.99V287zm7 0h-3v-.753h1.978v-8.493H291.5V277h3v10zm15 0h-3v-10h3v.754h-1.99v8.493h1.99V287zm7 0h-3v-.753h1.978v-8.493H313.5V277h3v10zM228 300.5h-3v-.753h1.978v-8.493H225v-.754h3v10zm29.5 0h-3v-.753h1.978v-8.493H254.5v-.754h3v10zm5.056-10.5c1.63 1.566 2.444 3.307 2.444 5.225 0 .396-.039.807-.117 1.232a6.31 6.31 0 0 1-.397 1.307c-.187.445-.44.897-.755 1.355a9.21 9.21 0 0 1-1.195 1.381l-.536-.567c.688-.708 1.203-1.446 1.543-2.216a5.94 5.94 0 0 0 .508-2.42c0-1.746-.684-3.315-2.051-4.708l.556-.589zm9.944 10.5h-3v-10h3v.754h-1.99v8.493h1.99v.753zm29.5 0h-3v-.753h1.978v-8.493H299v-.754h3v10zm13.853-10l-.154 5.758h-.875l-.17-5.758h1.199zm-.597 6.524a.728.728 0 0 1 .526.218c.066.067.12.146.159.237a.717.717 0 0 1 0 .574.746.746 0 0 1-.98.388.78.78 0 0 1-.239-.157.722.722 0 0 1-.162-.805.77.77 0 0 1 .4-.397.74.74 0 0 1 .296-.058zM228.5 314h-3v-10h3v.754h-1.99v8.493h1.99V314zm22 0h-3v-10h3v.754h-1.99v8.493h1.99V314zm7 0h-3v-.753h1.978v-8.493H254.5V304h3v10zm21.853-10l-.154 5.758h-.875l-.17-5.758h1.199zm-.597 6.524a.728.728 0 0 1 .526.218c.066.067.12.146.159.237a.717.717 0 0 1 0 .574.746.746 0 0 1-.98.388.78.78 0 0 1-.239-.157.722.722 0 0 1-.162-.805.77.77 0 0 1 .4-.397.74.74 0 0 1 .296-.058zM287.5 314h-3v-10h3v.754h-1.99v8.493h1.99V314zm7 0h-3v-.753h1.978v-8.493H291.5V304h3v10zm21.944.5c-1.63-1.566-2.444-3.297-2.444-5.192 0-.444.043-.887.13-1.328a6.44 6.44 0 0 1 .418-1.328c.193-.444.447-.888.764-1.331.316-.444.7-.885 1.152-1.321l.536.567c-1.37 1.404-2.056 2.96-2.056 4.67 0 .85.172 1.668.519 2.453.346.784.858 1.525 1.537 2.221l-.556.589zM228 327.5h-3v-.753h1.978v-8.493H225v-.754h3v10zm21.944.5c-1.63-1.566-2.444-3.297-2.444-5.192 0-.444.043-.887.13-1.328a6.44 6.44 0 0 1 .418-1.328c.193-.444.447-.888.764-1.331.316-.444.7-.885 1.152-1.321l.536.567c-1.37 1.404-2.056 2.96-2.056 4.67 0 .85.172 1.668.519 2.453.346.784.858 1.525 1.537 2.221l-.556.589zm8.056-.5h-3v-10h3v.754h-1.99v8.493H258v.753zm7 0h-3v-.753h1.978v-8.493H262v-.754h3v10zm7.5 0h-3v-10h3v.754h-1.99v8.493h1.99v.753zm14.5 0h-3v-.753h1.978v-8.493H284v-.754h3v10zm22.5 0h-3v-10h3v.754h-1.99v8.493h1.99v.753zm-74 14h-3v-10h3v.754h-1.99v8.493h1.99v.753zm7 0h-3v-.753h1.978v-8.493H239.5v-.754h3v10zm7.5 0h-3v-.753h1.978v-8.493H247v-.754h3v10zm15 0h-3v-10h3v.754h-1.99v8.493H265v.753zm7 0h-3v-.753h1.978v-8.493H269v-.754h3v10zm5.056-10.5c1.63 1.566 2.444 3.307 2.444 5.225 0 .396-.039.807-.117 1.232a6.31 6.31 0 0 1-.397 1.307c-.187.445-.44.897-.755 1.355a9.21 9.21 0 0 1-1.195 1.381l-.536-.567c.688-.708 1.203-1.446 1.543-2.216a5.94 5.94 0 0 0 .508-2.42c0-1.746-.684-3.315-2.051-4.708l.556-.589zM302 341.5h-3v-10h3v.754h-1.99v8.493H302v.753zm7 0h-3v-.753h1.978v-8.493H306v-.754h3v10zm7.5 0h-3v-.753h1.978v-8.493H313.5v-.754h3v10zm-66.103-79l-4.345 10.5H245l4.345-10.5h1.052zm3.103 0l-4.345 10.5h-1.052l4.345-10.5h1.052zm41.397 0l-4.345 10.5H289.5l4.345-10.5h1.052zm3.103 0l-4.345 10.5h-1.052l4.345-10.5H298zM285.397 249l-4.345 10.5H280l4.345-10.5h1.052zm3.103 0l-4.345 10.5h-1.052l4.345-10.5h1.052zm-2.103 41l-4.345 10.5H281l4.345-10.5h1.052zm3.103 0l-4.345 10.5h-1.052l4.345-10.5h1.052zm-25.103-13.5l-4.345 10.5H259l4.345-10.5h1.052zm3.103 0l-4.345 10.5h-1.052l4.345-10.5h1.052zm-32.603 0l-4.345 10.5H229.5l4.345-10.5h1.052zm3.103 0l-4.345 10.5h-1.052l4.345-10.5H238zm2.397 40.5l-4.345 10.5H235l4.345-10.5h1.052zm3.103 0l-4.345 10.5h-1.052l4.345-10.5h1.052zm57.897 0l-4.345 10.5H296l4.345-10.5h1.052zm3.103 0l-4.345 10.5h-1.052l4.345-10.5h1.052zm-61.786-27.5l-4.6 11H237l4.601-11h1.113zm3.286 0l-4.601 11h-1.113l4.6-11H246zm30-36.5h2v1.857h-2V253zm0 4.643h2v1.857h-2v-1.857zM255 280.5h2v1.857h-2V280.5zm0 4.643h2V287h-2v-1.857zm-29.5-4.643h2v1.857h-2V280.5zm0 4.643h2V287h-2v-1.857zm7 22.857h2v1.857h-2V308zm0 4.643h2v1.857h-2v-1.857zM314 253h2v1.857h-2V253zm0 4.643h2v1.857h-2v-1.857zm0 8.857h2v1.857h-2V266.5zm0 4.643h2V273h-2v-1.857zM277 293.5h2v1.857h-2V293.5zm0 4.643h2V300h-2v-1.857zM263 307h2v1.857h-2V307zm0 4.643h2v1.857h-2v-1.857zM300 308h2v1.857h-2V308zm0 4.643h2v1.857h-2v-1.857zM292 321h2v1.857h-2V321zm0 4.643h2v1.857h-2v-1.857zm-7.5 9.857h2v1.857h-2V335.5zm0 4.643h2V342h-2v-1.857zM241.315 304l-4.28 10.5H236l4.28-10.5h1.035zm3.185 0l-4.28 10.5h-1.035l4.28-10.5h1.035zm27.315-1l-4.28 10.5H266.5l4.28-10.5h1.035zm3.185 0l-4.28 10.5h-1.035l4.28-10.5H275zm18.815 28.5l-4.28 10.5H288.5l4.28-10.5h1.035zm3.185 0l-4.28 10.5h-1.035l4.28-10.5H297zm11.815-27.5l-4.28 10.5H303.5l4.28-10.5h1.035zm3.185 0l-4.28 10.5h-1.035l4.28-10.5H312zm-2.786-14.5l-4.6 11H303.5l4.601-11h1.113zm3.286 0l-4.601 11h-1.113l4.6-11h1.114zm-10.786-13l-4.6 11H296l4.601-11h1.113zm3.286 0l-4.601 11h-1.113l4.6-11H305zm-47.185 55l-4.28 10.5H252.5l4.28-10.5h1.035zm3.185 0l-4.28 10.5h-1.035l4.28-10.5H261zM114.5.5h3v10h-3v-.752h1.977V1.253H114.5V.5zm7.5 0h3v.753h-1.99v8.495H125v.752h-3V.5zm25 10h-3V.5h3v.754h-1.99v8.493H147v.753zm29.5 0h-3v-.753h1.978V1.254H173.5V.5h3v10zm15 0h-3V.5h3v.754h-1.99v8.493h1.99v.753zm-67 13.5h-3v-.753h1.978v-8.493H121.5V14h3v10zm59.5 0h-3V14h3v.754h-1.99v8.493H184V24zm7 0h-3v-.753h1.978v-8.493H188V14h3v10zm-66.5 14h-3v-.753h1.978v-8.493H121.5V28h3v10zm7.5 0h-3v-.753h1.978v-8.493H129V28h3v10zm28.853-10.5l-.154 5.758h-.875l-.17-5.758h1.199zm-.597 6.524a.728.728 0 0 1 .526.218c.066.067.12.146.159.237a.717.717 0 0 1 0 .574.746.746 0 0 1-.98.388.78.78 0 0 1-.239-.157.722.722 0 0 1-.162-.805.77.77 0 0 1 .4-.397.74.74 0 0 1 .296-.058zM169.5 38h-3V28h3v.754h-1.99v8.493h1.99V38zm7 0h-3v-.753h1.978v-8.493H173.5V28h3v10zm22 0h-3v-.753h1.978v-8.493H195.5V28h3v10zM110 51.5h-3v-.753h1.978v-8.493H107V41.5h3v10zm29.5 0h-3v-.753h1.978v-8.493H136.5V41.5h3v10zm15 0h-3v-10h3v.754h-1.99v8.493h1.99v.753zm29.5 0h-3v-.753h1.978v-8.493H181V41.5h3v10zm13.853-10l-.154 5.758h-.875l-.17-5.758h1.199zm-.597 6.524a.728.728 0 0 1 .526.218c.066.067.12.146.159.237a.717.717 0 0 1 0 .574.746.746 0 0 1-.98.388.78.78 0 0 1-.239-.157.722.722 0 0 1-.162-.805.77.77 0 0 1 .4-.397.74.74 0 0 1 .296-.058zM132.5 65h-3V55h3v.754h-1.99v8.493h1.99V65zm7 0h-3v-.753h1.978v-8.493H136.5V55h3v10zm21.853-10l-.154 5.758h-.875l-.17-5.758h1.199zm-.597 6.524a.728.728 0 0 1 .526.218c.066.067.12.146.159.237a.717.717 0 0 1 0 .574.746.746 0 0 1-.98.388.78.78 0 0 1-.239-.157.722.722 0 0 1-.162-.805.77.77 0 0 1 .4-.397.74.74 0 0 1 .296-.058zM169.5 65h-3V55h3v.754h-1.99v8.493h1.99V65zm28.944.5c-1.63-1.566-2.444-3.297-2.444-5.192 0-.444.043-.887.13-1.328a6.44 6.44 0 0 1 .418-1.328c.193-.444.447-.888.764-1.331.316-.444.7-.885 1.152-1.321l.536.567c-1.37 1.404-2.056 2.96-2.056 4.67 0 .85.172 1.668.519 2.453.346.784.858 1.525 1.537 2.221l-.556.589zM110 78.5h-3v-.753h1.978v-8.493H107V68.5h3v10zm30 0h-3v-10h3v.754h-1.99v8.493H140v.753zm14.5 0h-3v-10h3v.754h-1.99v8.493h1.99v.753zm14.5 0h-3v-.753h1.978v-8.493H166V68.5h3v10zm22.5 0h-3v-10h3v.754h-1.99v8.493h1.99v.753zm-74 14h-3v-10h3v.754h-1.99v8.493h1.99v.753zm29.5 0h-3v-10h3v.754h-1.99v8.493H147v.753zm7 0h-3v-.753h1.978v-8.493H151V82.5h3v10zm5.056-10.5c1.63 1.566 2.444 3.307 2.444 5.225 0 .396-.039.807-.117 1.232a6.31 6.31 0 0 1-.397 1.307c-.187.445-.44.897-.755 1.355a9.21 9.21 0 0 1-1.195 1.381l-.536-.567c.688-.708 1.203-1.446 1.543-2.216a5.94 5.94 0 0 0 .508-2.42c0-1.746-.684-3.315-2.051-4.708l.556-.589zM184 92.5h-3v-10h3v.754h-1.99v8.493H184v.753zm14.5 0h-3v-.753h1.978v-8.493H195.5V82.5h3v10zm-66.103-79L128.052 24H127l4.345-10.5h1.052zm3.103 0L131.155 24h-1.052l4.345-10.5h1.052zm41.397 0L172.552 24H171.5l4.345-10.5h1.052zm3.103 0L175.655 24h-1.052l4.345-10.5H180zM167.397 0l-4.345 10.5H162L166.345 0h1.052zm3.103 0l-4.345 10.5h-1.052L169.448 0h1.052zm-24.103 27.5L142.052 38H141l4.345-10.5h1.052zm3.103 0L145.155 38h-1.052l4.345-10.5h1.052zm-32.603 0L112.552 38H111.5l4.345-10.5h1.052zm3.103 0L115.655 38h-1.052l4.345-10.5H120zm2.397 40.5l-4.345 10.5H117l4.345-10.5h1.052zm3.103 0l-4.345 10.5h-1.052l4.345-10.5h1.052zm-.786-27.5l-4.6 11H119l4.601-11h1.113zm3.286 0l-4.601 11h-1.113l4.6-11H128zM158 4h2v1.857h-2V4zm0 4.643h2V10.5h-2V8.643zM114.5 59h2v1.857h-2V59zm0 4.643h2V65.5h-2v-1.857zM196 4h2v1.857h-2V4zm0 4.643h2V10.5h-2V8.643zM182 59h2v1.857h-2V59zm0 4.643h2V65.5h-2v-1.857zM123.315 55l-4.28 10.5H118l4.28-10.5h1.035zm3.185 0l-4.28 10.5h-1.035l4.28-10.5h1.035zm27.315-1l-4.28 10.5H148.5l4.28-10.5h1.035zM157 54l-4.28 10.5h-1.035l4.28-10.5H157zm18.815 28.5l-4.28 10.5H170.5l4.28-10.5h1.035zm3.185 0L174.72 93h-1.035l4.28-10.5H179zM190.815 55l-4.28 10.5H185.5l4.28-10.5h1.035zM194 55l-4.28 10.5h-1.035l4.28-10.5H194zm-2.786-14.5l-4.6 11H185.5l4.601-11h1.113zm3.286 0l-4.601 11h-1.113l4.6-11h1.114zm-10.786-13l-4.6 11H178l4.601-11h1.113zm3.286 0l-4.601 11h-1.113l4.6-11H187zm-47.185 55l-4.28 10.5H134.5l4.28-10.5h1.035zm3.185 0L138.72 93h-1.035l4.28-10.5H143z" fill="url(#h)" transform="translate(65 1)"/><path d="M129 200h2.89v.829h-1.917v9.343h1.917V211H129v-11zm7 0h2.89v11H136v-.828h1.905v-9.343H136V200zm9 0h2.89v.829h-1.917v9.343h1.917V211H145v-11zm9.702 11c-1.802-1.64-2.702-3.454-2.702-5.439 0-.465.048-.93.143-1.392.096-.463.25-.927.463-1.391.213-.465.494-.93.845-1.394.35-.466.774-.927 1.274-1.384l.592.594c-1.515 1.471-2.274 3.102-2.274 4.892 0 .891.192 1.748.575 2.57.383.822.95 1.598 1.7 2.327l-.616.617zm15.188 0H167v-11h2.89v.83h-1.917v9.341h1.917V211zm7 0H174v-.829h1.906v-9.341H174V200h2.89v11zm23 0H197v-.829h1.906v-9.341H197V200h2.89v11zm5.725-11c1.802 1.64 2.702 3.464 2.702 5.473 0 .415-.043.846-.129 1.292a6.355 6.355 0 0 1-.439 1.368c-.207.467-.486.94-.835 1.42-.35.48-.79.962-1.322 1.447l-.592-.594c.761-.741 1.33-1.515 1.706-2.322a5.946 5.946 0 0 0 .562-2.535c0-1.829-.756-3.473-2.268-4.932l.615-.617zm10.275 11H213v-11h2.89v.83h-1.917v9.341h1.917V211zM181 204h2v2h-2v-2zm0 5h2v2h-2v-2zm9.76-9l-4.638 11H185l4.637-11h1.122zm3.45 0l-4.637 11h-1.122l4.637-11h1.122zm-31.814 0l-.158 8.6h-.904l-.175-8.6h1.237zm-.65 9.522a.71.71 0 0 1 .519.218.798.798 0 0 1 .157.238.727.727 0 0 1 0 .574.748.748 0 0 1-.39.389.72.72 0 0 1-.578 0 .768.768 0 0 1-.235-.157.724.724 0 0 1-.16-.806.759.759 0 0 1 .395-.397.72.72 0 0 1 .292-.06z" fill="url(#i)" transform="translate(65 1)"/><path d="M65 275h2.89v.829h-1.917v9.343h1.917V286H65v-11zm7 0h2.89v11H72v-.828h1.905v-9.343H72V275zm9 0h2.89v.829h-1.917v9.343h1.917V286H81v-11zm9.702 11C88.9 284.36 88 282.546 88 280.561c0-.465.048-.93.143-1.392.096-.463.25-.927.463-1.391.213-.465.494-.93.845-1.394.35-.466.774-.927 1.274-1.384l.592.594c-1.515 1.471-2.274 3.102-2.274 4.892 0 .891.192 1.748.575 2.57.383.822.95 1.598 1.7 2.327l-.616.617zm15.188 0H103v-11h2.89v.83h-1.917v9.341h1.917V286zm7 0H110v-.829h1.906v-9.341H110V275h2.89v11zm23 0H133v-.829h1.906v-9.341H133V275h2.89v11zm5.725-11c1.802 1.64 2.702 3.464 2.702 5.473 0 .415-.043.846-.129 1.292a6.355 6.355 0 0 1-.439 1.368c-.207.467-.486.94-.835 1.42-.35.48-.79.962-1.322 1.447l-.592-.594c.761-.741 1.33-1.515 1.706-2.322a5.946 5.946 0 0 0 .562-2.535c0-1.829-.756-3.473-2.268-4.932l.615-.617zM117 279h2v2h-2v-2zm0 5h2v2h-2v-2zm9.76-9l-4.638 11H121l4.637-11h1.122zm3.45 0l-4.637 11h-1.122l4.637-11h1.122zm-31.814 0l-.158 8.6h-.904l-.175-8.6h1.237zm-.65 9.522a.71.71 0 0 1 .519.218.798.798 0 0 1 .157.238.727.727 0 0 1 0 .574.748.748 0 0 1-.39.389.72.72 0 0 1-.578 0 .768.768 0 0 1-.235-.157.724.724 0 0 1-.16-.806.759.759 0 0 1 .395-.397.72.72 0 0 1 .292-.06z" fill="url(#j)" transform="translate(65 1)"/><path d="M286.5.5h3v.753h-1.99v8.495h1.99v.752h-3V.5zm7 0h3v10h-3v-.752h1.977V1.253H293.5V.5zm7.5 0h3v.753h-1.99v8.495H304v.752h-3V.5zm16.853 0l-.154 5.758h-.875L316.654.5h1.199zm-.597 6.524a.728.728 0 0 1 .526.218c.066.067.12.146.159.237a.717.717 0 0 1 0 .574.746.746 0 0 1-.98.388.78.78 0 0 1-.239-.157.722.722 0 0 1-.162-.805.77.77 0 0 1 .4-.397.74.74 0 0 1 .296-.058zM333 10.5h-3v-.753h1.978V1.254H330V.5h3v10zm22.5 0h-3v-.753h1.978V1.254H352.5V.5h3v10zM360.556 0C362.186 1.566 363 3.307 363 5.225c0 .396-.039.807-.117 1.232a6.31 6.31 0 0 1-.397 1.307c-.187.445-.44.897-.755 1.355a9.21 9.21 0 0 1-1.195 1.381L360 9.933c.688-.708 1.203-1.446 1.543-2.216a5.94 5.94 0 0 0 .508-2.42c0-1.746-.684-3.315-2.051-4.708l.556-.589zM296.5 24h-3V14h3v.754h-1.99v8.493h1.99V24zm7 0h-3v-.753h1.978v-8.493H300.5V14h3v10zm22.5 0h-3v-.753h1.978v-8.493H323V14h3v10zm21.353-10l-.154 5.758h-.875l-.17-5.758h1.199zm-.597 6.524a.728.728 0 0 1 .526.218c.066.067.12.146.159.237a.717.717 0 0 1 0 .574.746.746 0 0 1-.98.388.78.78 0 0 1-.239-.157.722.722 0 0 1-.162-.805.77.77 0 0 1 .4-.397.74.74 0 0 1 .296-.058zM363 24h-3V14h3v.754h-1.99v8.493H363V24zm-52 14h-3v-.753h1.978v-8.493H308V28h3v10zm21.944 0c-1.63-1.566-2.444-3.297-2.444-5.192 0-.444.043-.887.13-1.328a6.44 6.44 0 0 1 .418-1.328c.193-.444.447-.888.764-1.331.316-.444.7-.885 1.152-1.321l.536.567c-1.37 1.404-2.056 2.96-2.056 4.67 0 .85.172 1.668.519 2.453.346.784.858 1.525 1.537 2.221l-.556.589zm22.556 0h-3v-.753h1.978v-8.493H352.5V28h3v10zm22 0h-3v-.753h1.978v-8.493H374.5V28h3v10zM289 51.5h-3v-.753h1.978v-8.493H286V41.5h3v10zM323.556 41c1.63 1.566 2.444 3.307 2.444 5.225 0 .396-.039.807-.117 1.232a6.31 6.31 0 0 1-.397 1.307c-.187.445-.44.897-.755 1.355a9.21 9.21 0 0 1-1.195 1.381l-.536-.567c.688-.708 1.203-1.446 1.543-2.216a5.94 5.94 0 0 0 .508-2.42c0-1.746-.684-3.315-2.051-4.708l.556-.589zm53.297.5l-.154 5.758h-.875l-.17-5.758h1.199zm-.597 6.524a.728.728 0 0 1 .526.218c.066.067.12.146.159.237a.717.717 0 0 1 0 .574.746.746 0 0 1-.98.388.78.78 0 0 1-.239-.157.722.722 0 0 1-.162-.805.77.77 0 0 1 .4-.397.74.74 0 0 1 .296-.058zM289.5 65h-3V55h3v.754h-1.99v8.493h1.99V65zm29 0h-3v-.753h1.978v-8.493H315.5V55h3v10zm21.853-10l-.154 5.758h-.875l-.17-5.758h1.199zm-.597 6.524a.728.728 0 0 1 .526.218c.066.067.12.146.159.237a.717.717 0 0 1 0 .574.746.746 0 0 1-.98.388.78.78 0 0 1-.239-.157.722.722 0 0 1-.162-.805.77.77 0 0 1 .4-.397.74.74 0 0 1 .296-.058zM348.5 65h-3V55h3v.754h-1.99v8.493h1.99V65zM319 78.5h-3v-10h3v.754h-1.99v8.493H319v.753zm7 0h-3v-.753h1.978v-8.493H323V68.5h3v10zm44.5 0h-3v-10h3v.754h-1.99v8.493h1.99v.753zm-59.5 14h-3v-.753h1.978v-8.493H308V82.5h3v10zm15 0h-3v-10h3v.754h-1.99v8.493H326v.753zM338.056 82c1.63 1.566 2.444 3.307 2.444 5.225 0 .396-.039.807-.117 1.232a6.31 6.31 0 0 1-.397 1.307c-.187.445-.44.897-.755 1.355a9.21 9.21 0 0 1-1.195 1.381l-.536-.567c.688-.708 1.203-1.446 1.543-2.216a5.94 5.94 0 0 0 .508-2.42c0-1.746-.684-3.315-2.051-4.708l.556-.589zM363 92.5h-3v-10h3v.754h-1.99v8.493H363v.753zm-51.603-79L307.052 24H306l4.345-10.5h1.052zm3.103 0L310.155 24h-1.052l4.345-10.5h1.052zm41.397 0L351.552 24H350.5l4.345-10.5h1.052zm3.103 0L354.655 24h-1.052l4.345-10.5H359zM346.397 0l-4.345 10.5H341L345.345 0h1.052zm3.103 0l-4.345 10.5h-1.052L348.448 0h1.052zm-2.103 41l-4.345 10.5H342l4.345-10.5h1.052zm3.103 0l-4.345 10.5h-1.052l4.345-10.5h1.052zm-25.103-13.5L321.052 38H320l4.345-10.5h1.052zm3.103 0L324.155 38h-1.052l4.345-10.5h1.052zM301.397 68l-4.345 10.5H296l4.345-10.5h1.052zm3.103 0l-4.345 10.5h-1.052l4.345-10.5h1.052zm57.897 0l-4.345 10.5H357l4.345-10.5h1.052zm3.103 0l-4.345 10.5h-1.052l4.345-10.5h1.052zm-61.786-27.5l-4.6 11H298l4.601-11h1.113zm3.286 0l-4.601 11h-1.113l4.6-11H307zM337 4h2v1.857h-2V4zm0 4.643h2V10.5h-2V8.643zM316 31.5h2v1.857h-2V31.5zm0 4.643h2V38h-2v-1.857zM286.5 31.5h2v1.857h-2V31.5zm0 4.643h2V38h-2v-1.857zM375 4h2v1.857h-2V4zm0 4.643h2V10.5h-2V8.643zm0 8.857h2v1.857h-2V17.5zm0 4.643h2V24h-2v-1.857zM338 44.5h2v1.857h-2V44.5zm0 4.643h2V51h-2v-1.857zM361 59h2v1.857h-2V59zm0 4.643h2V65.5h-2v-1.857zM345.5 86.5h2v1.857h-2V86.5zm0 4.643h2V93h-2v-1.857zM332.815 54l-4.28 10.5H327.5l4.28-10.5h1.035zM336 54l-4.28 10.5h-1.035l4.28-10.5H336zm18.815 28.5l-4.28 10.5H349.5l4.28-10.5h1.035zm3.185 0L353.72 93h-1.035l4.28-10.5H358zM369.815 55l-4.28 10.5H364.5l4.28-10.5h1.035zM373 55l-4.28 10.5h-1.035l4.28-10.5H373zm-10.286-27.5l-4.6 11H357l4.601-11h1.113zm3.286 0l-4.601 11h-1.113l4.6-11H366zm-47.185 55l-4.28 10.5H313.5l4.28-10.5h1.035zm3.185 0L317.72 93h-1.035l4.28-10.5H322z" fill="url(#g)" transform="translate(65 1)"/><path d="M199.5.5h3v.753h-1.99v8.495h1.99v.752h-3V.5zm7 0h3v10h-3v-.752h1.977V1.253H206.5V.5zm7.5 0h3v.753h-1.99v8.495H217v.752h-3V.5zm16.853 0l-.154 5.758h-.875L229.654.5h1.199zm-.597 6.524a.728.728 0 0 1 .526.218c.066.067.12.146.159.237a.717.717 0 0 1 0 .574.746.746 0 0 1-.98.388.78.78 0 0 1-.239-.157.722.722 0 0 1-.162-.805.77.77 0 0 1 .4-.397.74.74 0 0 1 .296-.058zM246 10.5h-3v-.753h1.978V1.254H243V.5h3v10zm22.5 0h-3v-.753h1.978V1.254H265.5V.5h3v10zM273.556 0C275.186 1.566 276 3.307 276 5.225c0 .396-.039.807-.117 1.232a6.31 6.31 0 0 1-.397 1.307c-.187.445-.44.897-.755 1.355a9.21 9.21 0 0 1-1.195 1.381L273 9.933c.688-.708 1.203-1.446 1.543-2.216a5.94 5.94 0 0 0 .508-2.42c0-1.746-.684-3.315-2.051-4.708l.556-.589zM209.5 24h-3V14h3v.754h-1.99v8.493h1.99V24zm7 0h-3v-.753h1.978v-8.493H213.5V14h3v10zm22.5 0h-3v-.753h1.978v-8.493H236V14h3v10zm21.353-10l-.154 5.758h-.875l-.17-5.758h1.199zm-.597 6.524a.728.728 0 0 1 .526.218c.066.067.12.146.159.237a.717.717 0 0 1 0 .574.746.746 0 0 1-.98.388.78.78 0 0 1-.239-.157.722.722 0 0 1-.162-.805.77.77 0 0 1 .4-.397.74.74 0 0 1 .296-.058zM276 24h-3V14h3v.754h-1.99v8.493H276V24zm-52 14h-3v-.753h1.978v-8.493H221V28h3v10zm44.5 0h-3v-.753h1.978v-8.493H265.5V28h3v10zm22 0h-3v-.753h1.978v-8.493H287.5V28h3v10zM202 51.5h-3v-.753h1.978v-8.493H199V41.5h3v10zM236.556 41c1.63 1.566 2.444 3.307 2.444 5.225 0 .396-.039.807-.117 1.232a6.31 6.31 0 0 1-.397 1.307c-.187.445-.44.897-.755 1.355a9.21 9.21 0 0 1-1.195 1.381l-.536-.567c.688-.708 1.203-1.446 1.543-2.216a5.94 5.94 0 0 0 .508-2.42c0-1.746-.684-3.315-2.051-4.708l.556-.589zm53.297.5l-.154 5.758h-.875l-.17-5.758h1.199zm-.597 6.524a.728.728 0 0 1 .526.218c.066.067.12.146.159.237a.717.717 0 0 1 0 .574.746.746 0 0 1-.98.388.78.78 0 0 1-.239-.157.722.722 0 0 1-.162-.805.77.77 0 0 1 .4-.397.74.74 0 0 1 .296-.058zM202.5 65h-3V55h3v.754h-1.99v8.493h1.99V65zM232 78.5h-3v-10h3v.754h-1.99v8.493H232v.753zm51.5 0h-3v-10h3v.754h-1.99v8.493h1.99v.753zm-59.5 14h-3v-.753h1.978v-8.493H221V82.5h3v10zM251.056 82c1.63 1.566 2.444 3.307 2.444 5.225 0 .396-.039.807-.117 1.232a6.31 6.31 0 0 1-.397 1.307c-.187.445-.44.897-.755 1.355a9.21 9.21 0 0 1-1.195 1.381l-.536-.567c.688-.708 1.203-1.446 1.543-2.216a5.94 5.94 0 0 0 .508-2.42c0-1.746-.684-3.315-2.051-4.708l.556-.589zM276 92.5h-3v-10h3v.754h-1.99v8.493H276v.753zm-7.103-79L264.552 24H263.5l4.345-10.5h1.052zm3.103 0L267.655 24h-1.052l4.345-10.5H272zM260.397 41l-4.345 10.5H255l4.345-10.5h1.052zm3.103 0l-4.345 10.5h-1.052l4.345-10.5h1.052zm-25.103-13.5L234.052 38H233l4.345-10.5h1.052zm3.103 0L237.155 38h-1.052l4.345-10.5h1.052zM214.397 68l-4.345 10.5H209l4.345-10.5h1.052zm3.103 0l-4.345 10.5h-1.052l4.345-10.5h1.052zm57.897 0l-4.345 10.5H270l4.345-10.5h1.052zm3.103 0l-4.345 10.5h-1.052l4.345-10.5h1.052zM250 4h2v1.857h-2V4zm0 4.643h2V10.5h-2V8.643zM229 31.5h2v1.857h-2V31.5zm0 4.643h2V38h-2v-1.857zM199.5 31.5h2v1.857h-2V31.5zm0 4.643h2V38h-2v-1.857zM288 4h2v1.857h-2V4zm0 4.643h2V10.5h-2V8.643zm0 8.857h2v1.857h-2V17.5zm0 4.643h2V24h-2v-1.857zM251 44.5h2v1.857h-2V44.5zm0 4.643h2V51h-2v-1.857zM274 59h2v1.857h-2V59zm0 4.643h2V65.5h-2v-1.857zM258.5 86.5h2v1.857h-2V86.5zm0 4.643h2V93h-2v-1.857zM245.815 54l-4.28 10.5H240.5l4.28-10.5h1.035zM249 54l-4.28 10.5h-1.035l4.28-10.5H249zm18.815 28.5l-4.28 10.5H262.5l4.28-10.5h1.035zm3.185 0L266.72 93h-1.035l4.28-10.5H271zm4.714-55l-4.6 11H270l4.601-11h1.113zm3.286 0l-4.601 11h-1.113l4.6-11H279zm-47.185 55l-4.28 10.5H226.5l4.28-10.5h1.035zm3.185 0L230.72 93h-1.035l4.28-10.5H235z" fill="url(#g)" transform="translate(65 1)"/><path d="M140 262h2.89v.829h-1.917v9.343h1.917V273H140v-11zm7 0h2.89v11H147v-.828h1.905v-9.343H147V262zm9 0h2.89v.829h-1.917v9.343h1.917V273H156v-11zm9.702 11c-1.802-1.64-2.702-3.454-2.702-5.439 0-.465.048-.93.143-1.392.096-.463.25-.927.463-1.391.213-.465.494-.93.845-1.394.35-.466.774-.927 1.274-1.384l.592.594c-1.515 1.471-2.274 3.102-2.274 4.892 0 .891.192 1.748.575 2.57.383.822.95 1.598 1.7 2.327l-.616.617zm15.188 0H178v-11h2.89v.83h-1.917v9.341h1.917V273zm7 0H185v-.829h1.906v-9.341H185V262h2.89v11zm23 0H208v-.829h1.906v-9.341H208V262h2.89v11zm5.725-11c1.802 1.64 2.702 3.464 2.702 5.473 0 .415-.043.846-.129 1.292a6.355 6.355 0 0 1-.439 1.368c-.207.467-.486.94-.835 1.42-.35.48-.79.962-1.322 1.447l-.592-.594c.761-.741 1.33-1.515 1.706-2.322a5.946 5.946 0 0 0 .562-2.535c0-1.829-.756-3.473-2.268-4.932l.615-.617zm10.275 11H224v-11h2.89v.83h-1.917v9.341h1.917V273zM192 266h2v2h-2v-2zm0 5h2v2h-2v-2zm9.76-9l-4.638 11H196l4.637-11h1.122zm3.45 0l-4.637 11h-1.122l4.637-11h1.122zm-31.814 0l-.158 8.6h-.904l-.175-8.6h1.237zm-.65 9.522a.71.71 0 0 1 .519.218.798.798 0 0 1 .157.238.727.727 0 0 1 0 .574.748.748 0 0 1-.39.389.72.72 0 0 1-.578 0 .768.768 0 0 1-.235-.157.724.724 0 0 1-.16-.806.759.759 0 0 1 .395-.397.72.72 0 0 1 .292-.06zM204 215h2.89v.829h-1.917v9.343h1.917V226H204v-11zm7 0h2.89v11H211v-.828h1.905v-9.343H211V215zm9 0h2.89v.829h-1.917v9.343h1.917V226H220v-11zm9.702 11c-1.802-1.64-2.702-3.454-2.702-5.439 0-.465.048-.93.143-1.392.096-.463.25-.927.463-1.391.213-.465.494-.93.845-1.394.35-.466.774-.927 1.274-1.384l.592.594c-1.515 1.471-2.274 3.102-2.274 4.892 0 .891.192 1.748.575 2.57.383.822.95 1.598 1.7 2.327l-.616.617zm15.188 0H242v-11h2.89v.83h-1.917v9.341h1.917V226zm7 0H249v-.829h1.906v-9.341H249V215h2.89v11zm23 0H272v-.829h1.906v-9.341H272V215h2.89v11zm5.725-11c1.802 1.64 2.702 3.464 2.702 5.473 0 .415-.043.846-.129 1.292a6.355 6.355 0 0 1-.439 1.368c-.207.467-.486.94-.835 1.42-.35.48-.79.962-1.322 1.447l-.592-.594c.761-.741 1.33-1.515 1.706-2.322a5.946 5.946 0 0 0 .562-2.535c0-1.829-.756-3.473-2.268-4.932l.615-.617zm10.275 11H288v-11h2.89v.83h-1.917v9.341h1.917V226zM256 219h2v2h-2v-2zm0 5h2v2h-2v-2zm9.76-9l-4.638 11H260l4.637-11h1.122zm3.45 0l-4.637 11h-1.122l4.637-11h1.122zm-31.814 0l-.158 8.6h-.904l-.175-8.6h1.237zm-.65 9.522a.71.71 0 0 1 .519.218.798.798 0 0 1 .157.238.727.727 0 0 1 0 .574.748.748 0 0 1-.39.389.72.72 0 0 1-.578 0 .768.768 0 0 1-.235-.157.724.724 0 0 1-.16-.806.759.759 0 0 1 .395-.397.72.72 0 0 1 .292-.06z" fill="url(#i)" transform="translate(65 1)"/></g></g><g transform="translate(164)"><mask id="l" fill="#fff"><use xlink:href="#k"/></mask><use fill="#EDEDF0" xlink:href="#k"/><g mask="url(#l)"><path d="M21.628 333l-4.532 11H16l4.531-11h1.097zM25 333l-4.531 11h-1.097l4.532-11H25zm16.628 50l-4.532 11H36l4.531-11h1.097zM45 383l-4.531 11h-1.097l4.532-11H45zm21.628 17l-4.532 11H61l4.531-11h1.097zM70 400l-4.531 11h-1.097l4.532-11H70zm-58-63h2v2h-2v-2zm0 5h2v2h-2v-2zm20 45h2v2h-2v-2zm0 5h2v2h-2v-2zm-23-1h2v2H9v-2zm0 5h2v2H9v-2zm21.702-52.814C28.9 341.518 28 339.674 28 337.655c0-.473.048-.945.143-1.415a6.68 6.68 0 0 1 .463-1.415 7.69 7.69 0 0 1 .845-1.418c.35-.473.774-.942 1.274-1.407l.592.604c-1.515 1.496-2.274 3.154-2.274 4.975 0 .906.192 1.777.575 2.613.383.836.95 1.625 1.7 2.367l-.616.627zm-5-48C23.9 293.518 23 291.674 23 289.655c0-.473.048-.945.143-1.415a6.68 6.68 0 0 1 .463-1.415 7.69 7.69 0 0 1 .845-1.418c.35-.473.774-.942 1.274-1.407l.592.604c-1.515 1.496-2.274 3.154-2.274 4.975 0 .906.192 1.777.575 2.613.383.836.95 1.625 1.7 2.367l-.616.627zm50 88C73.9 381.518 73 379.674 73 377.655c0-.473.048-.945.143-1.415a6.68 6.68 0 0 1 .463-1.415 7.69 7.69 0 0 1 .845-1.418c.35-.473.774-.942 1.274-1.407l.592.604c-1.515 1.496-2.274 3.154-2.274 4.975 0 .906.192 1.777.575 2.613.383.836.95 1.625 1.7 2.367l-.616.627zM34.615 332c1.802 1.668 2.702 3.523 2.702 5.566 0 .422-.043.86-.129 1.313a6.54 6.54 0 0 1-.439 1.392 8.01 8.01 0 0 1-.835 1.444c-.35.488-.79.978-1.322 1.47l-.592-.603c.761-.754 1.33-1.541 1.706-2.361.375-.821.562-1.68.562-2.578 0-1.86-.756-3.532-2.268-5.016l.615-.627zm46 40c1.802 1.668 2.702 3.523 2.702 5.566 0 .422-.043.86-.129 1.313a6.54 6.54 0 0 1-.439 1.392 8.01 8.01 0 0 1-.835 1.444c-.35.488-.79.978-1.322 1.47l-.592-.603c.761-.754 1.33-1.541 1.706-2.361.375-.821.562-1.68.562-2.578 0-1.86-.756-3.532-2.268-5.016l.615-.627zM47.76 343.527h-2.89V332.64h2.89v.821h-1.917v9.246h1.917v.82zm22.13-30.64H67V302h2.89v.821h-1.917v9.246h1.917v.82zm-9-27H58V275h2.89v.821h-1.917v9.246h1.917v.82zm-6 58H52v-.82h1.906v-9.246H52V333h2.89v10.887zm21-31H73v-.82h1.906v-9.246H73V302h2.89v10.887zm61 59H134v-.82h1.906v-9.246H134V361h2.89v10.887zm-98.872-28.33v-1.06h.837c.391 0 .672-.093.844-.276.172-.184.258-.479.258-.885l-.023-.844c0-.379.076-.719.228-1.02.152-.3.354-.53.604-.69a1.806 1.806 0 0 1-.63-.678 1.964 1.964 0 0 1-.226-.946l.024-1.113c0-.32-.062-.56-.185-.72-.123-.16-.313-.241-.571-.241H38V334h.973c.754 0 1.325.183 1.714.548.388.365.583.903.583 1.614l-.03 1.131c0 .332.06.574.179.727.12.152.304.228.554.228h.492v1.072h-.504c-.234 0-.408.074-.522.22-.113.147-.17.41-.17.788l.036 1.008c0 .566-.1 1.012-.3 1.336-.198.324-.487.553-.866.685-.38.133-.864.2-1.453.2h-.668zm-34.239 0c-.59 0-1.074-.067-1.453-.2a1.606 1.606 0 0 1-.867-.685c-.2-.324-.299-.77-.299-1.336l.035-1.008c0-.379-.056-.641-.17-.788-.113-.146-.287-.22-.521-.22H0v-1.072h.492c.25 0 .435-.076.554-.228.119-.153.179-.395.179-.727l-.03-1.13c0-.712.195-1.25.583-1.615.389-.365.96-.548 1.714-.548h.973v1.084H3.287c-.258 0-.448.08-.571.24-.123.16-.185.4-.185.72l.024 1.114c0 .352-.076.667-.226.946-.15.28-.36.505-.63.677.25.16.451.39.604.692.152.3.228.64.228 1.02l-.023.843c0 .406.086.701.258.885.172.183.453.275.843.275h.838v1.06H3.78z" fill="url(#e)" fill-rule="nonzero" transform="translate(65 1)"/><path d="M74.628 200l-4.532 11H69l4.531-11h1.097zM78 200l-4.531 11h-1.097l4.532-11H78zm-13 4h2v2h-2v-2zm0 5h2v2h-2v-2zm18.702 1.186C81.9 208.518 81 206.674 81 204.655c0-.473.048-.945.143-1.415a6.68 6.68 0 0 1 .463-1.415 7.69 7.69 0 0 1 .845-1.418c.35-.473.774-.942 1.274-1.407l.592.604c-1.515 1.496-2.274 3.154-2.274 4.975 0 .906.192 1.777.575 2.613.383.836.95 1.625 1.7 2.367l-.616.627zm-5-48C76.9 160.518 76 158.674 76 156.655c0-.473.048-.945.143-1.415a6.68 6.68 0 0 1 .463-1.415 7.69 7.69 0 0 1 .845-1.418c.35-.473.774-.942 1.274-1.407l.592.604c-1.515 1.496-2.274 3.154-2.274 4.975 0 .906.192 1.777.575 2.613.383.836.95 1.625 1.7 2.367l-.616.627zm50 88c-1.802-1.668-2.702-3.512-2.702-5.531 0-.473.048-.945.143-1.415a6.68 6.68 0 0 1 .463-1.415 7.69 7.69 0 0 1 .845-1.418c.35-.473.774-.942 1.274-1.407l.592.604c-1.515 1.496-2.274 3.154-2.274 4.975 0 .906.192 1.777.575 2.613.383.836.95 1.625 1.7 2.367l-.616.627zM87.615 199c1.802 1.668 2.702 3.523 2.702 5.566 0 .422-.043.86-.129 1.313a6.54 6.54 0 0 1-.439 1.392 8.01 8.01 0 0 1-.835 1.444c-.35.488-.79.978-1.322 1.47l-.592-.603c.761-.754 1.33-1.541 1.706-2.361.375-.821.562-1.68.562-2.578 0-1.86-.756-3.532-2.268-5.016l.615-.627zm46 40c1.802 1.668 2.702 3.523 2.702 5.566 0 .422-.043.86-.129 1.313a6.54 6.54 0 0 1-.439 1.392 8.01 8.01 0 0 1-.835 1.444c-.35.488-.79.978-1.322 1.47l-.592-.603c.761-.754 1.33-1.541 1.706-2.361.375-.821.562-1.68.562-2.578 0-1.86-.756-3.532-2.268-5.016l.615-.627zm-32.855-28.473h-2.89V199.64h2.89v.821h-1.917v9.246h1.917v.82zm22.13-30.64H120V169h2.89v.821h-1.917v9.246h1.917v.82zm-9-27H111V142h2.89v.821h-1.917v9.246h1.917v.82zm-6 58H105v-.82h1.906v-9.246H105V200h2.89v10.887zm21-31H126v-.82h1.906v-9.246H126V169h2.89v10.887zm61 59H187v-.82h1.906v-9.246H187V228h2.89v10.887zm-98.872-28.33v-1.06h.837c.391 0 .672-.093.844-.276.172-.184.258-.479.258-.885l-.023-.844c0-.379.076-.719.228-1.02.152-.3.354-.53.604-.69a1.806 1.806 0 0 1-.63-.678 1.964 1.964 0 0 1-.226-.946l.024-1.113c0-.32-.062-.56-.185-.72-.123-.16-.313-.241-.571-.241H91V201h.973c.754 0 1.325.183 1.714.548.388.365.583.903.583 1.614l-.03 1.131c0 .332.06.574.179.727.12.152.304.228.554.228h.492v1.072h-.504c-.234 0-.408.074-.522.22-.113.147-.17.41-.17.788l.036 1.008c0 .566-.1 1.012-.3 1.336-.198.324-.487.553-.866.685-.38.133-.864.2-1.453.2h-.668zm-34.239 0c-.59 0-1.074-.067-1.453-.2a1.606 1.606 0 0 1-.867-.685c-.2-.324-.299-.77-.299-1.336l.035-1.008c0-.379-.056-.641-.17-.788-.113-.146-.287-.22-.521-.22H53v-1.072h.492c.25 0 .435-.076.554-.228.119-.153.179-.395.179-.727l-.03-1.13c0-.712.195-1.25.583-1.615.389-.365.96-.548 1.714-.548h.973v1.084h-1.178c-.258 0-.448.08-.571.24-.123.16-.185.4-.185.72l.024 1.114c0 .352-.076.667-.226.946-.15.28-.36.505-.63.677.25.16.451.39.604.692.152.3.228.64.228 1.02l-.023.843c0 .406.086.701.258.885.172.183.453.275.843.275h.838v1.06h-.668z" fill="url(#f)" fill-rule="nonzero" transform="translate(65 1)"/><path d="M259 94.5h3v.753h-1.99v8.495H262v.752h-3v-10zm16.853 0l-.154 5.758h-.875l-.17-5.758h1.199zm-.597 6.524a.728.728 0 0 1 .526.218c.066.067.12.146.159.237a.717.717 0 0 1 0 .574.746.746 0 0 1-.98.388.78.78 0 0 1-.239-.157.722.722 0 0 1-.162-.805.77.77 0 0 1 .4-.397.74.74 0 0 1 .296-.058zM284 104.5h-3v-10h3v.754h-1.99v8.493H284v.753zm7 0h-3v-.753h1.978v-8.493H288V94.5h3v10zM318.556 94c1.63 1.566 2.444 3.307 2.444 5.225 0 .396-.039.807-.117 1.232a6.31 6.31 0 0 1-.397 1.307c-.187.445-.44.897-.755 1.355a9.21 9.21 0 0 1-1.195 1.381l-.536-.567c.688-.708 1.203-1.446 1.543-2.216a5.94 5.94 0 0 0 .508-2.42c0-1.746-.684-3.315-2.051-4.708l.556-.589zm9.944 10.5h-3v-10h3v.754h-1.99v8.493h1.99v.753zm-67 13.5h-3v-.753h1.978v-8.493H258.5V108h3v10zm15.5 0h-3v-10h3v.754h-1.99v8.493H277V118zm22 0h-3v-10h3v.754h-1.99v8.493H299V118zm6.353-10l-.154 5.758h-.875l-.17-5.758h1.199zm-.597 6.524a.728.728 0 0 1 .526.218c.066.067.12.146.159.237a.717.717 0 0 1 0 .574.746.746 0 0 1-.98.388.78.78 0 0 1-.239-.157.722.722 0 0 1-.162-.805.77.77 0 0 1 .4-.397.74.74 0 0 1 .296-.058zM321 118h-3v-10h3v.754h-1.99v8.493H321V118zm7 0h-3v-.753h1.978v-8.493H325V108h3v10zm-37.056 14c-1.63-1.566-2.444-3.297-2.444-5.192 0-.444.043-.887.13-1.328a6.44 6.44 0 0 1 .418-1.328c.193-.444.447-.888.764-1.331.316-.444.7-.885 1.152-1.321l.536.567c-1.37 1.404-2.056 2.96-2.056 4.67 0 .85.172 1.668.519 2.453.346.784.858 1.525 1.537 2.221l-.556.589zm6.909-10.5l-.154 5.758h-.875l-.17-5.758h1.199zm-.597 6.524a.728.728 0 0 1 .526.218c.066.067.12.146.159.237a.717.717 0 0 1 0 .574.746.746 0 0 1-.98.388.78.78 0 0 1-.239-.157.722.722 0 0 1-.162-.805.77.77 0 0 1 .4-.397.74.74 0 0 1 .296-.058zM328.5 132h-3v-10h3v.754h-1.99v8.493h1.99V132zm7 0h-3v-.753h1.978v-8.493H332.5V122h3v10zm-59 13.5h-3v-.753h1.978v-8.493H273.5v-.754h3v10zm15 0h-3v-10h3v.754h-1.99v8.493h1.99v.753zm43.353-10l-.154 5.758h-.875l-.17-5.758h1.199zm-.597 6.524a.728.728 0 0 1 .526.218c.066.067.12.146.159.237a.717.717 0 0 1 0 .574.746.746 0 0 1-.98.388.78.78 0 0 1-.239-.157.722.722 0 0 1-.162-.805.77.77 0 0 1 .4-.397.74.74 0 0 1 .296-.058zM269.5 159h-3v-10h3v.754h-1.99v8.493h1.99V159zm7 0h-3v-.753h1.978v-8.493H273.5V149h3v10zm21.853-10l-.154 5.758h-.875l-.17-5.758h1.199zm-.597 6.524a.728.728 0 0 1 .526.218c.066.067.12.146.159.237a.717.717 0 0 1 0 .574.746.746 0 0 1-.98.388.78.78 0 0 1-.239-.157.722.722 0 0 1-.162-.805.77.77 0 0 1 .4-.397.74.74 0 0 1 .296-.058zM306.5 159h-3v-10h3v.754h-1.99v8.493h1.99V159zm28.944.5c-1.63-1.566-2.444-3.297-2.444-5.192 0-.444.043-.887.13-1.328a6.44 6.44 0 0 1 .418-1.328c.193-.444.447-.888.764-1.331.316-.444.7-.885 1.152-1.321l.536.567c-1.37 1.404-2.056 2.96-2.056 4.67 0 .85.172 1.668.519 2.453.346.784.858 1.525 1.537 2.221l-.556.589zM277 172.5h-3v-10h3v.754h-1.99v8.493H277v.753zm14.5 0h-3v-10h3v.754h-1.99v8.493h1.99v.753zm14.5 0h-3v-.753h1.978v-8.493H303v-.754h3v10zm22.5 0h-3v-10h3v.754h-1.99v8.493h1.99v.753zm-67 14h-3v-.753h1.978v-8.493H258.5v-.754h3v10zm7.5 0h-3v-.753h1.978v-8.493H266v-.754h3v10zm22 0h-3v-.753h1.978v-8.493H288v-.754h3v10zm37 0h-3v-.753h1.978v-8.493H325v-.754h3v10zm7.5 0h-3v-.753h1.978v-8.493H332.5v-.754h3v10zm-66.103-79l-4.345 10.5H264l4.345-10.5h1.052zm3.103 0l-4.345 10.5h-1.052l4.345-10.5h1.052zm41.397 0l-4.345 10.5H308.5l4.345-10.5h1.052zm3.103 0l-4.345 10.5h-1.052l4.345-10.5H317zM304.397 94l-4.345 10.5H299l4.345-10.5h1.052zm3.103 0l-4.345 10.5h-1.052l4.345-10.5h1.052zm-2.103 41l-4.345 10.5H300l4.345-10.5h1.052zm3.103 0l-4.345 10.5h-1.052l4.345-10.5h1.052zm-25.103-13.5l-4.345 10.5H278l4.345-10.5h1.052zm3.103 0l-4.345 10.5h-1.052l4.345-10.5h1.052zm-32.603 0l-4.345 10.5H248.5l4.345-10.5h1.052zm3.103 0l-4.345 10.5h-1.052l4.345-10.5H257zm2.397 40.5l-4.345 10.5H254l4.345-10.5h1.052zm3.103 0l-4.345 10.5h-1.052l4.345-10.5h1.052zm57.897 0l-4.345 10.5H315l4.345-10.5h1.052zm3.103 0l-4.345 10.5h-1.052l4.345-10.5h1.052zm-61.786-27.5l-4.6 11H256l4.601-11h1.113zm3.286 0l-4.601 11h-1.113l4.6-11H265zM295 98h2v1.857h-2V98zm0 4.643h2v1.857h-2v-1.857zM274 125.5h2v1.857h-2V125.5zm0 4.643h2V132h-2v-1.857zm-29.5-4.643h2v1.857h-2V125.5zm0 4.643h2V132h-2v-1.857zm7 22.857h2v1.857h-2V153zm0 4.643h2v1.857h-2v-1.857zM333 98h2v1.857h-2V98zm0 4.643h2v1.857h-2v-1.857zm0 8.857h2v1.857h-2V111.5zm0 4.643h2V118h-2v-1.857zM296 138.5h2v1.857h-2V138.5zm0 4.643h2V145h-2v-1.857zM282 152h2v1.857h-2V152zm0 4.643h2v1.857h-2v-1.857zM319 153h2v1.857h-2V153zm0 4.643h2v1.857h-2v-1.857zM311 166h2v1.857h-2V166zm0 4.643h2v1.857h-2v-1.857zM260.315 149l-4.28 10.5H255l4.28-10.5h1.035zm3.185 0l-4.28 10.5h-1.035l4.28-10.5h1.035zm27.315-1l-4.28 10.5H285.5l4.28-10.5h1.035zm3.185 0l-4.28 10.5h-1.035l4.28-10.5H294zm33.815 1l-4.28 10.5H322.5l4.28-10.5h1.035zm3.185 0l-4.28 10.5h-1.035l4.28-10.5H331zm-2.786-14.5l-4.6 11H322.5l4.601-11h1.113zm3.286 0l-4.601 11h-1.113l4.6-11h1.114zm-10.786-13l-4.6 11H315l4.601-11h1.113zm3.286 0l-4.601 11h-1.113l4.6-11H324zm-47.185 55l-4.28 10.5H271.5l4.28-10.5h1.035zm3.185 0l-4.28 10.5h-1.035l4.28-10.5H280zM163.5 93.5h3v.753h-1.99v8.495h1.99v.752h-3v-10zm16.853 0l-.154 5.758h-.875l-.17-5.758h1.199zm-.597 6.524a.728.728 0 0 1 .526.218c.066.067.12.146.159.237a.717.717 0 0 1 0 .574.746.746 0 0 1-.98.388.78.78 0 0 1-.239-.157.722.722 0 0 1-.162-.805.77.77 0 0 1 .4-.397.74.74 0 0 1 .296-.058zm8.744 3.476h-3v-10h3v.754h-1.99v8.493h1.99v.753zm7 0h-3v-.753h1.978v-8.493H192.5V93.5h3v10zM223.056 93c1.63 1.566 2.444 3.307 2.444 5.225 0 .396-.039.807-.117 1.232a6.31 6.31 0 0 1-.397 1.307c-.187.445-.44.897-.755 1.355a9.21 9.21 0 0 1-1.195 1.381l-.536-.567c.688-.708 1.203-1.446 1.543-2.216a5.94 5.94 0 0 0 .508-2.42c0-1.746-.684-3.315-2.051-4.708l.556-.589zM233 103.5h-3v-10h3v.754h-1.99v8.493H233v.753zM166 117h-3v-.753h1.978v-8.493H163V107h3v10zm15.5 0h-3v-10h3v.754h-1.99v8.493h1.99V117zm22 0h-3v-10h3v.754h-1.99v8.493h1.99V117zm6.353-10l-.154 5.758h-.875l-.17-5.758h1.199zm-.597 6.524a.728.728 0 0 1 .526.218c.066.067.12.146.159.237a.717.717 0 0 1 0 .574.746.746 0 0 1-.98.388.78.78 0 0 1-.239-.157.722.722 0 0 1-.162-.805.77.77 0 0 1 .4-.397.74.74 0 0 1 .296-.058zM225.5 117h-3v-10h3v.754h-1.99v8.493h1.99V117zm7 0h-3v-.753h1.978v-8.493H229.5V107h3v10zm-37.056 14c-1.63-1.566-2.444-3.297-2.444-5.192 0-.444.043-.887.13-1.328a6.44 6.44 0 0 1 .418-1.328c.193-.444.447-.888.764-1.331.316-.444.7-.885 1.152-1.321l.536.567c-1.37 1.404-2.056 2.96-2.056 4.67 0 .85.172 1.668.519 2.453.346.784.858 1.525 1.537 2.221l-.556.589zm6.909-10.5l-.154 5.758h-.875l-.17-5.758h1.199zm-.597 6.524a.728.728 0 0 1 .526.218c.066.067.12.146.159.237a.717.717 0 0 1 0 .574.746.746 0 0 1-.98.388.78.78 0 0 1-.239-.157.722.722 0 0 1-.162-.805.77.77 0 0 1 .4-.397.74.74 0 0 1 .296-.058zM233 131h-3v-10h3v.754h-1.99v8.493H233V131zm7 0h-3v-.753h1.978v-8.493H237V121h3v10zm-59 13.5h-3v-.753h1.978v-8.493H178v-.754h3v10zm15 0h-3v-10h3v.754h-1.99v8.493H196v.753zm43.353-10l-.154 5.758h-.875l-.17-5.758h1.199zm-.597 6.524a.728.728 0 0 1 .526.218c.066.067.12.146.159.237a.717.717 0 0 1 0 .574.746.746 0 0 1-.98.388.78.78 0 0 1-.239-.157.722.722 0 0 1-.162-.805.77.77 0 0 1 .4-.397.74.74 0 0 1 .296-.058zM174 158h-3v-10h3v.754h-1.99v8.493H174V158zm7 0h-3v-.753h1.978v-8.493H178V148h3v10zm21.853-10l-.154 5.758h-.875l-.17-5.758h1.199zm-.597 6.524a.728.728 0 0 1 .526.218c.066.067.12.146.159.237a.717.717 0 0 1 0 .574.746.746 0 0 1-.98.388.78.78 0 0 1-.239-.157.722.722 0 0 1-.162-.805.77.77 0 0 1 .4-.397.74.74 0 0 1 .296-.058zm37.688 3.976c-1.63-1.566-2.444-3.297-2.444-5.192 0-.444.043-.887.13-1.328a6.44 6.44 0 0 1 .418-1.328c.193-.444.447-.888.764-1.331.316-.444.7-.885 1.152-1.321l.536.567c-1.37 1.404-2.056 2.96-2.056 4.67 0 .85.172 1.668.519 2.453.346.784.858 1.525 1.537 2.221l-.556.589zm-58.444 13h-3v-10h3v.754h-1.99v8.493h1.99v.753zm29 0h-3v-.753h1.978v-8.493H207.5v-.754h3v10zm-44.5 14h-3v-.753h1.978v-8.493H163v-.754h3v10zm7.5 0h-3v-.753h1.978v-8.493H170.5v-.754h3v10zm22 0h-3v-.753h1.978v-8.493H192.5v-.754h3v10zm37 0h-3v-.753h1.978v-8.493H229.5v-.754h3v10zm7.5 0h-3v-.753h1.978v-8.493H237v-.754h3v10zm-66.103-79l-4.345 10.5H168.5l4.345-10.5h1.052zm3.103 0l-4.345 10.5h-1.052l4.345-10.5H177zM208.897 93l-4.345 10.5H203.5l4.345-10.5h1.052zM212 93l-4.345 10.5h-1.052l4.345-10.5H212zm-2.103 41l-4.345 10.5H204.5l4.345-10.5h1.052zm3.103 0l-4.345 10.5h-1.052l4.345-10.5H213zm-25.103-13.5l-4.345 10.5H182.5l4.345-10.5h1.052zm3.103 0l-4.345 10.5h-1.052l4.345-10.5H191zm-32.603 0l-4.345 10.5H153l4.345-10.5h1.052zm3.103 0l-4.345 10.5h-1.052l4.345-10.5h1.052zm2.397 40.5l-4.345 10.5H158.5l4.345-10.5h1.052zm3.103 0l-4.345 10.5h-1.052l4.345-10.5H167zm57.897 0l-4.345 10.5H219.5l4.345-10.5h1.052zm3.103 0l-4.345 10.5h-1.052l4.345-10.5H228zm-61.786-27.5l-4.6 11H160.5l4.601-11h1.113zm3.286 0l-4.601 11h-1.113l4.6-11h1.114zm30-36.5h2v1.857h-2V97zm0 4.643h2v1.857h-2v-1.857zM149 124.5h2v1.857h-2V124.5zm0 4.643h2V131h-2v-1.857zM156 152h2v1.857h-2V152zm0 4.643h2v1.857h-2v-1.857zM237.5 97h2v1.857h-2V97zm0 4.643h2v1.857h-2v-1.857zm0 8.857h2v1.857h-2V110.5zm0 4.643h2V117h-2v-1.857zm-37 22.357h2v1.857h-2V137.5zm0 4.643h2V144h-2v-1.857zm23 9.857h2v1.857h-2V152zm0 4.643h2v1.857h-2v-1.857zm-8 8.357h2v1.857h-2V165zm0 4.643h2v1.857h-2v-1.857zM164.815 148l-4.28 10.5H159.5l4.28-10.5h1.035zm3.185 0l-4.28 10.5h-1.035l4.28-10.5H168zm27.315-1l-4.28 10.5H190l4.28-10.5h1.035zm3.185 0l-4.28 10.5h-1.035l4.28-10.5h1.035zm33.815 1l-4.28 10.5H227l4.28-10.5h1.035zm3.185 0l-4.28 10.5h-1.035l4.28-10.5h1.035zm-2.786-14.5l-4.6 11H227l4.601-11h1.113zm3.286 0l-4.601 11h-1.113l4.6-11H236zm-10.786-13l-4.6 11H219.5l4.601-11h1.113zm3.286 0l-4.601 11h-1.113l4.6-11h1.114zm-47.185 55l-4.28 10.5H176l4.28-10.5h1.035zm3.185 0l-4.28 10.5h-1.035l4.28-10.5h1.035z" fill="url(#g)" transform="translate(65 1)"/><path d="M225.5 249.5h3v.753h-1.99v8.495h1.99v.752h-3v-10zm7 0h3v10h-3v-.752h1.977v-8.495H232.5v-.753zm7.5 0h3v.753h-1.99v8.495H243v.752h-3v-10zm9.944 10c-1.63-1.566-2.444-3.297-2.444-5.192 0-.444.043-.887.13-1.328a6.44 6.44 0 0 1 .418-1.328c.193-.444.447-.888.764-1.331.316-.444.7-.885 1.152-1.321l.536.567c-1.37 1.404-2.056 2.96-2.056 4.67 0 .85.172 1.668.519 2.453.346.784.858 1.525 1.537 2.221l-.556.589zm6.909-10l-.154 5.758h-.875l-.17-5.758h1.199zm-.597 6.524a.728.728 0 0 1 .526.218c.066.067.12.146.159.237a.717.717 0 0 1 0 .574.746.746 0 0 1-.98.388.78.78 0 0 1-.239-.157.722.722 0 0 1-.162-.805.77.77 0 0 1 .4-.397.74.74 0 0 1 .296-.058zM265 259.5h-3v-10h3v.754h-1.99v8.493H265v.753zm7 0h-3v-.753h1.978v-8.493H269v-.754h3v10zm22.5 0h-3v-.753h1.978v-8.493H291.5v-.754h3v10zm5.056-10.5c1.63 1.566 2.444 3.307 2.444 5.225 0 .396-.039.807-.117 1.232a6.31 6.31 0 0 1-.397 1.307c-.187.445-.44.897-.755 1.355a9.21 9.21 0 0 1-1.195 1.381l-.536-.567c.688-.708 1.203-1.446 1.543-2.216a5.94 5.94 0 0 0 .508-2.42c0-1.746-.684-3.315-2.051-4.708l.556-.589zm9.944 10.5h-3v-10h3v.754h-1.99v8.493h1.99v.753zm-74 13.5h-3v-10h3v.754h-1.99v8.493h1.99V273zm7 0h-3v-.753h1.978v-8.493H239.5V263h3v10zm15.5 0h-3v-10h3v.754h-1.99v8.493H258V273zm7 0h-3v-.753h1.978v-8.493H262V263h3v10zm15 0h-3v-10h3v.754h-1.99v8.493H280V273zm6.353-10l-.154 5.758h-.875l-.17-5.758h1.199zm-.597 6.524a.728.728 0 0 1 .526.218c.066.067.12.146.159.237a.717.717 0 0 1 0 .574.746.746 0 0 1-.98.388.78.78 0 0 1-.239-.157.722.722 0 0 1-.162-.805.77.77 0 0 1 .4-.397.74.74 0 0 1 .296-.058zM302 273h-3v-10h3v.754h-1.99v8.493H302V273zm7 0h-3v-.753h1.978v-8.493H306V263h3v10zm-66.5 14h-3v-.753h1.978v-8.493H239.5V277h3v10zm7.5 0h-3v-.753h1.978v-8.493H247V277h3v10zm21.944 0c-1.63-1.566-2.444-3.297-2.444-5.192 0-.444.043-.887.13-1.328a6.44 6.44 0 0 1 .418-1.328c.193-.444.447-.888.764-1.331.316-.444.7-.885 1.152-1.321l.536.567c-1.37 1.404-2.056 2.96-2.056 4.67 0 .85.172 1.668.519 2.453.346.784.858 1.525 1.537 2.221l-.556.589zm6.909-10.5l-.154 5.758h-.875l-.17-5.758h1.199zm-.597 6.524a.728.728 0 0 1 .526.218c.066.067.12.146.159.237a.717.717 0 0 1 0 .574.746.746 0 0 1-.98.388.78.78 0 0 1-.239-.157.722.722 0 0 1-.162-.805.77.77 0 0 1 .4-.397.74.74 0 0 1 .296-.058zM287.5 287h-3v-10h3v.754h-1.99v8.493h1.99V287zm7 0h-3v-.753h1.978v-8.493H291.5V277h3v10zm15 0h-3v-10h3v.754h-1.99v8.493h1.99V287zm7 0h-3v-.753h1.978v-8.493H313.5V277h3v10zM228 300.5h-3v-.753h1.978v-8.493H225v-.754h3v10zm29.5 0h-3v-.753h1.978v-8.493H254.5v-.754h3v10zm5.056-10.5c1.63 1.566 2.444 3.307 2.444 5.225 0 .396-.039.807-.117 1.232a6.31 6.31 0 0 1-.397 1.307c-.187.445-.44.897-.755 1.355a9.21 9.21 0 0 1-1.195 1.381l-.536-.567c.688-.708 1.203-1.446 1.543-2.216a5.94 5.94 0 0 0 .508-2.42c0-1.746-.684-3.315-2.051-4.708l.556-.589zm9.944 10.5h-3v-10h3v.754h-1.99v8.493h1.99v.753zm29.5 0h-3v-.753h1.978v-8.493H299v-.754h3v10zm13.853-10l-.154 5.758h-.875l-.17-5.758h1.199zm-.597 6.524a.728.728 0 0 1 .526.218c.066.067.12.146.159.237a.717.717 0 0 1 0 .574.746.746 0 0 1-.98.388.78.78 0 0 1-.239-.157.722.722 0 0 1-.162-.805.77.77 0 0 1 .4-.397.74.74 0 0 1 .296-.058zM228.5 314h-3v-10h3v.754h-1.99v8.493h1.99V314zm22 0h-3v-10h3v.754h-1.99v8.493h1.99V314zm7 0h-3v-.753h1.978v-8.493H254.5V304h3v10zm21.853-10l-.154 5.758h-.875l-.17-5.758h1.199zm-.597 6.524a.728.728 0 0 1 .526.218c.066.067.12.146.159.237a.717.717 0 0 1 0 .574.746.746 0 0 1-.98.388.78.78 0 0 1-.239-.157.722.722 0 0 1-.162-.805.77.77 0 0 1 .4-.397.74.74 0 0 1 .296-.058zM287.5 314h-3v-10h3v.754h-1.99v8.493h1.99V314zm7 0h-3v-.753h1.978v-8.493H291.5V304h3v10zm21.944.5c-1.63-1.566-2.444-3.297-2.444-5.192 0-.444.043-.887.13-1.328a6.44 6.44 0 0 1 .418-1.328c.193-.444.447-.888.764-1.331.316-.444.7-.885 1.152-1.321l.536.567c-1.37 1.404-2.056 2.96-2.056 4.67 0 .85.172 1.668.519 2.453.346.784.858 1.525 1.537 2.221l-.556.589zM228 327.5h-3v-.753h1.978v-8.493H225v-.754h3v10zm21.944.5c-1.63-1.566-2.444-3.297-2.444-5.192 0-.444.043-.887.13-1.328a6.44 6.44 0 0 1 .418-1.328c.193-.444.447-.888.764-1.331.316-.444.7-.885 1.152-1.321l.536.567c-1.37 1.404-2.056 2.96-2.056 4.67 0 .85.172 1.668.519 2.453.346.784.858 1.525 1.537 2.221l-.556.589zm8.056-.5h-3v-10h3v.754h-1.99v8.493H258v.753zm7 0h-3v-.753h1.978v-8.493H262v-.754h3v10zm7.5 0h-3v-10h3v.754h-1.99v8.493h1.99v.753zm14.5 0h-3v-.753h1.978v-8.493H284v-.754h3v10zm22.5 0h-3v-10h3v.754h-1.99v8.493h1.99v.753zm-74 14h-3v-10h3v.754h-1.99v8.493h1.99v.753zm7 0h-3v-.753h1.978v-8.493H239.5v-.754h3v10zm7.5 0h-3v-.753h1.978v-8.493H247v-.754h3v10zm15 0h-3v-10h3v.754h-1.99v8.493H265v.753zm7 0h-3v-.753h1.978v-8.493H269v-.754h3v10zm5.056-10.5c1.63 1.566 2.444 3.307 2.444 5.225 0 .396-.039.807-.117 1.232a6.31 6.31 0 0 1-.397 1.307c-.187.445-.44.897-.755 1.355a9.21 9.21 0 0 1-1.195 1.381l-.536-.567c.688-.708 1.203-1.446 1.543-2.216a5.94 5.94 0 0 0 .508-2.42c0-1.746-.684-3.315-2.051-4.708l.556-.589zM302 341.5h-3v-10h3v.754h-1.99v8.493H302v.753zm7 0h-3v-.753h1.978v-8.493H306v-.754h3v10zm7.5 0h-3v-.753h1.978v-8.493H313.5v-.754h3v10zm-66.103-79l-4.345 10.5H245l4.345-10.5h1.052zm3.103 0l-4.345 10.5h-1.052l4.345-10.5h1.052zm41.397 0l-4.345 10.5H289.5l4.345-10.5h1.052zm3.103 0l-4.345 10.5h-1.052l4.345-10.5H298zM285.397 249l-4.345 10.5H280l4.345-10.5h1.052zm3.103 0l-4.345 10.5h-1.052l4.345-10.5h1.052zm-2.103 41l-4.345 10.5H281l4.345-10.5h1.052zm3.103 0l-4.345 10.5h-1.052l4.345-10.5h1.052zm-25.103-13.5l-4.345 10.5H259l4.345-10.5h1.052zm3.103 0l-4.345 10.5h-1.052l4.345-10.5h1.052zm-32.603 0l-4.345 10.5H229.5l4.345-10.5h1.052zm3.103 0l-4.345 10.5h-1.052l4.345-10.5H238zm2.397 40.5l-4.345 10.5H235l4.345-10.5h1.052zm3.103 0l-4.345 10.5h-1.052l4.345-10.5h1.052zm57.897 0l-4.345 10.5H296l4.345-10.5h1.052zm3.103 0l-4.345 10.5h-1.052l4.345-10.5h1.052zm-61.786-27.5l-4.6 11H237l4.601-11h1.113zm3.286 0l-4.601 11h-1.113l4.6-11H246zm30-36.5h2v1.857h-2V253zm0 4.643h2v1.857h-2v-1.857zM255 280.5h2v1.857h-2V280.5zm0 4.643h2V287h-2v-1.857zm-29.5-4.643h2v1.857h-2V280.5zm0 4.643h2V287h-2v-1.857zm7 22.857h2v1.857h-2V308zm0 4.643h2v1.857h-2v-1.857zM314 253h2v1.857h-2V253zm0 4.643h2v1.857h-2v-1.857zm0 8.857h2v1.857h-2V266.5zm0 4.643h2V273h-2v-1.857zM277 293.5h2v1.857h-2V293.5zm0 4.643h2V300h-2v-1.857zM263 307h2v1.857h-2V307zm0 4.643h2v1.857h-2v-1.857zM300 308h2v1.857h-2V308zm0 4.643h2v1.857h-2v-1.857zM292 321h2v1.857h-2V321zm0 4.643h2v1.857h-2v-1.857zm-7.5 9.857h2v1.857h-2V335.5zm0 4.643h2V342h-2v-1.857zM241.315 304l-4.28 10.5H236l4.28-10.5h1.035zm3.185 0l-4.28 10.5h-1.035l4.28-10.5h1.035zm27.315-1l-4.28 10.5H266.5l4.28-10.5h1.035zm3.185 0l-4.28 10.5h-1.035l4.28-10.5H275zm18.815 28.5l-4.28 10.5H288.5l4.28-10.5h1.035zm3.185 0l-4.28 10.5h-1.035l4.28-10.5H297zm11.815-27.5l-4.28 10.5H303.5l4.28-10.5h1.035zm3.185 0l-4.28 10.5h-1.035l4.28-10.5H312zm-2.786-14.5l-4.6 11H303.5l4.601-11h1.113zm3.286 0l-4.601 11h-1.113l4.6-11h1.114zm-10.786-13l-4.6 11H296l4.601-11h1.113zm3.286 0l-4.601 11h-1.113l4.6-11H305zm-47.185 55l-4.28 10.5H252.5l4.28-10.5h1.035zm3.185 0l-4.28 10.5h-1.035l4.28-10.5H261zM114.5.5h3v10h-3v-.752h1.977V1.253H114.5V.5zm7.5 0h3v.753h-1.99v8.495H125v.752h-3V.5zm25 10h-3V.5h3v.754h-1.99v8.493H147v.753zm29.5 0h-3v-.753h1.978V1.254H173.5V.5h3v10zm15 0h-3V.5h3v.754h-1.99v8.493h1.99v.753zm-67 13.5h-3v-.753h1.978v-8.493H121.5V14h3v10zm59.5 0h-3V14h3v.754h-1.99v8.493H184V24zm7 0h-3v-.753h1.978v-8.493H188V14h3v10zm-66.5 14h-3v-.753h1.978v-8.493H121.5V28h3v10zm7.5 0h-3v-.753h1.978v-8.493H129V28h3v10zm28.853-10.5l-.154 5.758h-.875l-.17-5.758h1.199zm-.597 6.524a.728.728 0 0 1 .526.218c.066.067.12.146.159.237a.717.717 0 0 1 0 .574.746.746 0 0 1-.98.388.78.78 0 0 1-.239-.157.722.722 0 0 1-.162-.805.77.77 0 0 1 .4-.397.74.74 0 0 1 .296-.058zM169.5 38h-3V28h3v.754h-1.99v8.493h1.99V38zm7 0h-3v-.753h1.978v-8.493H173.5V28h3v10zm22 0h-3v-.753h1.978v-8.493H195.5V28h3v10zM110 51.5h-3v-.753h1.978v-8.493H107V41.5h3v10zm29.5 0h-3v-.753h1.978v-8.493H136.5V41.5h3v10zm15 0h-3v-10h3v.754h-1.99v8.493h1.99v.753zm29.5 0h-3v-.753h1.978v-8.493H181V41.5h3v10zm13.853-10l-.154 5.758h-.875l-.17-5.758h1.199zm-.597 6.524a.728.728 0 0 1 .526.218c.066.067.12.146.159.237a.717.717 0 0 1 0 .574.746.746 0 0 1-.98.388.78.78 0 0 1-.239-.157.722.722 0 0 1-.162-.805.77.77 0 0 1 .4-.397.74.74 0 0 1 .296-.058zM132.5 65h-3V55h3v.754h-1.99v8.493h1.99V65zm7 0h-3v-.753h1.978v-8.493H136.5V55h3v10zm21.853-10l-.154 5.758h-.875l-.17-5.758h1.199zm-.597 6.524a.728.728 0 0 1 .526.218c.066.067.12.146.159.237a.717.717 0 0 1 0 .574.746.746 0 0 1-.98.388.78.78 0 0 1-.239-.157.722.722 0 0 1-.162-.805.77.77 0 0 1 .4-.397.74.74 0 0 1 .296-.058zM169.5 65h-3V55h3v.754h-1.99v8.493h1.99V65zm28.944.5c-1.63-1.566-2.444-3.297-2.444-5.192 0-.444.043-.887.13-1.328a6.44 6.44 0 0 1 .418-1.328c.193-.444.447-.888.764-1.331.316-.444.7-.885 1.152-1.321l.536.567c-1.37 1.404-2.056 2.96-2.056 4.67 0 .85.172 1.668.519 2.453.346.784.858 1.525 1.537 2.221l-.556.589zM110 78.5h-3v-.753h1.978v-8.493H107V68.5h3v10zm30 0h-3v-10h3v.754h-1.99v8.493H140v.753zm14.5 0h-3v-10h3v.754h-1.99v8.493h1.99v.753zm14.5 0h-3v-.753h1.978v-8.493H166V68.5h3v10zm22.5 0h-3v-10h3v.754h-1.99v8.493h1.99v.753zm-74 14h-3v-10h3v.754h-1.99v8.493h1.99v.753zm29.5 0h-3v-10h3v.754h-1.99v8.493H147v.753zm7 0h-3v-.753h1.978v-8.493H151V82.5h3v10zm5.056-10.5c1.63 1.566 2.444 3.307 2.444 5.225 0 .396-.039.807-.117 1.232a6.31 6.31 0 0 1-.397 1.307c-.187.445-.44.897-.755 1.355a9.21 9.21 0 0 1-1.195 1.381l-.536-.567c.688-.708 1.203-1.446 1.543-2.216a5.94 5.94 0 0 0 .508-2.42c0-1.746-.684-3.315-2.051-4.708l.556-.589zM184 92.5h-3v-10h3v.754h-1.99v8.493H184v.753zm14.5 0h-3v-.753h1.978v-8.493H195.5V82.5h3v10zm-66.103-79L128.052 24H127l4.345-10.5h1.052zm3.103 0L131.155 24h-1.052l4.345-10.5h1.052zm41.397 0L172.552 24H171.5l4.345-10.5h1.052zm3.103 0L175.655 24h-1.052l4.345-10.5H180zM167.397 0l-4.345 10.5H162L166.345 0h1.052zm3.103 0l-4.345 10.5h-1.052L169.448 0h1.052zm-24.103 27.5L142.052 38H141l4.345-10.5h1.052zm3.103 0L145.155 38h-1.052l4.345-10.5h1.052zm-32.603 0L112.552 38H111.5l4.345-10.5h1.052zm3.103 0L115.655 38h-1.052l4.345-10.5H120zm2.397 40.5l-4.345 10.5H117l4.345-10.5h1.052zm3.103 0l-4.345 10.5h-1.052l4.345-10.5h1.052zm-.786-27.5l-4.6 11H119l4.601-11h1.113zm3.286 0l-4.601 11h-1.113l4.6-11H128zM158 4h2v1.857h-2V4zm0 4.643h2V10.5h-2V8.643zM114.5 59h2v1.857h-2V59zm0 4.643h2V65.5h-2v-1.857zM196 4h2v1.857h-2V4zm0 4.643h2V10.5h-2V8.643zM182 59h2v1.857h-2V59zm0 4.643h2V65.5h-2v-1.857zM123.315 55l-4.28 10.5H118l4.28-10.5h1.035zm3.185 0l-4.28 10.5h-1.035l4.28-10.5h1.035zm27.315-1l-4.28 10.5H148.5l4.28-10.5h1.035zM157 54l-4.28 10.5h-1.035l4.28-10.5H157zm18.815 28.5l-4.28 10.5H170.5l4.28-10.5h1.035zm3.185 0L174.72 93h-1.035l4.28-10.5H179zM190.815 55l-4.28 10.5H185.5l4.28-10.5h1.035zM194 55l-4.28 10.5h-1.035l4.28-10.5H194zm-2.786-14.5l-4.6 11H185.5l4.601-11h1.113zm3.286 0l-4.601 11h-1.113l4.6-11h1.114zm-10.786-13l-4.6 11H178l4.601-11h1.113zm3.286 0l-4.601 11h-1.113l4.6-11H187zm-47.185 55l-4.28 10.5H134.5l4.28-10.5h1.035zm3.185 0L138.72 93h-1.035l4.28-10.5H143z" fill="url(#h)" transform="translate(65 1)"/><path d="M129 200h2.89v.829h-1.917v9.343h1.917V211H129v-11zm7 0h2.89v11H136v-.828h1.905v-9.343H136V200zm9 0h2.89v.829h-1.917v9.343h1.917V211H145v-11zm9.702 11c-1.802-1.64-2.702-3.454-2.702-5.439 0-.465.048-.93.143-1.392.096-.463.25-.927.463-1.391.213-.465.494-.93.845-1.394.35-.466.774-.927 1.274-1.384l.592.594c-1.515 1.471-2.274 3.102-2.274 4.892 0 .891.192 1.748.575 2.57.383.822.95 1.598 1.7 2.327l-.616.617zm15.188 0H167v-11h2.89v.83h-1.917v9.341h1.917V211zm7 0H174v-.829h1.906v-9.341H174V200h2.89v11zm23 0H197v-.829h1.906v-9.341H197V200h2.89v11zm5.725-11c1.802 1.64 2.702 3.464 2.702 5.473 0 .415-.043.846-.129 1.292a6.355 6.355 0 0 1-.439 1.368c-.207.467-.486.94-.835 1.42-.35.48-.79.962-1.322 1.447l-.592-.594c.761-.741 1.33-1.515 1.706-2.322a5.946 5.946 0 0 0 .562-2.535c0-1.829-.756-3.473-2.268-4.932l.615-.617zm10.275 11H213v-11h2.89v.83h-1.917v9.341h1.917V211zM181 204h2v2h-2v-2zm0 5h2v2h-2v-2zm9.76-9l-4.638 11H185l4.637-11h1.122zm3.45 0l-4.637 11h-1.122l4.637-11h1.122zm-31.814 0l-.158 8.6h-.904l-.175-8.6h1.237zm-.65 9.522a.71.71 0 0 1 .519.218.798.798 0 0 1 .157.238.727.727 0 0 1 0 .574.748.748 0 0 1-.39.389.72.72 0 0 1-.578 0 .768.768 0 0 1-.235-.157.724.724 0 0 1-.16-.806.759.759 0 0 1 .395-.397.72.72 0 0 1 .292-.06z" fill="url(#i)" transform="translate(65 1)"/><path d="M65 275h2.89v.829h-1.917v9.343h1.917V286H65v-11zm7 0h2.89v11H72v-.828h1.905v-9.343H72V275zm9 0h2.89v.829h-1.917v9.343h1.917V286H81v-11zm9.702 11C88.9 284.36 88 282.546 88 280.561c0-.465.048-.93.143-1.392.096-.463.25-.927.463-1.391.213-.465.494-.93.845-1.394.35-.466.774-.927 1.274-1.384l.592.594c-1.515 1.471-2.274 3.102-2.274 4.892 0 .891.192 1.748.575 2.57.383.822.95 1.598 1.7 2.327l-.616.617zm15.188 0H103v-11h2.89v.83h-1.917v9.341h1.917V286zm7 0H110v-.829h1.906v-9.341H110V275h2.89v11zm23 0H133v-.829h1.906v-9.341H133V275h2.89v11zm5.725-11c1.802 1.64 2.702 3.464 2.702 5.473 0 .415-.043.846-.129 1.292a6.355 6.355 0 0 1-.439 1.368c-.207.467-.486.94-.835 1.42-.35.48-.79.962-1.322 1.447l-.592-.594c.761-.741 1.33-1.515 1.706-2.322a5.946 5.946 0 0 0 .562-2.535c0-1.829-.756-3.473-2.268-4.932l.615-.617zM117 279h2v2h-2v-2zm0 5h2v2h-2v-2zm9.76-9l-4.638 11H121l4.637-11h1.122zm3.45 0l-4.637 11h-1.122l4.637-11h1.122zm-31.814 0l-.158 8.6h-.904l-.175-8.6h1.237zm-.65 9.522a.71.71 0 0 1 .519.218.798.798 0 0 1 .157.238.727.727 0 0 1 0 .574.748.748 0 0 1-.39.389.72.72 0 0 1-.578 0 .768.768 0 0 1-.235-.157.724.724 0 0 1-.16-.806.759.759 0 0 1 .395-.397.72.72 0 0 1 .292-.06z" fill="url(#j)" transform="translate(65 1)"/><path d="M286.5.5h3v.753h-1.99v8.495h1.99v.752h-3V.5zm7 0h3v10h-3v-.752h1.977V1.253H293.5V.5zm7.5 0h3v.753h-1.99v8.495H304v.752h-3V.5zm16.853 0l-.154 5.758h-.875L316.654.5h1.199zm-.597 6.524a.728.728 0 0 1 .526.218c.066.067.12.146.159.237a.717.717 0 0 1 0 .574.746.746 0 0 1-.98.388.78.78 0 0 1-.239-.157.722.722 0 0 1-.162-.805.77.77 0 0 1 .4-.397.74.74 0 0 1 .296-.058zM333 10.5h-3v-.753h1.978V1.254H330V.5h3v10zm22.5 0h-3v-.753h1.978V1.254H352.5V.5h3v10zM360.556 0C362.186 1.566 363 3.307 363 5.225c0 .396-.039.807-.117 1.232a6.31 6.31 0 0 1-.397 1.307c-.187.445-.44.897-.755 1.355a9.21 9.21 0 0 1-1.195 1.381L360 9.933c.688-.708 1.203-1.446 1.543-2.216a5.94 5.94 0 0 0 .508-2.42c0-1.746-.684-3.315-2.051-4.708l.556-.589zM296.5 24h-3V14h3v.754h-1.99v8.493h1.99V24zm7 0h-3v-.753h1.978v-8.493H300.5V14h3v10zm22.5 0h-3v-.753h1.978v-8.493H323V14h3v10zm21.353-10l-.154 5.758h-.875l-.17-5.758h1.199zm-.597 6.524a.728.728 0 0 1 .526.218c.066.067.12.146.159.237a.717.717 0 0 1 0 .574.746.746 0 0 1-.98.388.78.78 0 0 1-.239-.157.722.722 0 0 1-.162-.805.77.77 0 0 1 .4-.397.74.74 0 0 1 .296-.058zM363 24h-3V14h3v.754h-1.99v8.493H363V24zm-52 14h-3v-.753h1.978v-8.493H308V28h3v10zm21.944 0c-1.63-1.566-2.444-3.297-2.444-5.192 0-.444.043-.887.13-1.328a6.44 6.44 0 0 1 .418-1.328c.193-.444.447-.888.764-1.331.316-.444.7-.885 1.152-1.321l.536.567c-1.37 1.404-2.056 2.96-2.056 4.67 0 .85.172 1.668.519 2.453.346.784.858 1.525 1.537 2.221l-.556.589zm22.556 0h-3v-.753h1.978v-8.493H352.5V28h3v10zm22 0h-3v-.753h1.978v-8.493H374.5V28h3v10zM289 51.5h-3v-.753h1.978v-8.493H286V41.5h3v10zM323.556 41c1.63 1.566 2.444 3.307 2.444 5.225 0 .396-.039.807-.117 1.232a6.31 6.31 0 0 1-.397 1.307c-.187.445-.44.897-.755 1.355a9.21 9.21 0 0 1-1.195 1.381l-.536-.567c.688-.708 1.203-1.446 1.543-2.216a5.94 5.94 0 0 0 .508-2.42c0-1.746-.684-3.315-2.051-4.708l.556-.589zm53.297.5l-.154 5.758h-.875l-.17-5.758h1.199zm-.597 6.524a.728.728 0 0 1 .526.218c.066.067.12.146.159.237a.717.717 0 0 1 0 .574.746.746 0 0 1-.98.388.78.78 0 0 1-.239-.157.722.722 0 0 1-.162-.805.77.77 0 0 1 .4-.397.74.74 0 0 1 .296-.058zM289.5 65h-3V55h3v.754h-1.99v8.493h1.99V65zm29 0h-3v-.753h1.978v-8.493H315.5V55h3v10zm21.853-10l-.154 5.758h-.875l-.17-5.758h1.199zm-.597 6.524a.728.728 0 0 1 .526.218c.066.067.12.146.159.237a.717.717 0 0 1 0 .574.746.746 0 0 1-.98.388.78.78 0 0 1-.239-.157.722.722 0 0 1-.162-.805.77.77 0 0 1 .4-.397.74.74 0 0 1 .296-.058zM348.5 65h-3V55h3v.754h-1.99v8.493h1.99V65zM319 78.5h-3v-10h3v.754h-1.99v8.493H319v.753zm7 0h-3v-.753h1.978v-8.493H323V68.5h3v10zm44.5 0h-3v-10h3v.754h-1.99v8.493h1.99v.753zm-59.5 14h-3v-.753h1.978v-8.493H308V82.5h3v10zm15 0h-3v-10h3v.754h-1.99v8.493H326v.753zM338.056 82c1.63 1.566 2.444 3.307 2.444 5.225 0 .396-.039.807-.117 1.232a6.31 6.31 0 0 1-.397 1.307c-.187.445-.44.897-.755 1.355a9.21 9.21 0 0 1-1.195 1.381l-.536-.567c.688-.708 1.203-1.446 1.543-2.216a5.94 5.94 0 0 0 .508-2.42c0-1.746-.684-3.315-2.051-4.708l.556-.589zM363 92.5h-3v-10h3v.754h-1.99v8.493H363v.753zm-51.603-79L307.052 24H306l4.345-10.5h1.052zm3.103 0L310.155 24h-1.052l4.345-10.5h1.052zm41.397 0L351.552 24H350.5l4.345-10.5h1.052zm3.103 0L354.655 24h-1.052l4.345-10.5H359zM346.397 0l-4.345 10.5H341L345.345 0h1.052zm3.103 0l-4.345 10.5h-1.052L348.448 0h1.052zm-2.103 41l-4.345 10.5H342l4.345-10.5h1.052zm3.103 0l-4.345 10.5h-1.052l4.345-10.5h1.052zm-25.103-13.5L321.052 38H320l4.345-10.5h1.052zm3.103 0L324.155 38h-1.052l4.345-10.5h1.052zM301.397 68l-4.345 10.5H296l4.345-10.5h1.052zm3.103 0l-4.345 10.5h-1.052l4.345-10.5h1.052zm57.897 0l-4.345 10.5H357l4.345-10.5h1.052zm3.103 0l-4.345 10.5h-1.052l4.345-10.5h1.052zm-61.786-27.5l-4.6 11H298l4.601-11h1.113zm3.286 0l-4.601 11h-1.113l4.6-11H307zM337 4h2v1.857h-2V4zm0 4.643h2V10.5h-2V8.643zM316 31.5h2v1.857h-2V31.5zm0 4.643h2V38h-2v-1.857zM286.5 31.5h2v1.857h-2V31.5zm0 4.643h2V38h-2v-1.857zM375 4h2v1.857h-2V4zm0 4.643h2V10.5h-2V8.643zm0 8.857h2v1.857h-2V17.5zm0 4.643h2V24h-2v-1.857zM338 44.5h2v1.857h-2V44.5zm0 4.643h2V51h-2v-1.857zM361 59h2v1.857h-2V59zm0 4.643h2V65.5h-2v-1.857zM345.5 86.5h2v1.857h-2V86.5zm0 4.643h2V93h-2v-1.857zM332.815 54l-4.28 10.5H327.5l4.28-10.5h1.035zM336 54l-4.28 10.5h-1.035l4.28-10.5H336zm18.815 28.5l-4.28 10.5H349.5l4.28-10.5h1.035zm3.185 0L353.72 93h-1.035l4.28-10.5H358zM369.815 55l-4.28 10.5H364.5l4.28-10.5h1.035zM373 55l-4.28 10.5h-1.035l4.28-10.5H373zm-10.286-27.5l-4.6 11H357l4.601-11h1.113zm3.286 0l-4.601 11h-1.113l4.6-11H366zm-47.185 55l-4.28 10.5H313.5l4.28-10.5h1.035zm3.185 0L317.72 93h-1.035l4.28-10.5H322z" fill="url(#g)" transform="translate(65 1)"/><path d="M199.5.5h3v.753h-1.99v8.495h1.99v.752h-3V.5zm7 0h3v10h-3v-.752h1.977V1.253H206.5V.5zm7.5 0h3v.753h-1.99v8.495H217v.752h-3V.5zm16.853 0l-.154 5.758h-.875L229.654.5h1.199zm-.597 6.524a.728.728 0 0 1 .526.218c.066.067.12.146.159.237a.717.717 0 0 1 0 .574.746.746 0 0 1-.98.388.78.78 0 0 1-.239-.157.722.722 0 0 1-.162-.805.77.77 0 0 1 .4-.397.74.74 0 0 1 .296-.058zM246 10.5h-3v-.753h1.978V1.254H243V.5h3v10zm22.5 0h-3v-.753h1.978V1.254H265.5V.5h3v10zM273.556 0C275.186 1.566 276 3.307 276 5.225c0 .396-.039.807-.117 1.232a6.31 6.31 0 0 1-.397 1.307c-.187.445-.44.897-.755 1.355a9.21 9.21 0 0 1-1.195 1.381L273 9.933c.688-.708 1.203-1.446 1.543-2.216a5.94 5.94 0 0 0 .508-2.42c0-1.746-.684-3.315-2.051-4.708l.556-.589zM209.5 24h-3V14h3v.754h-1.99v8.493h1.99V24zm7 0h-3v-.753h1.978v-8.493H213.5V14h3v10zm22.5 0h-3v-.753h1.978v-8.493H236V14h3v10zm21.353-10l-.154 5.758h-.875l-.17-5.758h1.199zm-.597 6.524a.728.728 0 0 1 .526.218c.066.067.12.146.159.237a.717.717 0 0 1 0 .574.746.746 0 0 1-.98.388.78.78 0 0 1-.239-.157.722.722 0 0 1-.162-.805.77.77 0 0 1 .4-.397.74.74 0 0 1 .296-.058zM276 24h-3V14h3v.754h-1.99v8.493H276V24zm-52 14h-3v-.753h1.978v-8.493H221V28h3v10zm44.5 0h-3v-.753h1.978v-8.493H265.5V28h3v10zm22 0h-3v-.753h1.978v-8.493H287.5V28h3v10zM202 51.5h-3v-.753h1.978v-8.493H199V41.5h3v10zM236.556 41c1.63 1.566 2.444 3.307 2.444 5.225 0 .396-.039.807-.117 1.232a6.31 6.31 0 0 1-.397 1.307c-.187.445-.44.897-.755 1.355a9.21 9.21 0 0 1-1.195 1.381l-.536-.567c.688-.708 1.203-1.446 1.543-2.216a5.94 5.94 0 0 0 .508-2.42c0-1.746-.684-3.315-2.051-4.708l.556-.589zm53.297.5l-.154 5.758h-.875l-.17-5.758h1.199zm-.597 6.524a.728.728 0 0 1 .526.218c.066.067.12.146.159.237a.717.717 0 0 1 0 .574.746.746 0 0 1-.98.388.78.78 0 0 1-.239-.157.722.722 0 0 1-.162-.805.77.77 0 0 1 .4-.397.74.74 0 0 1 .296-.058zM202.5 65h-3V55h3v.754h-1.99v8.493h1.99V65zM232 78.5h-3v-10h3v.754h-1.99v8.493H232v.753zm51.5 0h-3v-10h3v.754h-1.99v8.493h1.99v.753zm-59.5 14h-3v-.753h1.978v-8.493H221V82.5h3v10zM251.056 82c1.63 1.566 2.444 3.307 2.444 5.225 0 .396-.039.807-.117 1.232a6.31 6.31 0 0 1-.397 1.307c-.187.445-.44.897-.755 1.355a9.21 9.21 0 0 1-1.195 1.381l-.536-.567c.688-.708 1.203-1.446 1.543-2.216a5.94 5.94 0 0 0 .508-2.42c0-1.746-.684-3.315-2.051-4.708l.556-.589zM276 92.5h-3v-10h3v.754h-1.99v8.493H276v.753zm-7.103-79L264.552 24H263.5l4.345-10.5h1.052zm3.103 0L267.655 24h-1.052l4.345-10.5H272zM260.397 41l-4.345 10.5H255l4.345-10.5h1.052zm3.103 0l-4.345 10.5h-1.052l4.345-10.5h1.052zm-25.103-13.5L234.052 38H233l4.345-10.5h1.052zm3.103 0L237.155 38h-1.052l4.345-10.5h1.052zM214.397 68l-4.345 10.5H209l4.345-10.5h1.052zm3.103 0l-4.345 10.5h-1.052l4.345-10.5h1.052zm57.897 0l-4.345 10.5H270l4.345-10.5h1.052zm3.103 0l-4.345 10.5h-1.052l4.345-10.5h1.052zM250 4h2v1.857h-2V4zm0 4.643h2V10.5h-2V8.643zM229 31.5h2v1.857h-2V31.5zm0 4.643h2V38h-2v-1.857zM199.5 31.5h2v1.857h-2V31.5zm0 4.643h2V38h-2v-1.857zM288 4h2v1.857h-2V4zm0 4.643h2V10.5h-2V8.643zm0 8.857h2v1.857h-2V17.5zm0 4.643h2V24h-2v-1.857zM251 44.5h2v1.857h-2V44.5zm0 4.643h2V51h-2v-1.857zM274 59h2v1.857h-2V59zm0 4.643h2V65.5h-2v-1.857zM258.5 86.5h2v1.857h-2V86.5zm0 4.643h2V93h-2v-1.857zM245.815 54l-4.28 10.5H240.5l4.28-10.5h1.035zM249 54l-4.28 10.5h-1.035l4.28-10.5H249zm18.815 28.5l-4.28 10.5H262.5l4.28-10.5h1.035zm3.185 0L266.72 93h-1.035l4.28-10.5H271zm4.714-55l-4.6 11H270l4.601-11h1.113zm3.286 0l-4.601 11h-1.113l4.6-11H279zm-47.185 55l-4.28 10.5H226.5l4.28-10.5h1.035zm3.185 0L230.72 93h-1.035l4.28-10.5H235z" fill="url(#g)" transform="translate(65 1)"/><path d="M140 262h2.89v.829h-1.917v9.343h1.917V273H140v-11zm7 0h2.89v11H147v-.828h1.905v-9.343H147V262zm9 0h2.89v.829h-1.917v9.343h1.917V273H156v-11zm9.702 11c-1.802-1.64-2.702-3.454-2.702-5.439 0-.465.048-.93.143-1.392.096-.463.25-.927.463-1.391.213-.465.494-.93.845-1.394.35-.466.774-.927 1.274-1.384l.592.594c-1.515 1.471-2.274 3.102-2.274 4.892 0 .891.192 1.748.575 2.57.383.822.95 1.598 1.7 2.327l-.616.617zm15.188 0H178v-11h2.89v.83h-1.917v9.341h1.917V273zm7 0H185v-.829h1.906v-9.341H185V262h2.89v11zm23 0H208v-.829h1.906v-9.341H208V262h2.89v11zm5.725-11c1.802 1.64 2.702 3.464 2.702 5.473 0 .415-.043.846-.129 1.292a6.355 6.355 0 0 1-.439 1.368c-.207.467-.486.94-.835 1.42-.35.48-.79.962-1.322 1.447l-.592-.594c.761-.741 1.33-1.515 1.706-2.322a5.946 5.946 0 0 0 .562-2.535c0-1.829-.756-3.473-2.268-4.932l.615-.617zm10.275 11H224v-11h2.89v.83h-1.917v9.341h1.917V273zM192 266h2v2h-2v-2zm0 5h2v2h-2v-2zm9.76-9l-4.638 11H196l4.637-11h1.122zm3.45 0l-4.637 11h-1.122l4.637-11h1.122zm-31.814 0l-.158 8.6h-.904l-.175-8.6h1.237zm-.65 9.522a.71.71 0 0 1 .519.218.798.798 0 0 1 .157.238.727.727 0 0 1 0 .574.748.748 0 0 1-.39.389.72.72 0 0 1-.578 0 .768.768 0 0 1-.235-.157.724.724 0 0 1-.16-.806.759.759 0 0 1 .395-.397.72.72 0 0 1 .292-.06zM204 215h2.89v.829h-1.917v9.343h1.917V226H204v-11zm7 0h2.89v11H211v-.828h1.905v-9.343H211V215zm9 0h2.89v.829h-1.917v9.343h1.917V226H220v-11zm9.702 11c-1.802-1.64-2.702-3.454-2.702-5.439 0-.465.048-.93.143-1.392.096-.463.25-.927.463-1.391.213-.465.494-.93.845-1.394.35-.466.774-.927 1.274-1.384l.592.594c-1.515 1.471-2.274 3.102-2.274 4.892 0 .891.192 1.748.575 2.57.383.822.95 1.598 1.7 2.327l-.616.617zm15.188 0H242v-11h2.89v.83h-1.917v9.341h1.917V226zm7 0H249v-.829h1.906v-9.341H249V215h2.89v11zm23 0H272v-.829h1.906v-9.341H272V215h2.89v11zm5.725-11c1.802 1.64 2.702 3.464 2.702 5.473 0 .415-.043.846-.129 1.292a6.355 6.355 0 0 1-.439 1.368c-.207.467-.486.94-.835 1.42-.35.48-.79.962-1.322 1.447l-.592-.594c.761-.741 1.33-1.515 1.706-2.322a5.946 5.946 0 0 0 .562-2.535c0-1.829-.756-3.473-2.268-4.932l.615-.617zm10.275 11H288v-11h2.89v.83h-1.917v9.341h1.917V226zM256 219h2v2h-2v-2zm0 5h2v2h-2v-2zm9.76-9l-4.638 11H260l4.637-11h1.122zm3.45 0l-4.637 11h-1.122l4.637-11h1.122zm-31.814 0l-.158 8.6h-.904l-.175-8.6h1.237zm-.65 9.522a.71.71 0 0 1 .519.218.798.798 0 0 1 .157.238.727.727 0 0 1 0 .574.748.748 0 0 1-.39.389.72.72 0 0 1-.578 0 .768.768 0 0 1-.235-.157.724.724 0 0 1-.16-.806.759.759 0 0 1 .395-.397.72.72 0 0 1 .292-.06z" fill="url(#i)" transform="translate(65 1)"/></g></g></g></g></svg>
