<svg width="493" height="500" viewBox="0 0 493 500" xmlns="http://www.w3.org/2000/svg" xmlns:xlink="http://www.w3.org/1999/xlink"><defs><path id="a" d="M0 500h248L493 .832 260 0z"/><linearGradient x1="50%" y1="0%" x2="50%" y2="100%" id="c"><stop stop-color="#FFF" offset="0%"/><stop stop-color="#9595A3" offset="100%"/></linearGradient><linearGradient x1="50%" y1="0%" x2="50%" y2="100%" id="d"><stop stop-color="#FFF" offset="0%"/><stop stop-color="#9595A3" offset="100%"/></linearGradient><linearGradient x1="0%" y1="53.927%" y2="53.927%" id="e"><stop stop-color="#F9F9FA" offset="0%"/><stop stop-color="#9595A3" offset="100%"/></linearGradient><linearGradient x1="0%" y1="53.927%" y2="53.927%" id="f"><stop stop-color="#F9F9FA" offset="0%"/><stop stop-color="#9595A3" offset="100%"/></linearGradient><linearGradient x1="0%" y1="50%" y2="50%" id="g"><stop stop-color="#F9F9FA" offset="0%"/><stop stop-color="#9595A3" offset="100%"/></linearGradient><linearGradient x1="0%" y1="50%" y2="50%" id="h"><stop stop-color="#F9F9FA" offset="0%"/><stop stop-color="#9595A3" offset="100%"/></linearGradient><linearGradient x1="0%" y1="50%" y2="50%" id="i"><stop stop-color="#F9F9FA" offset="0%"/><stop stop-color="#9595A3" offset="100%"/></linearGradient><linearGradient x1="0%" y1="53.927%" y2="53.927%" id="j"><stop stop-color="#F9F9FA" offset="0%"/><stop stop-color="#9595A3" offset="100%"/></linearGradient></defs><g fill="none" fill-rule="evenodd"><mask id="b" fill="#fff"><use xlink:href="#a"/></mask><use fill="#000" xlink:href="#a"/><g mask="url(#b)"><path d="M132.628 333l-4.532 11H127l4.531-11h1.097zm3.372 0l-4.531 11h-1.097l4.532-11H136zm16.628 50l-4.532 11H147l4.531-11h1.097zm3.372 0l-4.531 11h-1.097l4.532-11H156zm21.628 17l-4.532 11H172l4.531-11h1.097zm3.372 0l-4.531 11h-1.097l4.532-11H181zm-58-63h2v2h-2v-2zm0 5h2v2h-2v-2zm20 45h2v2h-2v-2zm0 5h2v2h-2v-2zm-23-1h2v2h-2v-2zm0 5h2v2h-2v-2zm21.702-52.814c-1.802-1.668-2.702-3.512-2.702-5.531 0-.473.048-.945.143-1.415a6.68 6.68 0 0 1 .463-1.415 7.69 7.69 0 0 1 .845-1.418c.35-.473.774-.942 1.274-1.407l.592.604c-1.515 1.496-2.274 3.154-2.274 4.975 0 .906.192 1.777.575 2.613.383.836.95 1.625 1.7 2.367l-.616.627zm-5-48c-1.802-1.668-2.702-3.512-2.702-5.531 0-.473.048-.945.143-1.415a6.68 6.68 0 0 1 .463-1.415 7.69 7.69 0 0 1 .845-1.418c.35-.473.774-.942 1.274-1.407l.592.604c-1.515 1.496-2.274 3.154-2.274 4.975 0 .906.192 1.777.575 2.613.383.836.95 1.625 1.7 2.367l-.616.627zm50 88c-1.802-1.668-2.702-3.512-2.702-5.531 0-.473.048-.945.143-1.415a6.68 6.68 0 0 1 .463-1.415 7.69 7.69 0 0 1 .845-1.418c.35-.473.774-.942 1.274-1.407l.592.604c-1.515 1.496-2.274 3.154-2.274 4.975 0 .906.192 1.777.575 2.613.383.836.95 1.625 1.7 2.367l-.616.627zM145.615 332c1.802 1.668 2.702 3.523 2.702 5.566 0 .422-.043.86-.129 1.313a6.54 6.54 0 0 1-.439 1.392 8.01 8.01 0 0 1-.835 1.444c-.35.488-.79.978-1.322 1.47l-.592-.603c.761-.754 1.33-1.541 1.706-2.361.375-.821.562-1.68.562-2.578 0-1.86-.756-3.532-2.268-5.016l.615-.627zm46 40c1.802 1.668 2.702 3.523 2.702 5.566 0 .422-.043.86-.129 1.313a6.54 6.54 0 0 1-.439 1.392 8.01 8.01 0 0 1-.835 1.444c-.35.488-.79.978-1.322 1.47l-.592-.603c.761-.754 1.33-1.541 1.706-2.361.375-.821.562-1.68.562-2.578 0-1.86-.756-3.532-2.268-5.016l.615-.627zm-32.855-28.473h-2.89V332.64h2.89v.821h-1.917v9.246h1.917v.82zm22.13-30.64H178V302h2.89v.821h-1.917v9.246h1.917v.82zm-9-27H169V275h2.89v.821h-1.917v9.246h1.917v.82zm-6 58H163v-.82h1.906v-9.246H163V333h2.89v10.887zm21-31H184v-.82h1.906v-9.246H184V302h2.89v10.887zm61 59H245v-.82h1.906v-9.246H245V361h2.89v10.887zm-98.872-28.33v-1.06h.837c.391 0 .672-.093.844-.276.172-.184.258-.479.258-.885l-.023-.844c0-.379.076-.719.228-1.02.152-.3.354-.53.604-.69a1.806 1.806 0 0 1-.63-.678 1.964 1.964 0 0 1-.226-.946l.024-1.113c0-.32-.062-.56-.185-.72-.123-.16-.313-.241-.571-.241H149V334h.973c.754 0 1.325.183 1.714.548.388.365.583.903.583 1.614l-.03 1.131c0 .332.06.574.179.727.12.152.304.228.554.228h.492v1.072h-.504c-.234 0-.408.074-.522.22-.113.147-.17.41-.17.788l.036 1.008c0 .566-.1 1.012-.3 1.336-.198.324-.487.553-.866.685-.38.133-.864.2-1.453.2h-.668zm-34.239 0c-.59 0-1.074-.067-1.453-.2a1.606 1.606 0 0 1-.867-.685c-.2-.324-.299-.77-.299-1.336l.035-1.008c0-.379-.056-.641-.17-.788-.113-.146-.287-.22-.521-.22H111v-1.072h.492c.25 0 .435-.076.554-.228.119-.153.179-.395.179-.727l-.03-1.13c0-.712.195-1.25.583-1.615.389-.365.96-.548 1.714-.548h.973v1.084h-1.178c-.258 0-.448.08-.571.24-.123.16-.185.4-.185.72l.024 1.114c0 .352-.076.667-.226.946-.15.28-.36.505-.63.677.25.16.451.39.604.692.152.3.228.64.228 1.02l-.023.843c0 .406.086.701.258.885.172.183.453.275.843.275h.838v1.06h-.668z" fill="url(#c)" fill-rule="nonzero" transform="translate(2 1)"/><path d="M185.628 200l-4.532 11H180l4.531-11h1.097zm3.372 0l-4.531 11h-1.097l4.532-11H189zm-13 4h2v2h-2v-2zm0 5h2v2h-2v-2zm18.702 1.186c-1.802-1.668-2.702-3.512-2.702-5.531 0-.473.048-.945.143-1.415a6.68 6.68 0 0 1 .463-1.415 7.69 7.69 0 0 1 .845-1.418c.35-.473.774-.942 1.274-1.407l.592.604c-1.515 1.496-2.274 3.154-2.274 4.975 0 .906.192 1.777.575 2.613.383.836.95 1.625 1.7 2.367l-.616.627zm-5-48c-1.802-1.668-2.702-3.512-2.702-5.531 0-.473.048-.945.143-1.415a6.68 6.68 0 0 1 .463-1.415 7.69 7.69 0 0 1 .845-1.418c.35-.473.774-.942 1.274-1.407l.592.604c-1.515 1.496-2.274 3.154-2.274 4.975 0 .906.192 1.777.575 2.613.383.836.95 1.625 1.7 2.367l-.616.627zm50 88c-1.802-1.668-2.702-3.512-2.702-5.531 0-.473.048-.945.143-1.415a6.68 6.68 0 0 1 .463-1.415 7.69 7.69 0 0 1 .845-1.418c.35-.473.774-.942 1.274-1.407l.592.604c-1.515 1.496-2.274 3.154-2.274 4.975 0 .906.192 1.777.575 2.613.383.836.95 1.625 1.7 2.367l-.616.627zM198.615 199c1.802 1.668 2.702 3.523 2.702 5.566 0 .422-.043.86-.129 1.313a6.54 6.54 0 0 1-.439 1.392 8.01 8.01 0 0 1-.835 1.444c-.35.488-.79.978-1.322 1.47l-.592-.603c.761-.754 1.33-1.541 1.706-2.361.375-.821.562-1.68.562-2.578 0-1.86-.756-3.532-2.268-5.016l.615-.627zm46 40c1.802 1.668 2.702 3.523 2.702 5.566 0 .422-.043.86-.129 1.313a6.54 6.54 0 0 1-.439 1.392 8.01 8.01 0 0 1-.835 1.444c-.35.488-.79.978-1.322 1.47l-.592-.603c.761-.754 1.33-1.541 1.706-2.361.375-.821.562-1.68.562-2.578 0-1.86-.756-3.532-2.268-5.016l.615-.627zm-32.855-28.473h-2.89V199.64h2.89v.821h-1.917v9.246h1.917v.82zm22.13-30.64H231V169h2.89v.821h-1.917v9.246h1.917v.82zm-9-27H222V142h2.89v.821h-1.917v9.246h1.917v.82zm-6 58H216v-.82h1.906v-9.246H216V200h2.89v10.887zm21-31H237v-.82h1.906v-9.246H237V169h2.89v10.887zm61 59H298v-.82h1.906v-9.246H298V228h2.89v10.887zm-98.872-28.33v-1.06h.837c.391 0 .672-.093.844-.276.172-.184.258-.479.258-.885l-.023-.844c0-.379.076-.719.228-1.02.152-.3.354-.53.604-.69a1.806 1.806 0 0 1-.63-.678 1.964 1.964 0 0 1-.226-.946l.024-1.113c0-.32-.062-.56-.185-.72-.123-.16-.313-.241-.571-.241H202V201h.973c.754 0 1.325.183 1.714.548.388.365.583.903.583 1.614l-.03 1.131c0 .332.06.574.179.727.12.152.304.228.554.228h.492v1.072h-.504c-.234 0-.408.074-.522.22-.113.147-.17.41-.17.788l.036 1.008c0 .566-.1 1.012-.3 1.336-.198.324-.487.553-.866.685-.38.133-.864.2-1.453.2h-.668zm-34.239 0c-.59 0-1.074-.067-1.453-.2a1.606 1.606 0 0 1-.867-.685c-.2-.324-.299-.77-.299-1.336l.035-1.008c0-.379-.056-.641-.17-.788-.113-.146-.287-.22-.521-.22H164v-1.072h.492c.25 0 .435-.076.554-.228.119-.153.179-.395.179-.727l-.03-1.13c0-.712.195-1.25.583-1.615.389-.365.96-.548 1.714-.548h.973v1.084h-1.178c-.258 0-.448.08-.571.24-.123.16-.185.4-.185.72l.024 1.114c0 .352-.076.667-.226.946-.15.28-.36.505-.63.677.25.16.451.39.604.692.152.3.228.64.228 1.02l-.023.843c0 .406.086.701.258.885.172.183.453.275.843.275h.838v1.06h-.668z" fill="url(#d)" fill-rule="nonzero" transform="translate(2 1)"/><path d="M370 94.5h3v.753h-1.99v8.495H373v.752h-3v-10zm16.853 0l-.154 5.758h-.875l-.17-5.758h1.199zm-.597 6.524a.728.728 0 0 1 .526.218c.066.067.12.146.159.237a.717.717 0 0 1 0 .574.746.746 0 0 1-.98.388.78.78 0 0 1-.239-.157.722.722 0 0 1-.162-.805.77.77 0 0 1 .4-.397.74.74 0 0 1 .296-.058zM395 104.5h-3v-10h3v.754h-1.99v8.493H395v.753zm7 0h-3v-.753h1.978v-8.493H399V94.5h3v10zM429.556 94c1.63 1.566 2.444 3.307 2.444 5.225 0 .396-.039.807-.117 1.232a6.31 6.31 0 0 1-.397 1.307c-.187.445-.44.897-.755 1.355a9.21 9.21 0 0 1-1.195 1.381l-.536-.567c.688-.708 1.203-1.446 1.543-2.216a5.94 5.94 0 0 0 .508-2.42c0-1.746-.684-3.315-2.051-4.708l.556-.589zm9.944 10.5h-3v-10h3v.754h-1.99v8.493h1.99v.753zm-67 13.5h-3v-.753h1.978v-8.493H369.5V108h3v10zm15.5 0h-3v-10h3v.754h-1.99v8.493H388V118zm22 0h-3v-10h3v.754h-1.99v8.493H410V118zm6.353-10l-.154 5.758h-.875l-.17-5.758h1.199zm-.597 6.524a.728.728 0 0 1 .526.218c.066.067.12.146.159.237a.717.717 0 0 1 0 .574.746.746 0 0 1-.98.388.78.78 0 0 1-.239-.157.722.722 0 0 1-.162-.805.77.77 0 0 1 .4-.397.74.74 0 0 1 .296-.058zM432 118h-3v-10h3v.754h-1.99v8.493H432V118zm7 0h-3v-.753h1.978v-8.493H436V108h3v10zm-37.056 14c-1.63-1.566-2.444-3.297-2.444-5.192 0-.444.043-.887.13-1.328a6.44 6.44 0 0 1 .418-1.328c.193-.444.447-.888.764-1.331.316-.444.7-.885 1.152-1.321l.536.567c-1.37 1.404-2.056 2.96-2.056 4.67 0 .85.172 1.668.519 2.453.346.784.858 1.525 1.537 2.221l-.556.589zm6.909-10.5l-.154 5.758h-.875l-.17-5.758h1.199zm-.597 6.524a.728.728 0 0 1 .526.218c.066.067.12.146.159.237a.717.717 0 0 1 0 .574.746.746 0 0 1-.98.388.78.78 0 0 1-.239-.157.722.722 0 0 1-.162-.805.77.77 0 0 1 .4-.397.74.74 0 0 1 .296-.058zM439.5 132h-3v-10h3v.754h-1.99v8.493h1.99V132zm7 0h-3v-.753h1.978v-8.493H443.5V122h3v10zm-59 13.5h-3v-.753h1.978v-8.493H384.5v-.754h3v10zm15 0h-3v-10h3v.754h-1.99v8.493h1.99v.753zm43.353-10l-.154 5.758h-.875l-.17-5.758h1.199zm-.597 6.524a.728.728 0 0 1 .526.218c.066.067.12.146.159.237a.717.717 0 0 1 0 .574.746.746 0 0 1-.98.388.78.78 0 0 1-.239-.157.722.722 0 0 1-.162-.805.77.77 0 0 1 .4-.397.74.74 0 0 1 .296-.058zM380.5 159h-3v-10h3v.754h-1.99v8.493h1.99V159zm7 0h-3v-.753h1.978v-8.493H384.5V149h3v10zm21.853-10l-.154 5.758h-.875l-.17-5.758h1.199zm-.597 6.524a.728.728 0 0 1 .526.218c.066.067.12.146.159.237a.717.717 0 0 1 0 .574.746.746 0 0 1-.98.388.78.78 0 0 1-.239-.157.722.722 0 0 1-.162-.805.77.77 0 0 1 .4-.397.74.74 0 0 1 .296-.058zM417.5 159h-3v-10h3v.754h-1.99v8.493h1.99V159zm28.944.5c-1.63-1.566-2.444-3.297-2.444-5.192 0-.444.043-.887.13-1.328a6.44 6.44 0 0 1 .418-1.328c.193-.444.447-.888.764-1.331.316-.444.7-.885 1.152-1.321l.536.567c-1.37 1.404-2.056 2.96-2.056 4.67 0 .85.172 1.668.519 2.453.346.784.858 1.525 1.537 2.221l-.556.589zM388 172.5h-3v-10h3v.754h-1.99v8.493H388v.753zm14.5 0h-3v-10h3v.754h-1.99v8.493h1.99v.753zm14.5 0h-3v-.753h1.978v-8.493H414v-.754h3v10zm22.5 0h-3v-10h3v.754h-1.99v8.493h1.99v.753zm-67 14h-3v-.753h1.978v-8.493H369.5v-.754h3v10zm7.5 0h-3v-.753h1.978v-8.493H377v-.754h3v10zm22 0h-3v-.753h1.978v-8.493H399v-.754h3v10zm37 0h-3v-.753h1.978v-8.493H436v-.754h3v10zm7.5 0h-3v-.753h1.978v-8.493H443.5v-.754h3v10zm-66.103-79l-4.345 10.5H375l4.345-10.5h1.052zm3.103 0l-4.345 10.5h-1.052l4.345-10.5h1.052zm41.397 0l-4.345 10.5H419.5l4.345-10.5h1.052zm3.103 0l-4.345 10.5h-1.052l4.345-10.5H428zM415.397 94l-4.345 10.5H410l4.345-10.5h1.052zm3.103 0l-4.345 10.5h-1.052l4.345-10.5h1.052zm-2.103 41l-4.345 10.5H411l4.345-10.5h1.052zm3.103 0l-4.345 10.5h-1.052l4.345-10.5h1.052zm-25.103-13.5l-4.345 10.5H389l4.345-10.5h1.052zm3.103 0l-4.345 10.5h-1.052l4.345-10.5h1.052zm-32.603 0l-4.345 10.5H359.5l4.345-10.5h1.052zm3.103 0l-4.345 10.5h-1.052l4.345-10.5H368zm2.397 40.5l-4.345 10.5H365l4.345-10.5h1.052zm3.103 0l-4.345 10.5h-1.052l4.345-10.5h1.052zm57.897 0l-4.345 10.5H426l4.345-10.5h1.052zm3.103 0l-4.345 10.5h-1.052l4.345-10.5h1.052zm-61.786-27.5l-4.6 11H367l4.601-11h1.113zm3.286 0l-4.601 11h-1.113l4.6-11H376zM406 98h2v1.857h-2V98zm0 4.643h2v1.857h-2v-1.857zM385 125.5h2v1.857h-2V125.5zm0 4.643h2V132h-2v-1.857zm-29.5-4.643h2v1.857h-2V125.5zm0 4.643h2V132h-2v-1.857zm7 22.857h2v1.857h-2V153zm0 4.643h2v1.857h-2v-1.857zM444 98h2v1.857h-2V98zm0 4.643h2v1.857h-2v-1.857zm0 8.857h2v1.857h-2V111.5zm0 4.643h2V118h-2v-1.857zM407 138.5h2v1.857h-2V138.5zm0 4.643h2V145h-2v-1.857zM393 152h2v1.857h-2V152zm0 4.643h2v1.857h-2v-1.857zM430 153h2v1.857h-2V153zm0 4.643h2v1.857h-2v-1.857zM422 166h2v1.857h-2V166zm0 4.643h2v1.857h-2v-1.857zM371.315 149l-4.28 10.5H366l4.28-10.5h1.035zm3.185 0l-4.28 10.5h-1.035l4.28-10.5h1.035zm27.315-1l-4.28 10.5H396.5l4.28-10.5h1.035zm3.185 0l-4.28 10.5h-1.035l4.28-10.5H405zm33.815 1l-4.28 10.5H433.5l4.28-10.5h1.035zm3.185 0l-4.28 10.5h-1.035l4.28-10.5H442zm-2.786-14.5l-4.6 11H433.5l4.601-11h1.113zm3.286 0l-4.601 11h-1.113l4.6-11h1.114zm-10.786-13l-4.6 11H426l4.601-11h1.113zm3.286 0l-4.601 11h-1.113l4.6-11H435zm-47.185 55l-4.28 10.5H382.5l4.28-10.5h1.035zm3.185 0l-4.28 10.5h-1.035l4.28-10.5H391zM274.5 93.5h3v.753h-1.99v8.495h1.99v.752h-3v-10zm16.853 0l-.154 5.758h-.875l-.17-5.758h1.199zm-.597 6.524a.728.728 0 0 1 .526.218c.066.067.12.146.159.237a.717.717 0 0 1 0 .574.746.746 0 0 1-.98.388.78.78 0 0 1-.239-.157.722.722 0 0 1-.162-.805.77.77 0 0 1 .4-.397.74.74 0 0 1 .296-.058zm8.744 3.476h-3v-10h3v.754h-1.99v8.493h1.99v.753zm7 0h-3v-.753h1.978v-8.493H303.5V93.5h3v10zM334.056 93c1.63 1.566 2.444 3.307 2.444 5.225 0 .396-.039.807-.117 1.232a6.31 6.31 0 0 1-.397 1.307c-.187.445-.44.897-.755 1.355a9.21 9.21 0 0 1-1.195 1.381l-.536-.567c.688-.708 1.203-1.446 1.543-2.216a5.94 5.94 0 0 0 .508-2.42c0-1.746-.684-3.315-2.051-4.708l.556-.589zM344 103.5h-3v-10h3v.754h-1.99v8.493H344v.753zM277 117h-3v-.753h1.978v-8.493H274V107h3v10zm15.5 0h-3v-10h3v.754h-1.99v8.493h1.99V117zm22 0h-3v-10h3v.754h-1.99v8.493h1.99V117zm6.353-10l-.154 5.758h-.875l-.17-5.758h1.199zm-.597 6.524a.728.728 0 0 1 .526.218c.066.067.12.146.159.237a.717.717 0 0 1 0 .574.746.746 0 0 1-.98.388.78.78 0 0 1-.239-.157.722.722 0 0 1-.162-.805.77.77 0 0 1 .4-.397.74.74 0 0 1 .296-.058zM336.5 117h-3v-10h3v.754h-1.99v8.493h1.99V117zm7 0h-3v-.753h1.978v-8.493H340.5V107h3v10zm-37.056 14c-1.63-1.566-2.444-3.297-2.444-5.192 0-.444.043-.887.13-1.328a6.44 6.44 0 0 1 .418-1.328c.193-.444.447-.888.764-1.331.316-.444.7-.885 1.152-1.321l.536.567c-1.37 1.404-2.056 2.96-2.056 4.67 0 .85.172 1.668.519 2.453.346.784.858 1.525 1.537 2.221l-.556.589zm6.909-10.5l-.154 5.758h-.875l-.17-5.758h1.199zm-.597 6.524a.728.728 0 0 1 .526.218c.066.067.12.146.159.237a.717.717 0 0 1 0 .574.746.746 0 0 1-.98.388.78.78 0 0 1-.239-.157.722.722 0 0 1-.162-.805.77.77 0 0 1 .4-.397.74.74 0 0 1 .296-.058zM344 131h-3v-10h3v.754h-1.99v8.493H344V131zm7 0h-3v-.753h1.978v-8.493H348V121h3v10zm-59 13.5h-3v-.753h1.978v-8.493H289v-.754h3v10zm15 0h-3v-10h3v.754h-1.99v8.493H307v.753zm43.353-10l-.154 5.758h-.875l-.17-5.758h1.199zm-.597 6.524a.728.728 0 0 1 .526.218c.066.067.12.146.159.237a.717.717 0 0 1 0 .574.746.746 0 0 1-.98.388.78.78 0 0 1-.239-.157.722.722 0 0 1-.162-.805.77.77 0 0 1 .4-.397.74.74 0 0 1 .296-.058zM285 158h-3v-10h3v.754h-1.99v8.493H285V158zm7 0h-3v-.753h1.978v-8.493H289V148h3v10zm21.853-10l-.154 5.758h-.875l-.17-5.758h1.199zm-.597 6.524a.728.728 0 0 1 .526.218c.066.067.12.146.159.237a.717.717 0 0 1 0 .574.746.746 0 0 1-.98.388.78.78 0 0 1-.239-.157.722.722 0 0 1-.162-.805.77.77 0 0 1 .4-.397.74.74 0 0 1 .296-.058zm37.688 3.976c-1.63-1.566-2.444-3.297-2.444-5.192 0-.444.043-.887.13-1.328a6.44 6.44 0 0 1 .418-1.328c.193-.444.447-.888.764-1.331.316-.444.7-.885 1.152-1.321l.536.567c-1.37 1.404-2.056 2.96-2.056 4.67 0 .85.172 1.668.519 2.453.346.784.858 1.525 1.537 2.221l-.556.589zm-58.444 13h-3v-10h3v.754h-1.99v8.493h1.99v.753zm29 0h-3v-.753h1.978v-8.493H318.5v-.754h3v10zm-44.5 14h-3v-.753h1.978v-8.493H274v-.754h3v10zm7.5 0h-3v-.753h1.978v-8.493H281.5v-.754h3v10zm22 0h-3v-.753h1.978v-8.493H303.5v-.754h3v10zm37 0h-3v-.753h1.978v-8.493H340.5v-.754h3v10zm7.5 0h-3v-.753h1.978v-8.493H348v-.754h3v10zm-66.103-79l-4.345 10.5H279.5l4.345-10.5h1.052zm3.103 0l-4.345 10.5h-1.052l4.345-10.5H288zM319.897 93l-4.345 10.5H314.5l4.345-10.5h1.052zM323 93l-4.345 10.5h-1.052l4.345-10.5H323zm-2.103 41l-4.345 10.5H315.5l4.345-10.5h1.052zm3.103 0l-4.345 10.5h-1.052l4.345-10.5H324zm-25.103-13.5l-4.345 10.5H293.5l4.345-10.5h1.052zm3.103 0l-4.345 10.5h-1.052l4.345-10.5H302zm-32.603 0l-4.345 10.5H264l4.345-10.5h1.052zm3.103 0l-4.345 10.5h-1.052l4.345-10.5h1.052zm2.397 40.5l-4.345 10.5H269.5l4.345-10.5h1.052zm3.103 0l-4.345 10.5h-1.052l4.345-10.5H278zm57.897 0l-4.345 10.5H330.5l4.345-10.5h1.052zm3.103 0l-4.345 10.5h-1.052l4.345-10.5H339zm-61.786-27.5l-4.6 11H271.5l4.601-11h1.113zm3.286 0l-4.601 11h-1.113l4.6-11h1.114zm30-36.5h2v1.857h-2V97zm0 4.643h2v1.857h-2v-1.857zM260 124.5h2v1.857h-2V124.5zm0 4.643h2V131h-2v-1.857zM267 152h2v1.857h-2V152zm0 4.643h2v1.857h-2v-1.857zM348.5 97h2v1.857h-2V97zm0 4.643h2v1.857h-2v-1.857zm0 8.857h2v1.857h-2V110.5zm0 4.643h2V117h-2v-1.857zm-37 22.357h2v1.857h-2V137.5zm0 4.643h2V144h-2v-1.857zm23 9.857h2v1.857h-2V152zm0 4.643h2v1.857h-2v-1.857zm-8 8.357h2v1.857h-2V165zm0 4.643h2v1.857h-2v-1.857zM275.815 148l-4.28 10.5H270.5l4.28-10.5h1.035zm3.185 0l-4.28 10.5h-1.035l4.28-10.5H279zm27.315-1l-4.28 10.5H301l4.28-10.5h1.035zm3.185 0l-4.28 10.5h-1.035l4.28-10.5h1.035zm33.815 1l-4.28 10.5H338l4.28-10.5h1.035zm3.185 0l-4.28 10.5h-1.035l4.28-10.5h1.035zm-2.786-14.5l-4.6 11H338l4.601-11h1.113zm3.286 0l-4.601 11h-1.113l4.6-11H347zm-10.786-13l-4.6 11H330.5l4.601-11h1.113zm3.286 0l-4.601 11h-1.113l4.6-11h1.114zm-47.185 55l-4.28 10.5H287l4.28-10.5h1.035zm3.185 0l-4.28 10.5h-1.035l4.28-10.5h1.035z" fill="url(#e)" transform="translate(2 1)"/><path d="M344.5 248.5h3v.753h-1.99v8.495h1.99v.752h-3v-10zm7 0h3v10h-3v-.752h1.977v-8.495H351.5v-.753zm7.5 0h3v.753h-1.99v8.495H362v.752h-3v-10zm9.944 10c-1.63-1.566-2.444-3.297-2.444-5.192 0-.444.043-.887.13-1.328a6.44 6.44 0 0 1 .418-1.328c.193-.444.447-.888.764-1.331.316-.444.7-.885 1.152-1.321l.536.567c-1.37 1.404-2.056 2.96-2.056 4.67 0 .85.172 1.668.519 2.453.346.784.858 1.525 1.537 2.221l-.556.589zm6.909-10l-.154 5.758h-.875l-.17-5.758h1.199zm-.597 6.524a.728.728 0 0 1 .526.218c.066.067.12.146.159.237a.717.717 0 0 1 0 .574.746.746 0 0 1-.98.388.78.78 0 0 1-.239-.157.722.722 0 0 1-.162-.805.77.77 0 0 1 .4-.397.74.74 0 0 1 .296-.058zM384 258.5h-3v-10h3v.754h-1.99v8.493H384v.753zm7 0h-3v-.753h1.978v-8.493H388v-.754h3v10zm22.5 0h-3v-.753h1.978v-8.493H410.5v-.754h3v10zm5.056-10.5c1.63 1.566 2.444 3.307 2.444 5.225 0 .396-.039.807-.117 1.232a6.31 6.31 0 0 1-.397 1.307c-.187.445-.44.897-.755 1.355a9.21 9.21 0 0 1-1.195 1.381l-.536-.567c.688-.708 1.203-1.446 1.543-2.216a5.94 5.94 0 0 0 .508-2.42c0-1.746-.684-3.315-2.051-4.708l.556-.589zm9.944 10.5h-3v-10h3v.754h-1.99v8.493h1.99v.753zm-74 13.5h-3v-10h3v.754h-1.99v8.493h1.99V272zm7 0h-3v-.753h1.978v-8.493H358.5V262h3v10zm15.5 0h-3v-10h3v.754h-1.99v8.493H377V272zm7 0h-3v-.753h1.978v-8.493H381V262h3v10zm15 0h-3v-10h3v.754h-1.99v8.493H399V272zm6.353-10l-.154 5.758h-.875l-.17-5.758h1.199zm-.597 6.524a.728.728 0 0 1 .526.218c.066.067.12.146.159.237a.717.717 0 0 1 0 .574.746.746 0 0 1-.98.388.78.78 0 0 1-.239-.157.722.722 0 0 1-.162-.805.77.77 0 0 1 .4-.397.74.74 0 0 1 .296-.058zM421 272h-3v-10h3v.754h-1.99v8.493H421V272zm7 0h-3v-.753h1.978v-8.493H425V262h3v10zm-66.5 14h-3v-.753h1.978v-8.493H358.5V276h3v10zm7.5 0h-3v-.753h1.978v-8.493H366V276h3v10zm21.944 0c-1.63-1.566-2.444-3.297-2.444-5.192 0-.444.043-.887.13-1.328a6.44 6.44 0 0 1 .418-1.328c.193-.444.447-.888.764-1.331.316-.444.7-.885 1.152-1.321l.536.567c-1.37 1.404-2.056 2.96-2.056 4.67 0 .85.172 1.668.519 2.453.346.784.858 1.525 1.537 2.221l-.556.589zm6.909-10.5l-.154 5.758h-.875l-.17-5.758h1.199zm-.597 6.524a.728.728 0 0 1 .526.218c.066.067.12.146.159.237a.717.717 0 0 1 0 .574.746.746 0 0 1-.98.388.78.78 0 0 1-.239-.157.722.722 0 0 1-.162-.805.77.77 0 0 1 .4-.397.74.74 0 0 1 .296-.058zM406.5 286h-3v-10h3v.754h-1.99v8.493h1.99V286zm7 0h-3v-.753h1.978v-8.493H410.5V276h3v10zm15 0h-3v-10h3v.754h-1.99v8.493h1.99V286zm7 0h-3v-.753h1.978v-8.493H432.5V276h3v10zM347 299.5h-3v-.753h1.978v-8.493H344v-.754h3v10zm29.5 0h-3v-.753h1.978v-8.493H373.5v-.754h3v10zm5.056-10.5c1.63 1.566 2.444 3.307 2.444 5.225 0 .396-.039.807-.117 1.232a6.31 6.31 0 0 1-.397 1.307c-.187.445-.44.897-.755 1.355a9.21 9.21 0 0 1-1.195 1.381l-.536-.567c.688-.708 1.203-1.446 1.543-2.216a5.94 5.94 0 0 0 .508-2.42c0-1.746-.684-3.315-2.051-4.708l.556-.589zm9.944 10.5h-3v-10h3v.754h-1.99v8.493h1.99v.753zm29.5 0h-3v-.753h1.978v-8.493H418v-.754h3v10zm13.853-10l-.154 5.758h-.875l-.17-5.758h1.199zm-.597 6.524a.728.728 0 0 1 .526.218c.066.067.12.146.159.237a.717.717 0 0 1 0 .574.746.746 0 0 1-.98.388.78.78 0 0 1-.239-.157.722.722 0 0 1-.162-.805.77.77 0 0 1 .4-.397.74.74 0 0 1 .296-.058zM347.5 313h-3v-10h3v.754h-1.99v8.493h1.99V313zm22 0h-3v-10h3v.754h-1.99v8.493h1.99V313zm7 0h-3v-.753h1.978v-8.493H373.5V303h3v10zm21.853-10l-.154 5.758h-.875l-.17-5.758h1.199zm-.597 6.524a.728.728 0 0 1 .526.218c.066.067.12.146.159.237a.717.717 0 0 1 0 .574.746.746 0 0 1-.98.388.78.78 0 0 1-.239-.157.722.722 0 0 1-.162-.805.77.77 0 0 1 .4-.397.74.74 0 0 1 .296-.058zM406.5 313h-3v-10h3v.754h-1.99v8.493h1.99V313zm7 0h-3v-.753h1.978v-8.493H410.5V303h3v10zm21.944.5c-1.63-1.566-2.444-3.297-2.444-5.192 0-.444.043-.887.13-1.328a6.44 6.44 0 0 1 .418-1.328c.193-.444.447-.888.764-1.331.316-.444.7-.885 1.152-1.321l.536.567c-1.37 1.404-2.056 2.96-2.056 4.67 0 .85.172 1.668.519 2.453.346.784.858 1.525 1.537 2.221l-.556.589zM347 326.5h-3v-.753h1.978v-8.493H344v-.754h3v10zm21.944.5c-1.63-1.566-2.444-3.297-2.444-5.192 0-.444.043-.887.13-1.328a6.44 6.44 0 0 1 .418-1.328c.193-.444.447-.888.764-1.331.316-.444.7-.885 1.152-1.321l.536.567c-1.37 1.404-2.056 2.96-2.056 4.67 0 .85.172 1.668.519 2.453.346.784.858 1.525 1.537 2.221l-.556.589zm8.056-.5h-3v-10h3v.754h-1.99v8.493H377v.753zm7 0h-3v-.753h1.978v-8.493H381v-.754h3v10zm7.5 0h-3v-10h3v.754h-1.99v8.493h1.99v.753zm14.5 0h-3v-.753h1.978v-8.493H403v-.754h3v10zm22.5 0h-3v-10h3v.754h-1.99v8.493h1.99v.753zm-74 14h-3v-10h3v.754h-1.99v8.493h1.99v.753zm7 0h-3v-.753h1.978v-8.493H358.5v-.754h3v10zm7.5 0h-3v-.753h1.978v-8.493H366v-.754h3v10zm15 0h-3v-10h3v.754h-1.99v8.493H384v.753zm7 0h-3v-.753h1.978v-8.493H388v-.754h3v10zm5.056-10.5c1.63 1.566 2.444 3.307 2.444 5.225 0 .396-.039.807-.117 1.232a6.31 6.31 0 0 1-.397 1.307c-.187.445-.44.897-.755 1.355a9.21 9.21 0 0 1-1.195 1.381l-.536-.567c.688-.708 1.203-1.446 1.543-2.216a5.94 5.94 0 0 0 .508-2.42c0-1.746-.684-3.315-2.051-4.708l.556-.589zM421 340.5h-3v-10h3v.754h-1.99v8.493H421v.753zm7 0h-3v-.753h1.978v-8.493H425v-.754h3v10zm7.5 0h-3v-.753h1.978v-8.493H432.5v-.754h3v10zm-66.103-79l-4.345 10.5H364l4.345-10.5h1.052zm3.103 0l-4.345 10.5h-1.052l4.345-10.5h1.052zm41.397 0l-4.345 10.5H408.5l4.345-10.5h1.052zm3.103 0l-4.345 10.5h-1.052l4.345-10.5H417zM404.397 248l-4.345 10.5H399l4.345-10.5h1.052zm3.103 0l-4.345 10.5h-1.052l4.345-10.5h1.052zm-2.103 41l-4.345 10.5H400l4.345-10.5h1.052zm3.103 0l-4.345 10.5h-1.052l4.345-10.5h1.052zm-25.103-13.5l-4.345 10.5H378l4.345-10.5h1.052zm3.103 0l-4.345 10.5h-1.052l4.345-10.5h1.052zm-32.603 0l-4.345 10.5H348.5l4.345-10.5h1.052zm3.103 0l-4.345 10.5h-1.052l4.345-10.5H357zm2.397 40.5l-4.345 10.5H354l4.345-10.5h1.052zm3.103 0l-4.345 10.5h-1.052l4.345-10.5h1.052zm57.897 0l-4.345 10.5H415l4.345-10.5h1.052zm3.103 0l-4.345 10.5h-1.052l4.345-10.5h1.052zm-61.786-27.5l-4.6 11H356l4.601-11h1.113zm3.286 0l-4.601 11h-1.113l4.6-11H365zm30-36.5h2v1.857h-2V252zm0 4.643h2v1.857h-2v-1.857zM374 279.5h2v1.857h-2V279.5zm0 4.643h2V286h-2v-1.857zm-29.5-4.643h2v1.857h-2V279.5zm0 4.643h2V286h-2v-1.857zm7 22.857h2v1.857h-2V307zm0 4.643h2v1.857h-2v-1.857zM433 252h2v1.857h-2V252zm0 4.643h2v1.857h-2v-1.857zm0 8.857h2v1.857h-2V265.5zm0 4.643h2V272h-2v-1.857zM396 292.5h2v1.857h-2V292.5zm0 4.643h2V299h-2v-1.857zM382 306h2v1.857h-2V306zm0 4.643h2v1.857h-2v-1.857zM419 307h2v1.857h-2V307zm0 4.643h2v1.857h-2v-1.857zM411 320h2v1.857h-2V320zm0 4.643h2v1.857h-2v-1.857zm-7.5 9.857h2v1.857h-2V334.5zm0 4.643h2V341h-2v-1.857zM360.315 303l-4.28 10.5H355l4.28-10.5h1.035zm3.185 0l-4.28 10.5h-1.035l4.28-10.5h1.035zm27.315-1l-4.28 10.5H385.5l4.28-10.5h1.035zm3.185 0l-4.28 10.5h-1.035l4.28-10.5H394zm18.815 28.5l-4.28 10.5H407.5l4.28-10.5h1.035zm3.185 0l-4.28 10.5h-1.035l4.28-10.5H416zm11.815-27.5l-4.28 10.5H422.5l4.28-10.5h1.035zm3.185 0l-4.28 10.5h-1.035l4.28-10.5H431zm-2.786-14.5l-4.6 11H422.5l4.601-11h1.113zm3.286 0l-4.601 11h-1.113l4.6-11h1.114zm-10.786-13l-4.6 11H415l4.601-11h1.113zm3.286 0l-4.601 11h-1.113l4.6-11H424zm-47.185 55l-4.28 10.5H371.5l4.28-10.5h1.035zm3.185 0l-4.28 10.5h-1.035l4.28-10.5H380zM225.5.5h3v10h-3v-.752h1.977V1.253H225.5V.5zm7.5 0h3v.753h-1.99v8.495H236v.752h-3V.5zm25 10h-3V.5h3v.754h-1.99v8.493H258v.753zm29.5 0h-3v-.753h1.978V1.254H284.5V.5h3v10zm15 0h-3V.5h3v.754h-1.99v8.493h1.99v.753zm-67 13.5h-3v-.753h1.978v-8.493H232.5V14h3v10zm59.5 0h-3V14h3v.754h-1.99v8.493H295V24zm7 0h-3v-.753h1.978v-8.493H299V14h3v10zm-66.5 14h-3v-.753h1.978v-8.493H232.5V28h3v10zm7.5 0h-3v-.753h1.978v-8.493H240V28h3v10zm28.853-10.5l-.154 5.758h-.875l-.17-5.758h1.199zm-.597 6.524a.728.728 0 0 1 .526.218c.066.067.12.146.159.237a.717.717 0 0 1 0 .574.746.746 0 0 1-.98.388.78.78 0 0 1-.239-.157.722.722 0 0 1-.162-.805.77.77 0 0 1 .4-.397.74.74 0 0 1 .296-.058zM280.5 38h-3V28h3v.754h-1.99v8.493h1.99V38zm7 0h-3v-.753h1.978v-8.493H284.5V28h3v10zm22 0h-3v-.753h1.978v-8.493H306.5V28h3v10zM221 51.5h-3v-.753h1.978v-8.493H218V41.5h3v10zm29.5 0h-3v-.753h1.978v-8.493H247.5V41.5h3v10zm15 0h-3v-10h3v.754h-1.99v8.493h1.99v.753zm29.5 0h-3v-.753h1.978v-8.493H292V41.5h3v10zm13.853-10l-.154 5.758h-.875l-.17-5.758h1.199zm-.597 6.524a.728.728 0 0 1 .526.218c.066.067.12.146.159.237a.717.717 0 0 1 0 .574.746.746 0 0 1-.98.388.78.78 0 0 1-.239-.157.722.722 0 0 1-.162-.805.77.77 0 0 1 .4-.397.74.74 0 0 1 .296-.058zM243.5 65h-3V55h3v.754h-1.99v8.493h1.99V65zm7 0h-3v-.753h1.978v-8.493H247.5V55h3v10zm21.853-10l-.154 5.758h-.875l-.17-5.758h1.199zm-.597 6.524a.728.728 0 0 1 .526.218c.066.067.12.146.159.237a.717.717 0 0 1 0 .574.746.746 0 0 1-.98.388.78.78 0 0 1-.239-.157.722.722 0 0 1-.162-.805.77.77 0 0 1 .4-.397.74.74 0 0 1 .296-.058zM280.5 65h-3V55h3v.754h-1.99v8.493h1.99V65zm28.944.5c-1.63-1.566-2.444-3.297-2.444-5.192 0-.444.043-.887.13-1.328a6.44 6.44 0 0 1 .418-1.328c.193-.444.447-.888.764-1.331.316-.444.7-.885 1.152-1.321l.536.567c-1.37 1.404-2.056 2.96-2.056 4.67 0 .85.172 1.668.519 2.453.346.784.858 1.525 1.537 2.221l-.556.589zM221 78.5h-3v-.753h1.978v-8.493H218V68.5h3v10zm30 0h-3v-10h3v.754h-1.99v8.493H251v.753zm14.5 0h-3v-10h3v.754h-1.99v8.493h1.99v.753zm14.5 0h-3v-.753h1.978v-8.493H277V68.5h3v10zm22.5 0h-3v-10h3v.754h-1.99v8.493h1.99v.753zm-74 14h-3v-10h3v.754h-1.99v8.493h1.99v.753zm29.5 0h-3v-10h3v.754h-1.99v8.493H258v.753zm7 0h-3v-.753h1.978v-8.493H262V82.5h3v10zm5.056-10.5c1.63 1.566 2.444 3.307 2.444 5.225 0 .396-.039.807-.117 1.232a6.31 6.31 0 0 1-.397 1.307c-.187.445-.44.897-.755 1.355a9.21 9.21 0 0 1-1.195 1.381l-.536-.567c.688-.708 1.203-1.446 1.543-2.216a5.94 5.94 0 0 0 .508-2.42c0-1.746-.684-3.315-2.051-4.708l.556-.589zM295 92.5h-3v-10h3v.754h-1.99v8.493H295v.753zm14.5 0h-3v-.753h1.978v-8.493H306.5V82.5h3v10zm-66.103-79L239.052 24H238l4.345-10.5h1.052zm3.103 0L242.155 24h-1.052l4.345-10.5h1.052zm41.397 0L283.552 24H282.5l4.345-10.5h1.052zm3.103 0L286.655 24h-1.052l4.345-10.5H291zM278.397 0l-4.345 10.5H273L277.345 0h1.052zm3.103 0l-4.345 10.5h-1.052L280.448 0h1.052zm-24.103 27.5L253.052 38H252l4.345-10.5h1.052zm3.103 0L256.155 38h-1.052l4.345-10.5h1.052zm-32.603 0L223.552 38H222.5l4.345-10.5h1.052zm3.103 0L226.655 38h-1.052l4.345-10.5H231zm2.397 40.5l-4.345 10.5H228l4.345-10.5h1.052zm3.103 0l-4.345 10.5h-1.052l4.345-10.5h1.052zm-.786-27.5l-4.6 11H230l4.601-11h1.113zm3.286 0l-4.601 11h-1.113l4.6-11H239zM269 4h2v1.857h-2V4zm0 4.643h2V10.5h-2V8.643zM225.5 59h2v1.857h-2V59zm0 4.643h2V65.5h-2v-1.857zM307 4h2v1.857h-2V4zm0 4.643h2V10.5h-2V8.643zM293 59h2v1.857h-2V59zm0 4.643h2V65.5h-2v-1.857zM234.315 55l-4.28 10.5H229l4.28-10.5h1.035zm3.185 0l-4.28 10.5h-1.035l4.28-10.5h1.035zm27.315-1l-4.28 10.5H259.5l4.28-10.5h1.035zM268 54l-4.28 10.5h-1.035l4.28-10.5H268zm18.815 28.5l-4.28 10.5H281.5l4.28-10.5h1.035zm3.185 0L285.72 93h-1.035l4.28-10.5H290zM301.815 55l-4.28 10.5H296.5l4.28-10.5h1.035zM305 55l-4.28 10.5h-1.035l4.28-10.5H305zm-2.786-14.5l-4.6 11H296.5l4.601-11h1.113zm3.286 0l-4.601 11h-1.113l4.6-11h1.114zm-10.786-13l-4.6 11H289l4.601-11h1.113zm3.286 0l-4.601 11h-1.113l4.6-11H298zm-47.185 55l-4.28 10.5H245.5l4.28-10.5h1.035zm3.185 0L249.72 93h-1.035l4.28-10.5H254z" fill="url(#f)" transform="translate(2 1)"/><path d="M46.5 413.5h3v10h-3v-.752h1.977v-8.495H46.5v-.753zm7.5 0h3v.753h-1.99v8.495H57v.752h-3v-10zm9.944 10c-1.63-1.566-2.444-3.297-2.444-5.192 0-.444.043-.887.13-1.328a6.44 6.44 0 0 1 .418-1.328c.193-.444.447-.888.764-1.331.316-.444.7-.885 1.152-1.321l.536.567c-1.37 1.404-2.056 2.96-2.056 4.67 0 .85.172 1.668.519 2.453.346.784.858 1.525 1.537 2.221l-.556.589zm15.056 0h-3v-10h3v.754h-1.99v8.493H79v.753zm7 0h-3v-.753h1.978v-8.493H83v-.754h3v10zm22.5 0h-3v-.753h1.978v-8.493H105.5v-.754h3v10zm5.056-10.5c1.63 1.566 2.444 3.307 2.444 5.225 0 .396-.039.807-.117 1.232a6.31 6.31 0 0 1-.397 1.307c-.187.445-.44.897-.755 1.355a9.21 9.21 0 0 1-1.195 1.381l-.536-.567c.688-.708 1.203-1.446 1.543-2.216a5.94 5.94 0 0 0 .508-2.42c0-1.746-.684-3.315-2.051-4.708l.556-.589zm9.944 10.5h-3v-10h3v.754h-1.99v8.493h1.99v.753zm-74 13.5h-3v-10h3v.754h-1.99v8.493h1.99V437zm7 0h-3v-.753h1.978v-8.493H53.5V427h3v10zm15.5 0h-3v-10h3v.754h-1.99v8.493H72V437zm7 0h-3v-.753h1.978v-8.493H76V427h3v10zm15 0h-3v-10h3v.754h-1.99v8.493H94V437zm6.353-10l-.154 5.758h-.875l-.17-5.758h1.199zm-.597 6.524a.728.728 0 0 1 .526.218c.066.067.12.146.159.237a.717.717 0 0 1 0 .574.746.746 0 0 1-.98.388.78.78 0 0 1-.239-.157.722.722 0 0 1-.162-.805.77.77 0 0 1 .4-.397.74.74 0 0 1 .296-.058zM116 437h-3v-10h3v.754h-1.99v8.493H116V437zm7 0h-3v-.753h1.978v-8.493H120V427h3v10zm-66.5 14h-3v-.753h1.978v-8.493H53.5V441h3v10zm7.5 0h-3v-.753h1.978v-8.493H61V441h3v10zm21.944 0c-1.63-1.566-2.444-3.297-2.444-5.192 0-.444.043-.887.13-1.328a6.44 6.44 0 0 1 .418-1.328c.193-.444.447-.888.764-1.331.316-.444.7-.885 1.152-1.321l.536.567c-1.37 1.404-2.056 2.96-2.056 4.67 0 .85.172 1.668.519 2.453.346.784.858 1.525 1.537 2.221l-.556.589zm6.909-10.5l-.154 5.758h-.875l-.17-5.758h1.199zm-.597 6.524a.728.728 0 0 1 .526.218c.066.067.12.146.159.237a.717.717 0 0 1 0 .574.746.746 0 0 1-.98.388.78.78 0 0 1-.239-.157.722.722 0 0 1-.162-.805.77.77 0 0 1 .4-.397.74.74 0 0 1 .296-.058zM101.5 451h-3v-10h3v.754h-1.99v8.493h1.99V451zm7 0h-3v-.753h1.978v-8.493H105.5V441h3v10zm15 0h-3v-10h3v.754h-1.99v8.493h1.99V451zm7 0h-3v-.753h1.978v-8.493H127.5V441h3v10zM42 464.5h-3v-.753h1.978v-8.493H39v-.754h3v10zm29.5 0h-3v-.753h1.978v-8.493H68.5v-.754h3v10zm5.056-10.5c1.63 1.566 2.444 3.307 2.444 5.225 0 .396-.039.807-.117 1.232a6.31 6.31 0 0 1-.397 1.307c-.187.445-.44.897-.755 1.355a9.21 9.21 0 0 1-1.195 1.381l-.536-.567c.688-.708 1.203-1.446 1.543-2.216a5.94 5.94 0 0 0 .508-2.42c0-1.746-.684-3.315-2.051-4.708l.556-.589zm9.944 10.5h-3v-10h3v.754h-1.99v8.493h1.99v.753zm29.5 0h-3v-.753h1.978v-8.493H113v-.754h3v10zm13.853-10l-.154 5.758h-.875l-.17-5.758h1.199zm-.597 6.524a.728.728 0 0 1 .526.218c.066.067.12.146.159.237a.717.717 0 0 1 0 .574.746.746 0 0 1-.98.388.78.78 0 0 1-.239-.157.722.722 0 0 1-.162-.805.77.77 0 0 1 .4-.397.74.74 0 0 1 .296-.058zM42.5 478h-3v-10h3v.754h-1.99v8.493h1.99V478zm22 0h-3v-10h3v.754h-1.99v8.493h1.99V478zm7 0h-3v-.753h1.978v-8.493H68.5V468h3v10zm21.853-10l-.154 5.758h-.875l-.17-5.758h1.199zm-.597 6.524a.728.728 0 0 1 .526.218c.066.067.12.146.159.237a.717.717 0 0 1 0 .574.746.746 0 0 1-.98.388.78.78 0 0 1-.239-.157.722.722 0 0 1-.162-.805.77.77 0 0 1 .4-.397.74.74 0 0 1 .296-.058zM101.5 478h-3v-10h3v.754h-1.99v8.493h1.99V478zm28.944.5c-1.63-1.566-2.444-3.297-2.444-5.192 0-.444.043-.887.13-1.328a6.44 6.44 0 0 1 .418-1.328c.193-.444.447-.888.764-1.331.316-.444.7-.885 1.152-1.321l.536.567c-1.37 1.404-2.056 2.96-2.056 4.67 0 .85.172 1.668.519 2.453.346.784.858 1.525 1.537 2.221l-.556.589zM72 491.5h-3v-10h3v.754h-1.99v8.493H72v.753zm7 0h-3v-.753h1.978v-8.493H76v-.754h3v10zm22 0h-3v-.753h1.978v-8.493H98v-.754h3v10zm-51.5 14h-3v-10h3v.754h-1.99v8.493h1.99v.753zm14.5 0h-3v-.753h1.978v-8.493H61v-.754h3v10zm15 0h-3v-10h3v.754h-1.99v8.493H79v.753zm37 0h-3v-10h3v.754h-1.99v8.493H116v.753zm-51.603-79L60.052 437H59l4.345-10.5h1.052zm3.103 0L63.155 437h-1.052l4.345-10.5H67.5zm41.397 0l-4.345 10.5H103.5l4.345-10.5h1.052zm3.103 0l-4.345 10.5h-1.052l4.345-10.5H112zM100.397 454l-4.345 10.5H95l4.345-10.5h1.052zm3.103 0l-4.345 10.5h-1.052l4.345-10.5h1.052zm-54.603-13.5L44.552 451H43.5l4.345-10.5h1.052zm3.103 0L47.655 451h-1.052l4.345-10.5H52zm2.397 40.5l-4.345 10.5H49l4.345-10.5h1.052zm3.103 0l-4.345 10.5h-1.052l4.345-10.5H57.5zm-.786-27.5l-4.6 11H51l4.601-11h1.113zm3.286 0l-4.601 11h-1.113l4.6-11H60zM90 417h2v1.857h-2V417zm0 4.643h2v1.857h-2v-1.857zM39.5 444.5h2v1.857h-2V444.5zm0 4.643h2V451h-2v-1.857zm7 22.857h2v1.857h-2V472zm0 4.643h2v1.857h-2v-1.857zM91 457.5h2v1.857h-2V457.5zm0 4.643h2V464h-2v-1.857zM77 471h2v1.857h-2V471zm0 4.643h2v1.857h-2v-1.857zM114 472h2v1.857h-2V472zm0 4.643h2v1.857h-2v-1.857zM106 485h2v1.857h-2V485zm0 4.643h2v1.857h-2v-1.857zm-7.5 9.857h2v1.857h-2V499.5zm0 4.643h2V506h-2v-1.857zM55.315 468l-4.28 10.5H50l4.28-10.5h1.035zm3.185 0l-4.28 10.5h-1.035l4.28-10.5H58.5zm49.315 27.5l-4.28 10.5H102.5l4.28-10.5h1.035zm3.185 0l-4.28 10.5h-1.035l4.28-10.5H111zm11.815-27.5l-4.28 10.5H117.5l4.28-10.5h1.035zm3.185 0l-4.28 10.5h-1.035l4.28-10.5H126zm-10.286-27.5l-4.6 11H110l4.601-11h1.113zm3.286 0l-4.601 11h-1.113l4.6-11H119zm-47.185 55l-4.28 10.5H66.5l4.28-10.5h1.035zm3.185 0L70.72 506h-1.035l4.28-10.5H75z" fill="url(#f)" transform="matrix(-1 0 0 1 172 1)"/><path d="M240 200h2.89v.829h-1.917v9.343h1.917V211H240v-11zm7 0h2.89v11H247v-.828h1.905v-9.343H247V200zm9 0h2.89v.829h-1.917v9.343h1.917V211H256v-11zm9.702 11c-1.802-1.64-2.702-3.454-2.702-5.439 0-.465.048-.93.143-1.392.096-.463.25-.927.463-1.391.213-.465.494-.93.845-1.394.35-.466.774-.927 1.274-1.384l.592.594c-1.515 1.471-2.274 3.102-2.274 4.892 0 .891.192 1.748.575 2.57.383.822.95 1.598 1.7 2.327l-.616.617zm15.188 0H278v-11h2.89v.83h-1.917v9.341h1.917V211zm7 0H285v-.829h1.906v-9.341H285V200h2.89v11zm23 0H308v-.829h1.906v-9.341H308V200h2.89v11zm5.725-11c1.802 1.64 2.702 3.464 2.702 5.473 0 .415-.043.846-.129 1.292a6.355 6.355 0 0 1-.439 1.368c-.207.467-.486.94-.835 1.42-.35.48-.79.962-1.322 1.447l-.592-.594c.761-.741 1.33-1.515 1.706-2.322a5.946 5.946 0 0 0 .562-2.535c0-1.829-.756-3.473-2.268-4.932l.615-.617zm10.275 11H324v-11h2.89v.83h-1.917v9.341h1.917V211zM292 204h2v2h-2v-2zm0 5h2v2h-2v-2zm9.76-9l-4.638 11H296l4.637-11h1.122zm3.45 0l-4.637 11h-1.122l4.637-11h1.122zm-31.814 0l-.158 8.6h-.904l-.175-8.6h1.237zm-.65 9.522a.71.71 0 0 1 .519.218.798.798 0 0 1 .157.238.727.727 0 0 1 0 .574.748.748 0 0 1-.39.389.72.72 0 0 1-.578 0 .768.768 0 0 1-.235-.157.724.724 0 0 1-.16-.806.759.759 0 0 1 .395-.397.72.72 0 0 1 .292-.06z" fill="url(#g)" transform="translate(2 1)"/><path d="M176 275h2.89v.829h-1.917v9.343h1.917V286H176v-11zm7 0h2.89v11H183v-.828h1.905v-9.343H183V275zm9 0h2.89v.829h-1.917v9.343h1.917V286H192v-11zm9.702 11c-1.802-1.64-2.702-3.454-2.702-5.439 0-.465.048-.93.143-1.392.096-.463.25-.927.463-1.391.213-.465.494-.93.845-1.394.35-.466.774-.927 1.274-1.384l.592.594c-1.515 1.471-2.274 3.102-2.274 4.892 0 .891.192 1.748.575 2.57.383.822.95 1.598 1.7 2.327l-.616.617zm15.188 0H214v-11h2.89v.83h-1.917v9.341h1.917V286zm7 0H221v-.829h1.906v-9.341H221V275h2.89v11zm23 0H244v-.829h1.906v-9.341H244V275h2.89v11zm5.725-11c1.802 1.64 2.702 3.464 2.702 5.473 0 .415-.043.846-.129 1.292a6.355 6.355 0 0 1-.439 1.368c-.207.467-.486.94-.835 1.42-.35.48-.79.962-1.322 1.447l-.592-.594c.761-.741 1.33-1.515 1.706-2.322a5.946 5.946 0 0 0 .562-2.535c0-1.829-.756-3.473-2.268-4.932l.615-.617zM228 279h2v2h-2v-2zm0 5h2v2h-2v-2zm9.76-9l-4.638 11H232l4.637-11h1.122zm3.45 0l-4.637 11h-1.122l4.637-11h1.122zm-31.814 0l-.158 8.6h-.904l-.175-8.6h1.237zm-.65 9.522a.71.71 0 0 1 .519.218.798.798 0 0 1 .157.238.727.727 0 0 1 0 .574.748.748 0 0 1-.39.389.72.72 0 0 1-.578 0 .768.768 0 0 1-.235-.157.724.724 0 0 1-.16-.806.759.759 0 0 1 .395-.397.72.72 0 0 1 .292-.06z" fill="url(#h)" transform="translate(2 1)"/><path d="M89 302h2.89v.829h-1.917v9.343h1.917V313H89v-11zm7 0h2.89v11H96v-.828h1.905v-9.343H96V302zm9 0h2.89v.829h-1.917v9.343h1.917V313H105v-11zm9.702 11c-1.802-1.64-2.702-3.454-2.702-5.439 0-.465.048-.93.143-1.392.096-.463.25-.927.463-1.391.213-.465.494-.93.845-1.394.35-.466.774-.927 1.274-1.384l.592.594c-1.515 1.471-2.274 3.102-2.274 4.892 0 .891.192 1.748.575 2.57.383.822.95 1.598 1.7 2.327l-.616.617zm15.188 0H127v-11h2.89v.83h-1.917v9.341h1.917V313zm7 0H134v-.829h1.906v-9.341H134V302h2.89v11zm23 0H157v-.829h1.906v-9.341H157V302h2.89v11zm5.725-11c1.802 1.64 2.702 3.464 2.702 5.473 0 .415-.043.846-.129 1.292a6.355 6.355 0 0 1-.439 1.368c-.207.467-.486.94-.835 1.42-.35.48-.79.962-1.322 1.447l-.592-.594c.761-.741 1.33-1.515 1.706-2.322a5.946 5.946 0 0 0 .562-2.535c0-1.829-.756-3.473-2.268-4.932l.615-.617zm10.275 11H173v-11h2.89v.83h-1.917v9.341h1.917V313zM141 306h2v2h-2v-2zm0 5h2v2h-2v-2zm9.76-9l-4.638 11H145l4.637-11h1.122zm3.45 0l-4.637 11h-1.122l4.637-11h1.122zm-31.814 0l-.158 8.6h-.904l-.175-8.6h1.237zm-.65 9.522a.71.71 0 0 1 .519.218.798.798 0 0 1 .157.238.727.727 0 0 1 0 .574.748.748 0 0 1-.39.389.72.72 0 0 1-.578 0 .768.768 0 0 1-.235-.157.724.724 0 0 1-.16-.806.759.759 0 0 1 .395-.397.72.72 0 0 1 .292-.06z" fill="url(#g)" transform="translate(2 1)"/><path d="M196 302h2.89v11H196v-.828h1.905v-9.343H196V302zm9 0h2.89v.829h-1.917v9.343h1.917V313H205v-11zm9.702 11c-1.802-1.64-2.702-3.454-2.702-5.439 0-.465.048-.93.143-1.392.096-.463.25-.927.463-1.391.213-.465.494-.93.845-1.394.35-.466.774-.927 1.274-1.384l.592.594c-1.515 1.471-2.274 3.102-2.274 4.892 0 .891.192 1.748.575 2.57.383.822.95 1.598 1.7 2.327l-.616.617zm15.188 0H227v-11h2.89v.83h-1.917v9.341h1.917V313zm7 0H234v-.829h1.906v-9.341H234V302h2.89v11zm28.725-11c1.802 1.64 2.702 3.464 2.702 5.473 0 .415-.043.846-.129 1.292a6.355 6.355 0 0 1-.439 1.368c-.207.467-.486.94-.835 1.42-.35.48-.79.962-1.322 1.447l-.592-.594c.761-.741 1.33-1.515 1.706-2.322a5.946 5.946 0 0 0 .562-2.535c0-1.829-.756-3.473-2.268-4.932l.615-.617zm10.275 11H273v-11h2.89v.83h-1.917v9.341h1.917V313zM241 306h2v2h-2v-2zm0 5h2v2h-2v-2zm9.76-9l-4.638 11H245l4.637-11h1.122zm3.45 0l-4.637 11h-1.122l4.637-11h1.122zm-31.814 0l-.158 8.6h-.904l-.175-8.6h1.237zm-.65 9.522a.71.71 0 0 1 .519.218.798.798 0 0 1 .157.238.727.727 0 0 1 0 .574.748.748 0 0 1-.39.389.72.72 0 0 1-.578 0 .768.768 0 0 1-.235-.157.724.724 0 0 1-.16-.806.759.759 0 0 1 .395-.397.72.72 0 0 1 .292-.06z" fill="url(#i)" transform="translate(2 1)"/><path d="M247.5 318.5h3v10h-3v-.752h1.977v-8.495H247.5v-.753zm7.5 0h3v.753h-1.99v8.495H258v.752h-3v-10zm9.944 10c-1.63-1.566-2.444-3.297-2.444-5.192 0-.444.043-.887.13-1.328a6.44 6.44 0 0 1 .418-1.328c.193-.444.447-.888.764-1.331.316-.444.7-.885 1.152-1.321l.536.567c-1.37 1.404-2.056 2.96-2.056 4.67 0 .85.172 1.668.519 2.453.346.784.858 1.525 1.537 2.221l-.556.589zm6.909-10l-.154 5.758h-.875l-.17-5.758h1.199zm-.597 6.524a.728.728 0 0 1 .526.218c.066.067.12.146.159.237a.717.717 0 0 1 0 .574.746.746 0 0 1-.98.388.78.78 0 0 1-.239-.157.722.722 0 0 1-.162-.805.77.77 0 0 1 .4-.397.74.74 0 0 1 .296-.058zM287 328.5h-3v-.753h1.978v-8.493H284v-.754h3v10zm27.556-10.5c1.63 1.566 2.444 3.307 2.444 5.225 0 .396-.039.807-.117 1.232a6.31 6.31 0 0 1-.397 1.307c-.187.445-.44.897-.755 1.355a9.21 9.21 0 0 1-1.195 1.381l-.536-.567c.688-.708 1.203-1.446 1.543-2.216a5.94 5.94 0 0 0 .508-2.42c0-1.746-.684-3.315-2.051-4.708l.556-.589zm9.944 10.5h-3v-10h3v.754h-1.99v8.493h1.99v.753zM295 342h-3v-10h3v.754h-1.99v8.493H295V342zm22 0h-3v-10h3v.754h-1.99v8.493H317V342zm-23.147 3.5l-.154 5.758h-.875l-.17-5.758h1.199zm-.597 6.524a.728.728 0 0 1 .526.218c.066.067.12.146.159.237a.717.717 0 0 1 0 .574.746.746 0 0 1-.98.388.78.78 0 0 1-.239-.157.722.722 0 0 1-.162-.805.77.77 0 0 1 .4-.397.74.74 0 0 1 .296-.058zM265.5 383h-3v-10h3v.754h-1.99v8.493h1.99V383zM243 396.5h-3v-.753h1.978v-8.493H240v-.754h3v10zm30 0h-3v-10h3v.754h-1.99v8.493H273v.753zm7 0h-3v-.753h1.978v-8.493H277v-.754h3v10zm44.5 0h-3v-10h3v.754h-1.99v8.493h1.99v.753zm-74 14h-3v-10h3v.754h-1.99v8.493h1.99v.753zm14.5 0h-3v-.753h1.978v-8.493H262v-.754h3v10zm15 0h-3v-10h3v.754h-1.99v8.493H280v.753zm12.056-10.5c1.63 1.566 2.444 3.307 2.444 5.225 0 .396-.039.807-.117 1.232a6.31 6.31 0 0 1-.397 1.307c-.187.445-.44.897-.755 1.355a9.21 9.21 0 0 1-1.195 1.381l-.536-.567c.688-.708 1.203-1.446 1.543-2.216a5.94 5.94 0 0 0 .508-2.42c0-1.746-.684-3.315-2.051-4.708l.556-.589zM317 410.5h-3v-10h3v.754h-1.99v8.493H317v.753zm-51.603-79l-4.345 10.5H260l4.345-10.5h1.052zm3.103 0l-4.345 10.5h-1.052l4.345-10.5h1.052zm41.397 0l-4.345 10.5H304.5l4.345-10.5h1.052zm3.103 0l-4.345 10.5h-1.052l4.345-10.5H313zM300.397 318l-4.345 10.5H295l4.345-10.5h1.052zm3.103 0l-4.345 10.5h-1.052l4.345-10.5h1.052zm-2.103 41l-4.345 10.5H296l4.345-10.5h1.052zm3.103 0l-4.345 10.5h-1.052l4.345-10.5h1.052zm-25.103-13.5l-4.345 10.5H274l4.345-10.5h1.052zm3.103 0l-4.345 10.5h-1.052l4.345-10.5h1.052zm-32.603 0l-4.345 10.5H244.5l4.345-10.5h1.052zm3.103 0l-4.345 10.5h-1.052l4.345-10.5H253zm2.397 40.5l-4.345 10.5H250l4.345-10.5h1.052zm3.103 0l-4.345 10.5h-1.052l4.345-10.5h1.052zm57.897 0l-4.345 10.5H311l4.345-10.5h1.052zm3.103 0l-4.345 10.5h-1.052l4.345-10.5h1.052zm-61.786-27.5l-4.6 11H252l4.601-11h1.113zm3.286 0l-4.601 11h-1.113l4.6-11H261zm30-36.5h2v1.857h-2V322zm0 4.643h2v1.857h-2v-1.857zM270 349.5h2v1.857h-2V349.5zm0 4.643h2V356h-2v-1.857zm-29.5-4.643h2v1.857h-2V349.5zm0 4.643h2V356h-2v-1.857zm7 22.857h2v1.857h-2V377zm0 4.643h2v1.857h-2v-1.857zM329 322h2v1.857h-2V322zm0 4.643h2v1.857h-2v-1.857zm0 8.857h2v1.857h-2V335.5zm0 4.643h2V342h-2v-1.857zM292 362.5h2v1.857h-2V362.5zm0 4.643h2V369h-2v-1.857zM315 377h2v1.857h-2V377zm0 4.643h2v1.857h-2v-1.857zM307 390h2v1.857h-2V390zm0 4.643h2v1.857h-2v-1.857zm-7.5 9.857h2v1.857h-2V404.5zm0 4.643h2V411h-2v-1.857zM256.315 373l-4.28 10.5H251l4.28-10.5h1.035zm3.185 0l-4.28 10.5h-1.035l4.28-10.5h1.035zm27.315-1l-4.28 10.5H281.5l4.28-10.5h1.035zm3.185 0l-4.28 10.5h-1.035l4.28-10.5H290zm18.815 28.5l-4.28 10.5H303.5l4.28-10.5h1.035zm3.185 0l-4.28 10.5h-1.035l4.28-10.5H312zm11.815-27.5l-4.28 10.5H318.5l4.28-10.5h1.035zm3.185 0l-4.28 10.5h-1.035l4.28-10.5H327zm-10.286-27.5l-4.6 11H311l4.601-11h1.113zm3.286 0l-4.601 11h-1.113l4.6-11H320zm-47.185 55l-4.28 10.5H267.5l4.28-10.5h1.035zm3.185 0l-4.28 10.5h-1.035l4.28-10.5H276z" fill="url(#j)" transform="translate(2 1)"/><path d="M149 413.5h3v.753h-1.99v8.495H152v.752h-3v-10zm16.853 0l-.154 5.758h-.875l-.17-5.758h1.199zm-.597 6.524a.728.728 0 0 1 .526.218c.066.067.12.146.159.237a.717.717 0 0 1 0 .574.746.746 0 0 1-.98.388.78.78 0 0 1-.239-.157.722.722 0 0 1-.162-.805.77.77 0 0 1 .4-.397.74.74 0 0 1 .296-.058zM203.5 423.5h-3v-.753h1.978v-8.493H200.5v-.754h3v10zm15 0h-3v-10h3v.754h-1.99v8.493h1.99v.753zM167 437h-3v-10h3v.754h-1.99v8.493H167V437zm28.353-10l-.154 5.758h-.875l-.17-5.758h1.199zm-.597 6.524a.728.728 0 0 1 .526.218c.066.067.12.146.159.237a.717.717 0 0 1 0 .574.746.746 0 0 1-.98.388.78.78 0 0 1-.239-.157.722.722 0 0 1-.162-.805.77.77 0 0 1 .4-.397.74.74 0 0 1 .296-.058zM211 437h-3v-10h3v.754h-1.99v8.493H211V437zm-59.5 14h-3v-.753h1.978v-8.493H148.5V441h3v10zm7.5 0h-3v-.753h1.978v-8.493H156V441h3v10zm28.853-10.5l-.154 5.758h-.875l-.17-5.758h1.199zm-.597 6.524a.728.728 0 0 1 .526.218c.066.067.12.146.159.237a.717.717 0 0 1 0 .574.746.746 0 0 1-.98.388.78.78 0 0 1-.239-.157.722.722 0 0 1-.162-.805.77.77 0 0 1 .4-.397.74.74 0 0 1 .296-.058zM203.5 451h-3v-.753h1.978v-8.493H200.5V441h3v10zm15 0h-3v-10h3v.754h-1.99v8.493h1.99V451zm-52 13.5h-3v-.753h1.978v-8.493H163.5v-.754h3v10zm5.056-10.5c1.63 1.566 2.444 3.307 2.444 5.225 0 .396-.039.807-.117 1.232a6.31 6.31 0 0 1-.397 1.307c-.187.445-.44.897-.755 1.355a9.21 9.21 0 0 1-1.195 1.381l-.536-.567c.688-.708 1.203-1.446 1.543-2.216a5.94 5.94 0 0 0 .508-2.42c0-1.746-.684-3.315-2.051-4.708l.556-.589zM211 464.5h-3v-.753h1.978v-8.493H208v-.754h3v10zM137.5 478h-3v-10h3v.754h-1.99v8.493h1.99V478zm29 0h-3v-.753h1.978v-8.493H163.5V468h3v10zm21.853-10l-.154 5.758h-.875l-.17-5.758h1.199zm-.597 6.524a.728.728 0 0 1 .526.218c.066.067.12.146.159.237a.717.717 0 0 1 0 .574.746.746 0 0 1-.98.388.78.78 0 0 1-.239-.157.722.722 0 0 1-.162-.805.77.77 0 0 1 .4-.397.74.74 0 0 1 .296-.058zM203.5 478h-3v-.753h1.978v-8.493H200.5V468h3v10zm21.944.5c-1.63-1.566-2.444-3.297-2.444-5.192 0-.444.043-.887.13-1.328a6.44 6.44 0 0 1 .418-1.328c.193-.444.447-.888.764-1.331.316-.444.7-.885 1.152-1.321l.536.567c-1.37 1.404-2.056 2.96-2.056 4.67 0 .85.172 1.668.519 2.453.346.784.858 1.525 1.537 2.221l-.556.589zm-66.5 13.5c-1.63-1.566-2.444-3.297-2.444-5.192 0-.444.043-.887.13-1.328a6.44 6.44 0 0 1 .418-1.328c.193-.444.447-.888.764-1.331.316-.444.7-.885 1.152-1.321l.536.567c-1.37 1.404-2.056 2.96-2.056 4.67 0 .85.172 1.668.519 2.453.346.784.858 1.525 1.537 2.221l-.556.589zm15.056-.5h-3v-.753h1.978v-8.493H171v-.754h3v10zm22 0h-3v-.753h1.978v-8.493H193v-.754h3v10zm-51.5 14h-3v-10h3v.754h-1.99v8.493h1.99v.753zm14.5 0h-3v-.753h1.978v-8.493H156v-.754h3v10zm15 0h-3v-10h3v.754h-1.99v8.493H174v.753zm12.056-10.5c1.63 1.566 2.444 3.307 2.444 5.225 0 .396-.039.807-.117 1.232a6.31 6.31 0 0 1-.397 1.307c-.187.445-.44.897-.755 1.355a9.21 9.21 0 0 1-1.195 1.381l-.536-.567c.688-.708 1.203-1.446 1.543-2.216a5.94 5.94 0 0 0 .508-2.42c0-1.746-.684-3.315-2.051-4.708l.556-.589zm39.444 10.5h-3v-.753h1.978v-8.493H222.5v-.754h3v10zm-66.103-79l-4.345 10.5H154l4.345-10.5h1.052zm3.103 0l-4.345 10.5h-1.052l4.345-10.5h1.052zm41.397 0l-4.345 10.5H198.5l4.345-10.5h1.052zm3.103 0l-4.345 10.5h-1.052l4.345-10.5H207zM194.397 413l-4.345 10.5H189l4.345-10.5h1.052zm3.103 0l-4.345 10.5h-1.052l4.345-10.5h1.052zm-24.103 27.5l-4.345 10.5H168l4.345-10.5h1.052zm3.103 0l-4.345 10.5h-1.052l4.345-10.5h1.052zm-32.603 0l-4.345 10.5H138.5l4.345-10.5h1.052zm3.103 0l-4.345 10.5h-1.052l4.345-10.5H147zm2.397 40.5l-4.345 10.5H144l4.345-10.5h1.052zm3.103 0l-4.345 10.5h-1.052l4.345-10.5h1.052zm-.786-27.5l-4.6 11H146l4.601-11h1.113zm3.286 0l-4.601 11h-1.113l4.6-11H155zm30-36.5h2v1.857h-2V417zm0 4.643h2v1.857h-2v-1.857zM164 444.5h2v1.857h-2V444.5zm0 4.643h2V451h-2v-1.857zm-29.5-4.643h2v1.857h-2V444.5zm0 4.643h2V451h-2v-1.857zM223 417h2v1.857h-2V417zm0 4.643h2v1.857h-2v-1.857zm0 8.857h2v1.857h-2V430.5zm0 4.643h2V437h-2v-1.857zM186 457.5h2v1.857h-2V457.5zm0 4.643h2V464h-2v-1.857zM172 471h2v1.857h-2V471zm0 4.643h2v1.857h-2v-1.857zM201 485h2v1.857h-2V485zm0 4.643h2v1.857h-2v-1.857zm-7.5 9.857h2v1.857h-2V499.5zm0 4.643h2V506h-2v-1.857zM150.315 468l-4.28 10.5H145l4.28-10.5h1.035zm3.185 0l-4.28 10.5h-1.035l4.28-10.5h1.035zm27.315-1l-4.28 10.5H175.5l4.28-10.5h1.035zm3.185 0l-4.28 10.5h-1.035l4.28-10.5H184zm33.815 1l-4.28 10.5H212.5l4.28-10.5h1.035zm3.185 0l-4.28 10.5h-1.035l4.28-10.5H221zm-2.786-14.5l-4.6 11H212.5l4.601-11h1.113zm3.286 0l-4.601 11h-1.113l4.6-11h1.114zm-10.786-13l-4.6 11H205l4.601-11h1.113zm3.286 0l-4.601 11h-1.113l4.6-11H214zm-47.185 55l-4.28 10.5H161.5l4.28-10.5h1.035zm3.185 0l-4.28 10.5h-1.035l4.28-10.5H170zM397.5.5h3v.753h-1.99v8.495h1.99v.752h-3V.5zm7 0h3v10h-3v-.752h1.977V1.253H404.5V.5zm7.5 0h3v.753h-1.99v8.495H415v.752h-3V.5zm16.853 0l-.154 5.758h-.875L427.654.5h1.199zm-.597 6.524a.728.728 0 0 1 .526.218c.066.067.12.146.159.237a.717.717 0 0 1 0 .574.746.746 0 0 1-.98.388.78.78 0 0 1-.239-.157.722.722 0 0 1-.162-.805.77.77 0 0 1 .4-.397.74.74 0 0 1 .296-.058zM444 10.5h-3v-.753h1.978V1.254H441V.5h3v10zm22.5 0h-3v-.753h1.978V1.254H463.5V.5h3v10zM471.556 0C473.186 1.566 474 3.307 474 5.225c0 .396-.039.807-.117 1.232a6.31 6.31 0 0 1-.397 1.307c-.187.445-.44.897-.755 1.355a9.21 9.21 0 0 1-1.195 1.381L471 9.933c.688-.708 1.203-1.446 1.543-2.216a5.94 5.94 0 0 0 .508-2.42c0-1.746-.684-3.315-2.051-4.708l.556-.589zM407.5 24h-3V14h3v.754h-1.99v8.493h1.99V24zm7 0h-3v-.753h1.978v-8.493H411.5V14h3v10zm22.5 0h-3v-.753h1.978v-8.493H434V14h3v10zm21.353-10l-.154 5.758h-.875l-.17-5.758h1.199zm-.597 6.524a.728.728 0 0 1 .526.218c.066.067.12.146.159.237a.717.717 0 0 1 0 .574.746.746 0 0 1-.98.388.78.78 0 0 1-.239-.157.722.722 0 0 1-.162-.805.77.77 0 0 1 .4-.397.74.74 0 0 1 .296-.058zM474 24h-3V14h3v.754h-1.99v8.493H474V24zm-52 14h-3v-.753h1.978v-8.493H419V28h3v10zm21.944 0c-1.63-1.566-2.444-3.297-2.444-5.192 0-.444.043-.887.13-1.328a6.44 6.44 0 0 1 .418-1.328c.193-.444.447-.888.764-1.331.316-.444.7-.885 1.152-1.321l.536.567c-1.37 1.404-2.056 2.96-2.056 4.67 0 .85.172 1.668.519 2.453.346.784.858 1.525 1.537 2.221l-.556.589zm22.556 0h-3v-.753h1.978v-8.493H463.5V28h3v10zm22 0h-3v-.753h1.978v-8.493H485.5V28h3v10zM400 51.5h-3v-.753h1.978v-8.493H397V41.5h3v10zM434.556 41c1.63 1.566 2.444 3.307 2.444 5.225 0 .396-.039.807-.117 1.232a6.31 6.31 0 0 1-.397 1.307c-.187.445-.44.897-.755 1.355a9.21 9.21 0 0 1-1.195 1.381l-.536-.567c.688-.708 1.203-1.446 1.543-2.216a5.94 5.94 0 0 0 .508-2.42c0-1.746-.684-3.315-2.051-4.708l.556-.589zm53.297.5l-.154 5.758h-.875l-.17-5.758h1.199zm-.597 6.524a.728.728 0 0 1 .526.218c.066.067.12.146.159.237a.717.717 0 0 1 0 .574.746.746 0 0 1-.98.388.78.78 0 0 1-.239-.157.722.722 0 0 1-.162-.805.77.77 0 0 1 .4-.397.74.74 0 0 1 .296-.058zM400.5 65h-3V55h3v.754h-1.99v8.493h1.99V65zm29 0h-3v-.753h1.978v-8.493H426.5V55h3v10zm21.853-10l-.154 5.758h-.875l-.17-5.758h1.199zm-.597 6.524a.728.728 0 0 1 .526.218c.066.067.12.146.159.237a.717.717 0 0 1 0 .574.746.746 0 0 1-.98.388.78.78 0 0 1-.239-.157.722.722 0 0 1-.162-.805.77.77 0 0 1 .4-.397.74.74 0 0 1 .296-.058zM459.5 65h-3V55h3v.754h-1.99v8.493h1.99V65zM430 78.5h-3v-10h3v.754h-1.99v8.493H430v.753zm7 0h-3v-.753h1.978v-8.493H434V68.5h3v10zm44.5 0h-3v-10h3v.754h-1.99v8.493h1.99v.753zm-59.5 14h-3v-.753h1.978v-8.493H419V82.5h3v10zm15 0h-3v-10h3v.754h-1.99v8.493H437v.753zM449.056 82c1.63 1.566 2.444 3.307 2.444 5.225 0 .396-.039.807-.117 1.232a6.31 6.31 0 0 1-.397 1.307c-.187.445-.44.897-.755 1.355a9.21 9.21 0 0 1-1.195 1.381l-.536-.567c.688-.708 1.203-1.446 1.543-2.216a5.94 5.94 0 0 0 .508-2.42c0-1.746-.684-3.315-2.051-4.708l.556-.589zM474 92.5h-3v-10h3v.754h-1.99v8.493H474v.753zm-51.603-79L418.052 24H417l4.345-10.5h1.052zm3.103 0L421.155 24h-1.052l4.345-10.5h1.052zm41.397 0L462.552 24H461.5l4.345-10.5h1.052zm3.103 0L465.655 24h-1.052l4.345-10.5H470zM457.397 0l-4.345 10.5H452L456.345 0h1.052zm3.103 0l-4.345 10.5h-1.052L459.448 0h1.052zm-2.103 41l-4.345 10.5H453l4.345-10.5h1.052zm3.103 0l-4.345 10.5h-1.052l4.345-10.5h1.052zm-25.103-13.5L432.052 38H431l4.345-10.5h1.052zm3.103 0L435.155 38h-1.052l4.345-10.5h1.052zM412.397 68l-4.345 10.5H407l4.345-10.5h1.052zm3.103 0l-4.345 10.5h-1.052l4.345-10.5h1.052zm57.897 0l-4.345 10.5H468l4.345-10.5h1.052zm3.103 0l-4.345 10.5h-1.052l4.345-10.5h1.052zm-61.786-27.5l-4.6 11H409l4.601-11h1.113zm3.286 0l-4.601 11h-1.113l4.6-11H418zM448 4h2v1.857h-2V4zm0 4.643h2V10.5h-2V8.643zM427 31.5h2v1.857h-2V31.5zm0 4.643h2V38h-2v-1.857zM397.5 31.5h2v1.857h-2V31.5zm0 4.643h2V38h-2v-1.857zM486 4h2v1.857h-2V4zm0 4.643h2V10.5h-2V8.643zm0 8.857h2v1.857h-2V17.5zm0 4.643h2V24h-2v-1.857zM449 44.5h2v1.857h-2V44.5zm0 4.643h2V51h-2v-1.857zM472 59h2v1.857h-2V59zm0 4.643h2V65.5h-2v-1.857zM456.5 86.5h2v1.857h-2V86.5zm0 4.643h2V93h-2v-1.857zM443.815 54l-4.28 10.5H438.5l4.28-10.5h1.035zM447 54l-4.28 10.5h-1.035l4.28-10.5H447zm18.815 28.5l-4.28 10.5H460.5l4.28-10.5h1.035zm3.185 0L464.72 93h-1.035l4.28-10.5H469zM480.815 55l-4.28 10.5H475.5l4.28-10.5h1.035zM484 55l-4.28 10.5h-1.035l4.28-10.5H484zm-10.286-27.5l-4.6 11H468l4.601-11h1.113zm3.286 0l-4.601 11h-1.113l4.6-11H477zm-47.185 55l-4.28 10.5H424.5l4.28-10.5h1.035zm3.185 0L428.72 93h-1.035l4.28-10.5H433z" fill="url(#e)" transform="translate(2 1)"/><path d="M310.5.5h3v.753h-1.99v8.495h1.99v.752h-3V.5zm7 0h3v10h-3v-.752h1.977V1.253H317.5V.5zm7.5 0h3v.753h-1.99v8.495H328v.752h-3V.5zm16.853 0l-.154 5.758h-.875L340.654.5h1.199zm-.597 6.524a.728.728 0 0 1 .526.218c.066.067.12.146.159.237a.717.717 0 0 1 0 .574.746.746 0 0 1-.98.388.78.78 0 0 1-.239-.157.722.722 0 0 1-.162-.805.77.77 0 0 1 .4-.397.74.74 0 0 1 .296-.058zM357 10.5h-3v-.753h1.978V1.254H354V.5h3v10zm22.5 0h-3v-.753h1.978V1.254H376.5V.5h3v10zM384.556 0C386.186 1.566 387 3.307 387 5.225c0 .396-.039.807-.117 1.232a6.31 6.31 0 0 1-.397 1.307c-.187.445-.44.897-.755 1.355a9.21 9.21 0 0 1-1.195 1.381L384 9.933c.688-.708 1.203-1.446 1.543-2.216a5.94 5.94 0 0 0 .508-2.42c0-1.746-.684-3.315-2.051-4.708l.556-.589zM320.5 24h-3V14h3v.754h-1.99v8.493h1.99V24zm7 0h-3v-.753h1.978v-8.493H324.5V14h3v10zm22.5 0h-3v-.753h1.978v-8.493H347V14h3v10zm21.353-10l-.154 5.758h-.875l-.17-5.758h1.199zm-.597 6.524a.728.728 0 0 1 .526.218c.066.067.12.146.159.237a.717.717 0 0 1 0 .574.746.746 0 0 1-.98.388.78.78 0 0 1-.239-.157.722.722 0 0 1-.162-.805.77.77 0 0 1 .4-.397.74.74 0 0 1 .296-.058zM387 24h-3V14h3v.754h-1.99v8.493H387V24zm-52 14h-3v-.753h1.978v-8.493H332V28h3v10zm44.5 0h-3v-.753h1.978v-8.493H376.5V28h3v10zm22 0h-3v-.753h1.978v-8.493H398.5V28h3v10zM313 51.5h-3v-.753h1.978v-8.493H310V41.5h3v10zM347.556 41c1.63 1.566 2.444 3.307 2.444 5.225 0 .396-.039.807-.117 1.232a6.31 6.31 0 0 1-.397 1.307c-.187.445-.44.897-.755 1.355a9.21 9.21 0 0 1-1.195 1.381l-.536-.567c.688-.708 1.203-1.446 1.543-2.216a5.94 5.94 0 0 0 .508-2.42c0-1.746-.684-3.315-2.051-4.708l.556-.589zm53.297.5l-.154 5.758h-.875l-.17-5.758h1.199zm-.597 6.524a.728.728 0 0 1 .526.218c.066.067.12.146.159.237a.717.717 0 0 1 0 .574.746.746 0 0 1-.98.388.78.78 0 0 1-.239-.157.722.722 0 0 1-.162-.805.77.77 0 0 1 .4-.397.74.74 0 0 1 .296-.058zM313.5 65h-3V55h3v.754h-1.99v8.493h1.99V65zM343 78.5h-3v-10h3v.754h-1.99v8.493H343v.753zm51.5 0h-3v-10h3v.754h-1.99v8.493h1.99v.753zm-59.5 14h-3v-.753h1.978v-8.493H332V82.5h3v10zM362.056 82c1.63 1.566 2.444 3.307 2.444 5.225 0 .396-.039.807-.117 1.232a6.31 6.31 0 0 1-.397 1.307c-.187.445-.44.897-.755 1.355a9.21 9.21 0 0 1-1.195 1.381l-.536-.567c.688-.708 1.203-1.446 1.543-2.216a5.94 5.94 0 0 0 .508-2.42c0-1.746-.684-3.315-2.051-4.708l.556-.589zM387 92.5h-3v-10h3v.754h-1.99v8.493H387v.753zm-7.103-79L375.552 24H374.5l4.345-10.5h1.052zm3.103 0L378.655 24h-1.052l4.345-10.5H383zM371.397 41l-4.345 10.5H366l4.345-10.5h1.052zm3.103 0l-4.345 10.5h-1.052l4.345-10.5h1.052zm-25.103-13.5L345.052 38H344l4.345-10.5h1.052zm3.103 0L348.155 38h-1.052l4.345-10.5h1.052zM325.397 68l-4.345 10.5H320l4.345-10.5h1.052zm3.103 0l-4.345 10.5h-1.052l4.345-10.5h1.052zm57.897 0l-4.345 10.5H381l4.345-10.5h1.052zm3.103 0l-4.345 10.5h-1.052l4.345-10.5h1.052zM361 4h2v1.857h-2V4zm0 4.643h2V10.5h-2V8.643zM340 31.5h2v1.857h-2V31.5zm0 4.643h2V38h-2v-1.857zM310.5 31.5h2v1.857h-2V31.5zm0 4.643h2V38h-2v-1.857zM399 4h2v1.857h-2V4zm0 4.643h2V10.5h-2V8.643zm0 8.857h2v1.857h-2V17.5zm0 4.643h2V24h-2v-1.857zM362 44.5h2v1.857h-2V44.5zm0 4.643h2V51h-2v-1.857zM385 59h2v1.857h-2V59zm0 4.643h2V65.5h-2v-1.857zM369.5 86.5h2v1.857h-2V86.5zm0 4.643h2V93h-2v-1.857zM356.815 54l-4.28 10.5H351.5l4.28-10.5h1.035zM360 54l-4.28 10.5h-1.035l4.28-10.5H360zm18.815 28.5l-4.28 10.5H373.5l4.28-10.5h1.035zm3.185 0L377.72 93h-1.035l4.28-10.5H382zm4.714-55l-4.6 11H381l4.601-11h1.113zm3.286 0l-4.601 11h-1.113l4.6-11H390zm-47.185 55l-4.28 10.5H337.5l4.28-10.5h1.035zm3.185 0L341.72 93h-1.035l4.28-10.5H346z" fill="url(#e)" transform="translate(2 1)"/><path d="M251 262h2.89v.829h-1.917v9.343h1.917V273H251v-11zm7 0h2.89v11H258v-.828h1.905v-9.343H258V262zm9 0h2.89v.829h-1.917v9.343h1.917V273H267v-11zm9.702 11c-1.802-1.64-2.702-3.454-2.702-5.439 0-.465.048-.93.143-1.392.096-.463.25-.927.463-1.391.213-.465.494-.93.845-1.394.35-.466.774-.927 1.274-1.384l.592.594c-1.515 1.471-2.274 3.102-2.274 4.892 0 .891.192 1.748.575 2.57.383.822.95 1.598 1.7 2.327l-.616.617zm15.188 0H289v-11h2.89v.83h-1.917v9.341h1.917V273zm7 0H296v-.829h1.906v-9.341H296V262h2.89v11zm23 0H319v-.829h1.906v-9.341H319V262h2.89v11zm5.725-11c1.802 1.64 2.702 3.464 2.702 5.473 0 .415-.043.846-.129 1.292a6.355 6.355 0 0 1-.439 1.368c-.207.467-.486.94-.835 1.42-.35.48-.79.962-1.322 1.447l-.592-.594c.761-.741 1.33-1.515 1.706-2.322a5.946 5.946 0 0 0 .562-2.535c0-1.829-.756-3.473-2.268-4.932l.615-.617zm10.275 11H335v-11h2.89v.83h-1.917v9.341h1.917V273zM303 266h2v2h-2v-2zm0 5h2v2h-2v-2zm9.76-9l-4.638 11H307l4.637-11h1.122zm3.45 0l-4.637 11h-1.122l4.637-11h1.122zm-31.814 0l-.158 8.6h-.904l-.175-8.6h1.237zm-.65 9.522a.71.71 0 0 1 .519.218.798.798 0 0 1 .157.238.727.727 0 0 1 0 .574.748.748 0 0 1-.39.389.72.72 0 0 1-.578 0 .768.768 0 0 1-.235-.157.724.724 0 0 1-.16-.806.759.759 0 0 1 .395-.397.72.72 0 0 1 .292-.06zM315 215h2.89v.829h-1.917v9.343h1.917V226H315v-11zm7 0h2.89v11H322v-.828h1.905v-9.343H322V215zm9 0h2.89v.829h-1.917v9.343h1.917V226H331v-11zm9.702 11c-1.802-1.64-2.702-3.454-2.702-5.439 0-.465.048-.93.143-1.392.096-.463.25-.927.463-1.391.213-.465.494-.93.845-1.394.35-.466.774-.927 1.274-1.384l.592.594c-1.515 1.471-2.274 3.102-2.274 4.892 0 .891.192 1.748.575 2.57.383.822.95 1.598 1.7 2.327l-.616.617zm15.188 0H353v-11h2.89v.83h-1.917v9.341h1.917V226zm7 0H360v-.829h1.906v-9.341H360V215h2.89v11zm23 0H383v-.829h1.906v-9.341H383V215h2.89v11zm5.725-11c1.802 1.64 2.702 3.464 2.702 5.473 0 .415-.043.846-.129 1.292a6.355 6.355 0 0 1-.439 1.368c-.207.467-.486.94-.835 1.42-.35.48-.79.962-1.322 1.447l-.592-.594c.761-.741 1.33-1.515 1.706-2.322a5.946 5.946 0 0 0 .562-2.535c0-1.829-.756-3.473-2.268-4.932l.615-.617zm10.275 11H399v-11h2.89v.83h-1.917v9.341h1.917V226zM367 219h2v2h-2v-2zm0 5h2v2h-2v-2zm9.76-9l-4.638 11H371l4.637-11h1.122zm3.45 0l-4.637 11h-1.122l4.637-11h1.122zm-31.814 0l-.158 8.6h-.904l-.175-8.6h1.237zm-.65 9.522a.71.71 0 0 1 .519.218.798.798 0 0 1 .157.238.727.727 0 0 1 0 .574.748.748 0 0 1-.39.389.72.72 0 0 1-.578 0 .768.768 0 0 1-.235-.157.724.724 0 0 1-.16-.806.759.759 0 0 1 .395-.397.72.72 0 0 1 .292-.06zM81 400h2.89v.829h-1.917v9.343h1.917V411H81v-11zm7 0h2.89v11H88v-.828h1.905v-9.343H88V400zm9 0h2.89v.829h-1.917v9.343h1.917V411H97v-11zm9.702 11c-1.802-1.64-2.702-3.454-2.702-5.439 0-.465.048-.93.143-1.392.096-.463.25-.927.463-1.391.213-.465.494-.93.845-1.394.35-.466.774-.927 1.274-1.384l.592.594c-1.515 1.471-2.274 3.102-2.274 4.892 0 .891.192 1.748.575 2.57.383.822.95 1.598 1.7 2.327l-.616.617zm15.188 0H119v-11h2.89v.83h-1.917v9.341h1.917V411zm7 0H126v-.829h1.906v-9.341H126V400h2.89v11zm23 0H149v-.829h1.906v-9.341H149V400h2.89v11zm5.725-11c1.802 1.64 2.702 3.464 2.702 5.473 0 .415-.043.846-.129 1.292a6.355 6.355 0 0 1-.439 1.368c-.207.467-.486.94-.835 1.42-.35.48-.79.962-1.322 1.447l-.592-.594c.761-.741 1.33-1.515 1.706-2.322a5.946 5.946 0 0 0 .562-2.535c0-1.829-.756-3.473-2.268-4.932l.615-.617zm10.275 11H165v-11h2.89v.83h-1.917v9.341h1.917V411zM133 404h2v2h-2v-2zm0 5h2v2h-2v-2zm9.76-9l-4.638 11H137l4.637-11h1.122zm3.45 0l-4.637 11h-1.122l4.637-11h1.122zm-31.814 0l-.158 8.6h-.904l-.175-8.6h1.237zm-.65 9.522a.71.71 0 0 1 .519.218.798.798 0 0 1 .157.238.727.727 0 0 1 0 .574.748.748 0 0 1-.39.389.72.72 0 0 1-.578 0 .768.768 0 0 1-.235-.157.724.724 0 0 1-.16-.806.759.759 0 0 1 .395-.397.72.72 0 0 1 .292-.06z" fill="url(#g)" transform="translate(2 1)"/><path d="M226.5 413.5h3v.753h-1.99v8.495h1.99v.752h-3v-10zm7 0h3v10h-3v-.752h1.977v-8.495H233.5v-.753zm17.444 10c-1.63-1.566-2.444-3.297-2.444-5.192 0-.444.043-.887.13-1.328a6.44 6.44 0 0 1 .418-1.328c.193-.444.447-.888.764-1.331.316-.444.7-.885 1.152-1.321l.536.567c-1.37 1.404-2.056 2.96-2.056 4.67 0 .85.172 1.668.519 2.453.346.784.858 1.525 1.537 2.221l-.556.589zm6.909-10l-.154 5.758h-.875l-.17-5.758h1.199zm-.597 6.524a.728.728 0 0 1 .526.218c.066.067.12.146.159.237a.717.717 0 0 1 0 .574.746.746 0 0 1-.98.388.78.78 0 0 1-.239-.157.722.722 0 0 1-.162-.805.77.77 0 0 1 .4-.397.74.74 0 0 1 .296-.058zM273 423.5h-3v-.753h1.978v-8.493H270v-.754h3v10zm22.5 0h-3v-.753h1.978v-8.493H292.5v-.754h3v10zm5.056-10.5c1.63 1.566 2.444 3.307 2.444 5.225 0 .396-.039.807-.117 1.232a6.31 6.31 0 0 1-.397 1.307c-.187.445-.44.897-.755 1.355a9.21 9.21 0 0 1-1.195 1.381l-.536-.567c.688-.708 1.203-1.446 1.543-2.216a5.94 5.94 0 0 0 .508-2.42c0-1.746-.684-3.315-2.051-4.708l.556-.589zM236.5 437h-3v-10h3v.754h-1.99v8.493h1.99V437zm7 0h-3v-.753h1.978v-8.493H240.5V427h3v10zm22.5 0h-3v-.753h1.978v-8.493H263V427h3v10zm15 0h-3v-10h3v.754h-1.99v8.493H281V437zm6.353-10l-.154 5.758h-.875l-.17-5.758h1.199zm-.597 6.524a.728.728 0 0 1 .526.218c.066.067.12.146.159.237a.717.717 0 0 1 0 .574.746.746 0 0 1-.98.388.78.78 0 0 1-.239-.157.722.722 0 0 1-.162-.805.77.77 0 0 1 .4-.397.74.74 0 0 1 .296-.058zM303 437h-3v-10h3v.754h-1.99v8.493H303V437zm7 0h-3v-.753h1.978v-8.493H307V427h3v10zm-66.5 14h-3v-.753h1.978v-8.493H240.5V441h3v10zm7.5 0h-3v-.753h1.978v-8.493H248V441h3v10zm21.944 0c-1.63-1.566-2.444-3.297-2.444-5.192 0-.444.043-.887.13-1.328a6.44 6.44 0 0 1 .418-1.328c.193-.444.447-.888.764-1.331.316-.444.7-.885 1.152-1.321l.536.567c-1.37 1.404-2.056 2.96-2.056 4.67 0 .85.172 1.668.519 2.453.346.784.858 1.525 1.537 2.221l-.556.589zm6.909-10.5l-.154 5.758h-.875l-.17-5.758h1.199zm-.597 6.524a.728.728 0 0 1 .526.218c.066.067.12.146.159.237a.717.717 0 0 1 0 .574.746.746 0 0 1-.98.388.78.78 0 0 1-.239-.157.722.722 0 0 1-.162-.805.77.77 0 0 1 .4-.397.74.74 0 0 1 .296-.058zm-15.7 6.976c1.63 1.566 2.444 3.307 2.444 5.225 0 .396-.039.807-.117 1.232a6.31 6.31 0 0 1-.397 1.307c-.187.445-.44.897-.755 1.355a9.21 9.21 0 0 1-1.195 1.381l-.536-.567c.688-.708 1.203-1.446 1.543-2.216a5.94 5.94 0 0 0 .508-2.42c0-1.746-.684-3.315-2.051-4.708l.556-.589zm9.944 10.5h-3v-10h3v.754h-1.99v8.493h1.99v.753zm29.5 0h-3v-.753h1.978v-8.493H300v-.754h3v10zm13.853-10l-.154 5.758h-.875l-.17-5.758h1.199zm-.597 6.524a.728.728 0 0 1 .526.218c.066.067.12.146.159.237a.717.717 0 0 1 0 .574.746.746 0 0 1-.98.388.78.78 0 0 1-.239-.157.722.722 0 0 1-.162-.805.77.77 0 0 1 .4-.397.74.74 0 0 1 .296-.058zM229.5 478h-3v-10h3v.754h-1.99v8.493h1.99V478zm22 0h-3v-10h3v.754h-1.99v8.493h1.99V478zm7 0h-3v-.753h1.978v-8.493H255.5V468h3v10zm21.853-10l-.154 5.758h-.875l-.17-5.758h1.199zm-.597 6.524a.728.728 0 0 1 .526.218c.066.067.12.146.159.237a.717.717 0 0 1 0 .574.746.746 0 0 1-.98.388.78.78 0 0 1-.239-.157.722.722 0 0 1-.162-.805.77.77 0 0 1 .4-.397.74.74 0 0 1 .296-.058zM288.5 478h-3v-10h3v.754h-1.99v8.493h1.99V478zM229 491.5h-3v-.753h1.978v-8.493H226v-.754h3v10zm21.944.5c-1.63-1.566-2.444-3.297-2.444-5.192 0-.444.043-.887.13-1.328a6.44 6.44 0 0 1 .418-1.328c.193-.444.447-.888.764-1.331.316-.444.7-.885 1.152-1.321l.536.567c-1.37 1.404-2.056 2.96-2.056 4.67 0 .85.172 1.668.519 2.453.346.784.858 1.525 1.537 2.221l-.556.589zm8.056-.5h-3v-10h3v.754h-1.99v8.493H259v.753zm-22.5 14h-3v-10h3v.754h-1.99v8.493h1.99v.753zm7 0h-3v-.753h1.978v-8.493H240.5v-.754h3v10zm22.5 0h-3v-10h3v.754h-1.99v8.493H266v.753zm-14.603-79l-4.345 10.5H246l4.345-10.5h1.052zm3.103 0l-4.345 10.5h-1.052l4.345-10.5h1.052zm41.397 0l-4.345 10.5H290.5l4.345-10.5h1.052zm3.103 0l-4.345 10.5h-1.052l4.345-10.5H299zM286.397 413l-4.345 10.5H281l4.345-10.5h1.052zm3.103 0l-4.345 10.5h-1.052l4.345-10.5h1.052zm-2.103 41l-4.345 10.5H282l4.345-10.5h1.052zm3.103 0l-4.345 10.5h-1.052l4.345-10.5h1.052zm-25.103-13.5l-4.345 10.5H260l4.345-10.5h1.052zm3.103 0l-4.345 10.5h-1.052l4.345-10.5h1.052zm-32.603 0l-4.345 10.5H230.5l4.345-10.5h1.052zm3.103 0l-4.345 10.5h-1.052l4.345-10.5H239zm2.397 40.5l-4.345 10.5H236l4.345-10.5h1.052zm3.103 0l-4.345 10.5h-1.052l4.345-10.5h1.052zm-.786-27.5l-4.6 11H238l4.601-11h1.113zm3.286 0l-4.601 11h-1.113l4.6-11H247zm30-36.5h2v1.857h-2V417zm0 4.643h2v1.857h-2v-1.857zM256 444.5h2v1.857h-2V444.5zm0 4.643h2V451h-2v-1.857zm-29.5-4.643h2v1.857h-2V444.5zm0 4.643h2V451h-2v-1.857zm7 22.857h2v1.857h-2V472zm0 4.643h2v1.857h-2v-1.857zM315 417h2v1.857h-2V417zm0 4.643h2v1.857h-2v-1.857zm0 8.857h2v1.857h-2V430.5zm0 4.643h2V437h-2v-1.857zM278 457.5h2v1.857h-2V457.5zm0 4.643h2V464h-2v-1.857zM264 471h2v1.857h-2V471zm0 4.643h2v1.857h-2v-1.857zM301 472h2v1.857h-2V472zm0 4.643h2v1.857h-2v-1.857zM285.5 499.5h2v1.857h-2V499.5zm0 4.643h2V506h-2v-1.857zM242.315 468l-4.28 10.5H237l4.28-10.5h1.035zm3.185 0l-4.28 10.5h-1.035l4.28-10.5h1.035z" fill="url(#j)" transform="translate(2 1)"/></g></g></svg>
