<svg width="1424" height="447" viewBox="0 0 1424 447" xmlns="http://www.w3.org/2000/svg"><g fill-rule="nonzero" fill="none"><path fill="#FF590C" style="mix-blend-mode:screen" d="M788.03 52.1h32.91v6.84h-32.91z"/><path fill="#000" style="mix-blend-mode:screen" d="M1255.37 81.04h2.89v7.92h-2.89z"/><path fill="#00148F" opacity=".1" style="mix-blend-mode:screen" d="M796.24 8.56h453.26v43H796.24z"/><path fill="#FF590C" style="mix-blend-mode:screen" d="M1268.03 52.1h32.91v6.84h-32.91z"/><path fill="#202340" opacity=".1" style="mix-blend-mode:screen" d="M1087.24 38.22h208.84v20h-208.84z"/><path fill="#008EE3" style="mix-blend-mode:screen" d="M1186.77 59.95h31.17v7.11h-31.17z"/><path fill="#2EB1FF" style="mix-blend-mode:screen" d="M1192.46 55.78h71.42v2.71h-71.42z"/><path fill="#45278D" opacity=".296" style="mix-blend-mode:screen" d="M1258 19h158v17h-158z"/><path fill="#FF5100" style="mix-blend-mode:screen" d="M788.76 91.6h72.4v4.59h-72.4z"/><path d="M821.61 98.61h16.13v.7h-16.13v-.7zm18.48 2.34h-16.11v.71h16.11v-.71zm-13.76 2.38h16.11v.71h-16.11v-.71z" fill="#AA1614" style="mix-blend-mode:screen"/><path fill="#13F" opacity=".1" style="mix-blend-mode:screen" d="M857 21h79.22v157.8H857z"/><path fill="#000" style="mix-blend-mode:screen" d="M877.74 291.03h66.08v7.63h-66.08z"/><path fill="#001FDB" opacity=".1" style="mix-blend-mode:screen" d="M834 92h419.37v107H834z"/><path d="M777.06 228.19h42.45v-.85h-42.45v.85zm48.65-2.84h-42.45v-.85h42.45v.85zm-36.26-2.84h42.45v-.85h-42.45v.85z" fill="#180707" style="mix-blend-mode:screen"/><path fill="#000526" opacity=".593" style="mix-blend-mode:screen" d="M0 126h208.84v189.83H0z"/><path fill="#FF5100" style="mix-blend-mode:screen" d="M914.59 120.7h31.17v7.11h-31.17z"/><path d="M904.2 225.49h40.21v.88H904.2v-.88zm46.08 3h-40.21v.89h40.21v-.89zm-34.34 3h40.21v.89h-40.21v-.89z" fill="#000" style="mix-blend-mode:screen"/><path fill="#06E4FF" style="mix-blend-mode:screen" d="M850.17 39.82h30.28v9.2h-30.28z"/><path fill="#001A29" style="mix-blend-mode:screen" d="M793.39 122.18h22.71v6.9h-22.71z"/><path fill="#000" opacity=".1" style="mix-blend-mode:screen" d="M820.03.44h144.14v111H820.03z"/><path fill="#54FFBD" style="mix-blend-mode:screen" d="M1268.76 91.6h72.4v4.59h-72.4z"/><path fill="#000" opacity=".1" style="mix-blend-mode:screen" d="M871 49.71h459.49v-34H871z"/><path fill="#215359" style="mix-blend-mode:screen" d="M1253.78 114.25h16.64v7.58h-16.64z"/><path fill="#1682C3" style="mix-blend-mode:screen" d="M1222.57 182.1h12.48v5.69h-12.48z"/><path fill="#13F" opacity=".1" style="mix-blend-mode:screen" d="M1237.21 15.45h79.22v157.8h-79.22z"/><path fill="#FF5100" style="mix-blend-mode:screen" d="M924.77 203.64h49.94v6.56h-49.94z"/><path d="M908.12 113.59h64.43v-.82h-64.43v.82zm73.83-2.72h-64.42v-.82h64.42v.82zm-55-2.73h64.43v-.82h-64.45l.02.82z" fill="#7A2221" style="mix-blend-mode:screen"/><path fill="#050817" style="mix-blend-mode:screen" d="M145 94.03h100v100H145z"/><path fill="#FF5404" style="mix-blend-mode:screen" d="M1007.33 67.03h59.06v1.45h-59.06z"/><path fill="#000" style="mix-blend-mode:screen" d="M761.25 92.42h78.74v1.94h-78.74zM987.61 88.43h76.18v.18h-76.18v-.18zm87.3.6h-76.14v.18h76.18l-.04-.18zm-65.06.6h76.19v.18h-76.15l-.04-.18z"/><path fill="#000" opacity=".1" style="mix-blend-mode:screen" d="M682.89 67.18h374.79v40.31H682.89z"/><path fill="#FF905C" style="mix-blend-mode:screen" d="M1142.44 218.04h16.05v2.31h-16.05z"/><path fill="#00E3FF" style="mix-blend-mode:screen" d="M1075.56 176.88h21.4v3.08h-21.4z"/><path fill="#000" style="mix-blend-mode:screen" d="M1035.43 150.08h16.05v2.31h-16.05z"/><path d="M1137.09 186.32h20.71v-.29h-20.71v.29zm23.73-1h-20.71v-.29h20.71v.29zm-17.68-1h20.7v-.29h-20.7v.29z" fill="#39100F" style="mix-blend-mode:screen"/><path fill="#001590" opacity=".1" style="mix-blend-mode:screen" d="M1054.26 155.98h101.87v64.13h-101.87z"/><path fill="#00C9E2" style="mix-blend-mode:screen" d="M1163.58 85.69h21.88v5.62h-21.88z"/><path fill="#000" style="mix-blend-mode:screen" d="M1122.55 136h16.41v4.22h-16.41z"/><path d="M1226.5 74.09h21.17v.52h-21.17v-.52zm24.26 1.75h-21.15v.52h21.17l-.02-.52zm-18.08 1.75h21.18v.53h-21.18v-.53z" fill="#CA4C4A" style="mix-blend-mode:screen"/><path fill="#1C2A7E" opacity=".1" style="mix-blend-mode:screen" d="M1141.8 12.42h104.16v117.02H1141.8z"/><path fill="#FF5100" style="mix-blend-mode:screen" d="M993.41 89.94h20.14v4.88h-20.14z"/><path fill="#41EAFF" style="mix-blend-mode:screen" d="M1070.62 175.27h26.85v6.51h-26.85z"/><path fill="#001019" style="mix-blend-mode:screen" d="M1127.69 233.51h20.14v4.88h-20.14z"/><path d="M1020.27 161.84h-26v.61h26v-.61zm-29.77 2h26v.6h-26v-.6zm22.18 2h-26v.61h26v-.61z" fill="#870200" style="mix-blend-mode:screen"/><path fill="#202340" opacity=".1" style="mix-blend-mode:screen" d="M1266 70h127.82v135.46H1266z"/><path fill="#FF5100" style="mix-blend-mode:screen" d="M61 27h66.08v7.63H61z"/><path fill="#003F47" style="mix-blend-mode:screen" d="M1170.5 199.94h88.11v10.18h-88.11z"/><path d="M1365.16 178.95h-85.142v.913h85.142v-.913zm-97.566 3.038h85.142v.962h-85.142v-.962zm72.718 3.049h-85.152v.913h85.142l.01-.913z" fill="#FF4F5E" style="mix-blend-mode:screen"/><path fill="#001FDB" opacity=".1" style="mix-blend-mode:screen" d="M926.93 259.3h419.37v137H926.93z"/><path fill="#A03300" style="mix-blend-mode:screen" d="M1236.09 118.17h2.89v7.92h-2.89z"/><path fill="#0DF" style="mix-blend-mode:screen" d="M1247.18 256.57h3.86v10.56h-3.86z"/><path d="M1239.95 234.78h-3.73v1h3.73v-1zm-4.28 3.29h3.73v1h-3.73v-1zm3.19 3.29h-3.73v1h3.73v-1z" fill="#FF7139" style="mix-blend-mode:screen"/><path fill="#4250A8" opacity=".1" style="mix-blend-mode:screen" d="M1236.51 119h18.36v219.72h-18.36z"/><path fill="#64EEFF" style="mix-blend-mode:screen" d="M909.3 215.25h58.68v4.36H909.3z"/><path fill="#0090ED" style="mix-blend-mode:screen" d="M1188.61 246.1h71.42v2.71h-71.42z"/><path d="M1164.8 286h92.14v.34h-92.14V286zm105.59 1.13h-92.14v.34h92.14v-.34zm-78.69 1.12h92.14v.34h-92.14v-.34z" fill="#D30400" style="mix-blend-mode:screen"/><path fill="#054096" opacity=".101" style="mix-blend-mode:screen" d="M905.5 246.38h499v75.18h-499z"/><path fill="#53ECFF" style="mix-blend-mode:screen" d="M1130.91 200.24h43.88v9.12h-43.88z"/><path fill="#5DC2FF" style="mix-blend-mode:screen" d="M1048.64 120.9h32.91v6.84h-32.91z"/><path d="M1257.06 228.19h42.45v-.85h-42.45v.85zm48.65-2.84h-42.45v-.85h42.45v.85zm-36.26-2.84h42.45v-.85h-42.45v.85z" fill="#180707" style="mix-blend-mode:screen"/><path fill="#202340" opacity=".197" style="mix-blend-mode:screen" d="M1087.24 138.39h208.84v189.83h-208.84z"/><path fill="#AAF2FF" style="mix-blend-mode:screen" d="M1264.7 245.07h40v5h-40z"/><path fill="#000" opacity=".1" style="mix-blend-mode:screen" d="M1223.34 121.45h197.82v197.43h-197.82z"/><path fill="#001A29" style="mix-blend-mode:screen" d="M1273.39 122.18h22.71v6.9h-22.71z"/><path fill="#007C8B" style="mix-blend-mode:screen" d="M1196.68 86.79h66.59v8.75h-66.59z"/><path fill="#000" style="mix-blend-mode:screen" d="M1241.25 92.42h78.74v1.94h-78.74z"/><path fill="#00A0FF" style="mix-blend-mode:screen" d="M1093.61 109.75h59.06v1.45h-59.06z"/><path fill="#FF6E2A" style="mix-blend-mode:screen" d="M1231.26 223.14h1v1h-1z"/><path fill="#000" style="mix-blend-mode:screen" d="M1233.17 214.47h1v1h-1z"/><path fill="#477189" style="mix-blend-mode:screen" d="M1234.58 208.83h1v1h-1z"/><path d="M1231.93 221.46h-.64v-.06h.64v.06zm-.74-.2h.64v-.06h-.64v.06zm.55-.2h-.64V221h.64v.06z" fill="#A80805" style="mix-blend-mode:screen"/><path fill="#040A31" opacity=".1" style="mix-blend-mode:screen" d="M1231.34 212.07h3.15v13.5h-3.15z"/><path fill="#FF5100" style="mix-blend-mode:screen" d="M1220.58 158.12h44.01v3.27h-44.01z"/><path d="M1279.27 206.26h-56.78v.4h56.78v-.4zm-65.07 1.35h56.78v.41h-56.78v-.41zm48.49 1.34h-56.77v.41h56.77v-.41z" fill="#FF3733" style="mix-blend-mode:screen"/><path fill="#0024FF" opacity=".1" style="mix-blend-mode:screen" d="M1227.07 158.46h194v90.69h-194z"/><path fill="#0250BB" opacity=".1" style="mix-blend-mode:screen" d="M1276.24 246.38h147v75.18h-147z"/><path d="M1087 378.805h66v-.61h-66v.61zm76-2.015h-66v-.58h66v.58zm-57-2.005h66v-.57h-66v.57z" fill="#E22850" style="mix-blend-mode:screen"/><path fill="#0060DF" opacity=".197" style="mix-blend-mode:screen" d="M880.43 93.45h5v146h-5z"/><path fill="#48BBFF" style="mix-blend-mode:screen" d="M1054.9 287.67h20.71v1.82h-20.71z"/><path d="M944.45 261.02h-26.71v.23h26.71v-.23zm-30.61.76h26.71v.22h-26.71v-.22zm22.81.75h-26.71v.23h26.67l.04-.23z" fill="#FF6E6C" style="mix-blend-mode:screen"/><path fill="#0022ED" opacity=".1" style="mix-blend-mode:screen" d="M919.89 234.47h131.43v50.38H919.89z"/><path fill="#42CFE0" style="mix-blend-mode:screen" d="M967.07 279.8h96.54v6.12h-96.54z"/><path d="M1244.61 298.56h93.4v-.61h-93.4v.61zm107-1.9h-93.4v-.58h93.4v.58zm-79.76-1.91h93.4v-.57h-93.4v.57z" fill="#FF1D19" style="mix-blend-mode:screen"/><path fill="#592ACB" opacity=".1" style="mix-blend-mode:screen" d="M882.49 276h406v90h-406z"/><path fill="#13F" opacity=".1" style="mix-blend-mode:screen" d="M1237.21 285.45h79.22v157.8h-79.22z"/><path fill="#DC4600" style="mix-blend-mode:screen" d="M1231.97 281.97h16.41v4.22h-16.41z"/><path fill="#1C2A7E" opacity=".1" style="mix-blend-mode:screen" d="M1141.8 282.42h104.16v117.02H1141.8z"/><path fill="#004872" style="mix-blend-mode:screen" d="M1266.06 226.54h72.4v4.59h-72.4z"/><path fill="#004D7B" style="mix-blend-mode:screen" d="M1071.82 280.7h49.94v6.56h-49.94z"/><g><path fill="#FF590C" style="mix-blend-mode:screen" d="M142.03 51.1h32.91v6.84h-32.91z"/><path fill="#000" style="mix-blend-mode:screen" d="M609.37 80.04h2.89v7.92h-2.89z"/><path fill="#FF6BBA" opacity=".1" style="mix-blend-mode:screen" d="M590.51 54.72h-441v13h441z"/><path fill="#00148F" opacity=".1" style="mix-blend-mode:screen" d="M150.24 18.56H603.5v32H150.24z"/><path fill="#FF590C" style="mix-blend-mode:screen" d="M622.03 51.1h32.91v6.84h-32.91z"/><path fill="#42425A" opacity=".1" style="mix-blend-mode:screen" d="M441.24 22.22h208.84v35H441.24z"/><path fill="#008EE3" style="mix-blend-mode:screen" d="M540.77 58.95h31.17v7.11h-31.17z"/><path fill="#2EB1FF" style="mix-blend-mode:screen" d="M546.46 54.78h71.42v2.71h-71.42z"/><path fill="#09204D" opacity=".307" style="mix-blend-mode:screen" d="M630.24 5.56h453.26v45H630.24z"/><path fill="#FF5100" style="mix-blend-mode:screen" d="M142.76 90.6h72.4v4.59h-72.4z"/><path d="M175.61 97.61h16.13v.7h-16.13v-.7zm18.48 2.34h-16.11v.71h16.11v-.71zm-13.76 2.38h16.11v.71h-16.11v-.71z" fill="#AA1614" style="mix-blend-mode:screen"/><path fill="#13F" opacity=".1" style="mix-blend-mode:screen" d="M111.21 14.45h79.22v157.8h-79.22z"/><path fill="#000" style="mix-blend-mode:screen" d="M231.74 290.03h66.08v7.63h-66.08z"/><path fill="#054096" opacity=".1" style="mix-blend-mode:screen" d="M0 66h216v211.84H0z"/><path d="M131.06 227.19h42.45v-.85h-42.45v.85zm48.65-2.84h-42.45v-.85h42.45v.85zm-36.26-2.84h42.45v-.85h-42.45v.85z" fill="#180707" style="mix-blend-mode:screen"/><path fill="#FF5100" style="mix-blend-mode:screen" d="M268.59 119.7h31.17v7.11h-31.17z"/><path fill="#73D2DE" style="mix-blend-mode:screen" d="M138.7 244.07h41.56v9.49H138.7z"/><path d="M258.2 224.49h40.21v.88H258.2v-.88zm46.08 3h-40.21v.89h40.21v-.89zm-34.34 3h40.21v.89h-40.21v-.89z" fill="#000" style="mix-blend-mode:screen"/><path fill="#000" opacity=".1" style="mix-blend-mode:screen" d="M97.34 120.45h197.82v197.43H97.34z"/><path fill="#06E4FF" style="mix-blend-mode:screen" d="M204.17 38.82h30.28v9.2h-30.28z"/><path fill="#001A29" style="mix-blend-mode:screen" d="M147.39 121.18h22.71v6.9h-22.71z"/><path fill="#FF5100" style="mix-blend-mode:screen" d="M622.76 90.6h72.4v4.59h-72.4z"/><path fill="#215359" style="mix-blend-mode:screen" d="M607.78 113.25h16.64v7.58h-16.64z"/><path fill="#13F" opacity=".1" style="mix-blend-mode:screen" d="M519.21 14.45h79.22v157.8h-79.22z"/><path fill="#FF5100" style="mix-blend-mode:screen" d="M278.77 202.64h49.94v6.56h-49.94z"/><path d="M262.12 112.59h64.43v-.82h-64.43v.82zm73.83-2.72h-64.42v-.82h64.42v.82zm-55-2.73h64.43v-.82h-64.45l.02.82z" fill="#7A2221" style="mix-blend-mode:screen"/><path fill="#FF5404" style="mix-blend-mode:screen" d="M361.33 66.03h59.06v1.45h-59.06z"/><path fill="#000" style="mix-blend-mode:screen" d="M115.25 91.42h78.74v1.94h-78.74zM341.61 87.43h76.18v.18h-76.18v-.18zm87.3.6h-76.14v.18h76.18l-.04-.18zm-65.06.6h76.19v.18h-76.15l-.04-.18z"/><path fill="#000" opacity=".1" style="mix-blend-mode:screen" d="M36.89 66.18h374.79v40.31H36.89z"/><path fill="#FF905C" style="mix-blend-mode:screen" d="M496.44 217.04h16.05v2.31h-16.05z"/><path fill="#00E3FF" style="mix-blend-mode:screen" d="M429.56 175.88h21.4v3.08h-21.4z"/><path fill="#000" style="mix-blend-mode:screen" d="M389.43 149.08h16.05v2.31h-16.05z"/><path d="M491.09 185.32h20.71v-.29h-20.71v.29zm23.73-1h-20.71v-.29h20.71v.29zm-17.68-1h20.7v-.29h-20.7v.29z" fill="#39100F" style="mix-blend-mode:screen"/><path fill="#001590" opacity=".1" style="mix-blend-mode:screen" d="M408.26 154.98h101.87v64.13H408.26z"/><path fill="#00C9E2" style="mix-blend-mode:screen" d="M517.58 84.69h21.88v5.62h-21.88z"/><path fill="#000" style="mix-blend-mode:screen" d="M476.55 135h16.41v4.22h-16.41z"/><path d="M580.5 73.09h21.17v.52H580.5v-.52zm24.26 1.75h-21.15v.52h21.17l-.02-.52zm-18.08 1.75h21.18v.53h-21.18v-.53z" fill="#CA4C4A" style="mix-blend-mode:screen"/><path fill="#FF5100" style="mix-blend-mode:screen" d="M347.41 88.94h20.14v4.88h-20.14z"/><path fill="#41EAFF" style="mix-blend-mode:screen" d="M424.62 174.27h26.85v6.51h-26.85z"/><path fill="#001019" style="mix-blend-mode:screen" d="M481.69 232.51h20.14v4.88h-20.14z"/><path d="M374.27 160.84h-26v.61h26v-.61zm-29.77 2h26v.6h-26v-.6zm22.18 2h-26v.61h26v-.61z" fill="#870200" style="mix-blend-mode:screen"/><path fill="#000" opacity=".1" style="mix-blend-mode:screen" d="M350.38 89.45H478.2v135.46H350.38z"/><path fill="#0DF" style="mix-blend-mode:screen" d="M41 342h70v2H41z"/><path d="M359.3 177.95h-85.25v.95h85.25v-.95zm-97.69 3.16h85.25v1h-85.25v-1zm72.81 3.17h-85.26v.95h85.25l.01-.95z" fill="#FF3430" style="mix-blend-mode:screen"/><path fill="#001FDB" opacity=".1" style="mix-blend-mode:screen" d="M80 173h419.37v211.84H80z"/><path fill="#A03300" style="mix-blend-mode:screen" d="M102.09 117.17h2.89v7.92h-2.89z"/><path d="M593.95 233.78h-3.73v1h3.73v-1zm-4.28 3.29h3.73v1h-3.73v-1zm3.19 3.29h-3.73v1h3.73v-1z" fill="#FF2A26" style="mix-blend-mode:screen"/><path fill="#64EEFF" style="mix-blend-mode:screen" d="M263.3 214.25h58.68v4.36H263.3z"/><path fill="#00568A" style="mix-blend-mode:screen" d="M388.01 253.24h44.01v3.27h-44.01z"/><path fill="#0024FF" opacity=".1" style="mix-blend-mode:screen" d="M78 282h279.32v90.69H78z"/><path fill="#7B3210" style="mix-blend-mode:screen" d="M254.61 245.1h71.42v2.71h-71.42z"/><path fill="#15A4B6" style="mix-blend-mode:screen" d="M245.01 292.46h95.23v3.61h-95.23z"/><path d="M278.8 349h92.14v.34H278.8V349zm105.59 1.13h-92.14v.34h92.14v-.34zm-78.69 1.12h92.14v.34H305.7v-.34z" fill="#D30400" style="mix-blend-mode:screen"/><path fill="#00148F" opacity=".1" style="mix-blend-mode:screen" d="M150.24 245.38h340v75.18h-340z"/><path fill="#53ECFF" style="mix-blend-mode:screen" d="M484.91 199.24h43.88v9.12h-43.88z"/><path fill="#5DC2FF" style="mix-blend-mode:screen" d="M402.64 119.9h32.91v6.84h-32.91z"/><path fill="#000526" opacity=".358" style="mix-blend-mode:screen" d="M930 252h208.84v189.83H930z"/><path fill="#001A29" style="mix-blend-mode:screen" d="M627.39 121.18h22.71v6.9h-22.71z"/><path fill="#007C8B" style="mix-blend-mode:screen" d="M550.68 85.79h66.59v8.75h-66.59z"/><path fill="#050817" opacity=".294" style="mix-blend-mode:screen" d="M154 244h316.94v182.03H154z"/><path fill="#000" style="mix-blend-mode:screen" d="M595.25 91.42h78.74v1.94h-78.74z"/><path fill="#00A0FF" style="mix-blend-mode:screen" d="M447.61 108.75h59.06v1.45h-59.06z"/><path fill="#000" style="mix-blend-mode:screen" d="M587.17 213.47h1v1h-1z"/><path fill="#477189" style="mix-blend-mode:screen" d="M588.58 207.83h1v1h-1z"/><path d="M585.93 215.46h-.64v-.06h.64v.06zm-.74-.2h.64v-.06h-.64v.06zm.55-.2h-.64V215h.64v.06z" fill="#A80805" style="mix-blend-mode:screen"/><path fill="#040A31" opacity=".1" style="mix-blend-mode:screen" d="M585.34 209.07h3.15v13.5h-3.15z"/><path fill="#FF5100" style="mix-blend-mode:screen" d="M398.58 397.12h44.01v3.27h-44.01z"/><path d="M121.27 405.26H64.49v.4h56.78v-.4zm-65.07 1.35h56.78v.41H56.2v-.41zm48.49 1.34H47.92v.41h56.77v-.41z" fill="#FF3733" style="mix-blend-mode:screen"/><path fill="#0024FF" opacity=".197" style="mix-blend-mode:screen" d="M148 50h279.32v94H148z"/><path fill="#00148F" opacity=".1" style="mix-blend-mode:screen" d="M1005.26 291h299v75.18h-299z"/><path d="M154 297.805h66v-.61h-66v.61zm76-2.015h-66v-.58h66v.58zm-57-2.005h66v-.57h-66v.57z" fill="#FF1D19" style="mix-blend-mode:screen"/><path fill="#090300" style="mix-blend-mode:screen" d="M179.79 283.85h12.48v5.69h-12.48z"/><path fill="#13F" opacity=".1" style="mix-blend-mode:screen" d="M154.43 284.45h36v146h-36z"/><path fill="#F24D00" style="mix-blend-mode:screen" d="M298.81 188.16h22.71v6.9h-22.71z"/><path d="M291.24 289.83h29.3v.86h-29.3v-.86zm33.57 2.87h-29.3v.86h29.3v-.86zm-25 2.86h29.3v.86h-29.3v-.86z" fill="#CD0A07" style="mix-blend-mode:screen"/><path fill="#000" opacity=".1" style="mix-blend-mode:screen" d="M192 232h144.14v191.55H192z"/><path fill="#FF864E" style="mix-blend-mode:screen" d="M270.84 233.28h20.71v1.82h-20.71z"/><path fill="#15393D" style="mix-blend-mode:screen" d="M350.23 265.01h27.61v2.42h-27.61z"/><path fill="#48BBFF" style="mix-blend-mode:screen" d="M408.9 286.67h20.71v1.82H408.9z"/><path d="M298.45 260.02h-26.71v.23h26.71v-.23zm-30.61.76h26.71v.22h-26.71v-.22zm22.81.75h-26.71v.23h26.67l.04-.23z" fill="#FF6E6C" style="mix-blend-mode:screen"/><path fill="#0022ED" opacity=".1" style="mix-blend-mode:screen" d="M273.89 233.47h131.43v50.38H273.89z"/><path fill="#42CFE0" style="mix-blend-mode:screen" d="M321.07 278.8h96.54v6.12h-96.54z"/><path fill="#004872" style="mix-blend-mode:screen" d="M140.06 225.54h72.4v4.59h-72.4z"/><path d="M174.61 425.56h93.4v-.61h-93.4v.61zm107-1.9h-93.4v-.58h93.4v.58zm-79.76-1.91h93.4v-.57h-93.4v.57z" fill="#FF4F5E" style="mix-blend-mode:screen"/><path fill="#13F" opacity=".1" style="mix-blend-mode:lighten" d="M299 289h79.22v157.8H299z"/><path fill="#FF8A50" style="mix-blend-mode:screen" d="M401.97 376.97h16.41v2h-16.41z"/><path fill="#1C2A7E" opacity=".1" style="mix-blend-mode:screen" d="M476 298h104.16v117.02H476z"/><path fill="#0DF" style="mix-blend-mode:screen" d="M1044 430h72.4v4.59H1044z"/><path fill="#004D7B" style="mix-blend-mode:screen" d="M425.82 279.7h49.94v6.56h-49.94z"/><path fill="#050817" style="mix-blend-mode:difference" d="M70 182h316.94v182.03H70z"/></g></g></svg>
