<svg width="53" height="143" xmlns="http://www.w3.org/2000/svg"><path d="M1.9.2a.1.1 0 1 1 0-.2.1.1 0 0 1 0 .2zM6 .2A.1.1 0 1 1 6 0a.1.1 0 0 1 0 .2zm4.1 0a.1.1 0 1 1 0-.2.1.1 0 0 1 0 .2zm4 0a.1.1 0 1 1 0-.2.1.1 0 0 1 0 .2zm4.1 0a.1.1 0 1 1 0-.2.1.1 0 0 1 0 .2zm4.1 0a.1.1 0 1 1 0-.2.1.1 0 0 1 0 .2zm4.1 0a.1.1 0 1 1 0-.2.1.1 0 0 1 0 .2zm4 0a.1.1 0 1 1 0-.2.1.1 0 0 1 0 .2zm4.1 0a.1.1 0 1 1 0-.2.1.1 0 0 1 0 .2zm4.1 0a.1.1 0 1 1 0-.2.1.1 0 0 1 0 .2zm4.1 0a.1.1 0 1 1 0-.2.1.1 0 0 1 0 .2zm4 0a.1.1 0 1 1 0-.2.1.1 0 0 1 0 .2zm4.1 0a.1.1 0 1 1 0-.2.1.1 0 0 1 0 .2zm-48.9 4a.1.1 0 1 1 0-.2.1.1 0 0 1 0 .2zm4.1 0A.1.1 0 1 1 6 4a.1.1 0 0 1 0 .2zm4.1 0a.1.1 0 1 1 0-.2.1.1 0 0 1 0 .2zm4 0a.1.1 0 1 1 0-.2.1.1 0 0 1 0 .2zm4.1 0a.1.1 0 1 1 0-.2.1.1 0 0 1 0 .2zm4.1 0a.1.1 0 1 1 0-.2.1.1 0 0 1 0 .2zm4.1 0a.1.1 0 1 1 0-.2.1.1 0 0 1 0 .2zm4 0a.1.1 0 1 1 0-.2.1.1 0 0 1 0 .2zm4.1 0a.1.1 0 1 1 0-.2.1.1 0 0 1 0 .2zm4.1 0a.1.1 0 1 1 0-.2.1.1 0 0 1 0 .2zm4.1 0a.1.1 0 1 1 0-.2.1.1 0 0 1 0 .2zm4 0a.1.1 0 1 1 0-.2.1.1 0 0 1 0 .2zm4.1 0a.1.1 0 1 1 0-.2.1.1 0 0 1 0 .2zM1.9 8.4a.2.2 0 1 1 0-.4.2.2 0 0 1 0 .4zm4.1 0A.2.2 0 1 1 6 8a.2.2 0 0 1 0 .4zm4.1 0a.2.2 0 1 1 0-.4.2.2 0 0 1 0 .4zm4 0a.2.2 0 1 1 0-.4.2.2 0 0 1 0 .4zm4.1 0a.2.2 0 1 1 0-.4.2.2 0 0 1 0 .4zm4.1 0a.2.2 0 1 1 0-.4.2.2 0 0 1 0 .4zm4.1 0a.2.2 0 1 1 0-.4.2.2 0 0 1 0 .4zm4 0a.2.2 0 1 1 0-.4.2.2 0 0 1 0 .4zm4.1 0a.2.2 0 1 1 0-.4.2.2 0 0 1 0 .4zm4.1 0a.2.2 0 1 1 0-.4.2.2 0 0 1 0 .4zm4.1 0a.2.2 0 1 1 0-.4.2.2 0 0 1 0 .4zm4 0a.2.2 0 1 1 0-.4.2.2 0 0 1 0 .4zm4.1 0a.2.2 0 1 1 0-.4.2.2 0 0 1 0 .4zM1.9 12.6a.3.3 0 1 1 0-.6.3.3 0 0 1 0 .6zm4.1 0a.3.3 0 1 1 0-.6.3.3 0 0 1 0 .6zm4.1 0a.3.3 0 1 1 0-.6.3.3 0 0 1 0 .6zm4 0a.3.3 0 1 1 0-.6.3.3 0 0 1 0 .6zm4.1 0a.3.3 0 1 1 0-.6.3.3 0 0 1 0 .6zm4.1 0a.3.3 0 1 1 0-.6.3.3 0 0 1 0 .6zm4.1 0a.3.3 0 1 1 0-.6.3.3 0 0 1 0 .6zm4 0a.3.3 0 1 1 0-.6.3.3 0 0 1 0 .6zm4.1 0a.3.3 0 1 1 0-.6.3.3 0 0 1 0 .6zm4.1 0a.3.3 0 1 1 0-.6.3.3 0 0 1 0 .6zm4.1 0a.3.3 0 1 1 0-.6.3.3 0 0 1 0 .6zm4 0a.3.3 0 1 1 0-.6.3.3 0 0 1 0 .6zm4.1 0a.3.3 0 1 1 0-.6.3.3 0 0 1 0 .6zM1.9 16.8a.4.4 0 1 1 0-.8.4.4 0 0 1 0 .8zm4.1 0a.4.4 0 1 1 0-.8.4.4 0 0 1 0 .8zm4.1 0a.4.4 0 1 1 0-.8.4.4 0 0 1 0 .8zm4 0a.4.4 0 1 1 0-.8.4.4 0 0 1 0 .8zm4.1 0a.4.4 0 1 1 0-.8.4.4 0 0 1 0 .8zm4.1 0a.4.4 0 1 1 0-.8.4.4 0 0 1 0 .8zm4.1 0a.4.4 0 1 1 0-.8.4.4 0 0 1 0 .8zm4 0a.4.4 0 1 1 0-.8.4.4 0 0 1 0 .8zm4.1 0a.4.4 0 1 1 0-.8.4.4 0 0 1 0 .8zm4.1 0a.4.4 0 1 1 0-.8.4.4 0 0 1 0 .8zm4.1 0a.4.4 0 1 1 0-.8.4.4 0 0 1 0 .8zm4 0a.4.4 0 1 1 0-.8.4.4 0 0 1 0 .8zm4.1 0a.4.4 0 1 1 0-.8.4.4 0 0 1 0 .8zM1.9 20.9a.5.5 0 1 1 0-1 .5.5 0 0 1 0 1zm4.1 0a.5.5 0 1 1 0-1 .5.5 0 0 1 0 1zm4.1 0a.5.5 0 1 1 0-1 .5.5 0 0 1 0 1zm4 0a.5.5 0 1 1 0-1 .5.5 0 0 1 0 1zm4.1 0a.5.5 0 1 1 0-1 .5.5 0 0 1 0 1zm4.1 0a.5.5 0 1 1 0-1 .5.5 0 0 1 0 1zm4.1 0a.5.5 0 1 1 0-1 .5.5 0 0 1 0 1zm4 0a.5.5 0 1 1 0-1 .5.5 0 0 1 0 1zm4.1 0a.5.5 0 1 1 0-1 .5.5 0 0 1 0 1zm4.1 0a.5.5 0 1 1 0-1 .5.5 0 0 1 0 1zm4.1 0a.5.5 0 1 1 0-1 .5.5 0 0 1 0 1zm4 0a.5.5 0 1 1 0-1 .5.5 0 0 1 0 1zm4.1 0a.5.5 0 1 1 0-1 .5.5 0 0 1 0 1zM1.9 25.1a.6.6 0 1 1 0-1.2.6.6 0 0 1 0 1.2zm4.1 0a.6.6 0 1 1 0-1.2.6.6 0 0 1 0 1.2zm4.1 0a.6.6 0 1 1 0-1.2.6.6 0 0 1 0 1.2zm4 0a.6.6 0 1 1 0-1.2.6.6 0 0 1 0 1.2zm4.1 0a.6.6 0 1 1 0-1.2.6.6 0 0 1 0 1.2zm4.1 0a.6.6 0 1 1 0-1.2.6.6 0 0 1 0 1.2zm4.1 0a.6.6 0 1 1 0-1.2.6.6 0 0 1 0 1.2zm4 0a.6.6 0 1 1 0-1.2.6.6 0 0 1 0 1.2zm4.1 0a.6.6 0 1 1 0-1.2.6.6 0 0 1 0 1.2zm4.1 0a.6.6 0 1 1 0-1.2.6.6 0 0 1 0 1.2zm4.1 0a.6.6 0 1 1 0-1.2.6.6 0 0 1 0 1.2zm4 0a.6.6 0 1 1 0-1.2.6.6 0 0 1 0 1.2zm4.1 0a.6.6 0 1 1 0-1.2.6.6 0 0 1 0 1.2zM1.9 29.3a.7.7 0 1 1 0-1.4.7.7 0 0 1 0 1.4zm4.1 0a.7.7 0 1 1 0-1.4.7.7 0 0 1 0 1.4zm4.1 0a.7.7 0 1 1 0-1.4.7.7 0 0 1 0 1.4zm4 0a.7.7 0 1 1 0-1.4.7.7 0 0 1 0 1.4zm4.1 0a.7.7 0 1 1 0-1.4.7.7 0 0 1 0 1.4zm4.1 0a.7.7 0 1 1 0-1.4.7.7 0 0 1 0 1.4zm4.1 0a.7.7 0 1 1 0-1.4.7.7 0 0 1 0 1.4zm4 0a.7.7 0 1 1 0-1.4.7.7 0 0 1 0 1.4zm4.1 0a.7.7 0 1 1 0-1.4.7.7 0 0 1 0 1.4zm4.1 0a.7.7 0 1 1 0-1.4.7.7 0 0 1 0 1.4zm4.1 0a.7.7 0 1 1 0-1.4.7.7 0 0 1 0 1.4zm4 0a.7.7 0 1 1 0-1.4.7.7 0 0 1 0 1.4zm4.1 0a.7.7 0 1 1 0-1.4.7.7 0 0 1 0 1.4zM1.9 33.4a.8.8 0 1 1 0-1.6.8.8 0 0 1 0 1.6zm4.1 0a.8.8 0 1 1 0-1.6.8.8 0 0 1 0 1.6zm4.1 0a.8.8 0 1 1 0-1.6.8.8 0 0 1 0 1.6zm4 0a.8.8 0 1 1 0-1.6.8.8 0 0 1 0 1.6zm4.1 0a.8.8 0 1 1 0-1.6.8.8 0 0 1 0 1.6zm4.1 0a.8.8 0 1 1 0-1.6.8.8 0 0 1 0 1.6zm4.1 0a.8.8 0 1 1 0-1.6.8.8 0 0 1 0 1.6zm4 0a.8.8 0 1 1 0-1.6.8.8 0 0 1 0 1.6zm4.1 0a.8.8 0 1 1 0-1.6.8.8 0 0 1 0 1.6zm4.1 0a.8.8 0 1 1 0-1.6.8.8 0 0 1 0 1.6zm4.1 0a.8.8 0 1 1 0-1.6.8.8 0 0 1 0 1.6zm4 0a.8.8 0 1 1 0-1.6.8.8 0 0 1 0 1.6zm4.1 0a.8.8 0 1 1 0-1.6.8.8 0 0 1 0 1.6zM1.9 37.6a.9.9 0 1 1 0-1.8.9.9 0 0 1 0 1.8zm4.1 0a.9.9 0 1 1 0-1.8.9.9 0 0 1 0 1.8zm4.1 0a.9.9 0 1 1 0-1.8.9.9 0 0 1 0 1.8zm4 0a.9.9 0 1 1 0-1.8.9.9 0 0 1 0 1.8zm4.1 0a.9.9 0 1 1 0-1.8.9.9 0 0 1 0 1.8zm4.1 0a.9.9 0 1 1 0-1.8.9.9 0 0 1 0 1.8zm4.1 0a.9.9 0 1 1 0-1.8.9.9 0 0 1 0 1.8zm4 0a.9.9 0 1 1 0-1.8.9.9 0 0 1 0 1.8zm4.1 0a.9.9 0 1 1 0-1.8.9.9 0 0 1 0 1.8zm4.1 0a.9.9 0 1 1 0-1.8.9.9 0 0 1 0 1.8zm4.1 0a.9.9 0 1 1 0-1.8.9.9 0 0 1 0 1.8zm4 0a.9.9 0 1 1 0-1.8.9.9 0 0 1 0 1.8zm4.1 0a.9.9 0 1 1 0-1.8.9.9 0 0 1 0 1.8zM1.9 41.9a1.1 1.1 0 1 1 0-2.2 1.1 1.1 0 0 1 0 2.2zm4.1 0a1.1 1.1 0 1 1 0-2.2 1.1 1.1 0 0 1 0 2.2zm4.1 0a1.1 1.1 0 1 1 0-2.2 1.1 1.1 0 0 1 0 2.2zm4 0a1.1 1.1 0 1 1 0-2.2 1.1 1.1 0 0 1 0 2.2zm4.1 0a1.1 1.1 0 1 1 0-2.2 1.1 1.1 0 0 1 0 2.2zm4.1 0a1.1 1.1 0 1 1 0-2.2 1.1 1.1 0 0 1 0 2.2zm4.1 0a1.1 1.1 0 1 1 0-2.2 1.1 1.1 0 0 1 0 2.2zm4 0a1.1 1.1 0 1 1 0-2.2 1.1 1.1 0 0 1 0 2.2zm4.1 0a1.1 1.1 0 1 1 0-2.2 1.1 1.1 0 0 1 0 2.2zm4.1 0a1.1 1.1 0 1 1 0-2.2 1.1 1.1 0 0 1 0 2.2zm4.1 0a1.1 1.1 0 1 1 0-2.2 1.1 1.1 0 0 1 0 2.2zm4 0a1.1 1.1 0 1 1 0-2.2 1.1 1.1 0 0 1 0 2.2zm4.1 0a1.1 1.1 0 1 1 0-2.2 1.1 1.1 0 0 1 0 2.2zM1.9 46.1a1.2 1.2 0 1 1 0-2.4 1.2 1.2 0 0 1 0 2.4zm4.1 0a1.2 1.2 0 1 1 0-2.4 1.2 1.2 0 0 1 0 2.4zm4.1 0a1.2 1.2 0 1 1 0-2.4 1.2 1.2 0 0 1 0 2.4zm4 0a1.2 1.2 0 1 1 0-2.4 1.2 1.2 0 0 1 0 2.4zm4.1 0a1.2 1.2 0 1 1 0-2.4 1.2 1.2 0 0 1 0 2.4zm4.1 0a1.2 1.2 0 1 1 0-2.4 1.2 1.2 0 0 1 0 2.4zm4.1 0a1.2 1.2 0 1 1 0-2.4 1.2 1.2 0 0 1 0 2.4zm4 0a1.2 1.2 0 1 1 0-2.4 1.2 1.2 0 0 1 0 2.4zm4.1 0a1.2 1.2 0 1 1 0-2.4 1.2 1.2 0 0 1 0 2.4zm4.1 0a1.2 1.2 0 1 1 0-2.4 1.2 1.2 0 0 1 0 2.4zm4.1 0a1.2 1.2 0 1 1 0-2.4 1.2 1.2 0 0 1 0 2.4zm4 0a1.2 1.2 0 1 1 0-2.4 1.2 1.2 0 0 1 0 2.4zm4.1 0a1.2 1.2 0 1 1 0-2.4 1.2 1.2 0 0 1 0 2.4zM1.9 50.2a1.3 1.3 0 1 1 0-2.6 1.3 1.3 0 0 1 0 2.6zm4.1 0a1.3 1.3 0 1 1 0-2.6 1.3 1.3 0 0 1 0 2.6zm4.1 0a1.3 1.3 0 1 1 0-2.6 1.3 1.3 0 0 1 0 2.6zm4 0a1.3 1.3 0 1 1 0-2.6 1.3 1.3 0 0 1 0 2.6zm4.1 0a1.3 1.3 0 1 1 0-2.6 1.3 1.3 0 0 1 0 2.6zm4.1 0a1.3 1.3 0 1 1 0-2.6 1.3 1.3 0 0 1 0 2.6zm4.1 0a1.3 1.3 0 1 1 0-2.6 1.3 1.3 0 0 1 0 2.6zm4 0a1.3 1.3 0 1 1 0-2.6 1.3 1.3 0 0 1 0 2.6zm4.1 0a1.3 1.3 0 1 1 0-2.6 1.3 1.3 0 0 1 0 2.6zm4.1 0a1.3 1.3 0 1 1 0-2.6 1.3 1.3 0 0 1 0 2.6zm4.1 0a1.3 1.3 0 1 1 0-2.6 1.3 1.3 0 0 1 0 2.6zm4 0a1.3 1.3 0 1 1 0-2.6 1.3 1.3 0 0 1 0 2.6zm4.1 0a1.3 1.3 0 1 1 0-2.6 1.3 1.3 0 0 1 0 2.6zM1.9 54.4a1.4 1.4 0 1 1 0-2.8 1.4 1.4 0 0 1 0 2.8zm4.1 0a1.4 1.4 0 1 1 0-2.8 1.4 1.4 0 0 1 0 2.8zm4.1 0a1.4 1.4 0 1 1 0-2.8 1.4 1.4 0 0 1 0 2.8zm4 0a1.4 1.4 0 1 1 0-2.8 1.4 1.4 0 0 1 0 2.8zm4.1 0a1.4 1.4 0 1 1 0-2.8 1.4 1.4 0 0 1 0 2.8zm4.1 0a1.4 1.4 0 1 1 0-2.8 1.4 1.4 0 0 1 0 2.8zm4.1 0a1.4 1.4 0 1 1 0-2.8 1.4 1.4 0 0 1 0 2.8zm4 0a1.4 1.4 0 1 1 0-2.8 1.4 1.4 0 0 1 0 2.8zm4.1 0a1.4 1.4 0 1 1 0-2.8 1.4 1.4 0 0 1 0 2.8zm4.1 0a1.4 1.4 0 1 1 0-2.8 1.4 1.4 0 0 1 0 2.8zm4.1 0a1.4 1.4 0 1 1 0-2.8 1.4 1.4 0 0 1 0 2.8zm4 0a1.4 1.4 0 1 1 0-2.8 1.4 1.4 0 0 1 0 2.8zm4.1 0a1.4 1.4 0 1 1 0-2.8 1.4 1.4 0 0 1 0 2.8zM1.9 58.6a1.5 1.5 0 1 1 0-3 1.5 1.5 0 0 1 0 3zm4.1 0a1.5 1.5 0 1 1 0-3 1.5 1.5 0 0 1 0 3zm4.1 0a1.5 1.5 0 1 1 0-3 1.5 1.5 0 0 1 0 3zm4 0a1.5 1.5 0 1 1 0-3 1.5 1.5 0 0 1 0 3zm4.1 0a1.5 1.5 0 1 1 0-3 1.5 1.5 0 0 1 0 3zm4.1 0a1.5 1.5 0 1 1 0-3 1.5 1.5 0 0 1 0 3zm4.1 0a1.5 1.5 0 1 1 0-3 1.5 1.5 0 0 1 0 3zm4 0a1.5 1.5 0 1 1 0-3 1.5 1.5 0 0 1 0 3zm4.1 0a1.5 1.5 0 1 1 0-3 1.5 1.5 0 0 1 0 3zm4.1 0a1.5 1.5 0 1 1 0-3 1.5 1.5 0 0 1 0 3zm4.1 0a1.5 1.5 0 1 1 0-3 1.5 1.5 0 0 1 0 3zm4 0a1.5 1.5 0 1 1 0-3 1.5 1.5 0 0 1 0 3zm4.1 0a1.5 1.5 0 1 1 0-3 1.5 1.5 0 0 1 0 3zM1.9 62.9a1.7 1.7 0 1 1 0-3.4 1.7 1.7 0 0 1 0 3.4zm4.1 0a1.7 1.7 0 1 1 0-3.4 1.7 1.7 0 0 1 0 3.4zm4.1 0a1.7 1.7 0 1 1 0-3.4 1.7 1.7 0 0 1 0 3.4zm4 0a1.7 1.7 0 1 1 0-3.4 1.7 1.7 0 0 1 0 3.4zm4.1 0a1.7 1.7 0 1 1 0-3.4 1.7 1.7 0 0 1 0 3.4zm4.1 0a1.7 1.7 0 1 1 0-3.4 1.7 1.7 0 0 1 0 3.4zm4.1 0a1.7 1.7 0 1 1 0-3.4 1.7 1.7 0 0 1 0 3.4zm4 0a1.7 1.7 0 1 1 0-3.4 1.7 1.7 0 0 1 0 3.4zm4.1 0a1.7 1.7 0 1 1 0-3.4 1.7 1.7 0 0 1 0 3.4zm4.1 0a1.7 1.7 0 1 1 0-3.4 1.7 1.7 0 0 1 0 3.4zm4.1 0a1.7 1.7 0 1 1 0-3.4 1.7 1.7 0 0 1 0 3.4zm4 0a1.7 1.7 0 1 1 0-3.4 1.7 1.7 0 0 1 0 3.4zm4.1 0a1.7 1.7 0 1 1 0-3.4 1.7 1.7 0 0 1 0 3.4zM1.9 67a1.8 1.8 0 1 1 0-3.6 1.8 1.8 0 0 1 0 3.6zM6 67a1.8 1.8 0 1 1 0-3.6A1.8 1.8 0 0 1 6 67zm4.1 0a1.8 1.8 0 1 1 0-3.6 1.8 1.8 0 0 1 0 3.6zm4 0a1.8 1.8 0 1 1 0-3.6 1.8 1.8 0 0 1 0 3.6zm4.1 0a1.8 1.8 0 1 1 0-3.6 1.8 1.8 0 0 1 0 3.6zm4.1 0a1.8 1.8 0 1 1 0-3.6 1.8 1.8 0 0 1 0 3.6zm4.1 0a1.8 1.8 0 1 1 0-3.6 1.8 1.8 0 0 1 0 3.6zm4 0a1.8 1.8 0 1 1 0-3.6 1.8 1.8 0 0 1 0 3.6zm4.1 0a1.8 1.8 0 1 1 0-3.6 1.8 1.8 0 0 1 0 3.6zm4.1 0a1.8 1.8 0 1 1 0-3.6 1.8 1.8 0 0 1 0 3.6zm4.1 0a1.8 1.8 0 1 1 0-3.6 1.8 1.8 0 0 1 0 3.6zm4 0a1.8 1.8 0 1 1 0-3.6 1.8 1.8 0 0 1 0 3.6zm4.1 0a1.8 1.8 0 1 1 0-3.6 1.8 1.8 0 0 1 0 3.6zM1.9 71.2a1.9 1.9 0 1 1 0-3.8 1.9 1.9 0 0 1 0 3.8zm4.1 0a1.9 1.9 0 1 1 0-3.8 1.9 1.9 0 0 1 0 3.8zm4.1 0a1.9 1.9 0 1 1 0-3.8 1.9 1.9 0 0 1 0 3.8zm4 0a1.9 1.9 0 1 1 0-3.8 1.9 1.9 0 0 1 0 3.8zm4.1 0a1.9 1.9 0 1 1 0-3.8 1.9 1.9 0 0 1 0 3.8zm4.1 0a1.9 1.9 0 1 1 0-3.8 1.9 1.9 0 0 1 0 3.8zm4.1 0a1.9 1.9 0 1 1 0-3.8 1.9 1.9 0 0 1 0 3.8zm4 0a1.9 1.9 0 1 1 0-3.8 1.9 1.9 0 0 1 0 3.8zm4.1 0a1.9 1.9 0 1 1 0-3.8 1.9 1.9 0 0 1 0 3.8zm4.1 0a1.9 1.9 0 1 1 0-3.8 1.9 1.9 0 0 1 0 3.8zm4.1 0a1.9 1.9 0 1 1 0-3.8 1.9 1.9 0 0 1 0 3.8zm4 0a1.9 1.9 0 1 1 0-3.8 1.9 1.9 0 0 1 0 3.8zm4.1 0a1.9 1.9 0 1 1 0-3.8 1.9 1.9 0 0 1 0 3.8zM1.9 75.3a1.9 1.9 0 1 1 0-3.8 1.9 1.9 0 0 1 0 3.8zm4.1 0a1.9 1.9 0 1 1 0-3.8 1.9 1.9 0 0 1 0 3.8zm4.1 0a1.9 1.9 0 1 1 0-3.8 1.9 1.9 0 0 1 0 3.8zm4 0a1.9 1.9 0 1 1 0-3.8 1.9 1.9 0 0 1 0 3.8zm4.1 0a1.9 1.9 0 1 1 0-3.8 1.9 1.9 0 0 1 0 3.8zm4.1 0a1.9 1.9 0 1 1 0-3.8 1.9 1.9 0 0 1 0 3.8zm4.1 0a1.9 1.9 0 1 1 0-3.8 1.9 1.9 0 0 1 0 3.8zm4 0a1.9 1.9 0 1 1 0-3.8 1.9 1.9 0 0 1 0 3.8zm4.1 0a1.9 1.9 0 1 1 0-3.8 1.9 1.9 0 0 1 0 3.8zm4.1 0a1.9 1.9 0 1 1 0-3.8 1.9 1.9 0 0 1 0 3.8zm4.1 0a1.9 1.9 0 1 1 0-3.8 1.9 1.9 0 0 1 0 3.8zm4 0a1.9 1.9 0 1 1 0-3.8 1.9 1.9 0 0 1 0 3.8zm4.1 0a1.9 1.9 0 1 1 0-3.8 1.9 1.9 0 0 1 0 3.8zm-48.9 4a1.8 1.8 0 1 1 0-3.6 1.8 1.8 0 0 1 0 3.6zm4.1 0a1.8 1.8 0 1 1 0-3.6 1.8 1.8 0 0 1 0 3.6zm4.1 0a1.8 1.8 0 1 1 0-3.6 1.8 1.8 0 0 1 0 3.6zm4 0a1.8 1.8 0 1 1 0-3.6 1.8 1.8 0 0 1 0 3.6zm4.1 0a1.8 1.8 0 1 1 0-3.6 1.8 1.8 0 0 1 0 3.6zm4.1 0a1.8 1.8 0 1 1 0-3.6 1.8 1.8 0 0 1 0 3.6zm4.1 0a1.8 1.8 0 1 1 0-3.6 1.8 1.8 0 0 1 0 3.6zm4 0a1.8 1.8 0 1 1 0-3.6 1.8 1.8 0 0 1 0 3.6zm4.1 0a1.8 1.8 0 1 1 0-3.6 1.8 1.8 0 0 1 0 3.6zm4.1 0a1.8 1.8 0 1 1 0-3.6 1.8 1.8 0 0 1 0 3.6zm4.1 0a1.8 1.8 0 1 1 0-3.6 1.8 1.8 0 0 1 0 3.6zm4 0a1.8 1.8 0 1 1 0-3.6 1.8 1.8 0 0 1 0 3.6zm4.1 0a1.8 1.8 0 1 1 0-3.6 1.8 1.8 0 0 1 0 3.6zM1.9 83.2a1.7 1.7 0 1 1 0-3.4 1.7 1.7 0 0 1 0 3.4zm4.1 0a1.7 1.7 0 1 1 0-3.4 1.7 1.7 0 0 1 0 3.4zm4.1 0a1.7 1.7 0 1 1 0-3.4 1.7 1.7 0 0 1 0 3.4zm4 0a1.7 1.7 0 1 1 0-3.4 1.7 1.7 0 0 1 0 3.4zm4.1 0a1.7 1.7 0 1 1 0-3.4 1.7 1.7 0 0 1 0 3.4zm4.1 0a1.7 1.7 0 1 1 0-3.4 1.7 1.7 0 0 1 0 3.4zm4.1 0a1.7 1.7 0 1 1 0-3.4 1.7 1.7 0 0 1 0 3.4zm4 0a1.7 1.7 0 1 1 0-3.4 1.7 1.7 0 0 1 0 3.4zm4.1 0a1.7 1.7 0 1 1 0-3.4 1.7 1.7 0 0 1 0 3.4zm4.1 0a1.7 1.7 0 1 1 0-3.4 1.7 1.7 0 0 1 0 3.4zm4.1 0a1.7 1.7 0 1 1 0-3.4 1.7 1.7 0 0 1 0 3.4zm4 0a1.7 1.7 0 1 1 0-3.4 1.7 1.7 0 0 1 0 3.4zm4.1 0a1.7 1.7 0 1 1 0-3.4 1.7 1.7 0 0 1 0 3.4zM1.9 87.1a1.5 1.5 0 1 1 0-3 1.5 1.5 0 0 1 0 3zm4.1 0a1.5 1.5 0 1 1 0-3 1.5 1.5 0 0 1 0 3zm4.1 0a1.5 1.5 0 1 1 0-3 1.5 1.5 0 0 1 0 3zm4 0a1.5 1.5 0 1 1 0-3 1.5 1.5 0 0 1 0 3zm4.1 0a1.5 1.5 0 1 1 0-3 1.5 1.5 0 0 1 0 3zm4.1 0a1.5 1.5 0 1 1 0-3 1.5 1.5 0 0 1 0 3zm4.1 0a1.5 1.5 0 1 1 0-3 1.5 1.5 0 0 1 0 3zm4 0a1.5 1.5 0 1 1 0-3 1.5 1.5 0 0 1 0 3zm4.1 0a1.5 1.5 0 1 1 0-3 1.5 1.5 0 0 1 0 3zm4.1 0a1.5 1.5 0 1 1 0-3 1.5 1.5 0 0 1 0 3zm4.1 0a1.5 1.5 0 1 1 0-3 1.5 1.5 0 0 1 0 3zm4 0a1.5 1.5 0 1 1 0-3 1.5 1.5 0 0 1 0 3zm4.1 0a1.5 1.5 0 1 1 0-3 1.5 1.5 0 0 1 0 3zm-48.9 4a1.4 1.4 0 1 1 0-2.8 1.4 1.4 0 0 1 0 2.8zm4.1 0a1.4 1.4 0 1 1 0-2.8 1.4 1.4 0 0 1 0 2.8zm4.1 0a1.4 1.4 0 1 1 0-2.8 1.4 1.4 0 0 1 0 2.8zm4 0a1.4 1.4 0 1 1 0-2.8 1.4 1.4 0 0 1 0 2.8zm4.1 0a1.4 1.4 0 1 1 0-2.8 1.4 1.4 0 0 1 0 2.8zm4.1 0a1.4 1.4 0 1 1 0-2.8 1.4 1.4 0 0 1 0 2.8zm4.1 0a1.4 1.4 0 1 1 0-2.8 1.4 1.4 0 0 1 0 2.8zm4 0a1.4 1.4 0 1 1 0-2.8 1.4 1.4 0 0 1 0 2.8zm4.1 0a1.4 1.4 0 1 1 0-2.8 1.4 1.4 0 0 1 0 2.8zm4.1 0a1.4 1.4 0 1 1 0-2.8 1.4 1.4 0 0 1 0 2.8zm4.1 0a1.4 1.4 0 1 1 0-2.8 1.4 1.4 0 0 1 0 2.8zm4 0a1.4 1.4 0 1 1 0-2.8 1.4 1.4 0 0 1 0 2.8zm4.1 0a1.4 1.4 0 1 1 0-2.8 1.4 1.4 0 0 1 0 2.8zm-48.9 4a1.3 1.3 0 1 1 0-2.6 1.3 1.3 0 0 1 0 2.6zm4.1 0a1.3 1.3 0 1 1 0-2.6 1.3 1.3 0 0 1 0 2.6zm4.1 0a1.3 1.3 0 1 1 0-2.6 1.3 1.3 0 0 1 0 2.6zm4 0a1.3 1.3 0 1 1 0-2.6 1.3 1.3 0 0 1 0 2.6zm4.1 0a1.3 1.3 0 1 1 0-2.6 1.3 1.3 0 0 1 0 2.6zm4.1 0a1.3 1.3 0 1 1 0-2.6 1.3 1.3 0 0 1 0 2.6zm4.1 0a1.3 1.3 0 1 1 0-2.6 1.3 1.3 0 0 1 0 2.6zm4 0a1.3 1.3 0 1 1 0-2.6 1.3 1.3 0 0 1 0 2.6zm4.1 0a1.3 1.3 0 1 1 0-2.6 1.3 1.3 0 0 1 0 2.6zm4.1 0a1.3 1.3 0 1 1 0-2.6 1.3 1.3 0 0 1 0 2.6zm4.1 0a1.3 1.3 0 1 1 0-2.6 1.3 1.3 0 0 1 0 2.6zm4 0a1.3 1.3 0 1 1 0-2.6 1.3 1.3 0 0 1 0 2.6zm4.1 0a1.3 1.3 0 1 1 0-2.6 1.3 1.3 0 0 1 0 2.6zM1.9 99a1.2 1.2 0 1 1 0-2.4 1.2 1.2 0 0 1 0 2.4zM6 99a1.2 1.2 0 1 1 0-2.4A1.2 1.2 0 0 1 6 99zm4.1 0a1.2 1.2 0 1 1 0-2.4 1.2 1.2 0 0 1 0 2.4zm4 0a1.2 1.2 0 1 1 0-2.4 1.2 1.2 0 0 1 0 2.4zm4.1 0a1.2 1.2 0 1 1 0-2.4 1.2 1.2 0 0 1 0 2.4zm4.1 0a1.2 1.2 0 1 1 0-2.4 1.2 1.2 0 0 1 0 2.4zm4.1 0a1.2 1.2 0 1 1 0-2.4 1.2 1.2 0 0 1 0 2.4zm4 0a1.2 1.2 0 1 1 0-2.4 1.2 1.2 0 0 1 0 2.4zm4.1 0a1.2 1.2 0 1 1 0-2.4 1.2 1.2 0 0 1 0 2.4zm4.1 0a1.2 1.2 0 1 1 0-2.4 1.2 1.2 0 0 1 0 2.4zm4.1 0a1.2 1.2 0 1 1 0-2.4 1.2 1.2 0 0 1 0 2.4zm4 0a1.2 1.2 0 1 1 0-2.4 1.2 1.2 0 0 1 0 2.4zm4.1 0a1.2 1.2 0 1 1 0-2.4 1.2 1.2 0 0 1 0 2.4zm-48.9 4a1.1 1.1 0 1 1 0-2.2 1.1 1.1 0 0 1 0 2.2zm4.1 0a1.1 1.1 0 1 1 0-2.2 1.1 1.1 0 0 1 0 2.2zm4.1 0a1.1 1.1 0 1 1 0-2.2 1.1 1.1 0 0 1 0 2.2zm4 0a1.1 1.1 0 1 1 0-2.2 1.1 1.1 0 0 1 0 2.2zm4.1 0a1.1 1.1 0 1 1 0-2.2 1.1 1.1 0 0 1 0 2.2zm4.1 0a1.1 1.1 0 1 1 0-2.2 1.1 1.1 0 0 1 0 2.2zm4.1 0a1.1 1.1 0 1 1 0-2.2 1.1 1.1 0 0 1 0 2.2zm4 0a1.1 1.1 0 1 1 0-2.2 1.1 1.1 0 0 1 0 2.2zm4.1 0a1.1 1.1 0 1 1 0-2.2 1.1 1.1 0 0 1 0 2.2zm4.1 0a1.1 1.1 0 1 1 0-2.2 1.1 1.1 0 0 1 0 2.2zm4.1 0a1.1 1.1 0 1 1 0-2.2 1.1 1.1 0 0 1 0 2.2zm4 0a1.1 1.1 0 1 1 0-2.2 1.1 1.1 0 0 1 0 2.2zm4.1 0a1.1 1.1 0 1 1 0-2.2 1.1 1.1 0 0 1 0 2.2zm-48.9 3.9a.9.9 0 1 1 0-1.8.9.9 0 0 1 0 1.8zm4.1 0a.9.9 0 1 1 0-1.8.9.9 0 0 1 0 1.8zm4.1 0a.9.9 0 1 1 0-1.8.9.9 0 0 1 0 1.8zm4 0a.9.9 0 1 1 0-1.8.9.9 0 0 1 0 1.8zm4.1 0a.9.9 0 1 1 0-1.8.9.9 0 0 1 0 1.8zm4.1 0a.9.9 0 1 1 0-1.8.9.9 0 0 1 0 1.8zm4.1 0a.9.9 0 1 1 0-1.8.9.9 0 0 1 0 1.8zm4 0a.9.9 0 1 1 0-1.8.9.9 0 0 1 0 1.8zm4.1 0a.9.9 0 1 1 0-1.8.9.9 0 0 1 0 1.8zm4.1 0a.9.9 0 1 1 0-1.8.9.9 0 0 1 0 1.8zm4.1 0a.9.9 0 1 1 0-1.8.9.9 0 0 1 0 1.8zm4 0a.9.9 0 1 1 0-1.8.9.9 0 0 1 0 1.8zm4.1 0a.9.9 0 1 1 0-1.8.9.9 0 0 1 0 1.8zm-48.9 4a.8.8 0 1 1 0-1.6.8.8 0 0 1 0 1.6zm4.1 0a.8.8 0 1 1 0-1.6.8.8 0 0 1 0 1.6zm4.1 0a.8.8 0 1 1 0-1.6.8.8 0 0 1 0 1.6zm4 0a.8.8 0 1 1 0-1.6.8.8 0 0 1 0 1.6zm4.1 0a.8.8 0 1 1 0-1.6.8.8 0 0 1 0 1.6zm4.1 0a.8.8 0 1 1 0-1.6.8.8 0 0 1 0 1.6zm4.1 0a.8.8 0 1 1 0-1.6.8.8 0 0 1 0 1.6zm4 0a.8.8 0 1 1 0-1.6.8.8 0 0 1 0 1.6zm4.1 0a.8.8 0 1 1 0-1.6.8.8 0 0 1 0 1.6zm4.1 0a.8.8 0 1 1 0-1.6.8.8 0 0 1 0 1.6zm4.1 0a.8.8 0 1 1 0-1.6.8.8 0 0 1 0 1.6zm4 0a.8.8 0 1 1 0-1.6.8.8 0 0 1 0 1.6zm4.1 0a.8.8 0 1 1 0-1.6.8.8 0 0 1 0 1.6zm-48.9 3.9a.7.7 0 1 1 0-1.4.7.7 0 0 1 0 1.4zm4.1 0a.7.7 0 1 1 0-1.4.7.7 0 0 1 0 1.4zm4.1 0a.7.7 0 1 1 0-1.4.7.7 0 0 1 0 1.4zm4 0a.7.7 0 1 1 0-1.4.7.7 0 0 1 0 1.4zm4.1 0a.7.7 0 1 1 0-1.4.7.7 0 0 1 0 1.4zm4.1 0a.7.7 0 1 1 0-1.4.7.7 0 0 1 0 1.4zm4.1 0a.7.7 0 1 1 0-1.4.7.7 0 0 1 0 1.4zm4 0a.7.7 0 1 1 0-1.4.7.7 0 0 1 0 1.4zm4.1 0a.7.7 0 1 1 0-1.4.7.7 0 0 1 0 1.4zm4.1 0a.7.7 0 1 1 0-1.4.7.7 0 0 1 0 1.4zm4.1 0a.7.7 0 1 1 0-1.4.7.7 0 0 1 0 1.4zm4 0a.7.7 0 1 1 0-1.4.7.7 0 0 1 0 1.4zm4.1 0a.7.7 0 1 1 0-1.4.7.7 0 0 1 0 1.4zm-48.9 4a.6.6 0 1 1 0-1.2.6.6 0 0 1 0 1.2zm4.1 0a.6.6 0 1 1 0-1.2.6.6 0 0 1 0 1.2zm4.1 0a.6.6 0 1 1 0-1.2.6.6 0 0 1 0 1.2zm4 0a.6.6 0 1 1 0-1.2.6.6 0 0 1 0 1.2zm4.1 0a.6.6 0 1 1 0-1.2.6.6 0 0 1 0 1.2zm4.1 0a.6.6 0 1 1 0-1.2.6.6 0 0 1 0 1.2zm4.1 0a.6.6 0 1 1 0-1.2.6.6 0 0 1 0 1.2zm4 0a.6.6 0 1 1 0-1.2.6.6 0 0 1 0 1.2zm4.1 0a.6.6 0 1 1 0-1.2.6.6 0 0 1 0 1.2zm4.1 0a.6.6 0 1 1 0-1.2.6.6 0 0 1 0 1.2zm4.1 0a.6.6 0 1 1 0-1.2.6.6 0 0 1 0 1.2zm4 0a.6.6 0 1 1 0-1.2.6.6 0 0 1 0 1.2zm4.1 0a.6.6 0 1 1 0-1.2.6.6 0 0 1 0 1.2zm-48.9 4a.5.5 0 1 1 0-1 .5.5 0 0 1 0 1zm4.1 0a.5.5 0 1 1 0-1 .5.5 0 0 1 0 1zm4.1 0a.5.5 0 1 1 0-1 .5.5 0 0 1 0 1zm4 0a.5.5 0 1 1 0-1 .5.5 0 0 1 0 1zm4.1 0a.5.5 0 1 1 0-1 .5.5 0 0 1 0 1zm4.1 0a.5.5 0 1 1 0-1 .5.5 0 0 1 0 1zm4.1 0a.5.5 0 1 1 0-1 .5.5 0 0 1 0 1zm4 0a.5.5 0 1 1 0-1 .5.5 0 0 1 0 1zm4.1 0a.5.5 0 1 1 0-1 .5.5 0 0 1 0 1zm4.1 0a.5.5 0 1 1 0-1 .5.5 0 0 1 0 1zm4.1 0a.5.5 0 1 1 0-1 .5.5 0 0 1 0 1zm4 0a.5.5 0 1 1 0-1 .5.5 0 0 1 0 1zm4.1 0a.5.5 0 1 1 0-1 .5.5 0 0 1 0 1zm-48.9 4a.4.4 0 1 1 0-.8.4.4 0 0 1 0 .8zm4.1 0a.4.4 0 1 1 0-.8.4.4 0 0 1 0 .8zm4.1 0a.4.4 0 1 1 0-.8.4.4 0 0 1 0 .8zm4 0a.4.4 0 1 1 0-.8.4.4 0 0 1 0 .8zm4.1 0a.4.4 0 1 1 0-.8.4.4 0 0 1 0 .8zm4.1 0a.4.4 0 1 1 0-.8.4.4 0 0 1 0 .8zm4.1 0a.4.4 0 1 1 0-.8.4.4 0 0 1 0 .8zm4 0a.4.4 0 1 1 0-.8.4.4 0 0 1 0 .8zm4.1 0a.4.4 0 1 1 0-.8.4.4 0 0 1 0 .8zm4.1 0a.4.4 0 1 1 0-.8.4.4 0 0 1 0 .8zm4.1 0a.4.4 0 1 1 0-.8.4.4 0 0 1 0 .8zm4 0a.4.4 0 1 1 0-.8.4.4 0 0 1 0 .8zm4.1 0a.4.4 0 1 1 0-.8.4.4 0 0 1 0 .8zm-48.9 3.9a.3.3 0 1 1 0-.6.3.3 0 0 1 0 .6zm4.1 0a.3.3 0 1 1 0-.6.3.3 0 0 1 0 .6zm4.1 0a.3.3 0 1 1 0-.6.3.3 0 0 1 0 .6zm4 0a.3.3 0 1 1 0-.6.3.3 0 0 1 0 .6zm4.1 0a.3.3 0 1 1 0-.6.3.3 0 0 1 0 .6zm4.1 0a.3.3 0 1 1 0-.6.3.3 0 0 1 0 .6zm4.1 0a.3.3 0 1 1 0-.6.3.3 0 0 1 0 .6zm4 0a.3.3 0 1 1 0-.6.3.3 0 0 1 0 .6zm4.1 0a.3.3 0 1 1 0-.6.3.3 0 0 1 0 .6zm4.1 0a.3.3 0 1 1 0-.6.3.3 0 0 1 0 .6zm4.1 0a.3.3 0 1 1 0-.6.3.3 0 0 1 0 .6zm4 0a.3.3 0 1 1 0-.6.3.3 0 0 1 0 .6zm4.1 0a.3.3 0 1 1 0-.6.3.3 0 0 1 0 .6zm-48.9 4a.2.2 0 1 1 0-.4.2.2 0 0 1 0 .4zm4.1 0a.2.2 0 1 1 0-.4.2.2 0 0 1 0 .4zm4.1 0a.2.2 0 1 1 0-.4.2.2 0 0 1 0 .4zm4 0a.2.2 0 1 1 0-.4.2.2 0 0 1 0 .4zm4.1 0a.2.2 0 1 1 0-.4.2.2 0 0 1 0 .4zm4.1 0a.2.2 0 1 1 0-.4.2.2 0 0 1 0 .4zm4.1 0a.2.2 0 1 1 0-.4.2.2 0 0 1 0 .4zm4 0a.2.2 0 1 1 0-.4.2.2 0 0 1 0 .4zm4.1 0a.2.2 0 1 1 0-.4.2.2 0 0 1 0 .4zm4.1 0a.2.2 0 1 1 0-.4.2.2 0 0 1 0 .4zm4.1 0a.2.2 0 1 1 0-.4.2.2 0 0 1 0 .4zm4 0a.2.2 0 1 1 0-.4.2.2 0 0 1 0 .4zm4.1 0a.2.2 0 1 1 0-.4.2.2 0 0 1 0 .4zm-48.9 4.1a.2.2 0 1 1 0-.4.2.2 0 0 1 0 .4zm4.1 0a.2.2 0 1 1 0-.4.2.2 0 0 1 0 .4zm4.1 0a.2.2 0 1 1 0-.4.2.2 0 0 1 0 .4zm4 0a.2.2 0 1 1 0-.4.2.2 0 0 1 0 .4zm4.1 0a.2.2 0 1 1 0-.4.2.2 0 0 1 0 .4zm4.1 0a.2.2 0 1 1 0-.4.2.2 0 0 1 0 .4zm4.1 0a.2.2 0 1 1 0-.4.2.2 0 0 1 0 .4zm4 0a.2.2 0 1 1 0-.4.2.2 0 0 1 0 .4zm4.1 0a.2.2 0 1 1 0-.4.2.2 0 0 1 0 .4zm4.1 0a.2.2 0 1 1 0-.4.2.2 0 0 1 0 .4zm4.1 0a.2.2 0 1 1 0-.4.2.2 0 0 1 0 .4zm4 0a.2.2 0 1 1 0-.4.2.2 0 0 1 0 .4zm4.1 0a.2.2 0 1 1 0-.4.2.2 0 0 1 0 .4zm-48.9 4a.1.1 0 1 1 0-.2.1.1 0 0 1 0 .2zm4.1 0a.1.1 0 1 1 0-.2.1.1 0 0 1 0 .2zm4.1 0a.1.1 0 1 1 0-.2.1.1 0 0 1 0 .2zm4 0a.1.1 0 1 1 0-.2.1.1 0 0 1 0 .2zm4.1 0a.1.1 0 1 1 0-.2.1.1 0 0 1 0 .2zm4.1 0a.1.1 0 1 1 0-.2.1.1 0 0 1 0 .2zm4.1 0a.1.1 0 1 1 0-.2.1.1 0 0 1 0 .2zm4 0a.1.1 0 1 1 0-.2.1.1 0 0 1 0 .2zm4.1 0a.1.1 0 1 1 0-.2.1.1 0 0 1 0 .2zm4.1 0a.1.1 0 1 1 0-.2.1.1 0 0 1 0 .2zm4.1 0a.1.1 0 1 1 0-.2.1.1 0 0 1 0 .2zm4 0a.1.1 0 1 1 0-.2.1.1 0 0 1 0 .2zm4.1 0a.1.1 0 1 1 0-.2.1.1 0 0 1 0 .2z" fill="#000" fill-rule="nonzero"/></svg>
