<?xml version="1.0" encoding="UTF-8"?>
<!DOCTYPE svg PUBLIC "-//W3C//DTD SVG 1.1//EN" "http://www.w3.org/Graphics/SVG/1.1/DTD/svg11.dtd">
<svg version="1.1" xmlns="http://www.w3.org/2000/svg" xmlns:xlink="http://www.w3.org/1999/xlink" x="0" y="0" width="287" height="108" viewBox="0, 0, 287, 108">
  <g id="Wordmark---Primary---02">
    <g id="moz-logo-bw-rgb">
      <path d="M0,64.851 L150,64.851 L150,107.743 L0,107.743 z" fill="#000000" id="Rectangle"/>
      <path d="M143.265,95.638 C142.972,95.721 142.725,95.766 142.477,95.766 C141.6,95.766 141.188,95.391 141.188,94.311 L141.188,86.158 C141.188,81.876 137.775,79.791 133.74,79.791 C130.658,79.791 129,80.166 125.707,81.493 L124.972,85.813 L129.255,86.271 L129.862,84.156 C130.74,83.698 131.61,83.616 132.735,83.616 C135.772,83.616 135.817,85.903 135.817,87.816 L135.817,88.438 C134.857,88.311 133.777,88.273 132.735,88.273 C128.452,88.273 123.997,89.353 123.997,93.973 C123.997,97.881 127.072,99.343 129.78,99.343 C132.817,99.343 134.73,97.513 135.81,95.601 C136.057,97.888 137.43,99.343 139.927,99.343 C141.09,99.343 142.298,99.013 143.295,98.466 L143.265,95.638 z M131.745,95.518 C130.125,95.518 129.54,94.558 129.54,93.351 C129.54,91.311 131.205,90.771 133.117,90.771 C133.987,90.771 134.947,90.898 135.825,91.018 C135.697,94.146 133.658,95.518 131.745,95.518 z M124.537,70.303 L116.422,98.931 L111.135,98.931 L119.25,70.303 L124.537,70.303 z M113.64,70.303 L105.525,98.931 L100.245,98.931 L108.36,70.303 L113.64,70.303 z M91.11,80.166 L96.727,80.166 L96.727,86.901 L91.11,86.901 L91.11,80.166 z M91.11,92.188 L96.727,92.188 L96.727,98.931 L91.11,98.931 L91.11,92.188 z M82.935,91.941 L87.18,92.353 L86.017,98.931 L69.622,98.931 L69.082,96.103 L79.402,84.246 L73.537,84.246 L72.705,87.156 L68.835,86.736 L69.502,80.158 L85.98,80.158 L86.4,82.986 L75.99,94.851 L82.065,94.851 L82.935,91.941 z M56.047,79.791 C49.305,79.791 45.975,84.328 45.975,89.818 C45.975,95.811 49.972,99.343 55.755,99.343 C61.747,99.343 66.075,95.556 66.075,89.563 C66.075,84.321 62.782,79.791 56.047,79.791 z M55.92,95.226 C53.01,95.226 51.51,92.728 51.51,89.481 C51.51,85.941 53.212,83.908 55.965,83.908 C58.5,83.908 60.54,85.611 60.54,89.398 C60.54,92.976 58.71,95.226 55.92,95.226 z M41.145,94.851 L43.642,94.851 L43.642,98.931 L35.775,98.931 L35.775,88.363 C35.775,85.116 34.695,83.871 32.572,83.871 C29.992,83.871 28.95,85.701 28.95,88.326 L28.95,94.851 L31.447,94.851 L31.447,98.931 L23.587,98.931 L23.587,88.363 C23.587,85.116 22.507,83.871 20.385,83.871 C17.805,83.871 16.762,85.701 16.762,88.326 L16.762,94.851 L20.34,94.851 L20.34,98.931 L8.902,98.931 L8.902,94.851 L11.4,94.851 L11.4,84.238 L8.902,84.238 L8.902,80.158 L16.762,80.158 L16.762,82.986 C17.887,80.991 19.845,79.783 22.462,79.783 C25.17,79.783 27.66,81.073 28.582,83.818 C29.625,81.321 31.747,79.783 34.702,79.783 C38.07,79.783 41.152,81.823 41.152,86.271 L41.152,94.851 L41.145,94.851 z" fill="#FFFFFF" id="Shape"/>
    </g>
    <path d="M19.737,44.376 C32.959,44.376 40.893,35.991 40.893,23.22 C40.893,10.836 33.604,2.451 19.221,2.451 L0,2.451 L0,9.804 L4.515,9.804 L4.515,37.023 L0,37.023 L0,44.376 L19.737,44.376 z M19.028,37.023 L13.158,37.023 L13.158,9.804 L19.028,9.804 C27.219,9.804 31.605,14.125 31.605,23.349 C31.605,32.959 27.09,37.023 19.028,37.023 z M58.824,45.021 C67.209,45.021 71.982,40.377 72.369,35.217 L65.403,33.927 C65.08,35.668 63.855,38.442 59.404,38.442 C55.212,38.442 53.019,36.056 52.568,31.541 L71.66,31.541 C71.982,30.057 72.111,28.638 72.111,27.348 C71.982,19.802 66.499,14.706 58.437,14.706 C49.214,14.706 43.86,21.414 43.86,30.379 C43.86,40.119 50.181,45.021 58.824,45.021 z M63.533,26.703 L52.632,26.703 C53.148,23.091 55.019,20.64 58.437,20.64 C62.371,20.64 63.919,23.801 63.533,26.703 z M93.848,44.376 L104.232,21.543 L107.199,21.543 L107.199,15.286 L93.912,15.286 L93.912,21.543 L96.234,21.543 L91.912,33.734 L91.525,33.734 L85.85,21.543 L88.623,21.543 L88.623,15.286 L73.788,15.286 L73.788,21.543 L76.884,21.543 L87.849,44.376 L93.848,44.376 z M123.969,45.021 C132.354,45.021 137.127,40.377 137.514,35.217 L130.548,33.927 C130.225,35.668 129,38.442 124.549,38.442 C120.357,38.442 118.164,36.056 117.713,31.541 L136.805,31.541 C137.127,30.057 137.256,28.638 137.256,27.348 C137.127,19.802 131.645,14.706 123.582,14.706 C114.358,14.706 109.005,21.414 109.005,30.379 C109.005,40.119 115.326,45.021 123.969,45.021 z M128.678,26.703 L117.777,26.703 C118.293,23.091 120.163,20.64 123.582,20.64 C127.517,20.64 129.064,23.801 128.678,26.703 z M156.025,44.376 L156.025,38.119 L152.156,38.119 L152.156,0 L139.643,0 L139.643,6.321 L143.835,6.321 L143.835,38.119 L139.965,38.119 L139.965,44.376 L156.025,44.376 z M173.634,45.021 C182.922,45.021 189.63,39.087 189.63,29.864 C189.63,21.672 184.599,14.642 174.085,14.642 C163.637,14.642 158.477,21.672 158.477,30.186 C158.477,39.539 164.669,45.021 173.634,45.021 z M173.892,38.636 C169.377,38.636 167.055,34.701 167.055,29.735 C167.055,24.252 169.699,21.027 173.956,21.027 C177.891,21.027 181.051,23.671 181.051,29.605 C181.051,35.153 178.214,38.636 173.892,38.636 z M209.238,58.114 L209.238,51.665 L204.078,51.665 L204.078,40.7 C205.82,43.409 208.786,45.021 212.979,45.021 C221.751,45.021 226.331,37.732 226.331,29.154 C226.331,20.059 221.235,14.706 213.882,14.706 C208.593,14.706 205.626,17.479 204.078,20.833 L204.078,15.286 L191.565,15.286 L191.565,21.543 L195.758,21.543 L195.758,51.665 L191.887,51.665 L191.887,58.114 L209.238,58.114 z M210.915,38.442 C206.787,38.442 204.078,35.54 204.078,30.767 L204.143,29.735 C204.336,24.833 206.594,21.285 210.915,21.285 C214.914,21.285 217.688,24.316 217.688,29.993 C217.688,35.798 214.85,38.442 210.915,38.442 z M244.068,45.021 C252.453,45.021 257.226,40.377 257.613,35.217 L250.647,33.927 C250.324,35.668 249.099,38.442 244.648,38.442 C240.456,38.442 238.263,36.056 237.811,31.541 L256.904,31.541 C257.226,30.057 257.355,28.638 257.355,27.348 C257.226,19.802 251.743,14.706 243.681,14.706 C234.458,14.706 229.104,21.414 229.104,30.379 C229.104,40.119 235.425,45.021 244.068,45.021 z M248.777,26.703 L237.876,26.703 C238.392,23.091 240.262,20.64 243.681,20.64 C247.615,20.64 249.163,23.801 248.777,26.703 z M278.124,44.376 L278.124,38.119 L272.964,38.119 L272.964,25.993 C272.964,23.156 274.641,21.672 276.512,21.672 C277.285,21.672 277.931,21.93 278.769,22.446 L279.866,27.413 L286.186,26.703 L284.897,16.512 C282.897,15.351 280.768,14.899 279.156,14.899 C275.221,14.899 273.286,17.479 272.319,20.833 L272.319,15.286 L260.451,15.286 L260.451,21.608 L264.643,21.608 L264.643,38.119 L260.773,38.119 L260.773,44.376 L278.124,44.376 z" fill="#000000" id="Developer"/>
  </g>
</svg>
