<?xml version="1.0" encoding="UTF-8"?>
<!DOCTYPE svg PUBLIC "-//W3C//DTD SVG 1.1//EN" "http://www.w3.org/Graphics/SVG/1.1/DTD/svg11.dtd">
<svg version="1.1" xmlns="http://www.w3.org/2000/svg" xmlns:xlink="http://www.w3.org/1999/xlink" x="0" y="0" width="287" height="108" viewBox="0, 0, 287, 108">
  <g id="Wordmark---Secondary---01">
    <g id="moz-logo-bw-rgb">
      <path d="M0.274,64.979 L150.274,64.979 L150.274,107.872 L0.274,107.872 z" fill="#FFFFFF" id="Rectangle"/>
      <path d="M143.539,95.767 C143.246,95.849 142.999,95.894 142.751,95.894 C141.874,95.894 141.462,95.519 141.462,94.439 L141.462,86.287 C141.462,82.004 138.049,79.919 134.014,79.919 C130.932,79.919 129.274,80.294 125.981,81.622 L125.246,85.942 L129.529,86.399 L130.136,84.284 C131.014,83.827 131.884,83.744 133.009,83.744 C136.046,83.744 136.091,86.032 136.091,87.944 L136.091,88.567 C135.132,88.439 134.051,88.402 133.009,88.402 C128.727,88.402 124.271,89.482 124.271,94.102 C124.271,98.009 127.346,99.472 130.054,99.472 C133.091,99.472 135.004,97.642 136.084,95.729 C136.331,98.017 137.704,99.472 140.201,99.472 C141.364,99.472 142.572,99.142 143.569,98.594 L143.539,95.767 z M132.019,95.647 C130.399,95.647 129.814,94.687 129.814,93.479 C129.814,91.439 131.479,90.899 133.391,90.899 C134.261,90.899 135.221,91.027 136.099,91.147 C135.971,94.274 133.932,95.647 132.019,95.647 z M124.811,70.432 L116.696,99.059 L111.409,99.059 L119.524,70.432 L124.811,70.432 z M113.914,70.432 L105.799,99.059 L100.519,99.059 L108.634,70.432 L113.914,70.432 z M91.384,80.294 L97.001,80.294 L97.001,87.029 L91.384,87.029 L91.384,80.294 z M91.384,92.317 L97.001,92.317 L97.001,99.059 L91.384,99.059 L91.384,92.317 z M83.209,92.069 L87.454,92.482 L86.291,99.059 L69.896,99.059 L69.356,96.232 L79.676,84.374 L73.811,84.374 L72.979,87.284 L69.109,86.864 L69.776,80.287 L86.254,80.287 L86.674,83.114 L76.264,94.979 L82.339,94.979 L83.209,92.069 z M56.321,79.919 C49.579,79.919 46.249,84.457 46.249,89.947 C46.249,95.939 50.246,99.472 56.029,99.472 C62.021,99.472 66.349,95.684 66.349,89.692 C66.349,84.449 63.056,79.919 56.321,79.919 z M56.194,95.354 C53.284,95.354 51.784,92.857 51.784,89.609 C51.784,86.069 53.486,84.037 56.239,84.037 C58.774,84.037 60.814,85.739 60.814,89.527 C60.814,93.104 58.984,95.354 56.194,95.354 z M41.419,94.979 L43.916,94.979 L43.916,99.059 L36.049,99.059 L36.049,88.492 C36.049,85.244 34.969,83.999 32.846,83.999 C30.266,83.999 29.224,85.829 29.224,88.454 L29.224,94.979 L31.721,94.979 L31.721,99.059 L23.861,99.059 L23.861,88.492 C23.861,85.244 22.781,83.999 20.659,83.999 C18.079,83.999 17.036,85.829 17.036,88.454 L17.036,94.979 L20.614,94.979 L20.614,99.059 L9.176,99.059 L9.176,94.979 L11.674,94.979 L11.674,84.367 L9.176,84.367 L9.176,80.287 L17.036,80.287 L17.036,83.114 C18.161,81.119 20.119,79.912 22.736,79.912 C25.444,79.912 27.934,81.202 28.856,83.947 C29.899,81.449 32.021,79.912 34.976,79.912 C38.344,79.912 41.426,81.952 41.426,86.399 L41.426,94.979 L41.419,94.979 z" fill="#000000" id="Shape"/>
    </g>
    <path d="M20.276,44.504 C33.499,44.504 41.432,36.119 41.432,23.348 C41.432,10.964 34.144,2.579 19.76,2.579 L0.539,2.579 L0.539,9.932 L5.054,9.932 L5.054,37.151 L0.539,37.151 L0.539,44.504 L20.276,44.504 z M19.567,37.151 L13.697,37.151 L13.697,9.932 L19.567,9.932 C27.758,9.932 32.144,14.254 32.144,23.477 C32.144,33.088 27.629,37.151 19.567,37.151 z M59.363,45.149 C67.748,45.149 72.521,40.505 72.909,35.345 L65.942,34.055 C65.62,35.797 64.395,38.57 59.944,38.57 C55.751,38.57 53.558,36.184 53.107,31.669 L72.199,31.669 C72.521,30.185 72.65,28.766 72.65,27.476 C72.521,19.93 67.039,14.834 58.976,14.834 C49.753,14.834 44.399,21.542 44.399,30.508 C44.399,40.247 50.72,45.149 59.363,45.149 z M64.072,26.831 L53.171,26.831 C53.687,23.219 55.558,20.768 58.976,20.768 C62.911,20.768 64.459,23.929 64.072,26.831 z M94.387,44.504 L104.771,21.671 L107.738,21.671 L107.738,15.415 L94.451,15.415 L94.451,21.671 L96.773,21.671 L92.452,33.862 L92.065,33.862 L86.389,21.671 L89.162,21.671 L89.162,15.415 L74.327,15.415 L74.327,21.671 L77.424,21.671 L88.388,44.504 L94.387,44.504 z M124.508,45.149 C132.893,45.149 137.667,40.505 138.053,35.345 L131.087,34.055 C130.765,35.797 129.54,38.57 125.089,38.57 C120.896,38.57 118.703,36.184 118.252,31.669 L137.344,31.669 C137.667,30.185 137.796,28.766 137.796,27.476 C137.667,19.93 132.184,14.834 124.121,14.834 C114.898,14.834 109.544,21.542 109.544,30.508 C109.544,40.247 115.866,45.149 124.508,45.149 z M129.217,26.831 L118.316,26.831 C118.832,23.219 120.703,20.768 124.121,20.768 C128.056,20.768 129.604,23.929 129.217,26.831 z M156.565,44.504 L156.565,38.248 L152.695,38.248 L152.695,0.128 L140.182,0.128 L140.182,6.449 L144.374,6.449 L144.374,38.248 L140.505,38.248 L140.505,44.504 L156.565,44.504 z M174.173,45.149 C183.462,45.149 190.169,39.215 190.169,29.992 C190.169,21.8 185.139,14.77 174.625,14.77 C164.176,14.77 159.016,21.8 159.016,30.314 C159.016,39.667 165.208,45.149 174.173,45.149 z M174.432,38.764 C169.917,38.764 167.594,34.829 167.594,29.863 C167.594,24.38 170.239,21.155 174.496,21.155 C178.43,21.155 181.591,23.8 181.591,29.734 C181.591,35.281 178.753,38.764 174.432,38.764 z M209.777,58.243 L209.777,51.793 L204.617,51.793 L204.617,40.828 C206.359,43.537 209.326,45.149 213.518,45.149 C222.29,45.149 226.87,37.861 226.87,29.282 C226.87,20.188 221.775,14.834 214.421,14.834 C209.132,14.834 206.165,17.608 204.617,20.962 L204.617,15.415 L192.104,15.415 L192.104,21.671 L196.297,21.671 L196.297,51.793 L192.427,51.793 L192.427,58.243 L209.777,58.243 z M211.454,38.57 C207.326,38.57 204.617,35.668 204.617,30.895 L204.682,29.863 C204.876,24.961 207.133,21.413 211.454,21.413 C215.453,21.413 218.227,24.445 218.227,30.121 C218.227,35.926 215.389,38.57 211.454,38.57 z M244.607,45.149 C252.992,45.149 257.766,40.505 258.152,35.345 L251.186,34.055 C250.864,35.797 249.639,38.57 245.188,38.57 C240.995,38.57 238.803,36.184 238.351,31.669 L257.443,31.669 C257.766,30.185 257.895,28.766 257.895,27.476 C257.766,19.93 252.283,14.834 244.221,14.834 C234.997,14.834 229.643,21.542 229.643,30.508 C229.643,40.247 235.964,45.149 244.607,45.149 z M249.316,26.831 L238.415,26.831 C238.932,23.219 240.802,20.768 244.221,20.768 C248.155,20.768 249.703,23.929 249.316,26.831 z M278.664,44.504 L278.664,38.248 L273.504,38.248 L273.504,26.122 C273.504,23.284 275.181,21.8 277.051,21.8 C277.825,21.8 278.47,22.058 279.309,22.574 L280.405,27.541 L286.726,26.831 L285.436,16.64 C283.436,15.479 281.308,15.028 279.695,15.028 C275.761,15.028 273.826,17.608 272.858,20.962 L272.858,15.415 L260.991,15.415 L260.991,21.736 L265.183,21.736 L265.183,38.248 L261.313,38.248 L261.313,44.504 L278.664,44.504 z" fill="#FFFFFF" id="Developer"/>
  </g>
</svg>
