<?xml version="1.0" encoding="UTF-8"?>
<svg width="60px" height="61px" viewBox="0 0 60 61" version="1.1" xmlns="http://www.w3.org/2000/svg" xmlns:xlink="http://www.w3.org/1999/xlink">
    <!-- Generator: Sketch 63.1 (92452) - https://sketch.com -->
    <title>css</title>
    <desc>Created with Sketch.</desc>
    <g id="css" stroke="none" stroke-width="1" fill="none" fill-rule="evenodd" transform="translate(0.000000, 1.000000)">
        <path d="M13.8138947,49 C12.3246316,49 11.2635789,48.5693333 10.6294737,47.7092667 C9.99410526,46.8479333 9.67705263,45.7560667 9.67705263,44.4298667 L9.67705263,42.5260667 C9.67705263,41.8205333 9.73768421,41.1998667 9.85768421,40.6640667 C9.97768421,40.1282667 10.1254737,39.6482 10.2997895,39.2251333 C10.4766316,38.8020667 10.6724211,38.4271333 10.8922105,38.1041333 C11.1107368,37.7786 11.3178947,37.4619333 11.5149474,37.1516 C11.8875789,36.5866667 12.144,36.1002667 12.2867368,35.6911333 C12.4294737,35.282 12.5002105,34.8526 12.5002105,34.4004 C12.5002105,33.667 12.2046316,33.1033333 11.6134737,32.7081333 C11.0223158,32.3129333 10.1355789,32.1153333 8.95452632,32.1153333 L6,32.1153333 L6,27.8846667 L8.95578947,27.8846667 C10.1368421,27.8846667 11.0223158,27.6870667 11.6134737,27.2918667 C12.2046316,26.8966667 12.5002105,26.333 12.5002105,25.5996 C12.5002105,25.1474 12.4294737,24.718 12.2867368,24.3076 C12.144,23.8997333 11.8875789,23.4133333 11.5162105,22.8484 C11.3178947,22.5659333 11.1107368,22.2556 10.8922105,21.9174 C10.6610354,21.555308 10.4631683,21.1728895 10.3010526,20.7748667 C10.1125973,20.3087842 9.96426656,19.8273831 9.85768421,19.3359333 C9.72963562,18.7237759 9.66906151,18.0993613 9.67705263,17.4739333 L9.67705263,15.5701333 C9.67705263,14.2439333 9.99410526,13.1508 10.6294737,12.2894667 C11.2635789,11.4306667 12.3246316,11 13.8126316,11 L19.6572632,11 L19.6572632,15.1888667 L13.584,15.1888667 L13.584,17.2206 C13.584,18.2922 13.7204211,19.1104667 13.9945263,19.6754 C14.2673684,20.2390667 14.568,20.8027333 14.8964211,21.3676667 C15.2690526,21.9604667 15.6189474,22.5950667 15.9473684,23.2714667 C16.2757895,23.9491333 16.44,24.7382667 16.44,25.6414 C16.44,26.8257333 16.1229474,27.7719333 15.4875789,28.4762 C14.8534737,29.1817333 13.8795789,29.6326667 12.5658947,29.8315333 L12.5658947,30.1697333 C13.8795789,30.3673333 14.8522105,30.8182667 15.4875789,31.5238 C16.1229474,32.2280667 16.44,33.1742667 16.44,34.3586 C16.44,35.2617333 16.2757895,36.0508667 15.9473684,36.7272667 C15.6189474,37.4049333 15.2690526,38.0395333 14.8964211,38.6323333 C14.568,39.1972667 14.2673684,39.7609333 13.9945263,40.3246 C13.7204211,40.8895333 13.584,41.7078 13.584,42.7794 L13.584,44.8111333 L19.6572632,44.8111333 L19.6572632,49 L13.8138947,49 Z M46.1861053,11 C47.6753684,11 48.7364211,11.4306667 49.3705263,12.2907333 C50.0058947,13.1520667 50.3229474,14.2439333 50.3229474,15.5701333 L50.3229474,17.4739333 C50.3309385,18.0993613 50.2703644,18.7237759 50.1423158,19.3359333 C50.0361434,19.8273443 49.8882355,20.3087445 49.7002105,20.7748667 C49.5376908,21.1729354 49.3394002,21.5553553 49.1077895,21.9174 C48.8892632,22.2556 48.6821053,22.5659333 48.4850526,22.8484 C48.1124211,23.4133333 47.856,23.8997333 47.7132632,24.3088667 C47.5699667,24.7239451 47.4977887,25.1603572 47.4997895,25.5996 C47.4997895,26.333 47.7953684,26.8966667 48.3865263,27.2918667 C48.9776842,27.6870667 49.8644211,27.8846667 51.0454737,27.8846667 L54,27.8846667 L54,32.1153333 L51.0442105,32.1153333 C49.8631579,32.1153333 48.9776842,32.3129333 48.3865263,32.7081333 C47.7953684,33.1033333 47.4997895,33.667 47.4997895,34.4004 C47.4997895,34.8526 47.5705263,35.282 47.7132632,35.6924 C47.856,36.1002667 48.1124211,36.5866667 48.4837895,37.1516 C48.6821053,37.4619333 48.8892632,37.7786 49.1077895,38.1041333 C49.3275789,38.4284 49.5246316,38.8008 49.6989474,39.2251333 C49.8745263,39.6482 50.0223158,40.1282667 50.1423158,40.6640667 C50.2623158,41.1998667 50.3229474,41.8205333 50.3229474,42.5260667 L50.3229474,44.4298667 C50.3229474,45.7560667 50.0058947,46.8492 49.3705263,47.7105333 C48.7364211,48.5693333 47.6753684,49 46.1873684,49 L40.3427368,49 L40.3427368,44.8111333 L46.416,44.8111333 L46.416,42.7794 C46.416,41.7078 46.2795789,40.8895333 46.0054737,40.3246 C45.7326316,39.7609333 45.432,39.1972667 45.1035789,38.6323333 C44.7188918,38.0174336 44.3680514,37.3818832 44.0526316,36.7285333 C43.7242105,36.0508667 43.56,35.2617333 43.56,34.3586 C43.56,33.1742667 43.8770526,32.2280667 44.5124211,31.5238 C45.1465263,30.8182667 46.1204211,30.3673333 47.4341053,30.1684667 L47.4341053,29.8302667 C46.1204211,29.6326667 45.1477895,29.1817333 44.5124211,28.4762 C43.8770526,27.7719333 43.56,26.8257333 43.56,25.6414 C43.56,24.7382667 43.7242105,23.9491333 44.0526316,23.2727333 C44.3810526,22.5950667 44.7309474,21.9604667 45.1035789,21.3676667 C45.432,20.8027333 45.7326316,20.2390667 46.0054737,19.6754 C46.2795789,19.1104667 46.416,18.2922 46.416,17.2206 L46.416,15.1888667 L40.3427368,15.1888667 L40.3427368,11 L46.1861053,11 L46.1861053,11 Z" fill="#000000" fill-rule="nonzero"></path>
    </g>
</svg>