<svg width="60" height="60" viewBox="0 0 60 60" version="1.1" xmlns="http://www.w3.org/2000/svg" xmlns:xlink="http://www.w3.org/1999/xlink"><g id="default-d" stroke="none" stroke-width="1" fill="none" fill-rule="evenodd"><path d="M51,9 L51,51 L9,51 L9,9 L51,9 Z M36.33,18.36 L29.76,18.36 L29.76,21.3 L32.46,21.3 L32.46,27.54 C31.71,26.16 30.36,25.2 28.14,25.2 C24.09,25.2 22.11,28.47 22.11,32.49 C22.11,36.69 24.3,39.3 27.84,39.3 C30.3,39.3 31.68,38.04 32.46,36.48 L32.46,39 L38.13,39 L38.13,36.09 L36.33,36.09 L36.33,18.36 Z M29.37,28.26 C31.14,28.26 32.46,29.58 32.46,31.83 L32.46,32.16 C32.46,34.17 31.2,36.24 29.16,36.24 C27.51,36.24 26.13,34.83 26.13,32.25 C26.13,29.49 27.66,28.26 29.37,28.26 Z" fill="#000"/></g></svg>
