<?xml version="1.0" encoding="UTF-8"?>
<svg width="60px" height="60px" viewBox="0 0 60 60" version="1.1" xmlns="http://www.w3.org/2000/svg" xmlns:xlink="http://www.w3.org/1999/xlink">
    <!-- Generator: Sketch 63.1 (92452) - https://sketch.com -->
    <title>default</title>
    <desc>Created with Sketch.</desc>
    <g id="default" stroke="none" stroke-width="1" fill="none" fill-rule="evenodd">
        <path d="M51,9 L51,51 L9,51 L9,9 L51,9 Z M36.2486187,23 C34.0460405,23 32.46593,24.12 31.6998158,25.94 C31.0294659,23.9333333 29.1620626,23 27.1510129,23 C25.1878453,23 23.7513812,23.8866667 22.8895028,25.3333333 L22.8895028,25.3333333 L22.8895028,23.28 L17,23.28 L17,26.2666666 L18.8674033,26.2666666 L18.8674033,33.9666666 L17,33.9666666 L17,36.9533334 L25.6187845,36.9533334 L25.6187845,33.9666666 L22.9373849,33.9666666 L22.9373849,29.2066666 C22.9373849,27.34 23.7034991,25.9866666 25.6187845,25.9866666 C27.198895,25.9866666 28.0128913,26.8733333 28.0128913,29.2533333 L28.0128913,29.2533333 L28.0128913,36.9533334 L33.902394,36.9533334 L33.902394,33.9666666 L32.0349908,33.9666666 L32.0349908,29.2066666 C32.0349908,27.34 32.8011049,25.9866666 34.7163903,25.9866666 C36.2965008,25.9866666 37.1104971,26.8733333 37.1104971,29.2533333 L37.1104971,29.2533333 L37.1104971,37 L43,37 L43,34.0133333 L41.0847145,34.0133333 L41.0847145,27.7133333 C41.0847145,24.4933333 38.7863719,23 36.2486187,23 Z" fill="#000000"></path>
    </g>
</svg>