<?xml version="1.0" encoding="UTF-8"?>
<svg width="60px" height="61px" viewBox="0 0 60 61" version="1.1" xmlns="http://www.w3.org/2000/svg" xmlns:xlink="http://www.w3.org/1999/xlink">
    <!-- Generator: Sketch 63.1 (92452) - https://sketch.com -->
    <title>devtools</title>
    <desc>Created with Sketch.</desc>
    <g id="devtools" stroke="none" stroke-width="1" fill="none" fill-rule="evenodd" transform="translate(0.000000, 1.000000)">
        <path d="M38.3259794,9 C39.9780594,9 41.5899372,9.3125562 43.1132166,9.92758539 C43.7183579,10.170228 44.1575313,10.6981923 44.286186,11.329608 C44.4161894,11.9643501 44.2172401,12.6229533 43.7535694,13.0805301 L38.6915325,18.0885827 L38.8490133,21.0130351 L41.8271606,21.1694297 L46.895074,16.1558114 C47.3505127,15.7058185 48.0075072,15.5085464 48.6417182,15.6333716 C49.2820631,15.7614857 49.808169,16.1972093 50.0536092,16.7916285 C51.0221743,19.1389882 51.2336634,21.6496742 50.7505664,24.0213596 C50.2677667,26.391585 49.0910792,28.6235497 47.2803174,30.4141076 C44.8961522,32.7737574 41.7219326,34.0742236 38.3438174,34.0742236 C37.3138808,34.0742236 36.2965864,33.9455603 35.3047126,33.7008567 L19.6242897,49.1652543 L18.9499204,49.8318392 C18.6816261,50.097246 18.3441059,50.274894 17.9824253,50.3510305 C17.124364,50.7761636 16.175829,51 15.2020716,51 C13.5463014,51 11.9886991,50.3606749 10.8174057,49.2029291 C9.85508364,48.2517482 9.26587752,47.0425195 9.07145943,45.7769922 C8.88437016,44.5591704 9.06321272,43.2896699 9.62490555,42.1481529 C9.69829501,41.7687239 9.88700135,41.4127964 10.1715215,41.1335883 L26.2557181,25.2700172 C25.5881329,23.1537581 25.5064623,20.9417551 25.966432,18.8479678 C26.4706899,16.5525799 27.6259041,14.3989914 29.3746209,12.6698107 C31.7634227,10.3041445 34.9436786,9 38.3259794,9 Z M28.0326385,28.9529205 L13.1958012,43.6796892 C12.9352623,44.1111947 12.8351291,44.606077 12.8854554,45.085346 C12.9390311,45.5955599 13.1631289,46.0887718 13.5488976,46.4702972 C13.9329776,46.8506134 14.4505425,47.0594536 15.028465,47.0576128 C15.6264765,47.0556578 16.2766222,46.8365357 16.9319041,46.3926303 L31.4120467,32.1165288 C30.6593492,31.6387757 29.9607103,31.0822091 29.3217083,30.4495183 C28.8511598,29.9835129 28.4208776,29.4838415 28.0326385,28.9529205 Z M38.3267781,12.855476 C35.9771661,12.855476 33.7678205,13.7595431 32.1076705,15.4030084 C30.8674499,16.6295254 30.0584689,18.1647513 29.7397447,19.8343818 C29.4241106,21.4878247 29.5891525,23.2705033 30.2796729,25.0166512 C30.7261576,26.0250439 31.3400507,26.9195511 32.1076345,27.6793441 C32.9495231,28.5128847 33.9675014,29.1561138 35.4126571,29.725795 C36.3549559,30.0527471 37.3426669,30.2184842 38.3440837,30.2184842 C40.6896892,30.2184842 42.8922244,29.3177216 44.5487449,27.6799751 C46.2746611,25.9733757 47.1705553,23.6866055 47.1226141,21.3671443 L43.9493832,24.505316 C43.5650757,24.8893186 43.0225067,25.0985252 42.474367,25.0632231 L36.9055312,24.7701936 C36.4126951,24.7445916 35.9691875,24.5361869 35.642115,24.2131223 C35.3112096,23.8862718 35.0993412,23.4423233 35.0725869,22.9496629 L34.7757031,17.432797 C34.7467372,16.8861706 34.9522284,16.3530233 35.3431137,15.9646923 L38.3267781,12.855476 Z" fill="#000000" fill-rule="nonzero"></path>
    </g>
</svg>