<?xml version="1.0" encoding="UTF-8"?>
<svg width="60px" height="61px" viewBox="0 0 60 61" version="1.1" xmlns="http://www.w3.org/2000/svg" xmlns:xlink="http://www.w3.org/1999/xlink">
    <!-- Generator: Sketch 63.1 (92452) - https://sketch.com -->
    <title>extensions</title>
    <desc>Created with Sketch.</desc>
    <g id="extensions" stroke="none" stroke-width="1" fill="none" fill-rule="evenodd" transform="translate(0.000000, 1.000000)">
        <path d="M37.1535,6 C41.2418333,6 43.99,9.08733333 43.99,11.9693333 C43.99,14.1601667 42.9138333,15.8505 42.0246667,17 L54,17 L54,27.2813333 C54,30.013 52.2601667,31.2578333 50.6413333,31.2578333 C49.6531667,31.2578333 48.6595,30.8068333 47.8436667,29.991 C47.268,29.3878333 47.0333333,28.99 46.2926667,28.99 C45.4676667,28.99 43.99,30.0496667 43.99,32.1616667 C43.99,34.2736667 45.4676667,35.3333333 46.2926667,35.3333333 C47.0278333,35.3333333 47.2698333,34.9336667 47.8455,34.3305 C48.6595,33.5146667 49.6531667,33.0636667 50.6413333,33.0636667 C52.2601667,33.0636667 54,34.3085 54,37.0401667 L54,50 L41.042,50 C39.2563333,50 37.8593333,49.197 37.302,47.8531667 C36.7648333,46.5515 37.159,45.0151667 38.3323333,43.8436667 C38.9318333,43.2716667 39.3333333,43.026 39.3333333,42.2926667 C39.3333333,41.4658333 38.2736667,39.99 36.1635,39.99 C34.0515,39.99 32.9918333,41.4658333 32.9918333,42.2926667 C32.9918333,43.0315 33.3933333,43.268 33.9946667,43.8455 C35.1661667,45.0151667 35.5603333,46.5515 35.0231667,47.8531667 C34.4658333,49.197 33.0651667,50 31.2813333,50 L21,50 L21,38.0246667 C19.6158333,39.0678333 17.8705,39.9918333 15.9693333,39.9918333 C13.0873333,39.99 10,37.2418333 10,33.1516667 C10,29.0615 13.0873333,26.3133333 15.9693333,26.3133333 C17.8705,26.3133333 19.6158333,27.2355 21,28.2805 L21,17 L32.2786667,17 C31.3895,15.8505 30.3133333,14.1638333 30.3133333,11.9693333 C30.3133333,9.08733333 33.0615,6 37.1535,6 Z M50.3333333,20.6666667 L42.032,20.6666667 C40.2463333,20.6666667 38.8493333,19.8636667 38.292,18.5198333 C37.7548333,17.2181667 38.149,15.6818333 39.3223333,14.5103333 C41.702,12.2278333 39.5625,9.66666667 37.1535,9.66666667 C34.7885,9.66666667 32.5995,12.2278333 34.9828333,14.514 C36.1543333,15.6836667 36.5485,17.22 36.0113333,18.5198333 C35.4558333,19.8636667 34.057,20.6666667 32.2713333,20.6666667 L24.6666667,20.6666667 L24.6666667,28.2713333 C24.6666667,31.003 22.9268333,32.2478333 21.308,32.2478333 C20.3198333,32.2478333 19.3261667,31.7968333 18.5103333,30.981 C16.2278333,28.6013333 13.6666667,30.7885 13.6666667,33.1516667 C13.6666667,35.4085 16.2296667,37.7056667 18.5121667,35.3205 C20.1493333,33.6833333 22.6206667,33.7181667 23.8453333,35.3205 C24.3825,36.0245 24.6666667,36.9631667 24.6666667,38.032 L24.6666667,46.3333333 L31.2886667,46.3333333 C30.0511667,45.1453333 29.3233333,44.1938333 29.3233333,42.2926667 C29.3233333,39.4106667 32.0715,36.3233333 36.1616667,36.3233333 C40.25,36.3233333 42.9981667,39.4106667 42.9981667,42.2926667 C42.9981667,44.181 42.2721667,45.1563333 41.031,46.3333333 L50.3333333,46.3333333 L50.3333333,37.0346667 C49.1471667,38.2685 48.1975,39 46.2926667,39 C43.4106667,39 40.3233333,36.2518333 40.3233333,32.1616667 C40.3233333,28.0715 43.4106667,25.3233333 46.2926667,25.3233333 C48.192,25.3233333 49.1563333,26.0548333 50.3333333,27.2905 L50.3333333,20.6666667 L50.3333333,20.6666667 Z" fill="#000000" fill-rule="nonzero" transform="translate(32.000000, 28.000000) rotate(-270.000000) translate(-32.000000, -28.000000) "></path>
    </g>
</svg>