<?xml version="1.0" encoding="UTF-8"?>
<svg width="60px" height="61px" viewBox="0 0 60 61" version="1.1" xmlns="http://www.w3.org/2000/svg" xmlns:xlink="http://www.w3.org/1999/xlink">
    <!-- Generator: Sketch 63.1 (92452) - https://sketch.com -->
    <title>firefox</title>
    <desc>Created with Sketch.</desc>
    <g id="firefox" stroke="none" stroke-width="1" fill="none" fill-rule="evenodd" transform="translate(0.000000, 1.000000)">
        <path d="M30.389,51 C42.757,51 52,41.4132755 52,29.8396081 C52,16.54999 41.147,9.28819866 31.455,9.01120662 C26.324,8.86621079 22.165,10.1281745 18.975,12.8000977 C22.283,11.4091377 25.171,10.7131577 27.641,10.7131577 C37.891,10.7131577 42.489,17.7929543 43.593,20.6868711 C46.7,28.833637 40.685,34.9394615 35.851,35.1004569 C31.016,35.2604523 26.755,33.0005172 26.755,27.6896699 C26.755,26.2047125 27.408,24.7007558 28.713,23.1777995 C26.581,23.2127985 25.022,24.0977731 24.037,25.8347232 C23.051,27.5706733 22.776,29.5146174 23.209,31.6665556 C22.016,27.9736617 22.229,24.5927589 23.849,21.5238471 C25.468,18.4539353 27.824,16.165001 30.916,14.6550444 C25.652,12.549105 20.855,13.4250798 16.525,17.2819689 C15.036,18.6079308 13.764,20.517876 12.707,23.0118043 C12.763,22.2028275 12.947,21.3318526 13.258,20.3988794 C14.121,17.8159536 14.751,16.6289877 14.698,16.6689866 C10.55,19.8798943 9,25.2407402 9,29.8406081 C9,43.7032097 20.389,51 30.389,51 L30.389,51 Z" fill="#000000" fill-rule="nonzero"></path>
    </g>
</svg>