<?xml version="1.0" encoding="UTF-8"?>
<svg width="60px" height="61px" viewBox="0 0 60 61" version="1.1" xmlns="http://www.w3.org/2000/svg" xmlns:xlink="http://www.w3.org/1999/xlink">
    <!-- Generator: Sketch 63.1 (92452) - https://sketch.com -->
    <title>javascript</title>
    <desc>Created with Sketch.</desc>
    <g id="javascript" stroke="none" stroke-width="1" fill="none" fill-rule="evenodd" transform="translate(0.000000, 1.000000)">
        <path d="M34.7905778,35.5949659 C36.0131506,37.563011 37.6037477,39.0096001 40.4169176,39.0096001 C42.7801729,39.0096001 44.2898432,37.8451101 44.2898432,36.2361003 C44.2898432,34.307948 42.7387461,33.6250212 40.1375274,32.5032735 L38.7116742,31.9001323 C34.5959681,30.1714441 31.8617982,28.0058347 31.8617982,23.4276604 C31.8617982,19.210421 35.1210289,16 40.2146005,16 C43.8408921,16 46.4478913,17.2442756 48.3265493,20.502188 L43.8852092,23.3136809 C42.9073436,21.5849927 41.8524049,20.9039655 40.2146005,20.9039655 C38.5440401,20.9039655 37.4852477,21.9487771 37.4852477,23.3136809 C37.4852477,25.0005767 38.5450035,25.6835035 40.9920759,26.7283151 L42.4179291,27.3305065 C47.2639033,29.379287 50,31.4679602 50,36.1639133 C50,41.2265002 45.9661842,44 40.5489053,44 C35.2520533,44 31.8300055,41.5114488 30.1555914,38.2497371 L34.7905778,35.5949659 Z M14.6426937,36.082228 C15.538669,37.6494454 16.3537176,38.9744564 18.3133023,38.9744564 C20.1871432,38.9744564 21.3692526,38.2516368 21.3692526,35.4410937 L21.3692526,16.3210421 L27.0726655,16.3210421 L27.0726655,35.51708 C27.0726655,41.3395298 23.6101544,43.9895519 18.5560828,43.9895519 C13.9894988,43.9895519 11.3449264,41.6596221 10,38.8533532 L14.6426937,36.082228 Z" fill="#000000" fill-rule="nonzero"></path>
    </g>
</svg>