<?xml version="1.0" encoding="UTF-8"?>
<svg width="60px" height="61px" viewBox="0 0 60 61" version="1.1" xmlns="http://www.w3.org/2000/svg" xmlns:xlink="http://www.w3.org/1999/xlink">
    <!-- Generator: Sketch 63.1 (92452) - https://sketch.com -->
    <title>mixedreality</title>
    <desc>Created with Sketch.</desc>
    <g id="mixedreality" stroke="none" stroke-width="1" fill="none" fill-rule="evenodd" transform="translate(0.000000, 1.000000)">
        <path d="M30,13 C37.0162537,13 44.0282985,14.1426236 51.029519,16.4243432 C52.2042296,16.8072487 53,17.90868 53,19.1517626 L53,19.1517626 L53,39.3520519 C53,39.4116638 52.9981927,39.4708508 52.9946303,39.5295603 L53,39.3822125 C53,40.0235903 52.786361,40.6464367 52.3932652,41.1511534 C50.5851208,43.472497 48.627878,45.0810994 46.5035988,45.9365353 C44.534538,46.7294655 41.9414279,47.0656943 38.6954981,46.9894694 C37.1490243,46.9531532 35.9142857,45.6805846 35.9142857,44.123236 L35.9145216,39.3098508 C33.9425281,39.1177487 31.9710812,39.0217441 30,39.0217441 C28.0289149,39.0217441 26.0574641,39.1177491 24.0854623,39.3098534 L24.0857143,44.123236 C24.0857143,45.6805846 22.8509756,46.9531532 21.3045019,46.9894694 C18.0585721,47.0656943 15.465462,46.7294655 13.4964012,45.9365353 C11.372122,45.0810994 9.41487916,43.472497 7.60673483,41.1511534 C7.21363899,40.6464367 7,40.0235903 7,39.3822125 L7,39.3822125 L7,19.1516755 C7,17.9085921 7.79584156,16.8071614 8.97059589,16.4243057 C15.9717171,14.1426211 22.9837541,13 30,13 Z M20.1426691,39.8218977 C17.8665454,40.1913418 15.5895241,40.6887895 13.3113206,41.3143857 C13.7822931,41.6610895 14.2532677,41.9385796 14.7240299,42.1501687 L14.7240299,42.1501687 L14.9607416,42.2510227 C16.150057,42.7299536 17.8410283,42.9979171 20.0159871,43.0277397 L20.0159871,43.0277397 L20.1428571,43.0282106 Z M39.8572911,39.8218881 L39.8571428,43.0282106 L39.9840129,43.0277397 C42.1589717,42.9979171 43.849943,42.7299536 45.0392584,42.2510227 L45.2759701,42.1501687 C45.7467323,41.9385796 46.2177069,41.6610895 46.6883168,41.3161697 C44.4104589,40.6887796 42.133431,40.1913319 39.8572911,39.8218881 Z M10.9428571,23.7862335 L10.9428571,37.8644381 L11.0920982,37.8201909 C14.107284,36.9369042 17.1243597,36.2648309 20.142784,35.8042493 L20.141981,26.7985811 L19.9837387,26.7987663 C18.2194095,26.7703699 16.4867095,26.4405925 14.7947323,25.8118173 L14.7947323,25.8118173 L14.3725917,25.6483958 C13.2050259,25.1782233 12.0919412,24.5786147 11.0348224,23.8514982 L11.0348224,23.8514982 L10.9428571,23.7862335 Z M49.0571428,23.7862335 L48.9651776,23.8514982 C47.9080588,24.5786147 46.7949741,25.1782233 45.6274083,25.6483958 L45.2052676,25.8118173 C43.5132905,26.4405925 41.7805905,26.7703699 40.0162613,26.7987663 L39.8571428,26.7985811 L39.857491,35.8042912 C42.8758112,36.2648698 45.8927828,36.9369256 48.9078647,37.8201801 L48.9078647,37.8201801 L49.0571429,37.8644381 L49.0571428,23.7862335 Z M30,16.9694186 C23.9090076,16.9694186 17.8144289,17.8861897 11.7109888,19.7225299 L12.0313751,19.6294361 C13.2155376,20.6417755 14.4823786,21.4174117 15.8369321,21.9628832 C17.5368787,22.6474426 19.2653593,22.9257108 21.0439283,22.8033371 C22.6129654,22.695379 23.9718524,23.8883871 24.079087,25.467994 C24.081848,25.5168244 24.0832286,25.5412396 24.084057,25.5656738 L24.084057,25.5656738 L24.085625,35.3229901 C25.7939494,35.1666198 27.5026301,35.0779847 29.211569,35.0571351 L29.211569,35.0571351 L30,35.0523255 C31.9719511,35.0523255 33.9435785,35.1425837 35.9147315,35.3230227 L35.915943,25.5656738 C35.9167714,25.5412396 35.918152,25.5168244 35.920913,25.467994 C36.0281476,23.8883871 37.3870345,22.695379 38.9560717,22.8033371 C40.7346406,22.9257108 42.4631213,22.6474426 44.1630679,21.9628832 C45.5180042,21.4172576 46.7851783,20.6413372 47.9696287,19.6285779 C42.2241039,17.9291784 36.4910651,17.0460603 30.761394,16.9741937 L30.761394,16.9741937 Z" fill="#000000" fill-rule="nonzero"></path>
    </g>
</svg>