<svg width="60" height="60" viewBox="0 0 60 60" version="1.1" xmlns="http://www.w3.org/2000/svg" xmlns:xlink="http://www.w3.org/1999/xlink"><g id="av1-video" stroke="none" stroke-width="1" fill="none" fill-rule="evenodd"><path d="M40.4696,28.7143 C41.84385,29.5676 41.84385,31.5824 40.4696,32.4357 L26.4005,41.17225 C24.9584,42.0681 23.10115,41.0216 23.10115,39.3127 L23.10115,21.8373 C23.10115,20.1284 24.9584,19.0819 26.4005,19.97775 L40.47075,28.7143 L40.4696,28.7143 Z M27.4286,25.7473 L27.4286,35.40385 L35.2049,30.575 L27.42975,25.74615 L27.4286,25.7473 Z M30,53 C17.2971,53 7,42.7029 7,30 C7,17.2971 17.2971,7 30,7 C42.7029,7 53,17.2971 53,30 C53,42.7029 42.7029,53 30,53 Z M30,48.8186 C40.39255,48.8186 48.8186,40.39255 48.8186,30 C48.8186,19.60745 40.39255,11.1814 30,11.1814 C19.60745,11.1814 11.1814,19.60745 11.1814,30 C11.1814,40.39255 19.60745,48.8186 30,48.8186 Z" id="av1video" fill="#000" fill-rule="nonzero"/></g></svg>
