<?xml version="1.0" encoding="UTF-8"?>
<svg width="60px" height="61px" viewBox="0 0 60 61" version="1.1" xmlns="http://www.w3.org/2000/svg" xmlns:xlink="http://www.w3.org/1999/xlink">
    <!-- Generator: Sketch 63.1 (92452) - https://sketch.com -->
    <title>rust</title>
    <desc>Created with Sketch.</desc>
    <g id="rust" stroke="none" stroke-width="1" fill="none" fill-rule="evenodd" transform="translate(0.000000, 1.000000)">
        <path d="M54.3476415,29.3943392 L52.275,28.1113203 C52.2575472,27.9094335 52.2377358,27.7080184 52.2160377,27.5075467 L53.9971698,25.8462259 C54.1783019,25.677358 54.259434,25.427358 54.2103774,25.1853769 C54.1627358,24.9424524 53.9924528,24.7424524 53.7608491,24.6561316 L51.4839623,23.8047165 C51.4268868,23.6075467 51.3669811,23.411792 51.3056604,23.2169807 L52.7259434,21.2443392 C52.8707547,21.0438675 52.9004717,20.7830184 52.8061321,20.5542448 C52.7117925,20.3264146 52.5056604,20.1632071 52.2617925,20.1231127 L49.8608491,19.7325467 C49.7674528,19.5504712 49.670283,19.3712259 49.5721698,19.1933958 L50.5811321,16.9787731 C50.684434,16.7533014 50.6632075,16.4910373 50.5254717,16.2863203 C50.3882075,16.0806599 50.1556604,15.9603769 49.9075472,15.9698108 L47.4707547,16.0547165 C47.3448113,15.8971693 47.2165094,15.7410373 47.0858491,15.5877354 L47.6457547,13.2141505 C47.7023585,12.9731127 47.6311321,12.7207542 47.4556604,12.5457542 C47.2816038,12.3712259 47.0287736,12.2990561 46.7877358,12.3556599 L44.4146226,12.9150939 C44.2608491,12.7849052 44.104717,12.6561316 43.9466981,12.5301882 L44.0320755,10.0933958 C44.0415094,9.84669764 43.9212264,9.61226368 43.715566,9.47547123 C43.509434,9.33773538 43.2485849,9.31698066 43.0235844,9.41933915 L40.8094335,10.4287731 C40.6306599,10.3306599 40.4514146,10.2334901 40.2702825,10.1396222 L39.8787731,7.73820708 C39.8391505,7.49481085 39.6759429,7.28820708 39.447641,7.19386745 C39.2198108,7.09905613 38.9584901,7.12971651 38.7580184,7.27405613 L36.7839618,8.69433915 C36.5896222,8.6325467 36.3943392,8.57311274 36.1971693,8.51650896 L35.3457542,6.23915047 C35.2594335,6.007075 35.0594335,5.83679198 34.816509,5.78867877 C34.5740561,5.74103726 34.3245278,5.82169764 34.1561316,6.00188632 L32.4948108,7.78443349 C32.2943392,7.76226368 32.0924524,7.74198066 31.8910373,7.72547123 L30.6080184,5.65235802 C30.4783014,5.44245236 30.2485844,5.31462217 30.0014146,5.31462217 C29.7542448,5.31462217 29.5245278,5.44245236 29.3952825,5.65235802 L28.1122637,7.72547123 C27.9103769,7.74198066 27.7084901,7.76226368 27.5080184,7.78443349 L25.8462259,6.00188632 C25.6778297,5.82169764 25.4278297,5.74103726 25.1858486,5.78867877 C24.9429241,5.83726368 24.7429241,6.007075 24.6566033,6.23915047 L23.8051882,8.51650896 C23.6080184,8.57311274 23.4127354,8.6330184 23.2179241,8.69433915 L21.2443392,7.27405613 C21.0438675,7.12924481 20.7825467,7.09858443 20.5542448,7.19386745 C20.3264146,7.28820708 20.1627354,7.49481085 20.1231127,7.73820708 L19.7316033,10.1396222 C19.5504712,10.2334901 19.3712259,10.3301882 19.1924524,10.4287731 L16.9783014,9.41933915 C16.7533014,9.31650896 16.4910373,9.33773538 16.2863203,9.47547123 C16.0806599,9.61226368 15.9603769,9.84669764 15.9698108,10.0933958 L16.0547165,12.5301882 C15.8971693,12.6561316 15.7410373,12.7849052 15.586792,12.9150939 L13.2136788,12.3556599 C12.972641,12.2995278 12.7198108,12.3712259 12.5452825,12.5457542 C12.3698108,12.7207542 12.2985844,12.9731127 12.3551882,13.2141505 L12.9141505,15.5877354 C12.7844335,15.741509 12.6561316,15.8971693 12.5301882,16.0547165 L10.0933958,15.9698108 C9.84764104,15.9627354 9.61273538,16.0806599 9.47547123,16.2863203 C9.33773538,16.4910373 9.31698066,16.7533014 9.41933915,16.9787731 L10.4287731,19.1933958 C10.3306599,19.3712259 10.2334901,19.5504712 10.1396222,19.7325467 L7.73867877,20.1231127 C7.49481085,20.1627354 7.28915047,20.3259429 7.19433915,20.5542448 C7.09999953,20.7830184 7.13065991,21.0438675 7.27452783,21.2443392 L8.69481085,23.2169807 C8.6330184,23.411792 8.57311274,23.6075467 8.51650896,23.8047165 L6.23915047,24.6561316 C6.0080184,24.7424524 5.83773538,24.9424524 5.78962217,25.1853769 C5.74150896,25.4278297 5.82216934,25.677358 6.00282972,25.8462259 L7.78443349,27.5075467 C7.76226368,27.7080184 7.74245236,27.9099052 7.72547123,28.1113203 L5.65282972,29.3943392 C5.44292406,29.5240561 5.31509387,29.7533014 5.31509387,30.0009429 C5.31509387,30.2485844 5.44292406,30.4778297 5.65282972,30.607075 L7.72547123,31.8900939 C7.74245236,32.0919807 7.76226368,32.2933958 7.78443349,32.4938675 L6.00282972,34.1556599 C5.82216934,34.3240561 5.74150896,34.5740561 5.78962217,34.8160373 C5.83773538,35.0589618 6.0080184,35.2584901 6.23915047,35.3452825 L8.51650896,36.1966976 C8.57311274,36.3938675 8.6330184,36.5896222 8.69481085,36.7844335 L7.27452783,38.7575467 C7.13018821,38.9584901 7.09952783,39.2193392 7.19433915,39.4471693 C7.28915047,39.6759429 7.49528255,39.8391505 7.73915047,39.8783014 L10.1396222,40.2688675 C10.2334901,40.4509429 10.3297165,40.6301882 10.4287731,40.8089618 L9.41933915,43.022641 C9.31650896,43.2476415 9.33773538,43.509434 9.47547123,43.7150943 C9.61320708,43.9212264 9.84764104,44.0415094 10.0933958,44.0316038 L12.5292448,43.9462264 C12.6561316,44.104717 12.7839618,44.2599057 12.9141505,44.4141509 L12.3551882,46.7882075 C12.2985844,47.0287736 12.3698108,47.2801887 12.5452825,47.4551887 C12.7193392,47.6311321 12.972641,47.7014151 13.2136788,47.6448113 L15.586792,47.0858491 C15.7410373,47.2169811 15.8971693,47.3443396 16.0547165,47.4698113 L15.9698108,49.9070755 C15.9603769,50.1537736 16.0806599,50.3877358 16.2863203,50.5254717 C16.4910373,50.6627358 16.7533014,50.6834906 16.9783014,50.5806604 L19.1924524,49.5716981 C19.3707542,49.6707547 19.5499995,49.7669811 19.7316033,49.8608491 L20.1231127,52.2608491 C20.1627354,52.5051887 20.3259429,52.7117925 20.5542448,52.8056604 C20.782075,52.9004717 21.0438675,52.8698113 21.2443392,52.7259434 L23.2169807,51.304717 C23.411792,51.3665094 23.6075467,51.4268868 23.8047165,51.4834906 L24.6561316,53.7599057 C24.7424524,53.9910377 24.9424524,54.1622642 25.1853769,54.209434 C25.4278297,54.2584906 25.677358,54.1773585 25.8457542,53.9962264 L27.5075467,52.2146226 C27.7080184,52.2377358 27.9099052,52.2570755 28.111792,52.275 L29.3948108,54.3476415 C29.5240561,54.5566038 29.7537731,54.6853774 30.0009429,54.6853774 C30.2481127,54.6853774 30.4778297,54.5570755 30.6075467,54.3476415 L31.8905656,52.275 C32.0924524,52.2570755 32.2938675,52.2377358 32.4943392,52.2146226 L34.1556599,53.9962264 C34.3240561,54.1773585 34.5740561,54.2584906 34.8160373,54.209434 C35.0589618,54.1617925 35.2589618,53.9910377 35.3452825,53.7599057 L36.1966976,51.4834906 C36.3938675,51.4268868 36.5896222,51.3665094 36.7844335,51.304717 L38.7575467,52.7259434 C38.9580184,52.8698113 39.2193392,52.9004717 39.4471693,52.8056604 C39.6754712,52.7117925 39.8386788,52.504717 39.8783014,52.2608491 L40.2698108,49.8608491 C40.4509429,49.7669811 40.6301882,49.6693396 40.8089618,49.5716981 L43.0231127,50.5806604 C43.2481132,50.6834906 43.5099057,50.6627358 43.7150943,50.5254717 C43.9207547,50.3877358 44.040566,50.1542453 44.0316038,49.9070755 L43.9466981,47.4698113 C44.1042453,47.3438679 44.2603774,47.2169811 44.4141509,47.0858491 L46.7872642,47.6448113 C47.0283019,47.7014151 47.2811321,47.6311321 47.4551887,47.4551887 C47.6306604,47.2801887 47.7018868,47.0287736 47.645283,46.7882075 L47.0863208,44.4141509 C47.2165094,44.2599057 47.3448113,44.104717 47.470283,43.9462264 L49.9070755,44.0316038 C50.1528302,44.0415094 50.3877358,43.9212264 50.525,43.7150943 C50.6627358,43.509434 50.6839623,43.2476415 50.5806604,43.022641 L49.5716981,40.8089618 C49.670283,40.6301882 49.7669811,40.4509429 49.8603774,40.2688675 L52.2613208,39.8783014 C52.5056604,39.8391505 52.7113208,39.6759429 52.8056604,39.4471693 C52.9,39.2193392 52.870283,38.9584901 52.7254717,38.7575467 L51.3051887,36.7844335 C51.3665094,36.5896222 51.4264151,36.3938675 51.4834906,36.1966976 L53.7603774,35.3452825 C53.9919811,35.2584901 54.1627358,35.0589618 54.2099057,34.8160373 C54.2589623,34.5735844 54.1778302,34.3240561 53.9966981,34.1556599 L52.215566,32.4938675 C52.2372642,32.2933958 52.2570755,32.091509 52.2745283,31.8900939 L54.3471698,30.607075 C54.5570755,30.4778297 54.6849057,30.2481127 54.6849057,30.0009429 C54.6849057,29.7537731 54.5575472,29.5240561 54.3476415,29.3943392 L54.3476415,29.3943392 Z M40.4754712,46.5882075 C39.6839618,46.4174528 39.1806599,45.6372642 39.3504712,44.8433962 C39.5198108,44.0504717 40.2995278,43.5457547 41.0905656,43.7165094 C41.882075,43.8858491 42.3863203,44.6674528 42.216509,45.4599057 C42.0466976,46.2523585 41.266509,46.7575472 40.4754712,46.5882075 Z M39.7712259,41.8249995 C39.0490561,41.6702825 38.3386788,42.1297165 38.1839618,42.8533014 L37.4481127,46.2872642 C35.177358,47.3179245 32.6556599,47.890566 29.9999995,47.890566 C27.2834901,47.890566 24.707075,47.2896226 22.3957542,46.2150943 L21.6603769,42.7811316 C21.5056599,42.0584901 20.7952825,41.5981127 20.0735844,41.7533014 L17.0419807,42.4042448 C16.4792448,41.8249995 15.9556599,41.2080184 15.4745278,40.5566033 L30.2254712,40.5566033 C30.3924524,40.5566033 30.5037731,40.5264146 30.5037731,40.3745278 L30.5037731,35.1566033 C30.5037731,35.0047165 30.3924524,34.9745278 30.2254712,34.9745278 L25.9113203,34.9745278 L25.9113203,31.6669807 L30.577358,31.6669807 C31.0033014,31.6669807 32.8547165,31.7886788 33.4466976,34.1551882 C33.632075,34.8830184 34.0391505,37.2504712 34.3174524,38.0084901 C34.5948108,38.8584901 35.7240561,40.5566033 36.927358,40.5566033 L44.2778302,40.5566033 C44.3613208,40.5566033 44.4504717,40.5471693 44.5443396,40.5301882 C44.034434,41.2231127 43.475,41.8787731 42.872641,42.491509 L39.7712259,41.8249995 L39.7712259,41.8249995 Z M19.3693392,46.5165094 C18.5778297,46.6872642 17.7985844,46.1825472 17.6283014,45.3896226 C17.4589618,44.595283 17.9622637,43.815566 18.7537731,43.6448113 C19.5452825,43.4754717 20.3249995,43.9801887 20.4948108,44.7731132 C20.6641505,45.565566 20.1603769,46.3466981 19.3693392,46.5165094 Z M13.7735844,23.8254712 C14.1018863,24.566509 13.7679241,25.4349052 13.0278297,25.7627354 C12.2877354,26.091509 11.4216976,25.757075 11.0933958,25.0155656 C10.7650939,24.2740561 11.0990561,23.407075 11.8391505,23.0783014 C12.5797165,22.7499995 13.4452825,23.0839618 13.7735844,23.8254712 Z M12.0537731,27.902358 L15.211792,26.4990561 C15.8863203,26.1995278 16.1910373,25.4089618 15.891509,24.7330184 L15.2410373,23.2622637 L17.7990561,23.2622637 L17.7990561,34.7924524 L12.6382071,34.7924524 C12.1905656,33.2188675 11.9504712,31.5580184 11.9504712,29.841509 C11.9504712,29.1863203 11.9858486,28.5386788 12.0537731,27.902358 L12.0537731,27.902358 Z M25.9122637,26.7825467 L25.9122637,23.3839618 L32.0037731,23.3839618 C32.3183958,23.3839618 34.2254712,23.747641 34.2254712,25.1735844 C34.2254712,26.3575467 32.7627354,26.782075 31.5599052,26.782075 L25.9122637,26.782075 L25.9122637,26.7825467 Z M48.05,29.841509 C48.05,30.2924524 48.0334906,30.7386788 48.0004717,31.1816033 L46.1485849,31.1816033 C45.9632075,31.1816033 45.8886792,31.3033014 45.8886792,31.4849052 L45.8886792,32.3353769 C45.8886792,34.3372637 44.7599057,34.772641 43.7707547,34.8834901 C42.8287731,34.9896222 41.7844335,34.4891505 41.6556599,33.9127354 C41.0999995,30.7872637 40.1740561,30.1198108 38.711792,28.966509 C40.5264146,27.8141505 42.4146222,26.1141505 42.4146222,23.8386788 C42.4146222,21.3816033 40.7301882,19.8339618 39.582075,19.0749995 C37.9712259,18.0132071 36.1877354,17.8004712 35.7066033,17.8004712 L16.5542448,17.8004712 C19.1514146,14.9018863 22.6712259,12.8485844 26.652358,12.1014146 L28.9099052,14.4698108 C29.4202825,15.0042448 30.2655656,15.0240561 30.7995278,14.5132071 L33.3254712,12.0971693 C38.6183958,13.0825467 43.0995278,16.377358 45.6820755,20.897641 L43.9528302,24.8033014 C43.6542453,25.4792448 43.9589623,26.2698108 44.6330189,26.5693392 L47.9622642,28.0481127 C48.0198113,28.6391505 48.05,29.2363203 48.05,29.841509 Z M28.9108486,10.086792 C29.4957542,9.52641462 30.4235844,9.54858443 30.9834901,10.1344335 C31.5424524,10.7216976 31.5212259,11.6504712 30.9349052,12.2103769 C30.3499995,12.7707542 29.4221693,12.7490561 28.8622637,12.1622637 C28.3037731,11.5759429 28.3249995,10.6471693 28.9108486,10.086792 L28.9108486,10.086792 Z M46.0712264,23.8966976 C46.3990566,23.1556599 47.2650943,22.8212259 48.0051887,23.1499995 C48.745283,23.4783014 49.0792453,24.3462259 48.7509434,25.0872637 C48.4231132,25.8287731 47.5570755,26.1632071 46.8165094,25.8344335 C46.0773585,25.5061316 45.7433962,24.6386788 46.0712264,23.8966976 L46.0712264,23.8966976 Z" fill="#000000" fill-rule="nonzero"></path>
    </g>
</svg>