<?xml version="1.0" encoding="UTF-8"?>
<!DOCTYPE svg PUBLIC "-//W3C//DTD SVG 1.1//EN" "http://www.w3.org/Graphics/SVG/1.1/DTD/svg11.dtd">
<svg version="1.1" xmlns="http://www.w3.org/2000/svg" xmlns:xlink="http://www.w3.org/1999/xlink" x="0" y="0" width="60" height="60" viewBox="0, 0, 60, 60">
  <g id="Layer_1">
    <path d="M40.196,36.123 L38.051,36.123 L37.29,35.39 C39.951,32.294 41.553,28.276 41.553,23.904 C41.553,14.156 33.652,6.255 23.904,6.255 C14.156,6.255 6.255,14.156 6.255,23.904 C6.255,33.652 14.156,41.553 23.904,41.553 C28.276,41.553 32.294,39.951 35.39,37.29 L36.123,38.051 L36.123,40.196 L49.699,53.745 L53.745,49.699 L40.196,36.123 z M23.904,36.123 C17.143,36.123 11.686,30.665 11.686,23.904 C11.686,17.143 17.143,11.686 23.904,11.686 C30.665,11.686 36.123,17.143 36.123,23.904 C36.123,30.665 30.665,36.123 23.904,36.123 z" fill="#000000"/>
  </g>
</svg>
