<?xml version="1.0" encoding="UTF-8"?>
<svg xmlns="http://www.w3.org/2000/svg" width="60" height="60" viewBox="0 0 60 60">
  <path d="M40.196 36.123h-2.145l-.761-.733a17.572 17.572 0 004.263-11.486c0-9.748-7.901-17.649-17.649-17.649-9.748 0-17.649 7.901-17.649 17.649 0 9.748 7.901 17.649 17.649 17.649 4.372 0 8.39-1.602 11.486-4.263l.733.761v2.145l13.576 13.549 4.046-4.046-13.549-13.576zm-16.292 0a12.202 12.202 0 01-12.218-12.219 12.201 12.201 0 0112.218-12.218 12.202 12.202 0 0112.219 12.218 12.203 12.203 0 01-12.219 12.219z"/>
</svg>
