<svg width="60" height="61" viewBox="0 0 60 61" version="1.1" xmlns="http://www.w3.org/2000/svg" xmlns:xlink="http://www.w3.org/1999/xlink"><g id="security" stroke="none" stroke-width="1" fill="none" fill-rule="evenodd"><path d="M42.4444444,25.8282238 C45.5126931,25.8282238 48,28.2996685 48,31.3483501 L48,31.3483501 L48,45.4798736 C48,48.5285552 45.5126931,51 42.4444444,51 L42.4444444,51 L17.5555556,51 C14.4873069,51 12,48.5285552 12,45.4798736 L12,45.4798736 L12,31.3483501 C12,28.2996685 14.4873069,25.8282238 17.5555556,25.8282238 L17.5555556,25.8282238 Z M42.4444444,29.8027148 L17.5555556,29.8027148 C16.6964459,29.8027148 16,30.4947193 16,31.3483501 L16,31.3483501 L16,45.4798736 C16,46.3335045 16.6964459,47.025509 17.5555556,47.025509 L17.5555556,47.025509 L42.4444444,47.025509 C43.3035541,47.025509 44,46.3335045 44,45.4798736 L44,45.4798736 L44,31.3483501 C44,30.4947193 43.3035541,29.8027148 42.4444444,29.8027148 L42.4444444,29.8027148 Z M37.6279689,12.1032586 C39.528284,14.0035737 40.6069191,16.2026197 40.6796354,18.6962085 L40.6835212,18.9968527 L40.6765708,21.1696581 C40.6730487,22.2707056 39.7776182,23.1661361 38.6765708,23.1696581 C37.6279542,23.1730125 36.7710177,22.3661698 36.694825,21.3381939 L36.6893253,21.1824126 L36.6962757,19.0096072 C36.7010063,17.5307625 36.0749134,16.2070574 34.7995418,14.9316857 C32.1624841,12.294628 27.8867168,12.2995399 25.2493799,14.9368768 C24.0024768,16.1837799 23.3737864,17.4258642 23.3070137,18.8188652 L23.3010782,19.0524562 L23.2941277,21.2252615 C23.2906057,22.326309 22.3951752,23.2217395 21.2941277,23.2252615 C20.2455111,23.2286159 19.3885746,22.4217733 19.3123819,21.3937973 L19.3068823,21.2380161 L19.3138327,19.0652107 C19.3222409,16.436669 20.4177503,14.1477273 22.4389904,12.1264873 C26.6410264,7.92445132 33.4413495,7.91663922 37.6279689,12.1032586 Z" fill="#000" fill-rule="nonzero" transform="translate(0.000000, 1.000000)"/></g></svg>
