<?xml version="1.0" encoding="UTF-8"?>
<svg width="60px" height="60px" viewBox="0 0 60 60" version="1.1" xmlns="http://www.w3.org/2000/svg" xmlns:xlink="http://www.w3.org/1999/xlink">
    <!-- Generator: Sketch 63.1 (92452) - https://sketch.com -->
    <title>speaker</title>
    <desc>Created with Sketch.</desc>
    <g id="speaker" stroke="none" stroke-width="1" fill="none" fill-rule="evenodd">
        <path d="M30,12.5 C31.93025,12.5 33.5,14.06975 33.5,16 L33.5,28.25 C33.5,30.18025 31.93025,31.75 30,31.75 C28.06975,31.75 26.5,30.18025 26.5,28.25 L26.5,16 C26.5,14.06975 28.06975,12.5 30,12.5 Z M30,9 C26.13425,9 23,12.13425 23,16 L23,28.25 C23,32.11575 26.13425,35.25 30,35.25 C33.86575,35.25 37,32.11575 37,28.25 L37,16 C37,12.13425 33.86575,9 30,9 Z M44,24.75 L44,28.25 C44,35.9815 37.7315,42.25 30,42.25 C22.2685,42.25 16,35.9815 16,28.25 L16,24.75 L19.5,24.75 L19.5,28.25 C19.5,34.04075 24.20925,38.75 30,38.75 C35.79075,38.75 40.5,34.04075 40.5,28.25 L40.5,24.75 L44,24.75 Z M31.75,47.5 L31.75,44 L28.25,44 L28.25,47.5 L21.25,47.5 L21.25,51 L38.75,51 L38.75,47.5 L31.75,47.5 Z" fill="#000000" fill-rule="nonzero"></path>
    </g>
</svg>