<?xml version="1.0" encoding="UTF-8"?>
<svg width="60px" height="61px" viewBox="0 0 60 61" version="1.1" xmlns="http://www.w3.org/2000/svg" xmlns:xlink="http://www.w3.org/1999/xlink">
    <!-- Generator: Sketch 63.1 (92452) - https://sketch.com -->
    <title>voice</title>
    <desc>Created with Sketch.</desc>
    <defs>
        <path d="M38.1428571,11 C39.6419156,11 40.8571429,12.2152271 40.8571429,13.7142857 L40.8571429,46.2857143 C40.8571429,47.7847728 39.6419156,49 38.1428571,49 C36.6437987,49 35.4285714,47.7847728 35.4285714,46.2857143 L35.4285714,13.7142857 C35.4285714,12.2152271 36.6437987,11 38.1428571,11 Z M46.2857143,16.4285714 C47.7847728,16.4285714 49,17.6437985 49,19.1428571 L49,40.8571429 C49,42.3562013 47.7847728,43.5714286 46.2857143,43.5714286 C44.7866558,43.5714286 43.5714286,42.3562013 43.5714286,40.8571429 L43.5714286,19.1428571 C43.5714286,17.6437985 44.7866558,16.4285714 46.2857143,16.4285714 Z M21.8571429,19.1428571 C23.3562015,19.1428571 24.5714286,20.3580843 24.5714286,21.8571429 L24.5714286,38.1428571 C24.5714286,39.6419156 23.3562015,40.8571429 21.8571429,40.8571429 C20.3580842,40.8571429 19.1428571,39.6419156 19.1428571,38.1428571 L19.1428571,21.8571429 C19.1428571,20.3580843 20.3580842,19.1428571 21.8571429,19.1428571 Z M13.7142857,21.8571429 C15.2133443,21.8571429 16.4285714,23.07237 16.4285714,24.5714286 L16.4285714,35.4285714 C16.4285714,36.9276299 15.2133443,38.1428571 13.7142857,38.1428571 C12.2152271,38.1428571 11,36.9276299 11,35.4285714 L11,24.5714286 C11,23.07237 12.2152271,21.8571429 13.7142857,21.8571429 Z M30,24.5714286 C31.4990586,24.5714286 32.7142857,25.7866557 32.7142857,27.2857143 L32.7142857,32.7142857 C32.7142857,34.2133443 31.4990586,35.4285714 30,35.4285714 C28.5009414,35.4285714 27.2857143,34.2133443 27.2857143,32.7142857 L27.2857143,27.2857143 C27.2857143,25.7866557 28.5009414,24.5714286 30,24.5714286 Z" id="path-1"></path>
    </defs>
    <g id="voice" stroke="none" stroke-width="1" fill="none" fill-rule="evenodd" transform="translate(0.000000, 1.000000)">
        <mask id="mask-2" fill="white">
            <use xlink:href="#path-1"></use>
        </mask>
        <use fill="#000000" xlink:href="#path-1"></use>
    </g>
</svg>