<svg width="60" height="61" viewBox="0 0 60 61" version="1.1" xmlns="http://www.w3.org/2000/svg" xmlns:xlink="http://www.w3.org/1999/xlink"><g id="web-compat" stroke="none" stroke-width="1" fill="none" fill-rule="evenodd"><path d="M42.25,9 L17.75,9 C12.9165,9 9,12.91825 9,17.75 L9,42.25 C9,47.08175 12.9165,51 17.75,51 L42.25,51 C47.0835,51 51,47.08175 51,42.25 L51,17.75 C51,12.91825 47.0835,9 42.25,9 Z M12.5,42.25 L12.5,17.75 C12.5,14.8555 14.8555,12.5 17.75,12.5 L24.75,12.5 L24.75,23.175 C24.75,24.48925 25.0895,25.6285 25.73175,26.47025 C27.17025,28.35325 30.0105,28.355 31.967,26.38975 L32.39575,25.94175 C33.11675,25.1735 33.514,24.75 34.7145,24.75 C36.36475,24.75 38.75,26.619 38.75,30 C38.75,33.381 36.36475,35.25 34.7145,35.25 C33.51225,35.25 33.11675,34.8265 32.39575,34.05825 L31.97225,33.6155 C30.98525,32.62325 29.79875,32.07725 28.6315,32.07725 C26.76075,32.07725 24.75,33.563 24.75,36.825 L24.75,47.5 L17.75,47.5 C14.8555,47.5 12.5,45.1445 12.5,42.25 Z M47.5,42.25 C47.5,45.1445 45.1445,47.5 42.25,47.5 L28.25,47.5 L28.25,36.825 C28.25,35.99375 28.495,35.5755 28.6315,35.5755 C28.796,35.5755 29.118,35.7085 29.496,36.08825 L29.8425,36.4505 C30.7,37.3675 31.9985,38.75 34.7145,38.75 C38.35275,38.75 42.25,35.23425 42.25,30 C42.25,24.76575 38.35275,21.25 34.7145,21.25 C31.9985,21.25 30.7,22.6325 29.8425,23.54775 L29.49075,23.91525 C29.1145,24.2915 28.78375,24.4245 28.51425,24.3475 C28.45125,24.267 28.25,23.9415 28.25,23.175 L28.25,12.5 L42.25,12.5 C45.1445,12.5 47.5,14.8555 47.5,17.75 L47.5,42.25 Z" fill="#000" fill-rule="nonzero" transform="translate(0.000000, 1.000000)"/></g></svg>
