<?xml version="1.0" encoding="UTF-8"?>
<svg width="60px" height="61px" viewBox="0 0 60 61" version="1.1" xmlns="http://www.w3.org/2000/svg" xmlns:xlink="http://www.w3.org/1999/xlink">
    <!-- Generator: Sketch 63.1 (92452) - https://sketch.com -->
    <title>webassembly</title>
    <desc>Created with Sketch.</desc>
    <g id="webassembly" stroke="none" stroke-width="1" fill="none" fill-rule="evenodd" transform="translate(0.000000, 1.000000)">
        <path d="M34.8041256,9 L34.8041256,9.22635198 C34.8041256,11.8860634 32.6480035,14.0421855 29.9882922,14.0421855 C27.3285807,14.0421855 25.1724586,11.8860634 25.1724586,9.22635198 L25.1724586,9 L9,9 L9,51 L51,51 L51,9 L34.8041256,9 Z M21.5235086,31.6351979 L23.4279874,41.7546924 L23.463111,41.7546924 L25.7578517,31.6351979 L28.3608994,31.6351979 L30.421483,41.8795762 L30.4566066,41.8795762 L32.630366,31.6351979 L35.3622003,31.6351979 L31.8147185,46.5041814 L29.043858,46.5041814 L26.9988849,36.3846869 L26.9637613,36.3846869 L24.7509756,46.5041814 L21.9332838,46.5041814 L18.7409403,31.6351979 L21.5235086,31.6351979 Z M41.3410146,35.2997584 L42.7342501,40.7556216 L38.9565137,40.7556216 L40.1702286,35.2997584 L41.3410146,35.2997584 Z M44.3655454,46.5041814 L43.4172086,43.1947593 L38.4101467,43.1947593 L37.6803567,46.5041814 L34.8977885,46.5041814 L38.4960044,31.6351979 L42.8864523,31.6351979 L47.2612897,46.5041814 L44.3655454,46.5041814 Z" fill="#000000" fill-rule="nonzero"></path>
    </g>
</svg>