<?xml version="1.0" encoding="UTF-8"?>
<svg width="60px" height="61px" viewBox="0 0 60 61" version="1.1" xmlns="http://www.w3.org/2000/svg" xmlns:xlink="http://www.w3.org/1999/xlink">
    <!-- Generator: Sketch 63.1 (92452) - https://sketch.com -->
    <title>webthings</title>
    <desc>Created with Sketch.</desc>
    <g id="webthings" stroke="none" stroke-width="1" fill="none" fill-rule="evenodd" transform="translate(0.000000, 1.000000)">
        <path d="M31.7539141,47.3191489 C32.8513888,47.3191489 33.7410678,48.208828 33.7410678,49.3063027 C33.7410678,50.3560611 32.9270704,51.2157002 31.8958285,51.288467 L31.7539141,51.2934564 L28.2211963,51.2934564 C27.1237216,51.2934564 26.2340426,50.4037774 26.2340426,49.3063027 C26.2340426,48.2565443 27.04804,47.3969051 28.0792819,47.3241383 L28.2211963,47.3191489 L31.7539141,47.3191489 Z M33.4142914,42.6382979 C34.5117662,42.6382979 35.4014452,43.5279769 35.4014452,44.6254516 C35.4014452,45.67521 34.5874477,46.5348492 33.5562059,46.607616 L33.4142914,46.6126054 L26.3488559,46.6126054 C25.2513812,46.6126054 24.3617021,45.7229263 24.3617021,44.6254516 C24.3617021,43.5756932 25.1756996,42.7160541 26.2069415,42.6432873 L26.3488559,42.6382979 L33.4142914,42.6382979 Z M19.5997918,12.5877543 C25.204466,6.98308015 34.2914383,6.98308015 39.8961125,12.5877543 C45.5007867,18.1924285 45.5007867,27.2794008 39.8961125,32.884075 L39.8961125,32.884075 L39.6076965,33.1752349 C36.8650167,35.9708716 35.4364646,38.2163133 35.2539136,39.751036 L35.2539136,39.751036 L35.0454655,41.5034779 L24.4504389,41.5034779 L24.2419908,39.751036 C24.0531449,38.1633918 22.5308853,35.8151685 19.5997918,32.884075 L19.5997918,32.884075 L19.3922438,32.672281 C13.9959934,27.0527706 14.0651761,18.1223701 19.5997918,12.5877543 Z M37.0858528,15.3980141 C33.0332422,11.3454036 26.4626622,11.3454036 22.4100516,15.3980141 C18.3574411,19.4506247 18.3574411,26.0212047 22.4100516,30.0738153 C25.1499707,32.8137343 26.9402961,35.2502677 27.7450648,37.4681538 L27.7450648,37.4681538 L27.7660221,37.5292321 L31.7285883,37.5292321 L31.7508396,37.4681538 C32.5234175,35.3389832 34.2042845,33.0083072 36.7616228,30.4011547 L36.7616228,30.4011547 L37.0858528,30.0738153 C41.1384633,26.0212047 41.1384633,19.4506247 37.0858528,15.3980141 Z" fill="#000000" fill-rule="nonzero"></path>
    </g>
</svg>